<?xml version="1.0" encoding="utf-8"?>
<!-- Generator: Adobe Illustrator 15.0.2, SVG Export Plug-In . SVG Version: 6.00 Build 0)  -->
<!DOCTYPE svg PUBLIC "-//W3C//DTD SVG 1.1//EN" "http://www.w3.org/Graphics/SVG/1.1/DTD/svg11.dtd">
<svg version="1.1" id="Layer_1" xmlns="http://www.w3.org/2000/svg" xmlns:xlink="http://www.w3.org/1999/xlink" x="0px" y="0px"
	 width="595.28px" height="841.89px" viewBox="0 0 595.28 841.89" enable-background="new 0 0 595.28 841.89" xml:space="preserve">
<rect x="339.392" y="738.506" fill="none" width="187.28" height="63.256"/>
<text transform="matrix(1 0 0 1 339.3916 742.7656)"><tspan x="0" y="0" font-family="'MyriadPro-It'" font-size="6">Manometric sub-classification </tspan><tspan x="73.126" y="0" font-family="'MyriadPro-Regular'" font-size="6">(use is unvalidated) </tspan><tspan x="0" y="7.2" font-family="'MyriadPro-Regular'" font-size="6">Type I- achalasia with minimal esophageal pressure</tspan><tspan x="0" y="14.4" font-family="'MyriadPro-Regular'" font-size="6">Type II- achalasia with esophageal compression- more likely to respond to </tspan><tspan x="0" y="21.601" font-family="'MyriadPro-Regular'" font-size="6">botulinum toxin, pneumatic dilation, or Heller myotomy than others</tspan><tspan x="0" y="28.8" font-family="'MyriadPro-Regular'" font-size="6">Type III-achalasia with spasm. than type I or type II patients. </tspan><tspan x="0" y="43.2" font-family="'MyriadPro-BoldIt'" font-size="6">Endoscopy</tspan><tspan x="28.008" y="43.2" font-family="'MyriadPro-Regular'" font-size="6"> —</tspan><tspan x="0" y="50.4" font-family="'MyriadPro-Regular'" font-size="6">Needed to rule out malignancy</tspan></text>
<rect x="59.876" y="65.144" fill="none" width="252.667" height="96.768"/>
<text transform="matrix(1 0 0 1 59.8765 75.084)"><tspan x="0" y="0" fill="#ED1C24" font-family="'MyriadPro-BoldIt'" font-size="14">Aetiology</tspan><tspan x="0" y="9.601" font-family="'MyriadPro-BoldIt'" font-size="8">Primary Achalasia m</tspan><tspan x="70.951" y="9.601" font-family="'MyriadPro-Regular'" font-size="8">ay be autoimmune.</tspan><tspan x="0" y="19.2" font-family="'MyriadPro-Regular'" font-size="8">Primary achalasia can be associated with HLA-DQw1  antibodies to enteric </tspan><tspan x="0" y="28.801" font-family="'MyriadPro-Regular'" font-size="8">neurons.</tspan><tspan x="0" y="38.4" font-family="'MyriadPro-Regular'" font-size="8">Primary achalasia may also be related to previous infection with HSV or </tspan><tspan x="0" y="48" font-family="'MyriadPro-Regular'" font-size="8">measles.</tspan><tspan x="0" y="57.601" font-family="'MyriadPro-BoldIt'" font-size="8">Secondary causes are also known as pseudoachalasia.</tspan><tspan x="0" y="67.2" font-family="'MyriadPro-BoldIt'" font-size="8">Chagas disease </tspan><tspan x="54.47" y="67.2" font-family="'MyriadPro-Regular'" font-size="8">can result in a loss of intramural ganglion cells.</tspan><tspan x="0" y="76.801" font-family="'MyriadPro-BoldIt'" font-size="8">Malignancy</tspan><tspan x="40.599" y="76.801" font-family="'MyriadPro-Regular'" font-size="8"> is the most common cause of pseudoachalasia either by direct </tspan><tspan x="0" y="86.4" font-family="'MyriadPro-Regular'" font-size="8">compression/ paraneoplastic.</tspan></text>
<g>
	<g>
		<path d="M219.554,357.881c4.588,4.488,7.846,10.511,11.491,15.746c2.974,4.271,7.476,12.325,13.162,13.312
			c6.075,1.055,10.474-10.941,12.232-14.916c3.931-8.888,10.096-15.399,16.397-22.68c2.628-3.037,3.625-6.027,7.644-7.429
			c2.385-0.832,4.903,0.282,7.203-0.443c2.554-0.805,3.895-6.694,5.18-8.764c2.156-3.473,4.477-6.577,4.55-10.82
			c0.1-5.88,0.026-11.44-4.393-15.966c-4.721-4.837-15.325-0.938-15.997-9.797c0.002,1.637,0.004,3.273,0.006,4.911
			c0.102-3.155-0.218-3.743,2.49-4.178c1.781-0.286,3.169-1.916,4.164-3.265c1.304-1.769,1.267-3.908,1.272-5.98
			c0.005-1.821,0.097-3.484-0.519-5.222c-1.194-3.373-7.637-0.767-8.208-3.259c-0.493-2.158-1.585-4.348-2.495-6.357
			c-0.09-0.222-0.206-0.43-0.348-0.621c0.939,1.389,0.515-0.051,1.137-1.542c0.918-2.2,2.224-4.248,3.229-6.411
			c1.049-2.257,1.323-4.166,1.323-6.551c0-1.683-0.58-3.355-0.606-4.899c-0.004,1.553-0.008,3.105-0.013,4.659
			c3.833-8.637,17.419-2.619,23.509-1.062c3.238,0.828,6.583,1.459,7.62,5.035c1.01,3.481,0.319,8.282,0.185,11.759
			c-0.115,2.95-0.498,5.85-1.076,8.74c-1.072,5.37-3.816,9.981-5.919,14.96c-1.675,3.963-2.517,8.326-2.769,12.607
			c-0.379,6.419-0.378,12.897-0.314,19.328c0.065,6.456,1.833,10.813,7.637,14.154c2.459,1.416,5.239,2.329,7.764,3.657
			c2.402,1.264,4.717,2.898,7.337,3.653c4.227,1.218,8.704,0.908,12.329,3.73c6.547,5.101,8,15.451,9.366,23.041
			c2.145,11.91,5.527,23.388,5.668,35.601c0.021,1.891,0.042-2.936,0.035-3.535c-0.133-11.546-2.985-22.239-5.069-33.499
			c-1.691-9.143-2.744-19.956-10-26.607c-3.477-3.187-9.221-2.835-13.521-4.074c-2.611-0.752-5.285-2.857-7.693-4.124
			c-2.811-1.479-5.762-2.45-8.432-4.204c-7.868-5.169-5.719-18.726-4.631-26.428c0.813-5.752,3.483-10.651,5.838-15.861
			c2.086-4.618,3.09-9.776,3.378-14.815c0.417-7.295,0.731-14.947,0.038-22.227c-0.391-4.099-4.338-5.127-7.77-5.891
			c-5.328-1.185-10.809-4.097-16.351-3.249c-3.077,0.471-7.159,1.981-7.18,5.548c-0.012,2.138,0.565,4.158,0.603,6.161
			c0.004-1.553,0.008-3.105,0.013-4.659c-1.14,4.936-5.363,9.315-5.725,14.357c-0.181,2.529-0.175,5.081,0.003,7.609
			c0.002,0.03,0.004,0.06,0.007,0.089c-0.052,0.054,2.634,6.124,2.893,6.926c0.464,1.44,3.778,1.106,4.924,1.173
			c2.475,0.143,3.482,1.889,3.779,4.144c-0.002-1.637-0.004-3.274-0.007-4.911c-0.158,2.761-1.412,4.756-3.527,6.437
			c-0.836,0.665-1.846,0.878-2.865,1.042c-1.584,0.254-1.421,1.25-1.477,2.966c-0.087,2.693-0.302,5.531,0.247,8.183
			c0.902,4.36,7.169,4.619,10.571,5.32c6.086,1.254,9.048,6.673,9.53,12.517c-0.008-1.055-0.016-2.109-0.024-3.165
			c-0.001,0.409-0.002,0.818-0.004,1.227c0.008-0.612,0.016-1.224,0.024-1.835c-0.578,6.135-5.207,11.896-7.971,17.326
			c-1.775,3.486-6.997,1.677-10.203,2.796c-2.304,0.804-3.449,2.893-4.712,4.805c-2.018,3.055-4.856,5.594-7.221,8.372
			c-4.462,5.24-8.105,10.203-10.854,16.495c-2.151,4.924-4.485,10.556-8.925,13.857c-3.489,2.594-6.709-0.377-9.138-2.868
			c-7.324-7.512-11.348-17.82-18.822-25.131C220.367,353.677,218.702,357.048,219.554,357.881L219.554,357.881z"/>
	</g>
</g>
<g>
	<g>
		<path d="M212.41,372.588c2.99,9.283,11.47,15.37,17.013,23.067c2.667,3.703,5.536,7.432,9.742,9.438
			c3.72,1.775,8.003-0.316,11.106-2.394c13.585-9.099,14.687-28.798,25.587-40.196c-0.453,0.473,0.221,6.085,0.315,7.301
			c0.348,4.495,4.612,7.827,6.093,11.956c0.226,1.36,0.329,1.452,0.31,0.275c-0.119,1.14-0.37,2.277-0.572,3.404
			c-0.355,1.978-0.661,4.005-0.695,6.02c-0.034,1.974-0.249,4.209,0.104,6.162c0.405,2.238,1.204,4.249,2.035,6.356
			c1.002,2.541,0.244,4.809-0.222,7.393c-0.703,3.899-1.122,7.885-1.146,11.849c-0.048,8.229,0.868,15.344,6.805,21.642
			c-0.813-0.863,0.849-4.099,0-5c-3.382-3.587-5.474-7.497-6.408-12.343c-1.088-5.647,1.114-11.851,1.793-17.469
			c0.249-2.063,0.125-4.257,0.09-6.331c-0.072-4.232-3.178-7.806-2.569-12.011c0.708-4.888,1.69-10.039,0.476-14.946
			c-1.104-4.463-5.353-7.313-6.093-11.956c-0.366-2.295-0.084-4.916-0.315-7.301c0.046,0.481-2.651,3.168-3.038,3.711
			c-1.027,1.44-1.901,2.989-2.763,4.53c-2.097,3.752-3.847,7.701-5.687,11.583c-3.524,7.433-7.344,15.339-14.1,20.372
			c-8.263,6.155-14.83,0.993-20.101-6.022c-5.846-7.781-14.711-14.626-17.76-24.089C212.893,369.086,211.92,371.068,212.41,372.588
			L212.41,372.588z"/>
	</g>
</g>
<g>
	<g>
		<path d="M338.467,405.825c-1.517-10.038-4.898-19.594-8.732-28.956c-2.645-6.459-5.214-13.566-9.484-19.164
			c-2.941-3.854-7.82-4.11-10.487,0.003c-2.585,3.987-2.817,9.646-3.108,14.234c-0.258,4.062-0.212,8.154-0.176,12.222
			c0.066,7.275-3.186,14.451-4.553,21.676c-0.789,4.167-0.652,8.799-0.274,13.011c0.409,4.559,2.711,8.785,3.737,13.207
			c1.011,4.351-1.251,10.088-1.385,14.613c-0.043,1.508,0.049,3.643,0.014,4.822c0.199-6.755,1.777-13.306,1.738-20.084
			c-0.039-6.521-4.689-12.592-4.063-18.991c0.801-8.174,4.6-15.647,4.846-23.954c0.115-3.903-0.074-7.797,0.129-11.701
			c0.254-4.895,0.752-10.443,3.485-14.658c3.01-4.641,8.192-1.896,10.783,1.499c3.987,5.225,6.296,12.272,8.798,18.264
			c3.891,9.317,7.22,18.944,8.732,28.956C338.221,409.202,338.713,407.459,338.467,405.825L338.467,405.825z"/>
	</g>
</g>
<g>
	<g>
		<path d="M193.921,360.823c2.798,6.915,6.693,14.583,11.852,20.046c4.725,5.004,8.032-9.499,8.991-12.026
			c2.563-6.752,9.348-10.871,13.493-16.534c2.451-3.349,2.141-7.297,1.998-11.214c-0.083-2.275-2.167-4.331-3.438-6.033
			c-1.849-2.476-2.95-5.244-4.224-8.028c-2.094-4.581-5.637-9.756-9.788-4.153c-2.975,4.016-4.34,9.097-6.453,13.571
			c-3.605,7.633-9.711,13.792-14.531,20.633c-0.797,1.131,0.772,3.905,0,5c4.76-6.755,10.421-12.811,14.287-20.169
			c2.265-4.312,3.648-8.999,6.155-13.208c3.18-5.34,6.627-3.466,9.287,1.232c1.336,2.361,2.204,4.956,3.467,7.353
			c1.658,3.146,5.158,5.711,5.247,9.495c0.004-1.553,0.008-3.105,0.012-4.659c-0.88,5.78-5.861,9.598-9.745,13.539
			c-4.759,4.83-6.28,10.287-8.732,16.385c-1.96,4.875-4.136,6.316-7.685,1.896c-4.242-5.282-7.66-11.872-10.191-18.126
			C194.495,357.241,193.337,359.379,193.921,360.823L193.921,360.823z"/>
	</g>
</g>
<g>
	<g>
		<path d="M203.166,346.116c3.006,0.228,4.932-0.536,6.78-2.941c-0.626,0.815,2.72,1.637,2.972,1.665
			c1.635,0.178,2.787-1.781,3.409-2.925c-0.32,0.588,2.397,1.972,2.794,2.127c1.447,0.567,2.113-1.717,2.391-2.548
			c-0.299,0.896,1.927,1.947,2.501,2.105c1.446,0.4,2.385-2.598,2.684-3.366c0.568-1.459-0.558-3.566,0-5
			c-0.865,2.222-1.966,4.409-4.333,2.448c-1.762-1.46-0.64-0.905-1.81,0.881c-0.838,1.277-2.504-0.019-3.228-0.568
			c-1.82-1.384-0.99-0.631-2.438,0.971c-1.149,1.272-2.746,0.905-4.023,0.221c-0.306-0.336-0.612-0.673-0.918-1.01
			c-0.483,0.784-1.099,1.442-1.847,1.977c-1.335,1.158-3.313,1.087-4.933,0.964C203.254,341.123,203.003,346.104,203.166,346.116
			L203.166,346.116z"/>
	</g>
</g>
<rect x="180.896" y="269.243" fill="none" width="50.002" height="13.446"/>
<text transform="matrix(1 0 0 1 180.896 274.6133)" font-family="'MyriadPro-BoldIt'" font-size="7.5634">BURP</text>
<g>
	<g>
		<path d="M271.237,286.491c-9.238,5.033-18.036,10.897-27.748,15.016c-10.421,4.42-21.172,5.082-32.216,3.006
			c-10.189-1.916-20.231-5.884-29.904-9.565c-4.033-1.535-7.516-3.708-9.069-7.869c-1.838-4.922-1.821-11.944-1.001-17.121
			c1.423-8.978,11.48-13.222,19.635-13.372c8.491-0.156,16.181,5.306,22.555,10.292c7.154,5.596,13.58,12.314,22.093,15.842
			c5.002,2.074,10.459,2.999,15.643,4.506c6.08,1.768,11.837,4.858,18.331,3.845c0.291-0.045-0.217-4.966,0-5
			c-6.405,0.999-12.354-1.948-18.331-3.845c-5.718-1.815-11.599-2.829-17.167-5.137c-8.974-3.719-16.03-11.912-23.734-17.624
			c-7.564-5.608-16.221-9.429-25.705-7.017c-4.742,1.206-9.348,4.015-11.878,8.252c-1.951,3.266-1.903,7.582-1.94,11.263
			c-0.072,7.19-0.795,15.96,2.532,22.469c2,3.911,8.023,5.589,11.812,6.862c5.815,1.954,11.506,4.244,17.376,6.035
			c12.2,3.721,24.377,4.675,36.636,0.791c11.496-3.643,21.58-10.909,32.081-16.63C271.966,291.094,270.566,286.856,271.237,286.491
			L271.237,286.491z"/>
	</g>
</g>
<rect x="373.65" y="296.131" fill="none" width="186.35" height="110.869"/>
<text transform="matrix(1 0 0 1 373.6504 306.0703)"><tspan x="0" y="0" fill="#ED1C24" font-family="'MyriadPro-BoldIt'" font-size="14">Clinical Presentations:</tspan><tspan x="0" y="9.601" font-family="'MyriadPro-BoldIt'" font-size="8">Dysphagia</tspan><tspan x="37.199" y="9.601" font-family="'MyriadPro-Regular'" font-size="8"> for solids (91 %) and liquids (85 %)- the </tspan><tspan x="0" y="19.2" font-family="'MyriadPro-Regular'" font-size="8">latter is v. suggestive for achalasia.</tspan><tspan x="0" y="28.801" font-family="'MyriadPro-BoldIt'" font-size="8">Difficulty belching</tspan><tspan x="62.48" y="28.801" font-family="'MyriadPro-Regular'" font-size="8">-occurs in 85%.</tspan><tspan x="0" y="38.4" font-family="'MyriadPro-BoldIt'" font-size="8">Hiccoughs.</tspan><tspan x="0" y="48" font-family="'MyriadPro-BoldIt'" font-size="8">Heartburn</tspan><tspan x="35.936" y="48" font-family="'MyriadPro-Regular'" font-size="8"> (often preceedes dysphagia).</tspan><tspan x="0" y="57.601" font-family="'MyriadPro-BoldIt'" font-size="8">Weight loss</tspan><tspan x="39.512" y="57.601" font-family="'MyriadPro-Regular'" font-size="8">- this is usually in the range of 5 to 10 kg, </tspan><tspan x="0" y="67.2" font-family="'MyriadPro-Regular'" font-size="8">although profound weight loss can be seen.</tspan><tspan x="0" y="76.801" font-family="'MyriadPro-BoldIt'" font-size="8">Regurgitation and aspiration.</tspan><tspan x="0" y="86.4" font-family="'MyriadPro-BoldIt'" font-size="8">Chest pain</tspan><tspan x="36.312" y="86.4" font-family="'MyriadPro-Regular'" font-size="8"> (usually younger patients and can diminish </tspan><tspan x="0" y="96" font-family="'MyriadPro-Regular'" font-size="8">over years- doesnt improve with dilatation).</tspan></text>
<rect x="168.594" y="433.852" fill="none" width="164.816" height="59.648"/>
<text transform="matrix(1 0 0 1 168.5942 443.791)"><tspan x="0" y="0" fill="#ED1C24" font-family="'MyriadPro-BoldIt'" font-size="14">Associations:</tspan><tspan x="0" y="9.601" font-family="'MyriadPro-Regular'" font-size="8">Adrenal glucocorticoid deficiency and alacrima </tspan><tspan x="0" y="19.2" font-family="'MyriadPro-Regular'" font-size="8">(triple A syndrome or Allgrove syndrome).</tspan><tspan x="0" y="28.801" font-family="'MyriadPro-Regular'" font-size="8">SCC esophageal cancer (x16 risk).</tspan><tspan x="0" y="38.4" font-family="'MyriadPro-Regular'" font-size="8">Cancer-this is diagnosed an average of 14 years </tspan><tspan x="0" y="48" font-family="'MyriadPro-Regular'" font-size="8">after the diagnosis of achalasia.</tspan></text>
<rect x="10.723" y="525.022" fill="none" stroke="#000000" stroke-width="1.6543" width="576.277" height="306.978"/>
<rect x="218.433" y="16.896" fill="none" width="120.567" height="30.116"/>
<text transform="matrix(1 0 0 1 218.4331 33.9355)" font-family="'MyriadPro-BoldIt'" font-size="24">Achalasia</text>
<path fill="none" stroke="#000000" stroke-width="4" stroke-linecap="round" d="M271.341,295.574
	c-4.706-0.591-7.386,4.687-8.782,8.402c-1.468,3.908-2.216,7.9-3.26,11.911c-0.51,1.959-1.347,3.805-1.194,5.844"/>
<path fill="none" stroke="#000000" stroke-width="4" stroke-linecap="round" d="M271.657,298.41
	c-1.105-0.085-2.032,0.49-2.843,1.259c-2.571,2.437-4.59,8.791-6.057,11.946c-1.783,3.834-2.422,6.908-2.445,11.061"/>
<path fill="none" stroke="#000000" stroke-width="4" stroke-linecap="round" d="M273.547,298.725
	c-0.78,1.567-2.582,2.833-3.671,4.297c-2.005,2.699-3.141,5.789-4.014,9.003c-1.353,4.982-2.443,11.423-2.084,16.638"/>
<linearGradient id="SVGID_17_" gradientUnits="userSpaceOnUse" x1="283.2031" y1="355.8608" x2="305.8555" y2="355.8608">
	<stop  offset="0" style="stop-color:#FFFFFF"/>
	<stop  offset="1" style="stop-color:#000000"/>
</linearGradient>
<polygon fill="url(#SVGID_17_)" stroke="#000000" stroke-width="4" points="301.872,366.362 294.777,362.862 287.873,366.723 
	289.008,358.894 283.203,353.519 291,352.181 294.317,344.999 298,352 305.855,352.936 300.334,358.602 "/>
<rect x="180.652" y="280.212" fill="none" width="39.706" height="7.563"/>
<text transform="matrix(1 0 0 1 180.6519 285.5825)" font-family="'MyriadPro-BoldIt'" font-size="7.5634">HICCOUGH</text>
<rect x="223.298" y="191.238" fill="none" width="136.202" height="55.75"/>
<text transform="matrix(1 0 0 1 223.2979 201.1777)"><tspan x="0" y="0" fill="#ED1C24" font-family="'MyriadPro-BoldIt'" font-size="14">Epidemiology</tspan><tspan x="0" y="9.6" font-family="'MyriadPro-Regular'" font-size="8">The incidence is 1 case per 100,000.</tspan><tspan x="0" y="19.2" font-family="'MyriadPro-Regular'" font-size="8">M=F.</tspan><tspan x="0" y="28.8" font-family="'MyriadPro-Regular'" font-size="8">Achalasia occurs at virtually any age, but </tspan><tspan x="0" y="38.4" font-family="'MyriadPro-Regular'" font-size="8">in pre-adolescence it is unusual.</tspan></text>
<rect x="11.022" y="56.02" fill="none" stroke="#000000" width="573.978" height="457.98"/>
<path fill="none" stroke="#000000" d="M146.783,587.228c14.004-19.682,50.713-17.146,52.911,10.095
	c0.786,9.744-4.201,14.336-11.134,20.039c-8.316,6.842-7.713,13.668-7.244,24.257"/>
<path fill="none" stroke="#000000" d="M175.273,643.345c-0.351-6.192,0.801-13.099,0.226-20.007c0-0.575-0.576-1.727-1.151-1.727
	c-5.181,0-11.512,2.303-15.541-2.878c-3.454-5.181-1.727-11.512,2.878-15.54c1.151-0.576,1.727-0.576,2.878-1.728
	c1.727-1.151,4.029-0.575,6.026-0.802"/>
<path fill="none" stroke="#000000" d="M173.781,624.413c-7.109-1.262-7.109,8.738-13.109,9.738c-17,1-18-18-16.729-31"/>
<path fill="none" stroke="#000000" stroke-width="0.9724" d="M167.503,600.825c6.921-4.115,5.183-11.747,5.18-18.777"/>
<path fill="none" stroke="#000000" stroke-width="0.9443" d="M170.669,600.897c1.866-5.832,9.751-1.183,14.677-1.54"/>
<path fill="none" stroke="#000000" stroke-width="0.8075" d="M181.316,636.42c4.215-0.389,14.986,2.578,18.488,3.993
	c9.615,3.887,12.982,12.815,15.597,19.378c2.385,5.988,0.378,13.004,3.014,18.729c1.747,3.794,11.056,6.932,15.565,2.939"/>
<path fill="none" stroke="#000000" stroke-width="0.8075" d="M216.714,671.887c2.671-5.738-1.105-15.218,10.359-18.015"/>
<path fill="none" stroke="#000000" stroke-width="0.8075" d="M217.577,672.451c3.467,0.392,6.775-0.441,9.496-1.689"/>
<path fill="none" stroke="#000000" d="M146.922,596.887c-0.189,1.213-1.803,2.493-2.3,3.688c-0.573,1.378-0.813,2.847-0.825,4.437"
	/>
<rect x="49.381" y="653.872" fill="none" stroke="#000000" stroke-width="0.5748" width="137.334" height="21.063"/>
<rect x="49.381" y="676.603" fill="none" stroke="#000000" stroke-width="0.5748" width="137.334" height="25.333"/>
<rect x="49.381" y="703.27" fill="none" stroke="#000000" stroke-width="0.8103" width="137.334" height="50.333"/>
<line fill="none" stroke="#ED1C24" stroke-width="0.8103" x1="174.348" y1="658.24" x2="209.458" y2="658.24"/>
<line fill="none" stroke="#ED1C24" stroke-width="0.8103" x1="171.47" y1="640.67" x2="177.226" y2="640.67"/>
<line fill="none" stroke="#ED1C24" stroke-width="0.8103" x1="174.348" y1="691.02" x2="227.302" y2="691.02"/>
<line fill="none" stroke="#ED1C24" stroke-width="0.7849" x1="174" y1="727" x2="236.36" y2="719.647"/>
<g id="XMLID_1_">
	<g>
		<path fill="#544841" d="M327.742,762.751c2.896,11.337,8.576,45.041-6.562,48.946l-70.798-36.099
			c3.701-9.845,2.896-19.954,4.921-29.985c2.072-10.272-3.545-15.152-9.388-23.342c-6.688-9.382-11.575-18.131-12.548-30.022
			c-3.125-38.121-10.154-80.81-4.57-118.834l39.716,0.902c-0.766,14.936,1.772,30.046,1.727,45.029
			c-0.035,12.065,0.063,24.137-0.006,36.202c-0.126,22.307-8.53,42.225-10.464,64.213c-0.789,8.996,0.075,16.193,1.105,25.009
			c8.047-0.95,10.067-6.463,15.696-11.259c5.445-4.646,13.342-6.084,20.284-4.91C310.647,730.918,324.341,749.41,327.742,762.751z"
			/>
	</g>
	<g>
		<path fill="none" stroke="#000000" stroke-width="1.0225" d="M228.798,573.415c-5.583,38.024,1.445,80.713,4.57,118.834
			c0.973,11.892,5.859,20.641,12.548,30.022c5.842,8.189,11.46,13.069,9.388,23.342c-2.026,10.031-1.22,20.141-4.921,29.985"/>
		<path fill="none" stroke="#000000" stroke-width="1.0225" d="M268.514,574.317c-0.766,14.936,1.772,30.046,1.727,45.029
			c-0.035,12.065,0.063,24.137-0.006,36.202c-0.126,22.307-8.53,42.225-10.464,64.213c-0.789,8.996,0.075,16.193,1.105,25.009
			c8.047-0.95,10.067-6.463,15.696-11.259c5.445-4.646,13.342-6.084,20.284-4.91c13.792,2.316,27.485,20.809,30.886,34.149
			c2.896,11.337,8.576,45.041-6.562,48.946"/>
		<line fill="none" stroke="#FFFFFF" stroke-width="0.8026" x1="321.181" y1="811.697" x2="250.383" y2="775.599"/>
		<line fill="none" stroke="#FFFFFF" stroke-width="0.8026" x1="268.514" y1="574.317" x2="228.798" y2="573.415"/>
	</g>
</g>
<ellipse fill="#FFFFFF" stroke="#000000" stroke-width="0.8075" cx="247.793" cy="718.023" rx="6.907" ry="6.476"/>
<ellipse stroke="#000000" stroke-width="0.8075" cx="248.408" cy="718.522" rx="2.492" ry="2.729"/>
<ellipse fill="#FFFFFF" stroke="#000000" stroke-width="0.8075" cx="233.98" cy="681.762" rx="6.907" ry="6.475"/>
<ellipse stroke="#000000" stroke-width="0.8075" cx="233.636" cy="683.561" rx="2.493" ry="2.73"/>
<rect x="339.392" y="651.137" fill="none" width="67.922" height="12.25"/>
<text transform="matrix(1 0 0 1 339.3916 656.8164)" font-family="'MyriadPro-BoldIt'" font-size="8">a) Aperistalsis</text>
<rect x="339.392" y="722.262" fill="none" width="138" height="11.5"/>
<text transform="matrix(1 0 0 1 339.3916 727.9414)" font-family="'MyriadPro-BoldIt'" font-size="8">c) LES hypertension</text>
<rect x="339.392" y="678.262" fill="none" width="115.359" height="24"/>
<text transform="matrix(1 0 0 1 339.3916 683.9414)"><tspan x="0" y="0" font-family="'MyriadPro-BoldIt'" font-size="8">b) Incomplete relaxation </tspan><tspan x="0" y="9.6" font-family="'MyriadPro-BoldIt'" font-size="8">(&gt;45mmHg)</tspan></text>
<line fill="none" stroke="#ED1C24" stroke-width="0.8692" x1="268.169" y1="607.573" x2="277.953" y2="607.573"/>
<line fill="none" stroke="#ED1C24" x1="267.018" y1="656.498" x2="332.172" y2="656.498"/>
<rect x="280.672" y="538.762" fill="none" width="144" height="95"/>
<text transform="matrix(1 0 0 1 280.6719 543.0215)"><tspan x="0" y="0" font-family="'MyriadPro-BoldIt'" font-size="6">AXR</tspan><tspan x="10.62" y="0" font-family="'MyriadPro-Regular'" font-size="6">- Dilated oesophagus. No gastric bubble</tspan><tspan x="0" y="14.4" font-family="'MyriadPro-BoldIt'" font-size="6">Radiographic studies</tspan><tspan x="54.468" y="14.4" font-family="'MyriadPro-Regular'" font-size="6"> — </tspan><tspan x="0" y="21.6" font-family="'MyriadPro-Regular'" font-size="6">Accuracy- 95 %. </tspan><tspan x="0" y="28.801" font-family="'MyriadPro-Regular'" font-size="6">Beak-like narrowing of distal oesophagus</tspan><tspan x="0" y="36" font-family="'MyriadPro-Regular'" font-size="6">If progresses, the oesophagus becomes sigmoid</tspan><tspan x="0" y="43.2" font-family="'MyriadPro-Regular'" font-size="6">Sometimes get purposeless, spastic oesophageal </tspan><tspan x="0" y="50.4" font-family="'MyriadPro-Regular'" font-size="6">contractions (=vigorous achalasia)</tspan></text>
<line fill="none" stroke="#ED1C24" x1="258.959" y1="717.223" x2="329.668" y2="686.666"/>
<rect x="179.665" y="551.332" fill="none" width="66.007" height="12.43"/>
<text transform="matrix(1 0 0 1 179.6646 561.2715)" fill="#ED1C24" font-family="'MyriadPro-BoldIt'" font-size="14">Diagnosis</text>
<rect x="340.5" y="66.333" fill="none" width="164.5" height="91.5"/>
<text transform="matrix(1 0 0 1 340.5 76.2734)"><tspan x="0" y="0" fill="#ED1C24" font-family="'MyriadPro-BoldIt'" font-size="14">Other causes of achalasia:</tspan><tspan x="0" y="9.6" font-family="'MyriadPro-Regular'" font-size="8">Amyloidosis.</tspan><tspan x="0" y="19.2" font-family="'MyriadPro-Regular'" font-size="8">Sarcoidosis.</tspan><tspan x="0" y="28.8" font-family="'MyriadPro-Regular'" font-size="8">Neurofibromatosis.</tspan><tspan x="0" y="38.4" font-family="'MyriadPro-Regular'" font-size="8">Eosinophilic gastroenteritis.</tspan><tspan x="0" y="48" font-family="'MyriadPro-Regular'" font-size="8">MEN type 2B.</tspan><tspan x="0" y="57.6" font-family="'MyriadPro-Regular'" font-size="8">Juvenile Sjögren&apos;s syndrome.</tspan><tspan x="0" y="67.2" font-family="'MyriadPro-Regular'" font-size="8">Chronic idiopathic intestinal pseudo-obstruction.</tspan><tspan x="0" y="76.8" font-family="'MyriadPro-Regular'" font-size="8">Fabry disease.</tspan></text>
<rect x="333.335" y="609.334" fill="none" stroke="#ED1C24" width="193.337" height="192.428"/>
<rect x="339.392" y="614" fill="none" width="190.996" height="22.666"/>
<text transform="matrix(1 0 0 1 339.3916 618.2598)"><tspan x="0" y="0" font-family="'MyriadPro-BoldIt'" font-size="6">Manometry</tspan><tspan x="30.264" y="0" font-family="'MyriadPro-Regular'" font-size="6"> —</tspan><tspan x="0" y="7.2" font-family="'MyriadPro-Regular'" font-size="6">Can’t discriminate achalasia from pseudoachalasia.</tspan><tspan x="0" y="14.4" font-family="'MyriadPro-Regular'" font-size="6">3 characteristic manometric features:</tspan></text>
<rect fill="none" stroke="#010101" stroke-width="3" width="595.28" height="841.89"/>
<rect x="169.587" y="495" fill="none" width="154.5" height="8"/>
<text transform="matrix(1 0 0 1 169.5874 500.6797)" font-family="'MyriadPro-Regular'" font-size="8">Risk is too small to warrant surveillance.</text>
<rect x="59.359" y="641.603" fill="none" width="106.5" height="118.397"/>
<text transform="matrix(1 0 0 1 59.3594 651.542)"><tspan x="0" y="0" fill="#ED1C24" font-family="'MyriadPro-BoldIt'" font-size="14">Pathophysiology</tspan><tspan x="0" y="7.2" font-family="'MyriadPro-Regular'" font-size="6">Occasionally degenerative changes found </tspan><tspan x="0" y="14.4" font-family="'MyriadPro-Regular'" font-size="6">in the ganglion cells of the vagal dorsal </tspan><tspan x="0" y="21.601" font-family="'MyriadPro-Regular'" font-size="6">motor nucleus in the brainstem.</tspan><tspan x="0" y="36" font-family="'MyriadPro-Regular'" font-size="6">Wallerian degeneration is seen in the </tspan><tspan x="0" y="43.2" font-family="'MyriadPro-Regular'" font-size="6">vagal fibers that supply the oesophagus.</tspan><tspan x="0" y="57.601" font-family="'MyriadPro-Regular'" font-size="6">Decreased numbers of inhibitory neurons </tspan><tspan x="0" y="64.801" font-family="'MyriadPro-Regular'" font-size="6">(ganglion cells) are seen in the myenteric </tspan><tspan x="0" y="72" font-family="'MyriadPro-Regular'" font-size="6">plexuses with the remainder being </tspan><tspan x="0" y="79.2" font-family="'MyriadPro-Regular'" font-size="6">inflamed so the LES cant relax, and </tspan><tspan x="0" y="86.4" font-family="'MyriadPro-Regular'" font-size="6">oesophageal body cant move.</tspan><tspan x="0" y="93.601" font-family="'MyriadPro-Regular'" font-size="6">The cholinergic neurons (which cause </tspan><tspan x="0" y="100.801" font-family="'MyriadPro-Regular'" font-size="6">contraction) are spared.</tspan></text>
<a xlink:href="http://www.gastroenterologybook.com/" >
	<rect x="433.606" y="811.282" fill="none" width="144.773" height="11.333"/>
	<text transform="matrix(1 0 0 1 433.6064 819.8018)" fill="#00A651" font-family="'MyriadPro-Regular'" font-size="12">Written by Dr Sebastian Zeki</text>
</a>
</svg>
