<?xml version="1.0" encoding="utf-8"?>
<!-- Generator: Adobe Illustrator 15.0.2, SVG Export Plug-In . SVG Version: 6.00 Build 0)  -->
<!DOCTYPE svg PUBLIC "-//W3C//DTD SVG 1.1//EN" "http://www.w3.org/Graphics/SVG/1.1/DTD/svg11.dtd">
<svg version="1.1" id="Layer_1" xmlns="http://www.w3.org/2000/svg" xmlns:xlink="http://www.w3.org/1999/xlink" x="0px" y="0px"
	 width="595.28px" height="841.89px" viewBox="0 0 595.28 841.89" enable-background="new 0 0 595.28 841.89" xml:space="preserve">
<pattern  width="25.5" height="19.5" patternUnits="userSpaceOnUse" id="New_Pattern_Swatch_1" viewBox="0 -19.5 25.5 19.5" overflow="visible">
	<g>
		<polygon fill="none" points="25.5,0 0,0 0,-19.5 25.5,-19.5 		"/>
		<path d="M6-14c0,1.657-0.784,3-1.75,3S2.5-12.343,2.5-14s0.784-3,1.75-3S6-15.657,6-14z"/>
		<path d="M14.75-12.5c0,1.657-0.784,3-1.75,3s-1.75-1.343-1.75-3s0.784-3,1.75-3S14.75-14.157,14.75-12.5z"/>
		<path d="M10.25-9.5c0,1.657-0.784,3-1.75,3s-1.75-1.343-1.75-3s0.784-3,1.75-3S10.25-11.157,10.25-9.5z"/>
		<path d="M5.75-6.5c0,1.657-0.784,3-1.75,3s-1.75-1.343-1.75-3s0.784-3,1.75-3S5.75-8.157,5.75-6.5z"/>
		<path d="M14.25-4c0,1.657-0.784,3-1.75,3s-1.75-1.343-1.75-3s0.784-3,1.75-3S14.25-5.657,14.25-4z"/>
		<path d="M16.25-11c0,1.657-0.784,3-1.75,3s-1.75-1.343-1.75-3s0.784-3,1.75-3S16.25-12.657,16.25-11z"/>
		<path d="M25-9.5c0,1.657-0.784,3-1.75,3s-1.75-1.343-1.75-3s0.784-3,1.75-3S25-11.157,25-9.5z"/>
		<path d="M20.5-9.5c0,1.657-0.784,3-1.75,3S17-7.843,17-9.5s0.784-3,1.75-3S20.5-11.157,20.5-9.5z"/>
		<path d="M16-3.5c0,1.657-0.784,3-1.75,3s-1.75-1.343-1.75-3s0.784-3,1.75-3S16-5.157,16-3.5z"/>
		<path d="M22.75-4c0,1.657-0.784,3-1.75,3s-1.75-1.343-1.75-3S20.034-7,21-7S22.75-5.657,22.75-4z"/>
	</g>
</pattern>
<path fill="none" stroke="#000000" stroke-width="2" d="M342.028,256.293c0.751,22.153-6.364,45.07-8.823,67.037
	c-3.205,28.64-3.295,57.694-3.338,86.481c-0.068,45.928-4.908,96.905,2.828,142.116c8.611,50.311,12.144,106.645,3.735,157.41
	c-3.993,24.109-7.132,47.596-7.901,71.93"/>
<g>
	<g>
		<path d="M243.081,261.274c1.484,11.01,1.63,22.097,3.803,33.038c1.186,5.971,4.23,20.506,13.359,17.997
			c11.507-3.162,9.623-22.966,6.87-31.479c-3.203-9.906-10.849-17.907-14.918-27.471c-4.551-10.697-6.06-22.463-7.183-33.936
			c-0.06-0.613-2.001-0.195-1.932,0.518c0.911,9.307,2.183,18.528,4.873,27.506c2.545,8.495,6.997,15.745,11.719,23.146
			c4.008,6.28,6.87,12.814,7.339,20.297c0.387,6.168-0.026,14.834-4.835,19.377c-8.759,8.275-13.622-17.551-14.252-21.431
			c-1.514-9.313-1.653-18.75-2.911-28.08C244.929,260.132,242.986,260.572,243.081,261.274L243.081,261.274z"/>
	</g>
</g>
<g>
	<g>
		<path d="M244.848,262.175c-0.067-2.563-0.928-5.021-1.5-7.5c-0.137-0.592-2.074-0.098-1.932,0.518
			c0.572,2.479,1.432,4.937,1.5,7.5C242.93,263.215,244.866,262.859,244.848,262.175L244.848,262.175z"/>
	</g>
</g>
<path fill="none" stroke="#000000" d="M248.05,257.683c-0.016,2.863-0.945,7.761,0.174,10.398c1.724,4.062,7.051,5.115,9.159,9.073
	c3.543,6.654,0.792,17.265,0.667,24.528"/>
<path fill="none" stroke="#000000" d="M255.383,275.017c3.318,0.792,6.627,10.44,8,14"/>
<ellipse fill="none" stroke="#000000" stroke-width="0.4615" cx="263.793" cy="298.914" rx="4.769" ry="4"/>
<ellipse stroke="#000000" stroke-width="0.4615" cx="264.101" cy="297.683" rx="1.385" ry="1.538"/>
<g>
	<line fill="none" stroke="#000000" stroke-width="0.4375" x1="248.467" y1="280.308" x2="252.55" y2="287.017"/>
	<line fill="none" stroke="#000000" stroke-width="0.4375" x1="249.925" y1="278.85" x2="254.008" y2="285.85"/>
	<line fill="none" stroke="#000000" stroke-width="0.4375" x1="250.8" y1="277.975" x2="255.467" y2="284.683"/>
	<line fill="none" stroke="#000000" stroke-width="0.4375" x1="256.05" y1="281.767" x2="250.508" y2="287.017"/>
	<line fill="none" stroke="#000000" stroke-width="0.4375" x1="254.592" y1="280.308" x2="249.925" y2="284.1"/>
	<line fill="none" stroke="#000000" stroke-width="0.4375" x1="253.425" y1="277.683" x2="248.758" y2="282.933"/>
</g>
<path fill="#8B7CB7" stroke="#000000" d="M238.382,316.684c10.317,0.311,21.483,3.809,17.437,16.176
	c-2.646,8.087-10.694,12.848-18.937,12.824"/>
<ellipse fill="none" stroke="#000000" cx="243.132" cy="321.684" rx="2.25" ry="3"/>
<ellipse fill="none" stroke="#000000" cx="250.632" cy="328.184" rx="1.75" ry="3"/>
<ellipse fill="none" stroke="#000000" cx="243.632" cy="334.184" rx="3.25" ry="4"/>
<g>
	<g>
		<path d="M237.7,355.672c6.665,0.373,23.513-8.106,26.999,0.341c4.415,10.697-18.736,12.493-24.817,14.389
			c-1.161,0.362-0.849,1.59,0.328,1.224c6.833-2.13,28.432-3.241,26.758-14.491c-1.797-12.083-21.691-2.396-28.576-2.78
			C237.51,354.306,236.39,355.6,237.7,355.672L237.7,355.672z"/>
	</g>
</g>
<g>
	<path fill="none" stroke="#000000" stroke-width="0.2985" d="M252.229,366.347c-0.58-1.065-1.182-2.064-2.054-3.115
		c-1.042-1.256-4.596-3.56-4.246-5.03"/>
	<path fill="none" stroke="#000000" stroke-width="0.2985" d="M247.562,358.542c0.264,1.42,3.465,3.035,4.645,4.257
		c0.819,0.848,0.955,1.901,1.656,2.7"/>
	<path fill="none" stroke="#000000" stroke-width="0.2985" d="M249.196,357.863c0.393,1.325,2.884,2.658,3.768,3.986
		c0.528,0.793,0.541,2.451,1.833,2.801"/>
	<path fill="none" stroke="#000000" stroke-width="0.2985" d="M251.296,357.184c-0.321,1.391,2.199,2.746,3.168,3.826
		c0.756,0.841,1.301,1.756,1.964,2.623"/>
	<path fill="none" stroke="#000000" stroke-width="0.2985" d="M249.663,366.347c1.1-1.294,2.704-2.362,4.211-3.409
		c0.91-0.632,2.729-1.329,3.255-2.021"/>
	<path fill="none" stroke="#000000" stroke-width="0.2985" d="M248.029,364.48c2.308-1.341,4.232-3.25,6.533-4.582"/>
	<path fill="none" stroke="#000000" stroke-width="0.2985" d="M246.629,363.123c1.789-1.104,6.574-2.422,7-4.242"/>
	<path fill="none" stroke="#000000" stroke-width="0.2985" d="M244.296,361.256c2.12-0.432,4.229-1.241,6.088-2.086
		c1.157-0.526,3.125-0.934,3.944-1.647"/>
</g>
<g id="XMLID_1_">
	<g>
		<path fill="#FFF200" d="M254.903,388.973c4.33,2.85,7.21,6.33,3.9,12.71c-4.4,9.33-15.72,4.67-20.75,17.33l-0.09-0.02
			c1.27-7.07,2.37-14.14,2.8-21.22l2.16,0.14c-0.01,0.15-0.02,0.29-0.02,0.44c0,2.36,1.6,4.28,3.57,4.28c1.98,0,3.58-1.92,3.58-4.28
			c0-0.74-0.16-1.44-0.43-2.04l1.64-0.19c0.51,1.16,1.51,1.94,2.64,1.94c1.66,0,3-1.66,3-3.71c0-2.05-1.34-3.72-3-3.72
			L254.903,388.973z"/>
		<path fill="#FFF200" d="M254.903,388.973l-1,1.66c-1.65,0-3,1.67-3,3.72c0,0.64,0.13,1.24,0.36,1.77l-1.64,0.19
			c-0.61-1.34-1.79-2.25-3.15-2.25c-1.85,0-3.37,1.69-3.55,3.85l-2.16-0.14c0.23-3.55,0.27-7.1,0.09-10.66
			c-0.14-2.67-0.33-5.33-0.55-7.98l1.52-0.12C243.783,383.533,250.193,385.883,254.903,388.973z"/>
		<path d="M244.553,395.333c0.4,0,0.72,0.42,0.72,0.94c0,0.51-0.32,0.93-0.72,0.93s-0.73-0.42-0.73-0.93
			C243.823,395.753,244.153,395.333,244.553,395.333z"/>
	</g>
	<g>
		<path fill="none" stroke="#000000" stroke-width="2" d="M243.033,248.793c-1.3,29.44-6.08,57.76-6.04,87.6
			c0.02,14.4,2.12,28.49,3.31,42.74c0.22,2.65,0.41,5.31,0.55,7.98c0.18,3.56,0.14,7.11-0.09,10.66c-0.43,7.08-1.53,14.15-2.8,21.22
			c-2.2,12.3-4.91,24.63-5.44,37.14c-1.2,27.761-1.94,57.46,2,85.011c2.38,16.569,9.13,31.899,10.07,48.79
			c2.01,36.04,3.36,73.93,2.99,109.97c-0.31,29.729-3.68,58.99-3.05,88.86"/>
		<path fill="none" stroke="#000000" stroke-width="0.1037" d="M245.273,396.273c0,0.51-0.32,0.93-0.72,0.93s-0.73-0.42-0.73-0.93
			c0-0.52,0.33-0.94,0.73-0.94S245.273,395.753,245.273,396.273z"/>
		<path fill="none" stroke="#000000" stroke-width="0.2169" d="M246.243,397.063c0,1.18-0.62,2.14-1.38,2.14
			c-0.77,0-1.39-0.96-1.39-2.14c0-1.18,0.62-2.14,1.39-2.14C245.623,394.923,246.243,395.883,246.243,397.063z"/>
		<path fill="none" stroke="#000000" stroke-width="0.3214" d="M249.623,396.313c0.27,0.6,0.43,1.3,0.43,2.04
			c0,2.36-1.6,4.28-3.58,4.28c-1.97,0-3.57-1.92-3.57-4.28c0-0.15,0.01-0.29,0.02-0.44c0.18-2.16,1.7-3.85,3.55-3.85
			C247.833,394.063,249.013,394.973,249.623,396.313z"/>
		<path fill="none" stroke="#000000" stroke-width="0.3214" d="M253.903,390.633c1.66,0,3,1.67,3,3.72c0,2.05-1.34,3.71-3,3.71
			c-1.13,0-2.13-0.78-2.64-1.94c-0.23-0.53-0.36-1.13-0.36-1.77C250.903,392.303,252.253,390.633,253.903,390.633z"/>
		<path fill="none" stroke="#000000" stroke-width="0.9712" d="M241.823,379.013c1.96,4.52,8.37,6.87,13.08,9.96
			c4.33,2.85,7.21,6.33,3.9,12.71c-4.4,9.33-15.72,4.67-20.75,17.33"/>
	</g>
</g>
<g id="XMLID_2_">
	<g>
		<path fill="#FFF200" d="M340.951,267.744c-0.438,19.109-8.186,38.859-9.229,58.024l-0.124,0.02
			c-1.071-9.753-8.559-18.714-5.634-29.288c2.662-9.702,7.927-19.415,13.879-28.802L340.951,267.744z"/>
	</g>
	<g>
		<path fill="none" stroke="#000000" stroke-width="2.8918" d="M340.951,267.744c-0.438,19.109-8.186,38.859-9.229,58.024"/>
		<path fill="none" stroke="#000000" stroke-width="1.4459" d="M341.52,265.07c-0.561,0.869-1.139,1.751-1.677,2.627
			c-5.952,9.387-11.217,19.1-13.879,28.802c-2.925,10.574,4.563,19.535,5.634,29.288c0.064,0.536,0.108,1.076,0.131,1.609"/>
	</g>
</g>
<pattern  id="SVGID_50_" xlink:href="#New_Pattern_Swatch_1" patternTransform="matrix(0.5965 -0.0131 -0.0131 0.7046 -3276.25 -2142.3423)">
</pattern>
<polygon fill="url(#SVGID_50_)" stroke="#000000" stroke-width="0.6481" points="336.414,293.367 331.916,292.83 330.219,287.938 
	333.019,283.581 337.518,284.118 339.215,289.01 "/>
<pattern  id="SVGID_52_" xlink:href="#New_Pattern_Swatch_1" patternTransform="matrix(0.5965 -0.0131 -0.0131 0.7046 -3276.25 -2142.3423)">
</pattern>
<polygon fill="url(#SVGID_52_)" stroke="#000000" stroke-width="0.6481" points="331.881,311.221 327.383,310.684 325.686,305.792 
	328.485,301.435 332.984,301.972 334.682,306.864 "/>
<pattern  id="SVGID_54_" xlink:href="#New_Pattern_Swatch_1" patternTransform="matrix(0.4948 -0.3334 0.3698 0.5999 -1398.1826 -5380.0723)">
</pattern>
<polygon fill="url(#SVGID_54_)" stroke="#000000" stroke-width="0.6481" points="335.289,301.173 331.215,303.153 327.143,299.954 
	327.144,294.775 331.219,292.795 335.292,295.995 "/>
<path fill="none" stroke="#000000" stroke-width="0.75" d="M336.383,581.185c-5.739,2.197-13.74,1.434-16.846,7.176
	c-5.051,9.342,2.932,8.154,8.367,12.65c4.299,3.557,5.639,10.418,6.434,15.549c0.746,4.813,1.162,8.953,7.045,8.125"/>
<rect fill="none" stroke="#000000" stroke-width="3" stroke-miterlimit="10" width="595.28" height="841.89"/>
<rect x="19.019" y="211.42" fill="none" width="191.847" height="89.799"/>
<text transform="matrix(1 0 0 1 19.019 221.3599)"><tspan x="0" y="0" fill="#ED1C24" font-family="'MyriadPro-BoldIt'" font-size="14">Haemangiomas</tspan><tspan x="0" y="12" font-family="'MyriadPro-Regular'" font-size="10">The prevalence is 0.04 %.</tspan><tspan x="0" y="24" font-family="'MyriadPro-BoldIt'" font-size="10">Histology </tspan><tspan x="43.168" y="24" font-family="'MyriadPro-Regular'" font-size="10">shows cavernous vascular spaces.</tspan><tspan x="0" y="36" font-family="'MyriadPro-Regular'" font-size="10">Endoscopy shows a nodular, soft, bluish red, </tspan><tspan x="0" y="48" font-family="'MyriadPro-Regular'" font-size="10">and typically blanch when pressed with </tspan><tspan x="0" y="60" font-family="'MyriadPro-Regular'" font-size="10">biopsy forceps.</tspan><tspan x="0" y="72" font-family="'MyriadPro-Regular'" font-size="10">The</tspan><tspan x="15.529" y="72" font-family="'MyriadPro-BoldIt'" font-size="10"> Treatment </tspan><tspan x="64.639" y="72" font-family="'MyriadPro-Regular'" font-size="10">is</tspan><tspan x="70.938" y="72" font-family="'MyriadPro-BoldIt'" font-size="10"> </tspan><tspan x="72.778" y="72" font-family="'MyriadPro-Regular'" font-size="10">endoscopic resection safe</tspan></text>
<rect x="164.404" y="9.187" fill="none" width="296.901" height="33.087"/>
<text transform="matrix(1 0 0 1 164.4043 26.2266)" font-family="'MyriadPro-BoldIt'" font-size="24">Raised Oesophageal Lesions</text>
<rect x="19.019" y="591.247" fill="none" width="182.309" height="198.035"/>
<text transform="matrix(1 0 0 1 19.019 601.1865)"><tspan x="0" y="0" fill="#ED1C24" font-family="'MyriadPro-BoldIt'" font-size="14">Lymphangiomas</tspan><tspan x="0" y="12" font-family="'MyriadPro-Regular'" font-size="10">These are due to a malformation of seques</tspan><tspan x="176.756" y="12" font-family="'MyriadPro-Regular'" font-size="10">-</tspan><tspan x="0" y="24" font-family="'MyriadPro-Regular'" font-size="10">tered lymphatic tissue.</tspan><tspan x="0" y="36" font-family="'MyriadPro-Regular'" font-size="10">These lesions are very rare (only 15 </tspan><tspan x="0" y="48" font-family="'MyriadPro-Regular'" font-size="10">described).</tspan><tspan x="0" y="60" font-family="'MyriadPro-BoldIt'" font-size="10">Endoscopic features include  a </tspan><tspan x="130.728" y="60" font-family="'MyriadPro-Regular'" font-size="10">translucent, </tspan><tspan x="0" y="72" font-family="'MyriadPro-Regular'" font-size="10">yellowish, submucosal, easily compressible </tspan><tspan x="0" y="84" font-family="'MyriadPro-Regular'" font-size="10">mass.</tspan><tspan x="0" y="96" font-family="'MyriadPro-Regular'" font-size="10">It is usually &lt; 5 mm.</tspan><tspan x="0" y="108" font-family="'MyriadPro-Regular'" font-size="10">It is a submucosal lesion.</tspan><tspan x="0" y="168" font-family="'MyriadPro-Regular'" font-size="10">Treatment is usually not needed but can be </tspan><tspan x="0" y="180" font-family="'MyriadPro-Regular'" font-size="10">resected if causing problems.</tspan></text>
<rect x="19.019" y="41.85" fill="none" width="323.635" height="174.149"/>
<text transform="matrix(1 0 0 1 19.019 51.7896)"><tspan x="0" y="0" fill="#ED1C24" font-family="'MyriadPro-BoldIt'" font-size="14">Fibrovascular polyps</tspan><tspan x="0" y="12" font-family="'MyriadPro-Regular'" font-size="10">These are comprised of fibromas, fibrolipomas, myomas, and lipomas.</tspan><tspan x="0" y="24" font-family="'MyriadPro-Regular'" font-size="10">Histology involves fibrous, vascular, and adipose tissue covered by squamous </tspan><tspan x="0" y="36" font-family="'MyriadPro-Regular'" font-size="10">epithelium.</tspan><tspan x="0" y="48" font-family="'MyriadPro-Regular'" font-size="10">Lesions are usually in upper third of the oesophagus attached to the inferior </tspan><tspan x="0" y="60" font-family="'MyriadPro-Regular'" font-size="10">aspect of cricopharyngeus.</tspan><tspan x="0" y="72" font-family="'MyriadPro-Regular'" font-size="10">These are more common in males at 3:1.</tspan><tspan x="0" y="84" font-family="'MyriadPro-Regular'" font-size="10">The average age of onset is in the 50’s.</tspan><tspan x="0" y="96" font-family="'MyriadPro-Regular'" font-size="10">They arise from nodular thickening of a redundant mucosal fold.</tspan><tspan x="0" y="108" font-family="'MyriadPro-Regular'" font-size="10">The polyps are usually asymptomatic.</tspan><tspan x="0" y="132" font-family="'MyriadPro-Regular'" font-size="10">If the patients is symptomatic the polyps usually have a stalk .</tspan><tspan x="0" y="144" font-family="'MyriadPro-Regular'" font-size="10">Do an EUS- if there is a feeding vessel, need surgery or snare with endoloop.</tspan><tspan x="0" y="156" font-family="'MyriadPro-Regular'" font-size="10">If there is no feeding vessel, snare polypectomy is appropriate.</tspan></text>
<rect x="350.619" y="47.349" fill="none" width="234.666" height="282.147"/>
<text transform="matrix(1 0 0 1 350.6191 57.2891)"><tspan x="0" y="0" fill="#ED1C24" font-family="'MyriadPro-BoldIt'" font-size="14">Granular cell tumors</tspan><tspan x="0" y="12" font-family="'MyriadPro-Regular'" font-size="10">Granular cell tumors occur in the skin, tongue, breast, </tspan><tspan x="0" y="24" font-family="'MyriadPro-Regular'" font-size="10">and gastrointestinal tract.</tspan><tspan x="0" y="36" font-family="'MyriadPro-Regular'" font-size="10">10% of the lesions occur in the GI tract, 65% of these in </tspan><tspan x="0" y="48" font-family="'MyriadPro-Regular'" font-size="10">the oesophagus.</tspan><tspan x="0" y="72" font-family="'MyriadPro-Regular'" font-size="10">The average age of detection is 45 years.</tspan><tspan x="0" y="84" font-family="'MyriadPro-Regular'" font-size="10">They are more common in males than females.</tspan><tspan x="0" y="96" font-family="'MyriadPro-Regular'" font-size="10">These are usually asymptomatic but dysphagia can </tspan><tspan x="0" y="108" font-family="'MyriadPro-Regular'" font-size="10">occur in 30%.</tspan><tspan x="0" y="120" font-family="'MyriadPro-BoldIt'" font-size="10">Endoscopic </tspan><tspan x="50.549" y="120" font-family="'MyriadPro-Regular'" font-size="10">features include sessile, yellowish white, </tspan><tspan x="0" y="132" font-family="'MyriadPro-Regular'" font-size="10">and are covered by normal-appearing mucosa. 90% are </tspan><tspan x="0" y="144" font-family="'MyriadPro-Regular'" font-size="10">solitary.</tspan><tspan x="0" y="156" font-family="'MyriadPro-Regular'" font-size="10">The lesions are </tspan><tspan x="63.659" y="156" font-family="'MyriadPro-BoldIt'" font-size="10">histologically </tspan><tspan x="123.64" y="156" font-family="'MyriadPro-Regular'" font-size="10">composed of large </tspan><tspan x="0" y="168" font-family="'MyriadPro-Regular'" font-size="10">polygonal cells containing numerous eosinophilic </tspan><tspan x="0" y="180" font-family="'MyriadPro-Regular'" font-size="10">granules.</tspan><tspan x="0" y="192" font-family="'MyriadPro-Regular'" font-size="10">They resemble Schwann cells under electron micros</tspan><tspan x="215.354" y="192" font-family="'MyriadPro-Regular'" font-size="10">-</tspan><tspan x="0" y="204" font-family="'MyriadPro-Regular'" font-size="10">copy and stain positive for S100 protein, suggesting a </tspan><tspan x="0" y="216" font-family="'MyriadPro-Regular'" font-size="10">neural origin.</tspan><tspan x="0" y="240" font-family="'MyriadPro-Regular'" font-size="10">The lesions have malignant potential especially if &gt;4cm </tspan><tspan x="0" y="252" font-family="'MyriadPro-Regular'" font-size="10">so these should be resected.</tspan><tspan x="0" y="264" font-family="'MyriadPro-Regular'" font-size="10">They can be surveyed every 1-2 years.</tspan></text>
<rect x="351.619" y="579.674" fill="none" width="184.381" height="13.942"/>
<text transform="matrix(1 0 0 1 351.6191 586.7734)" font-family="'MyriadPro-Regular'" font-size="10">Only occur in Barretts- see Barrett’s section</text>
<rect x="350.619" y="410.533" fill="none" width="231.381" height="114.314"/>
<text transform="matrix(1 0 0 1 350.6191 420.4731)"><tspan x="0" y="0" fill="#ED1C24" font-family="'MyriadPro-BoldIt'" font-size="14">Inflammatory fibroid polyps</tspan><tspan x="0" y="12" font-family="'MyriadPro-Regular'" font-size="10">This is composed of reparative tissue.</tspan><tspan x="0" y="24" font-family="'MyriadPro-Regular'" font-size="10">The lesions can be due to reflux.</tspan><tspan x="0" y="36" font-family="'MyriadPro-Regular'" font-size="10">Lesions include hamartomas, inflammatory pse</tspan><tspan x="201.577" y="36" font-family="'MyriadPro-Regular'" font-size="10">-</tspan><tspan x="0" y="48" font-family="'MyriadPro-Regular'" font-size="10">dopolyps, and eosinophilic granulomas.</tspan><tspan x="0" y="60" font-family="'MyriadPro-Regular'" font-size="10">Lesions are mainly found in distal oesophagus.</tspan><tspan x="0" y="72" font-family="'MyriadPro-BoldIt'" font-size="10">Histological </tspan><tspan x="53.391" y="72" font-family="'MyriadPro-Regular'" font-size="10">features</tspan><tspan x="87.199" y="72" font-family="'MyriadPro-BoldIt'" font-size="10"> </tspan><tspan x="89.039" y="72" font-family="'MyriadPro-Regular'" font-size="10">include ia connective tissue </tspan><tspan x="0" y="84" font-family="'MyriadPro-Regular'" font-size="10">stroma and a diffuse eosinophilic infiltrate.</tspan><tspan x="0" y="96" font-family="'MyriadPro-BoldIt'" font-size="10">Treatment </tspan><tspan x="47.268" y="96" font-family="'MyriadPro-Regular'" font-size="10">involves</tspan><tspan x="81.597" y="96" font-family="'MyriadPro-BoldIt'" font-size="10"> </tspan><tspan x="83.437" y="96" font-family="'MyriadPro-Regular'" font-size="10">resection only if troublesome.</tspan></text>
<rect x="19.019" y="303.71" fill="none" width="210.333" height="179.29"/>
<text transform="matrix(1 0 0 1 19.019 313.6504)"><tspan x="0" y="0" fill="#ED1C24" font-family="'MyriadPro-BoldIt'" font-size="14">Papillomas</tspan><tspan x="0" y="12" font-family="'MyriadPro-Regular'" font-size="10">The incidence is 0.02%</tspan><tspan x="0" y="24" font-family="'MyriadPro-BoldIt'" font-size="10">Histology </tspan><tspan x="43.168" y="24" font-family="'MyriadPro-Regular'" font-size="10">involves epithelium</tspan><tspan x="125.076" y="24" font-family="'MyriadPro-BoldIt'" font-size="10"> </tspan><tspan x="126.916" y="24" font-family="'MyriadPro-Regular'" font-size="10">lined by an </tspan><tspan x="0" y="36" font-family="'MyriadPro-Regular'" font-size="10">increased number of squamous cells.</tspan><tspan x="0" y="48" font-family="'MyriadPro-Regular'" font-size="10">There is a core of connective tissue with small </tspan><tspan x="0" y="60" font-family="'MyriadPro-Regular'" font-size="10">blood vessels.</tspan><tspan x="0" y="72" font-family="'MyriadPro-Regular'" font-size="10">The lesion is possibly associated with GERD or NG </tspan><tspan x="0" y="84" font-family="'MyriadPro-Regular'" font-size="10">tube insertion.</tspan><tspan x="0" y="96" font-family="'MyriadPro-Regular'" font-size="10">Endoscopy usually shows a solitary small, whitish </tspan><tspan x="0" y="108" font-family="'MyriadPro-Regular'" font-size="10">pink, wart-like exophytic projection</tspan><tspan x="0" y="120" font-family="'MyriadPro-BoldIt'" font-size="10">Clinical manifestations</tspan><tspan x="0" y="132" font-family="'MyriadPro-Regular'" font-size="10">Age:  50s; M=F</tspan><tspan x="0" y="144" font-family="'MyriadPro-BoldIt'" font-size="10">Treatment </tspan><tspan x="47.27" y="144" font-family="'MyriadPro-Regular'" font-size="10">involves EMR if &gt;1cm or</tspan><tspan x="0" y="156" font-family="'MyriadPro-Regular'" font-size="10">&lt;1cm cold biopsy/snare. </tspan><tspan x="0" y="168" font-family="'MyriadPro-Regular'" font-size="10">Recurrence after resection is infrequent.</tspan></text>
<rect x="350.619" y="341.122" fill="none" width="229.381" height="59.912"/>
<text transform="matrix(1 0 0 1 350.6191 351.062)"><tspan x="0" y="0" fill="#ED1C24" font-family="'MyriadPro-BoldIt'" font-size="14">Gastrointestinal stromal tumors, </tspan><tspan x="0" y="16.8" fill="#ED1C24" font-family="'MyriadPro-BoldIt'" font-size="14">leoimyomas, and leoimyosarcomas</tspan><tspan x="0" y="43.2" font-family="'MyriadPro-Regular'" font-size="10">See GIST section</tspan></text>
<rect x="351" y="278.581" fill="none" width="49.5" height="10.27"/>
<text transform="matrix(1 0 0 1 351 285.6812)" font-family="'MyriadPro-BoldIt'" font-size="10">Treatment:</text>
<rect x="351.75" y="568" fill="none" width="69.25" height="15.149"/>
<text transform="matrix(1 0 0 1 351.75 577.9395)" fill="#ED1C24" font-family="'MyriadPro-BoldIt'" font-size="14">Adenomas</text>
<rect x="19" y="165.5" fill="none" width="49.5" height="10.27"/>
<text transform="matrix(1 0 0 1 19 172.6001)" font-family="'MyriadPro-BoldIt'" font-size="10">Treatment:</text>
<rect x="19.174" y="484.5" fill="none" width="202" height="102.036"/>
<text transform="matrix(1 0 0 1 19.1738 494.4395)"><tspan x="0" y="0" fill="#ED1C24" font-family="'MyriadPro-BoldIt'" font-size="14">Papilloma associations:</tspan><tspan x="0" y="12" font-family="'MyriadPro-Regular'" font-size="10">Tylosis.</tspan><tspan x="0" y="24" font-family="'MyriadPro-Regular'" font-size="10">Acanthosis nigricans.</tspan><tspan x="0" y="36" font-family="'MyriadPro-Regular'" font-size="10">Goltz syndrome (congenital focal dermal </tspan><tspan x="0" y="48" font-family="'MyriadPro-Regular'" font-size="10">hypoplasia that features hyperpigmentation, </tspan><tspan x="0" y="60" font-family="'MyriadPro-Regular'" font-size="10">sclerodactyly, dysplastic changes of the teeth </tspan><tspan x="0" y="72" font-family="'MyriadPro-Regular'" font-size="10">and bones, and perianal, oroesophageal, and </tspan><tspan x="0" y="84" font-family="'MyriadPro-Regular'" font-size="10">genital papillomas.</tspan></text>
<rect x="19.5" y="714.5" fill="none" width="202.5" height="48.606"/>
<text transform="matrix(1 0 0 1 19.5 721.5996)"><tspan x="0" y="0" font-family="'MyriadPro-BoldIt'" font-size="10">Histology:</tspan><tspan x="43.929" y="0" font-family="'MyriadPro-Regular'" font-size="10"> </tspan><tspan x="0" y="12" font-family="'MyriadPro-Regular'" font-size="10">Dilated endothelial spaces with cavities lined by </tspan><tspan x="0" y="24" font-family="'MyriadPro-Regular'" font-size="10">flat endothelial cells containing eosinophilic </tspan><tspan x="0" y="36" font-family="'MyriadPro-Regular'" font-size="10">material.</tspan></text>
<rect x="438.296" y="818.77" fill="none" width="144.773" height="16.731"/>
<text transform="matrix(1 0 0 1 438.2959 827.2891)" fill="#00A651" font-family="'MyriadPro-Regular'" font-size="12">Written by Dr Sebastian Zeki</text>
</svg>
