<?xml version="1.0" encoding="utf-8"?>
<!-- Generator: Adobe Illustrator 15.0.2, SVG Export Plug-In . SVG Version: 6.00 Build 0)  -->
<!DOCTYPE svg PUBLIC "-//W3C//DTD SVG 1.1//EN" "http://www.w3.org/Graphics/SVG/1.1/DTD/svg11.dtd">
<svg version="1.1" id="Layer_1" xmlns="http://www.w3.org/2000/svg" xmlns:xlink="http://www.w3.org/1999/xlink" x="0px" y="0px"
	 width="595.28px" height="841.89px" viewBox="0 0 595.28 841.89" enable-background="new 0 0 595.28 841.89" xml:space="preserve">
<g>
	<g>
		<g enable-background="new    ">
			<g enable-background="new    ">
				<defs>
					<path id="SVGID_1_" enable-background="new    " d="M365.415,649.564c-0.017,1.963-0.29,3.928-0.813,5.879
						c-0.522,1.949-1.295,3.887-2.312,5.797c-1.015,1.906-2.273,3.787-3.771,5.629c-1.495,1.84-3.228,3.641-5.191,5.387
						c-2.562,2.277-5.441,4.396-8.595,6.338c-3.148,1.941-6.57,3.705-10.223,5.277c-3.646,1.57-7.523,2.947-11.587,4.115
						c-4.06,1.166-8.306,2.121-12.696,2.848c-4.432,0.734-8.846,1.205-13.193,1.43c-4.346,0.223-8.628,0.201-12.796-0.051
						c-4.168-0.252-8.225-0.734-12.12-1.43c-3.897-0.695-7.634-1.605-11.163-2.715c-3.69-1.16-7.154-2.537-10.333-4.113
						c-3.183-1.578-6.083-3.357-8.643-5.318c-2.563-1.963-4.786-4.111-6.61-6.424c-1.828-2.316-3.256-4.799-4.228-7.428
						c-0.295-0.799-0.545-1.602-0.75-2.408c-0.205-0.805-0.366-1.615-0.481-2.426c-0.116-0.811-0.187-1.625-0.213-2.439
						c-0.026-0.816-0.009-1.631,0.054-2.447c11.385-149.664,22.772-299.315,34.157-448.979l0,0
						c-0.056,0.733-0.077,1.467-0.064,2.199c0.013,0.732,0.061,1.463,0.143,2.191s0.199,1.455,0.351,2.178
						c0.152,0.723,0.339,1.443,0.561,2.16c0.731,2.361,1.819,4.588,3.219,6.663c1.398,2.072,3.108,3.994,5.084,5.75
						c1.974,1.754,4.216,3.342,6.679,4.748c2.462,1.405,5.146,2.628,8.01,3.655c2.738,0.981,5.641,1.782,8.669,2.389
						c3.027,0.607,6.183,1.02,9.426,1.225s6.576,0.201,9.96-0.025c3.386-0.226,6.823-0.675,10.274-1.362
						c3.42-0.681,6.729-1.567,9.891-2.641c3.166-1.075,6.186-2.339,9.027-3.774c2.844-1.437,5.508-3.047,7.961-4.812
						c2.455-1.767,4.697-3.69,6.691-5.753c1.529-1.583,2.877-3.212,4.041-4.874c1.164-1.664,2.145-3.362,2.935-5.081
						c0.791-1.721,1.392-3.464,1.8-5.217c0.408-1.754,0.621-3.519,0.637-5.279C367.941,350.146,366.678,499.842,365.415,649.564z"/>
				</defs>
				<clipPath id="SVGID_2_">
					<use xlink:href="#SVGID_1_"  overflow="visible"/>
				</clipPath>
				<g clip-path="url(#SVGID_2_)" enable-background="new    ">
					<path fill="#900248" d="M365.415,649.564l3.788-449.141c-0.016,1.761-0.229,3.525-0.637,5.28
						c-0.408,1.752-1.009,3.496-1.8,5.217c-0.79,1.719-1.771,3.417-2.935,5.081c-1.164,1.662-2.512,3.291-4.041,4.874
						c-0.102,0.104-0.202,0.208-0.305,0.312c-0.102,0.104-0.204,0.207-0.308,0.309c-0.103,0.103-0.207,0.206-0.312,0.308
						s-0.209,0.204-0.315,0.305l-6.814,451.509c0.136-0.111,0.271-0.225,0.405-0.336c0.135-0.113,0.268-0.227,0.4-0.34
						s0.264-0.227,0.396-0.342c0.131-0.113,0.261-0.229,0.391-0.344c1.964-1.746,3.696-3.547,5.191-5.387
						c1.497-1.842,2.756-3.723,3.771-5.629c1.017-1.91,1.789-3.848,2.312-5.797C365.125,653.492,365.398,651.527,365.415,649.564"/>
					<path fill="#93044A" d="M351.737,673.617l6.814-451.509c-0.284,0.272-0.573,0.542-0.866,0.809
						c-0.292,0.267-0.59,0.531-0.891,0.793c-0.302,0.262-0.607,0.521-0.918,0.776c-0.31,0.256-0.623,0.509-0.941,0.76
						l-7.844,451.828c0.409-0.275,0.813-0.555,1.211-0.836c0.397-0.283,0.79-0.566,1.178-0.855c0.387-0.289,0.769-0.58,1.145-0.873
						C351.002,674.215,351.373,673.918,351.737,673.617"/>
					<path fill="#97064D" d="M347.092,677.074l7.844-451.828c-0.264,0.208-0.529,0.413-0.799,0.617s-0.541,0.405-0.815,0.605
						s-0.552,0.397-0.831,0.593c-0.279,0.195-0.563,0.389-0.848,0.581l-8.779,452.064c0.367-0.209,0.729-0.422,1.088-0.637
						c0.359-0.215,0.716-0.434,1.068-0.652s0.701-0.441,1.047-0.666C346.412,677.529,346.754,677.303,347.092,677.074"/>
					<path fill="#9B084F" d="M342.863,679.707l8.779-452.065c-0.255,0.172-0.513,0.342-0.771,0.511
						c-0.26,0.168-0.521,0.335-0.785,0.5c-0.264,0.165-0.529,0.329-0.797,0.491c-0.268,0.162-0.537,0.322-0.809,0.48l-9.678,452.258
						c0.35-0.174,0.695-0.35,1.039-0.527s0.684-0.357,1.022-0.537c0.339-0.182,0.675-0.365,1.008-0.551
						C342.205,680.084,342.536,679.896,342.863,679.707"/>
					<path fill="#9E0A51" d="M338.803,681.883l9.678-452.258c-0.254,0.148-0.51,0.295-0.767,0.44s-0.517,0.289-0.776,0.431
						s-0.522,0.283-0.786,0.422s-0.529,0.277-0.796,0.413L334.791,683.75c0.343-0.148,0.684-0.299,1.021-0.451
						c0.339-0.152,0.676-0.307,1.01-0.461c0.334-0.156,0.666-0.314,0.997-0.473C338.149,682.205,338.478,682.045,338.803,681.883"/>
					<path fill="#A20B53" d="M334.791,683.75l10.564-452.419c-0.256,0.13-0.514,0.26-0.771,0.387
						c-0.259,0.127-0.52,0.254-0.78,0.378c-0.262,0.125-0.524,0.249-0.789,0.37c-0.265,0.122-0.53,0.243-0.797,0.361
						l-11.454,452.559c0.342-0.131,0.684-0.262,1.022-0.395s0.677-0.268,1.013-0.404s0.67-0.273,1.002-0.414
						C334.133,684.035,334.463,683.893,334.791,683.75"/>
					<path fill="#A60D55" d="M330.764,685.387l11.454-452.559c-0.26,0.116-0.521,0.23-0.784,0.344
						c-0.262,0.113-0.525,0.225-0.791,0.335c-0.265,0.11-0.531,0.22-0.799,0.327s-0.535,0.214-0.806,0.318L326.682,686.83
						c0.346-0.115,0.691-0.23,1.034-0.348s0.685-0.234,1.025-0.355s0.679-0.242,1.016-0.365S330.43,685.514,330.764,685.387"/>
					<path fill="#AA0F57" d="M326.682,686.83l12.356-452.678c-0.266,0.103-0.532,0.205-0.801,0.305s-0.537,0.199-0.808,0.297
						c-0.27,0.098-0.541,0.194-0.814,0.289c-0.271,0.095-0.546,0.188-0.82,0.28l-13.277,452.779c0.353-0.1,0.704-0.201,1.054-0.305
						c0.351-0.102,0.698-0.207,1.046-0.313c0.346-0.105,0.691-0.213,1.036-0.322C325.997,687.053,326.34,686.941,326.682,686.83"/>
					<path fill="#AE1159" d="M322.518,688.102l13.277-452.779c-0.273,0.091-0.547,0.181-0.822,0.27
						c-0.274,0.088-0.551,0.175-0.828,0.261c-0.277,0.085-0.555,0.17-0.834,0.252c-0.279,0.083-0.559,0.165-0.84,0.244
						L318.25,689.215c0.361-0.086,0.721-0.174,1.079-0.264s0.715-0.182,1.071-0.273c0.355-0.094,0.709-0.188,1.063-0.283
						S322.168,688.201,322.518,688.102"/>
					<path fill="#B1125C" d="M318.25,689.215l14.221-452.865c-0.281,0.081-0.564,0.159-0.848,0.236
						c-0.284,0.077-0.568,0.153-0.854,0.228s-0.571,0.147-0.859,0.218s-0.575,0.141-0.864,0.21l-15.193,452.934
						c0.371-0.072,0.742-0.148,1.111-0.225c0.369-0.078,0.736-0.156,1.104-0.236c0.365-0.08,0.731-0.162,1.096-0.244
						C317.525,689.387,317.889,689.301,318.25,689.215"/>
					<path fill="#B5145E" d="M313.852,690.176l15.193-452.934c-0.234,0.055-0.467,0.109-0.701,0.162s-0.469,0.105-0.705,0.157
						c-0.234,0.051-0.471,0.102-0.707,0.15c-0.236,0.049-0.473,0.098-0.711,0.145c-0.059,0.012-0.117,0.023-0.177,0.035
						c-0.06,0.011-0.118,0.023-0.178,0.035c-0.06,0.011-0.118,0.023-0.177,0.034c-0.06,0.011-0.119,0.022-0.178,0.034
						l-16.194,452.988c0.075-0.012,0.151-0.025,0.228-0.037s0.151-0.023,0.228-0.037c0.075-0.012,0.151-0.023,0.228-0.035
						c0.076-0.014,0.152-0.025,0.229-0.039c0.305-0.051,0.608-0.102,0.912-0.154c0.303-0.053,0.605-0.105,0.908-0.162
						c0.302-0.055,0.604-0.109,0.904-0.168C313.253,690.293,313.553,690.234,313.852,690.176"/>
					<path fill="#B91560" d="M309.317,690.982l16.194-452.988c-0.298,0.057-0.596,0.111-0.893,0.164
						c-0.299,0.053-0.596,0.104-0.893,0.154c-0.298,0.049-0.595,0.097-0.892,0.143s-0.594,0.09-0.89,0.133l-17.207,453.023
						c0.381-0.045,0.762-0.092,1.143-0.141s0.762-0.098,1.145-0.15c0.381-0.053,0.763-0.107,1.145-0.164
						C308.553,691.1,308.935,691.041,309.317,690.982"/>
					<path fill="#BD1762" d="M304.738,691.611l17.207-453.023c-0.306,0.044-0.61,0.086-0.915,0.126s-0.609,0.079-0.913,0.115
						c-0.305,0.037-0.608,0.071-0.912,0.104c-0.303,0.033-0.606,0.064-0.909,0.093l-18.243,453.042
						c0.389-0.029,0.777-0.063,1.168-0.096c0.389-0.035,0.779-0.07,1.17-0.109c0.391-0.037,0.781-0.078,1.172-0.119
						C303.955,691.701,304.346,691.658,304.738,691.611"/>
					<path fill="#C11864" d="M300.053,692.068l18.243-453.042c-0.315,0.031-0.629,0.059-0.942,0.086
						c-0.314,0.026-0.628,0.051-0.941,0.074c-0.313,0.022-0.625,0.043-0.938,0.063s-0.623,0.036-0.935,0.051l-19.312,453.042
						c0.4-0.014,0.8-0.031,1.201-0.049c0.401-0.02,0.802-0.039,1.204-0.063s0.805-0.047,1.208-0.074S299.648,692.1,300.053,692.068"
						/>
					<path fill="#C51966" d="M295.229,692.342L314.54,239.3c-0.328,0.016-0.655,0.03-0.981,0.042
						c-0.327,0.012-0.653,0.021-0.979,0.029c-0.326,0.008-0.65,0.013-0.975,0.017c-0.324,0.003-0.648,0.005-0.972,0.004
						l-20.422,453.021c0.415,0.004,0.831,0.004,1.247,0.002c0.417,0,0.834-0.004,1.252-0.01c0.418-0.006,0.837-0.016,1.257-0.025
						C294.387,692.369,294.808,692.357,295.229,692.342"/>
					<path fill="#C81A68" d="M290.211,692.414l20.422-453.021c-0.347,0-0.693-0.003-1.039-0.008
						c-0.346-0.005-0.69-0.013-1.034-0.023c-0.344-0.01-0.688-0.022-1.029-0.036c-0.342-0.015-0.684-0.031-1.023-0.05
						l-21.599,452.977c0.438,0.023,0.876,0.045,1.315,0.063c0.44,0.02,0.881,0.035,1.323,0.049s0.885,0.025,1.329,0.033
						S289.765,692.41,290.211,692.414"/>
					<path fill="#CC1C6A" d="M284.909,692.252l21.599-452.977c-0.377-0.021-0.754-0.045-1.128-0.072
						c-0.375-0.026-0.749-0.056-1.12-0.088c-0.373-0.032-0.744-0.067-1.113-0.105c-0.37-0.038-0.738-0.079-1.105-0.122
						l-22.873,452.899c0.472,0.051,0.945,0.1,1.42,0.145s0.952,0.086,1.431,0.125s0.959,0.074,1.44,0.105
						C283.941,692.195,284.425,692.225,284.909,692.252"/>
					<path fill="#D01D6C" d="M279.168,691.787l22.873-452.899c-0.435-0.051-0.867-0.106-1.297-0.166
						c-0.431-0.059-0.859-0.121-1.285-0.188c-0.427-0.066-0.851-0.137-1.272-0.21s-0.841-0.151-1.259-0.232l-24.336,452.775
						c0.537,0.092,1.077,0.182,1.619,0.268c0.542,0.084,1.088,0.164,1.636,0.242c0.548,0.076,1.099,0.148,1.653,0.217
						C278.053,691.664,278.609,691.727,279.168,691.787"/>
					<path fill="#D41E6E" d="M272.591,690.867l24.336-452.775c-0.593-0.115-1.181-0.238-1.764-0.368s-1.161-0.268-1.733-0.412
						s-1.14-0.296-1.702-0.455c-0.562-0.159-1.118-0.325-1.668-0.498l-26.31,452.534c0.708,0.195,1.425,0.385,2.148,0.564
						c0.724,0.182,1.454,0.354,2.191,0.518c0.737,0.164,1.481,0.322,2.231,0.471C271.072,690.594,271.829,690.734,272.591,690.867"
						/>
					<path fill="#D71F6F" d="M263.751,688.893l26.31-452.534c-0.184-0.058-0.366-0.116-0.548-0.175
						c-0.182-0.059-0.364-0.119-0.544-0.18s-0.361-0.122-0.54-0.185c-0.18-0.062-0.358-0.125-0.536-0.189
						c-0.824-0.295-1.633-0.607-2.426-0.935c-0.793-0.328-1.571-0.671-2.332-1.03c-0.761-0.359-1.504-0.734-2.23-1.124
						c-0.726-0.39-1.434-0.795-2.123-1.216L249.2,683.227c0.89,0.471,1.805,0.926,2.743,1.363c0.937,0.439,1.897,0.859,2.879,1.264
						s1.984,0.791,3.007,1.16c1.022,0.369,2.065,0.721,3.127,1.055c0.229,0.072,0.459,0.143,0.691,0.213
						c0.231,0.07,0.463,0.141,0.696,0.209s0.467,0.137,0.701,0.203C263.279,688.762,263.515,688.828,263.751,688.893"/>
					<path fill="#D41E6E" d="M249.2,683.227l29.58-451.901c-0.357-0.218-0.709-0.439-1.056-0.665
						c-0.347-0.226-0.688-0.456-1.025-0.689c-0.336-0.234-0.667-0.471-0.993-0.712c-0.325-0.242-0.645-0.487-0.959-0.736
						l-30.765,451.563c0.407,0.279,0.821,0.555,1.243,0.824c0.421,0.27,0.849,0.535,1.284,0.797s0.877,0.52,1.325,0.773
						C248.283,682.732,248.738,682.982,249.2,683.227"/>
					<path fill="#D01D6C" d="M243.982,680.086l30.765-451.563c-0.199-0.158-0.396-0.317-0.59-0.478
						c-0.194-0.161-0.387-0.323-0.577-0.487c-0.19-0.164-0.377-0.329-0.563-0.496c-0.185-0.167-0.368-0.335-0.548-0.504
						L241.03,677.889c0.234,0.189,0.471,0.377,0.711,0.564c0.24,0.186,0.483,0.371,0.729,0.555c0.246,0.182,0.495,0.363,0.747,0.545
						C243.47,679.732,243.725,679.91,243.982,680.086"/>
					<path fill="#CC1C6A" d="M241.03,677.889l31.439-451.331c-0.144-0.136-0.287-0.272-0.428-0.41s-0.281-0.276-0.418-0.416
						s-0.274-0.28-0.409-0.421c-0.135-0.142-0.268-0.284-0.399-0.427l-31.933,451.133c0.171,0.16,0.344,0.318,0.519,0.477
						c0.175,0.158,0.352,0.314,0.531,0.471c0.179,0.156,0.36,0.311,0.543,0.465C240.658,677.584,240.843,677.736,241.03,677.889"/>
					<path fill="#C81A68" d="M238.883,676.018l31.933-451.133c-0.112-0.122-0.223-0.245-0.333-0.368
						c-0.11-0.124-0.218-0.248-0.326-0.373c-0.107-0.125-0.213-0.25-0.318-0.376c-0.104-0.126-0.208-0.253-0.311-0.38
						l-32.32,450.958c0.133,0.143,0.268,0.285,0.405,0.426c0.136,0.141,0.274,0.279,0.414,0.42c0.139,0.139,0.28,0.277,0.423,0.416
						C238.593,675.744,238.737,675.881,238.883,676.018"/>
					<path fill="#C51966" d="M237.208,674.346l32.32-450.958c-0.093-0.115-0.185-0.23-0.275-0.347
						c-0.091-0.116-0.18-0.233-0.269-0.35c-0.088-0.118-0.176-0.235-0.263-0.354c-0.086-0.118-0.172-0.237-0.256-0.356
						l-32.642,450.795c0.11,0.133,0.222,0.266,0.334,0.398c0.113,0.131,0.227,0.264,0.342,0.395c0.115,0.131,0.232,0.26,0.35,0.391
						C236.968,674.088,237.088,674.217,237.208,674.346"/>
					<path fill="#C11864" d="M235.824,672.775l32.642-450.795c-0.078-0.111-0.155-0.222-0.232-0.333
						c-0.076-0.112-0.152-0.224-0.227-0.336c-0.074-0.112-0.148-0.225-0.221-0.338c-0.073-0.113-0.145-0.227-0.216-0.341
						l-32.916,450.639c0.093,0.127,0.187,0.254,0.282,0.381c0.095,0.125,0.191,0.252,0.289,0.377
						c0.097,0.125,0.196,0.25,0.295,0.375C235.621,672.529,235.722,672.652,235.824,672.775"/>
					<path fill="#BD1762" d="M234.655,671.271l32.916-450.639c-0.067-0.108-0.133-0.216-0.199-0.325s-0.13-0.218-0.194-0.327
						c-0.064-0.109-0.127-0.22-0.189-0.33c-0.062-0.11-0.124-0.221-0.184-0.332l-33.152,450.486c0.079,0.125,0.16,0.248,0.241,0.371
						c0.082,0.123,0.164,0.246,0.248,0.367c0.083,0.123,0.168,0.244,0.253,0.365S234.567,671.15,234.655,671.271"/>
					<path fill="#B91560" d="M233.653,669.805l33.152-450.486c-0.058-0.107-0.116-0.214-0.172-0.322s-0.112-0.216-0.167-0.324
						c-0.055-0.108-0.109-0.217-0.162-0.326c-0.054-0.109-0.106-0.218-0.158-0.328l-33.358,450.337
						c0.068,0.123,0.137,0.244,0.208,0.367c0.07,0.121,0.141,0.242,0.213,0.363s0.145,0.24,0.219,0.361
						C233.502,669.566,233.577,669.686,233.653,669.805"/>
					<path fill="#B5145E" d="M232.788,668.355l33.357-450.337c-0.051-0.107-0.101-0.215-0.15-0.323
						c-0.049-0.108-0.097-0.216-0.145-0.325c-0.048-0.108-0.094-0.217-0.14-0.327s-0.091-0.219-0.136-0.329l-33.538,450.187
						c0.059,0.123,0.118,0.246,0.178,0.367c0.061,0.121,0.122,0.244,0.185,0.365c0.063,0.121,0.126,0.24,0.191,0.361
						S232.721,668.236,232.788,668.355"/>
					<path fill="#B1125C" d="M232.038,666.902l33.538-450.187c-0.044-0.109-0.087-0.219-0.129-0.328
						c-0.042-0.11-0.084-0.22-0.125-0.33c-0.041-0.11-0.081-0.221-0.12-0.332c-0.039-0.111-0.078-0.222-0.115-0.333L231.39,665.428
						c0.05,0.125,0.101,0.248,0.153,0.371c0.052,0.125,0.105,0.248,0.159,0.371c0.054,0.123,0.109,0.246,0.165,0.367
						C231.922,666.66,231.979,666.781,232.038,666.902"/>
					<path fill="#AE1159" d="M231.39,665.428l33.696-450.036c-0.016-0.048-0.032-0.096-0.048-0.144
						c-0.016-0.048-0.032-0.096-0.047-0.144c-0.015-0.048-0.031-0.096-0.046-0.145c-0.016-0.048-0.031-0.096-0.045-0.145
						c-0.021-0.065-0.041-0.131-0.061-0.197c-0.02-0.066-0.039-0.132-0.058-0.198c-0.02-0.066-0.038-0.132-0.057-0.198
						c-0.019-0.066-0.037-0.132-0.055-0.198l-33.833,449.879c0.024,0.074,0.048,0.148,0.073,0.221
						c0.025,0.074,0.05,0.148,0.076,0.221c0.025,0.074,0.051,0.146,0.078,0.221c0.026,0.072,0.053,0.146,0.08,0.221
						c0.02,0.053,0.04,0.107,0.061,0.16c0.02,0.055,0.041,0.107,0.062,0.162c0.021,0.053,0.042,0.107,0.063,0.16
						S231.368,665.375,231.39,665.428"/>
					<path fill="#AA0F57" d="M230.835,663.902l33.833-449.879c-0.032-0.117-0.063-0.234-0.093-0.352
						c-0.03-0.117-0.059-0.234-0.087-0.352c-0.028-0.117-0.055-0.235-0.082-0.353c-0.026-0.117-0.052-0.235-0.077-0.353
						L230.38,662.334c0.033,0.131,0.067,0.262,0.103,0.393c0.035,0.131,0.072,0.262,0.11,0.393c0.038,0.131,0.077,0.262,0.117,0.393
						C230.751,663.643,230.792,663.771,230.835,663.902"/>
					<path fill="#A60D55" d="M230.38,662.334l33.949-449.72c-0.025-0.121-0.049-0.243-0.073-0.364s-0.045-0.243-0.067-0.365
						s-0.042-0.244-0.061-0.365c-0.02-0.122-0.038-0.244-0.055-0.366l-34.042,449.553c0.024,0.135,0.049,0.271,0.076,0.406
						c0.027,0.137,0.055,0.271,0.083,0.408c0.029,0.135,0.06,0.271,0.091,0.406S230.346,662.197,230.38,662.334"/>
					<path fill="#A20B53" d="M230.031,660.707l34.042-449.553c-0.019-0.128-0.036-0.256-0.052-0.385s-0.031-0.257-0.045-0.385
						s-0.027-0.257-0.039-0.386c-0.012-0.128-0.022-0.257-0.032-0.386L229.794,658.99c0.014,0.143,0.03,0.287,0.047,0.43
						c0.017,0.143,0.035,0.287,0.055,0.43c0.02,0.143,0.041,0.285,0.063,0.428C229.982,660.422,230.006,660.564,230.031,660.707"/>
					<path fill="#9E0A51" d="M229.794,658.99l34.111-449.377c-0.011-0.139-0.02-0.277-0.028-0.415
						c-0.008-0.139-0.015-0.277-0.02-0.416c-0.005-0.139-0.009-0.277-0.012-0.416s-0.005-0.277-0.005-0.416l-34.152,449.188
						c0.002,0.154,0.006,0.309,0.012,0.463c0.006,0.154,0.013,0.309,0.022,0.463s0.02,0.309,0.031,0.463
						C229.766,658.682,229.779,658.836,229.794,658.99"/>
					<path fill="#9B084F" d="M229.688,657.139L263.84,207.95c0-0.155,0-0.311,0.003-0.466s0.007-0.311,0.012-0.466
						c0.006-0.155,0.013-0.311,0.022-0.466s0.019-0.311,0.031-0.466l-34.157,448.979c-0.013,0.172-0.024,0.346-0.034,0.518
						c-0.009,0.174-0.017,0.348-0.021,0.52c-0.005,0.174-0.009,0.346-0.01,0.52C229.685,656.793,229.686,656.967,229.688,657.139"/>
				</g>
			</g>
			<g enable-background="new    ">
				<defs>
					<path id="SVGID_39_" enable-background="new    " d="M230.367,655.131c11.339-149.668,22.68-299.321,34.019-448.988
						c-0.054,0.721-0.075,1.442-0.063,2.162c0.013,0.719,0.06,1.438,0.14,2.154c0.081,0.716,0.196,1.43,0.345,2.141
						s0.333,1.418,0.55,2.123c0.72,2.329,1.794,4.524,3.176,6.571c1.38,2.044,3.069,3.941,5.021,5.673
						c1.951,1.73,4.165,3.298,6.599,4.686c2.432,1.387,5.085,2.596,7.915,3.61c2.714,0.975,5.593,1.77,8.598,2.373
						c3.003,0.602,6.134,1.011,9.353,1.213s6.527,0.198,9.887-0.028c3.361-0.226,6.775-0.673,10.204-1.356
						c3.394-0.675,6.677-1.554,9.815-2.62c3.142-1.066,6.139-2.32,8.958-3.744c2.822-1.425,5.467-3.022,7.899-4.772
						c2.436-1.752,4.66-3.659,6.637-5.704c1.512-1.565,2.844-3.174,3.994-4.816c1.151-1.644,2.119-3.32,2.9-5.018
						c0.782-1.699,1.377-3.42,1.779-5.149c0.404-1.731,0.615-3.472,0.631-5.209l-3.926,449.138
						c-0.018,1.936-0.287,3.875-0.805,5.801c-0.517,1.924-1.28,3.834-2.285,5.721c-1.003,1.883-2.247,3.74-3.727,5.561
						c-1.478,1.816-3.189,3.596-5.131,5.322c-2.54,2.256-5.396,4.355-8.525,6.283c-3.123,1.924-6.52,3.674-10.143,5.232
						c-3.619,1.559-7.467,2.924-11.5,4.082c-4.028,1.156-8.242,2.105-12.601,2.826c-4.401,0.73-8.785,1.199-13.102,1.422
						c-4.315,0.225-8.566,0.203-12.703-0.045c-4.137-0.25-8.163-0.729-12.027-1.418c-3.866-0.691-7.572-1.594-11.07-2.695
						c-3.647-1.146-7.069-2.506-10.211-4.063c-3.145-1.559-6.01-3.314-8.538-5.25c-2.532-1.938-4.727-4.057-6.528-6.336
						c-1.804-2.285-3.214-4.734-4.171-7.328c-0.29-0.785-0.535-1.574-0.736-2.365c-0.202-0.793-0.359-1.588-0.472-2.385
						c-0.113-0.799-0.183-1.598-0.209-2.398C230.289,656.734,230.306,655.934,230.367,655.131z"/>
				</defs>
				<clipPath id="SVGID_40_">
					<use xlink:href="#SVGID_39_"  overflow="visible"/>
				</clipPath>
				<g clip-path="url(#SVGID_40_)" enable-background="new    ">
					<path fill="#9B084F" d="M230.367,655.131l34.019-448.988c-0.011,0.152-0.021,0.305-0.03,0.457
						c-0.009,0.152-0.016,0.305-0.021,0.458c-0.005,0.152-0.009,0.304-0.012,0.457s-0.003,0.305-0.003,0.457l-34.014,449.196
						c-0.002-0.17-0.003-0.34-0.002-0.51c0.001-0.17,0.004-0.338,0.009-0.508s0.012-0.34,0.021-0.51
						C230.343,655.469,230.354,655.299,230.367,655.131"/>
					<path fill="#9E0A51" d="M230.306,657.166l34.014-449.195c0,0.136,0.002,0.273,0.005,0.41s0.007,0.273,0.012,0.409
						c0.005,0.137,0.012,0.273,0.02,0.41c0.008,0.136,0.017,0.272,0.027,0.409l-33.974,449.38c-0.015-0.152-0.029-0.303-0.041-0.455
						s-0.022-0.305-0.031-0.455c-0.009-0.152-0.016-0.305-0.021-0.457C230.312,657.469,230.308,657.316,230.306,657.166"/>
					<path fill="#A20B53" d="M230.41,658.988l33.974-449.38c0.009,0.127,0.02,0.253,0.032,0.38c0.012,0.126,0.024,0.253,0.038,0.38
						s0.028,0.253,0.044,0.379s0.033,0.253,0.051,0.379L230.643,660.68c-0.025-0.141-0.048-0.281-0.07-0.422
						s-0.043-0.281-0.063-0.424c-0.019-0.141-0.037-0.281-0.054-0.422C230.439,659.271,230.424,659.129,230.41,658.988"/>
					<path fill="#A60D55" d="M230.643,660.68l33.906-449.553c0.017,0.121,0.035,0.241,0.055,0.36c0.019,0.12,0.039,0.24,0.06,0.36
						c0.021,0.12,0.043,0.239,0.066,0.359c0.023,0.12,0.047,0.239,0.072,0.359l-33.815,449.716
						c-0.034-0.133-0.066-0.266-0.097-0.398c-0.031-0.135-0.061-0.268-0.089-0.4c-0.029-0.135-0.056-0.268-0.083-0.4
						C230.691,660.947,230.667,660.814,230.643,660.68"/>
					<path fill="#AA0F57" d="M230.986,662.281l33.815-449.716c0.024,0.116,0.049,0.231,0.075,0.346
						c0.026,0.116,0.053,0.231,0.081,0.346c0.027,0.115,0.056,0.23,0.085,0.346c0.03,0.115,0.06,0.23,0.091,0.345l-33.701,449.875
						c-0.042-0.129-0.083-0.258-0.122-0.385c-0.04-0.129-0.078-0.258-0.115-0.385c-0.037-0.129-0.073-0.258-0.108-0.387
						s-0.068-0.258-0.101-0.385"/>
					<path fill="#AE1159" d="M231.432,663.824l33.701-449.875c0.018,0.064,0.036,0.129,0.054,0.193s0.037,0.129,0.055,0.193
						c0.019,0.064,0.038,0.129,0.057,0.193c0.02,0.064,0.039,0.129,0.059,0.193c0.015,0.047,0.029,0.095,0.044,0.142
						s0.03,0.095,0.045,0.142c0.015,0.047,0.031,0.095,0.046,0.142s0.031,0.094,0.047,0.142l-33.566,450.028
						c-0.021-0.053-0.042-0.105-0.063-0.158c-0.021-0.053-0.042-0.105-0.062-0.158c-0.021-0.053-0.041-0.105-0.061-0.158
						s-0.04-0.105-0.059-0.158c-0.026-0.072-0.053-0.145-0.078-0.215c-0.026-0.072-0.051-0.145-0.076-0.217
						c-0.025-0.07-0.049-0.143-0.074-0.215S231.456,663.895,231.432,663.824"/>
					<path fill="#B1125C" d="M231.976,665.318l33.566-450.028c0.037,0.11,0.075,0.219,0.113,0.328
						c0.039,0.109,0.078,0.218,0.118,0.327c0.04,0.109,0.081,0.217,0.123,0.325c0.042,0.107,0.084,0.215,0.127,0.323L232.613,666.77
						c-0.057-0.119-0.113-0.238-0.168-0.359c-0.055-0.121-0.109-0.24-0.163-0.361s-0.105-0.242-0.156-0.365
						C232.075,665.563,232.025,665.439,231.976,665.318"/>
					<path fill="#B5145E" d="M232.613,666.77l33.411-450.177c0.043,0.108,0.088,0.216,0.133,0.324
						c0.045,0.107,0.091,0.215,0.138,0.321c0.047,0.107,0.094,0.214,0.143,0.32c0.048,0.106,0.097,0.212,0.147,0.317
						l-33.233,450.326c-0.065-0.119-0.13-0.236-0.193-0.355c-0.063-0.117-0.126-0.236-0.188-0.355s-0.122-0.24-0.182-0.359
						S232.67,666.891,232.613,666.77"/>
					<path fill="#B91560" d="M233.351,668.201l33.233-450.326c0.051,0.108,0.103,0.216,0.155,0.323
						c0.053,0.107,0.106,0.214,0.16,0.321c0.054,0.106,0.109,0.213,0.165,0.319s0.112,0.211,0.169,0.317l-33.031,450.473
						c-0.075-0.119-0.149-0.236-0.222-0.354c-0.073-0.119-0.145-0.238-0.216-0.357c-0.071-0.117-0.141-0.236-0.21-0.357
						C233.486,668.441,233.418,668.32,233.351,668.201"/>
					<path fill="#BD1762" d="M234.203,669.629l33.031-450.473c0.06,0.109,0.12,0.218,0.181,0.327
						c0.061,0.109,0.123,0.217,0.186,0.325c0.063,0.108,0.126,0.215,0.191,0.322c0.064,0.107,0.129,0.214,0.196,0.32
						l-32.798,450.623c-0.086-0.119-0.172-0.238-0.256-0.357c-0.084-0.119-0.167-0.24-0.25-0.359
						c-0.082-0.121-0.163-0.242-0.243-0.363S234.281,669.75,234.203,669.629"/>
					<path fill="#C11864" d="M235.189,671.072l32.798-450.623c0.07,0.112,0.141,0.225,0.212,0.336
						c0.071,0.111,0.144,0.223,0.218,0.333c0.073,0.111,0.148,0.221,0.223,0.331c0.075,0.11,0.151,0.219,0.229,0.328
						l-32.529,450.777c-0.101-0.123-0.2-0.244-0.298-0.367c-0.098-0.123-0.195-0.246-0.291-0.369
						c-0.096-0.123-0.191-0.248-0.285-0.371C235.373,671.322,235.281,671.197,235.189,671.072"/>
					<path fill="#C51966" d="M236.341,672.555l32.529-450.777c0.083,0.118,0.167,0.235,0.252,0.352
						c0.085,0.117,0.171,0.233,0.259,0.349c0.087,0.115,0.176,0.23,0.265,0.345c0.089,0.115,0.179,0.229,0.271,0.342
						l-32.211,450.937c-0.119-0.125-0.236-0.254-0.353-0.381c-0.116-0.129-0.231-0.256-0.345-0.385
						c-0.113-0.129-0.226-0.26-0.337-0.391C236.559,672.816,236.449,672.686,236.341,672.555"/>
					<path fill="#C81A68" d="M237.705,674.102l32.211-450.937c0.101,0.125,0.204,0.25,0.307,0.375
						c0.104,0.125,0.208,0.248,0.314,0.371c0.106,0.123,0.213,0.245,0.321,0.367c0.108,0.122,0.217,0.243,0.328,0.363
						l-31.83,451.111c-0.144-0.135-0.286-0.27-0.427-0.406s-0.28-0.273-0.417-0.41s-0.274-0.275-0.408-0.414
						C237.97,674.383,237.837,674.242,237.705,674.102"/>
					<path fill="#CC1C6A" d="M239.357,675.752l31.83-451.111c0.129,0.142,0.261,0.282,0.394,0.421s0.267,0.278,0.403,0.415
						c0.136,0.138,0.273,0.274,0.413,0.41c0.139,0.136,0.279,0.271,0.421,0.404l-31.343,451.304
						c-0.185-0.15-0.367-0.301-0.547-0.453c-0.181-0.15-0.359-0.303-0.536-0.457c-0.176-0.154-0.351-0.309-0.523-0.465
						C239.695,676.066,239.525,675.908,239.357,675.752"/>
					<path fill="#D01D6C" d="M241.474,677.596l31.343-451.304c0.178,0.167,0.358,0.333,0.541,0.498s0.368,0.328,0.555,0.489
						c0.188,0.162,0.377,0.322,0.569,0.481s0.386,0.316,0.583,0.472l-30.677,451.534c-0.254-0.174-0.506-0.35-0.755-0.527
						s-0.495-0.357-0.737-0.539c-0.243-0.18-0.483-0.363-0.72-0.547S241.705,677.783,241.474,677.596"/>
					<path fill="#D41E6E" d="M244.387,679.766l30.677-451.534c0.311,0.246,0.626,0.488,0.948,0.727
						c0.322,0.238,0.648,0.473,0.981,0.704c0.332,0.23,0.669,0.458,1.012,0.681s0.69,0.442,1.043,0.657l-29.507,451.867
						c-0.456-0.24-0.906-0.486-1.349-0.736c-0.443-0.25-0.879-0.506-1.309-0.764c-0.43-0.258-0.853-0.521-1.269-0.789
						C245.198,680.313,244.789,680.041,244.387,679.766"/>
					<path fill="#D71F6F" d="M249.542,682.867L279.049,231c0.682,0.416,1.383,0.817,2.102,1.204
						c0.718,0.386,1.455,0.757,2.208,1.113c0.753,0.355,1.522,0.696,2.308,1.02c0.785,0.324,1.586,0.633,2.402,0.925
						c0.178,0.064,0.357,0.127,0.537,0.19c0.179,0.062,0.359,0.124,0.541,0.185c0.181,0.061,0.362,0.121,0.544,0.18
						s0.365,0.118,0.549,0.175l-26.262,452.497c-0.237-0.066-0.472-0.133-0.707-0.199s-0.469-0.135-0.702-0.203
						c-0.233-0.07-0.465-0.139-0.697-0.209c-0.231-0.07-0.461-0.143-0.691-0.215c-1.052-0.33-2.084-0.678-3.097-1.045
						c-1.013-0.365-2.006-0.748-2.978-1.148s-1.922-0.816-2.85-1.25C251.328,683.785,250.423,683.334,249.542,682.867"/>
					<path fill="#D41E6E" d="M263.977,688.488l26.262-452.497c0.544,0.171,1.094,0.335,1.65,0.493s1.117,0.307,1.683,0.45
						c0.566,0.143,1.138,0.279,1.714,0.407c0.577,0.129,1.158,0.25,1.744,0.364L272.72,690.439c-0.754-0.131-1.503-0.27-2.245-0.416
						c-0.742-0.148-1.478-0.303-2.207-0.465c-0.729-0.164-1.451-0.334-2.167-0.512C265.386,688.867,264.678,688.682,263.977,688.488
						"/>
					<path fill="#D01D6C" d="M272.72,690.439l24.311-452.733c0.413,0.081,0.828,0.157,1.246,0.23
						c0.417,0.073,0.837,0.143,1.259,0.208c0.422,0.065,0.846,0.127,1.272,0.186c0.427,0.059,0.854,0.113,1.284,0.164
						l-22.862,452.858c-0.553-0.059-1.104-0.123-1.651-0.191c-0.548-0.066-1.093-0.139-1.636-0.215
						c-0.542-0.076-1.083-0.156-1.619-0.24C273.786,690.621,273.251,690.531,272.72,690.439"/>
					<path fill="#CC1C6A" d="M279.229,691.352l22.862-452.858c0.363,0.043,0.729,0.083,1.095,0.121s0.733,0.072,1.103,0.104
						c0.369,0.032,0.739,0.062,1.111,0.088c0.371,0.026,0.744,0.05,1.117,0.071l-21.599,452.933
						c-0.48-0.025-0.959-0.055-1.437-0.086c-0.477-0.033-0.953-0.068-1.427-0.107c-0.474-0.037-0.947-0.078-1.418-0.123
						C280.166,691.449,279.697,691.402,279.229,691.352"/>
					<path fill="#C81A68" d="M284.919,691.811l21.599-452.933c0.338,0.019,0.676,0.035,1.016,0.05
						c0.339,0.014,0.679,0.026,1.02,0.036c0.342,0.01,0.684,0.017,1.025,0.022c0.344,0.005,0.687,0.008,1.031,0.008l-20.433,452.979
						c-0.442-0.004-0.884-0.01-1.324-0.018s-0.879-0.02-1.318-0.033c-0.438-0.014-0.875-0.029-1.311-0.047
						C285.787,691.855,285.353,691.834,284.919,691.811"/>
					<path fill="#C51966" d="M290.176,691.973l20.433-452.979c0.32,0,0.641-0.001,0.963-0.004c0.322-0.004,0.645-0.009,0.967-0.017
						c0.324-0.008,0.647-0.017,0.972-0.029c0.324-0.012,0.649-0.025,0.975-0.042L295.155,691.9
						c-0.418,0.016-0.835,0.029-1.251,0.039s-0.833,0.02-1.248,0.025s-0.829,0.01-1.243,0.01
						C291,691.977,290.588,691.977,290.176,691.973"/>
					<path fill="#C11864" d="M295.155,691.9l19.33-452.999c0.309-0.015,0.618-0.032,0.929-0.051c0.31-0.019,0.619-0.04,0.931-0.063
						c0.312-0.022,0.622-0.047,0.934-0.073s0.624-0.055,0.937-0.085l-18.27,452.999c-0.401,0.031-0.803,0.061-1.203,0.088
						c-0.4,0.025-0.8,0.051-1.199,0.074c-0.399,0.021-0.798,0.043-1.196,0.061C295.95,691.871,295.552,691.887,295.155,691.9"/>
					<path fill="#BD1762" d="M299.945,691.629l18.27-452.999c0.301-0.029,0.602-0.06,0.903-0.093s0.604-0.067,0.905-0.104
						c0.303-0.036,0.605-0.074,0.908-0.114s0.605-0.082,0.908-0.125l-17.238,452.981c-0.391,0.045-0.779,0.09-1.168,0.131
						s-0.777,0.082-1.165,0.119s-0.776,0.074-1.163,0.107S300.332,691.6,299.945,691.629"/>
					<path fill="#B91560" d="M304.602,691.176l17.238-452.981c0.296-0.042,0.592-0.087,0.888-0.132
						c0.296-0.046,0.593-0.094,0.889-0.143s0.593-0.1,0.89-0.153c0.297-0.053,0.594-0.107,0.891-0.164l-16.23,452.944
						c-0.381,0.061-0.762,0.119-1.143,0.174c-0.382,0.057-0.762,0.111-1.143,0.164s-0.761,0.102-1.141,0.15
						C305.359,691.084,304.98,691.131,304.602,691.176"/>
					<path fill="#B5145E" d="M309.166,690.547l16.23-452.944c0.059-0.011,0.119-0.023,0.178-0.034
						c0.061-0.011,0.119-0.023,0.18-0.035c0.059-0.011,0.118-0.023,0.178-0.035s0.119-0.023,0.179-0.036
						c0.236-0.047,0.473-0.095,0.708-0.144c0.235-0.049,0.471-0.099,0.705-0.15s0.468-0.103,0.701-0.156
						c0.232-0.053,0.466-0.107,0.697-0.162l-15.229,452.89c-0.299,0.059-0.598,0.117-0.896,0.174s-0.6,0.113-0.9,0.168
						s-0.602,0.107-0.904,0.16s-0.605,0.104-0.909,0.154c-0.076,0.014-0.153,0.025-0.229,0.037
						c-0.076,0.014-0.152,0.025-0.229,0.039c-0.077,0.012-0.153,0.023-0.23,0.035C309.318,690.523,309.242,690.535,309.166,690.547"
						/>
					<path fill="#B1125C" d="M313.693,689.742l15.229-452.89c0.287-0.068,0.574-0.138,0.859-0.208s0.568-0.143,0.853-0.217
						c0.283-0.074,0.565-0.149,0.847-0.226c0.282-0.077,0.563-0.155,0.842-0.234l-14.264,452.822
						c-0.359,0.086-0.719,0.17-1.08,0.252c-0.361,0.084-0.725,0.164-1.088,0.244c-0.364,0.08-0.729,0.158-1.096,0.234
						S314.062,689.67,313.693,689.742"/>
					<path fill="#AE1159" d="M318.059,688.789l14.264-452.822c0.279-0.08,0.558-0.16,0.834-0.243
						c0.277-0.082,0.554-0.166,0.828-0.251c0.275-0.085,0.549-0.171,0.822-0.259s0.545-0.177,0.816-0.268l-13.328,452.738
						c-0.348,0.098-0.697,0.195-1.048,0.291c-0.351,0.094-0.702,0.188-1.056,0.279c-0.353,0.094-0.707,0.184-1.063,0.273
						C318.773,688.615,318.416,688.703,318.059,688.789"/>
					<path fill="#AA0F57" d="M322.295,687.684l13.328-452.738c0.272-0.091,0.544-0.184,0.814-0.278s0.54-0.189,0.809-0.287
						c0.268-0.097,0.535-0.195,0.802-0.294s0.53-0.201,0.795-0.303L326.428,686.42c-0.338,0.111-0.679,0.221-1.021,0.33
						c-0.341,0.107-0.685,0.215-1.028,0.32c-0.346,0.105-0.691,0.209-1.039,0.311C322.993,687.484,322.645,687.584,322.295,687.684"
						/>
					<path fill="#A60D55" d="M326.428,686.42l12.415-452.636c0.268-0.104,0.534-0.209,0.8-0.316s0.53-0.215,0.793-0.325
						c0.264-0.109,0.525-0.221,0.786-0.333s0.521-0.226,0.778-0.341l-11.52,452.517c-0.331,0.127-0.664,0.25-0.998,0.373
						c-0.335,0.123-0.672,0.244-1.01,0.363c-0.337,0.119-0.676,0.236-1.018,0.354C327.114,686.191,326.771,686.307,326.428,686.42"
						/>
					<path fill="#A20B53" d="M330.48,684.986L342,232.469c0.265-0.118,0.528-0.238,0.791-0.359c0.262-0.121,0.523-0.244,0.783-0.368
						s0.518-0.249,0.774-0.376c0.257-0.126,0.512-0.255,0.766-0.384l-10.635,452.381c-0.325,0.141-0.653,0.281-0.983,0.42
						s-0.661,0.275-0.994,0.41c-0.334,0.137-0.668,0.27-1.006,0.402C331.16,684.729,330.821,684.857,330.48,684.986"/>
					<path fill="#9E0A51" d="M334.479,683.363l10.635-452.381c0.265-0.135,0.528-0.272,0.79-0.41s0.522-0.278,0.781-0.419
						c0.258-0.141,0.516-0.284,0.771-0.428c0.255-0.144,0.509-0.29,0.761-0.437l-9.754,452.219c-0.324,0.16-0.649,0.32-0.977,0.479
						c-0.328,0.158-0.658,0.314-0.99,0.469s-0.666,0.309-1.002,0.459S334.82,683.215,334.479,683.363"/>
					<path fill="#9B084F" d="M338.463,681.508l9.754-452.219c0.27-0.158,0.537-0.316,0.803-0.477s0.529-0.323,0.79-0.487
						c0.262-0.164,0.521-0.33,0.778-0.497c0.258-0.167,0.514-0.336,0.768-0.507l-8.863,452.029
						c-0.325,0.188-0.653,0.371-0.984,0.555c-0.33,0.184-0.664,0.367-1,0.547s-0.674,0.357-1.015,0.533
						S338.809,681.336,338.463,681.508"/>
					<path fill="#97064D" d="M342.492,679.35l8.863-452.029c0.282-0.19,0.563-0.382,0.84-0.576c0.277-0.194,0.553-0.391,0.824-0.588
						c0.273-0.198,0.543-0.398,0.809-0.6c0.268-0.202,0.531-0.406,0.793-0.612l-7.935,451.792c-0.335,0.227-0.675,0.451-1.017,0.672
						c-0.344,0.223-0.689,0.443-1.039,0.66c-0.35,0.219-0.703,0.434-1.059,0.646C343.215,678.93,342.855,679.141,342.492,679.35"/>
					<path fill="#93044A" d="M346.687,676.736l7.935-451.792c0.314-0.249,0.627-0.5,0.934-0.753c0.307-0.253,0.609-0.51,0.908-0.77
						c0.299-0.259,0.594-0.521,0.884-0.786s0.576-0.532,0.858-0.802l-6.916,451.475c-0.361,0.299-0.729,0.594-1.102,0.885
						s-0.751,0.58-1.135,0.865c-0.384,0.287-0.772,0.568-1.167,0.848S347.092,676.463,346.687,676.736"/>
					<path fill="#900248" d="M351.289,673.309l6.916-451.475c0.104-0.1,0.206-0.199,0.309-0.299s0.205-0.201,0.307-0.302
						c0.101-0.101,0.201-0.202,0.302-0.303s0.199-0.204,0.298-0.306c1.512-1.565,2.844-3.174,3.994-4.816
						c1.151-1.644,2.119-3.32,2.9-5.018c0.782-1.699,1.377-3.42,1.779-5.149c0.404-1.731,0.615-3.472,0.631-5.209l-3.926,449.138
						c-0.018,1.936-0.287,3.875-0.805,5.801c-0.517,1.924-1.28,3.834-2.285,5.721c-1.003,1.883-2.247,3.74-3.727,5.561
						c-1.478,1.816-3.189,3.596-5.131,5.322c-0.127,0.113-0.255,0.225-0.383,0.338c-0.129,0.111-0.259,0.223-0.389,0.334
						c-0.131,0.111-0.262,0.223-0.393,0.332C351.555,673.09,351.423,673.199,351.289,673.309"/>
				</g>
			</g>
			<g enable-background="new    ">
				<defs>
					<path id="SVGID_77_" enable-background="new    " d="M364.799,649.57c0.004-0.596-0.014-1.193-0.057-1.787
						c-0.043-0.596-0.11-1.191-0.201-1.785c-0.092-0.596-0.207-1.188-0.348-1.781c-0.14-0.592-0.305-1.184-0.494-1.771
						l4.182-448.393c0.146,0.527,0.272,1.056,0.381,1.586c0.107,0.53,0.197,1.061,0.267,1.593c0.07,0.532,0.122,1.065,0.154,1.599
						s0.046,1.068,0.042,1.602C367.547,335.173,365.977,514.828,364.799,649.57z"/>
				</defs>
				<clipPath id="SVGID_78_">
					<use xlink:href="#SVGID_77_"  overflow="visible"/>
				</clipPath>
				<g clip-path="url(#SVGID_78_)" enable-background="new    ">
					<path fill="#9E0A51" d="M364.799,649.57l3.926-449.138c0-0.1,0.001-0.2,0-0.3c0-0.1-0.001-0.2-0.003-0.3
						c-0.001-0.1-0.004-0.2-0.007-0.3c-0.004-0.1-0.007-0.2-0.012-0.3L364.77,648.23c0.006,0.111,0.011,0.223,0.015,0.334
						c0.004,0.113,0.007,0.225,0.01,0.336s0.004,0.223,0.005,0.334C364.799,649.346,364.799,649.459,364.799,649.57"/>
					<path fill="#A20B53" d="M364.77,648.23l3.934-448.999c-0.005-0.128-0.012-0.256-0.02-0.384s-0.017-0.256-0.026-0.383
						c-0.01-0.128-0.021-0.255-0.032-0.383c-0.013-0.127-0.025-0.255-0.039-0.383l-3.972,448.821
						c0.019,0.143,0.036,0.285,0.052,0.428s0.029,0.285,0.043,0.428c0.013,0.143,0.023,0.285,0.034,0.428
						S364.762,648.088,364.77,648.23"/>
					<path fill="#A60D55" d="M364.615,646.52l3.971-448.821c-0.014-0.122-0.029-0.243-0.044-0.364
						c-0.016-0.122-0.032-0.243-0.05-0.364c-0.018-0.121-0.035-0.242-0.055-0.364c-0.02-0.121-0.039-0.242-0.061-0.363
						l-4.034,448.651c0.028,0.135,0.054,0.27,0.079,0.406c0.025,0.135,0.049,0.27,0.072,0.406c0.022,0.135,0.044,0.27,0.064,0.406
						C364.578,646.248,364.598,646.383,364.615,646.52"/>
					<path fill="#AA0F57" d="M364.343,644.895l4.034-448.651c-0.021-0.117-0.043-0.234-0.065-0.352s-0.046-0.234-0.07-0.351
						s-0.05-0.234-0.075-0.351c-0.026-0.117-0.054-0.234-0.082-0.351l-4.12,448.485c0.036,0.131,0.071,0.262,0.105,0.393
						s0.067,0.262,0.099,0.393s0.062,0.262,0.091,0.393S364.316,644.764,364.343,644.895"/>
					<path fill="#AE1159" d="M363.964,643.324l4.12-448.485c-0.016-0.066-0.031-0.131-0.048-0.197
						c-0.017-0.066-0.033-0.131-0.05-0.197c-0.018-0.065-0.035-0.131-0.053-0.197c-0.018-0.065-0.035-0.131-0.053-0.196
						l-4.182,448.393c0.023,0.072,0.047,0.146,0.07,0.219c0.022,0.074,0.045,0.146,0.066,0.221c0.022,0.072,0.044,0.146,0.065,0.219
						C363.922,643.178,363.943,643.252,363.964,643.324"/>
				</g>
			</g>
			<g>
				<polygon fill="#D41E6E" points="363.699,642.445 367.881,194.052 368.348,193.958 364.302,642.344 				"/>
			</g>
			<g enable-background="new    ">
				<defs>
					<path id="SVGID_85_" enable-background="new    " d="M369.203,200.424c-1.262,149.722-2.527,299.417-3.788,449.14
						c0.005-0.604-0.015-1.209-0.058-1.811c-0.043-0.604-0.111-1.207-0.204-1.809c-0.093-0.604-0.21-1.205-0.352-1.805
						s-0.308-1.199-0.5-1.797l4.046-448.385c0.147,0.534,0.276,1.07,0.385,1.607c0.109,0.537,0.2,1.075,0.271,1.615
						c0.07,0.539,0.123,1.08,0.156,1.62S369.207,199.882,369.203,200.424z"/>
				</defs>
				<clipPath id="SVGID_86_">
					<use xlink:href="#SVGID_85_"  overflow="visible"/>
				</clipPath>
				<g clip-path="url(#SVGID_86_)" enable-background="new    ">
					<path fill="#AE1159" d="M364.302,642.344l4.046-448.385c0.018,0.066,0.036,0.133,0.054,0.199
						c0.019,0.066,0.035,0.133,0.052,0.199c0.018,0.066,0.035,0.132,0.051,0.199c0.018,0.066,0.033,0.133,0.049,0.199l-3.984,448.48
						c-0.021-0.074-0.041-0.148-0.063-0.223s-0.044-0.148-0.066-0.223c-0.021-0.074-0.045-0.148-0.067-0.223
						S364.326,642.418,364.302,642.344"/>
					<path fill="#AA0F57" d="M364.568,643.234l3.984-448.48c0.029,0.119,0.057,0.237,0.083,0.356s0.052,0.238,0.077,0.356
						c0.024,0.119,0.049,0.238,0.071,0.357c0.022,0.119,0.044,0.238,0.065,0.357l-3.896,448.647c-0.027-0.133-0.055-0.268-0.085-0.4
						s-0.061-0.266-0.093-0.398c-0.031-0.133-0.065-0.266-0.1-0.398C364.641,643.498,364.605,643.365,364.568,643.234"/>
					<path fill="#A60D55" d="M364.953,644.828l3.896-448.647c0.021,0.123,0.043,0.246,0.063,0.369s0.038,0.246,0.056,0.37
						c0.018,0.123,0.034,0.246,0.05,0.37c0.016,0.123,0.03,0.247,0.044,0.37l-3.833,448.82c-0.018-0.139-0.037-0.275-0.057-0.414
						c-0.021-0.137-0.043-0.273-0.065-0.412c-0.022-0.137-0.047-0.275-0.073-0.412C365.008,645.102,364.981,644.965,364.953,644.828
						"/>
					<path fill="#A20B53" d="M365.229,646.479l3.833-448.82c0.015,0.13,0.028,0.259,0.04,0.389c0.012,0.129,0.023,0.259,0.033,0.389
						c0.01,0.129,0.019,0.259,0.026,0.389s0.015,0.26,0.021,0.39l-3.796,449.001c-0.007-0.146-0.017-0.291-0.026-0.436
						s-0.021-0.289-0.035-0.434c-0.013-0.145-0.027-0.291-0.043-0.436S365.248,646.623,365.229,646.479"/>
					<path fill="#9E0A51" d="M365.386,648.217l3.796-449.001c0.004,0.101,0.008,0.201,0.011,0.302s0.006,0.202,0.007,0.302
						c0.002,0.101,0.004,0.201,0.004,0.302c0,0.101,0,0.202,0,0.302l-3.788,449.141c0.001-0.113,0.001-0.225,0-0.338
						c-0.001-0.111-0.002-0.225-0.005-0.336c-0.002-0.113-0.006-0.225-0.01-0.338C365.396,648.441,365.392,648.328,365.386,648.217"
						/>
				</g>
			</g>
			<g enable-background="new    ">
				<defs>
					<path id="SVGID_92_" enable-background="new    " d="M264.386,206.143c0.117-1.543,0.388-3.088,0.811-4.625
						c0.423-1.539,0.999-3.07,1.723-4.585c0.726-1.517,1.602-3.017,2.625-4.493c1.024-1.478,2.197-2.93,3.515-4.349l-31.743,446.97
						c-1.683,1.574-3.177,3.188-4.479,4.83c-1.301,1.639-2.411,3.307-3.327,4.994c-0.915,1.684-1.636,3.387-2.161,5.1
						c-0.524,1.709-0.853,3.428-0.983,5.146C241.706,505.463,253.046,355.81,264.386,206.143z"/>
				</defs>
				<clipPath id="SVGID_93_">
					<use xlink:href="#SVGID_92_"  overflow="visible"/>
				</clipPath>
				<g clip-path="url(#SVGID_93_)" enable-background="new    ">
					<path fill="#900248" d="M241.318,635.061l31.743-446.97c-1.318,1.419-2.491,2.871-3.515,4.349
						c-1.024,1.476-1.899,2.977-2.625,4.493c-0.725,1.516-1.3,3.047-1.723,4.585c-0.423,1.537-0.694,3.082-0.811,4.625
						l-34.019,448.988c0.13-1.719,0.459-3.438,0.983-5.146c0.525-1.713,1.247-3.416,2.161-5.1c0.916-1.688,2.026-3.355,3.327-4.994
						C238.141,638.248,239.635,636.635,241.318,635.061"/>
				</g>
			</g>
			<g>
				<polygon fill="#EA2479" points="240.816,634.77 272.674,187.832 273.061,188.09 241.318,635.061 				"/>
			</g>
			<g enable-background="new    ">
				<defs>
					<path id="SVGID_96_" enable-background="new    " d="M229.751,655.064c11.385-149.664,22.772-299.315,34.157-448.979
						c0.119-1.562,0.393-3.125,0.821-4.679c0.428-1.557,1.009-3.105,1.742-4.638c0.733-1.534,1.618-3.051,2.652-4.542
						c1.035-1.493,2.219-2.961,3.551-4.395L240.816,634.77c-1.7,1.59-3.209,3.221-4.525,4.881c-1.314,1.656-2.436,3.344-3.361,5.049
						c-0.924,1.703-1.654,3.426-2.185,5.158C230.216,651.586,229.883,653.324,229.751,655.064z"/>
				</defs>
				<clipPath id="SVGID_97_">
					<use xlink:href="#SVGID_96_"  overflow="visible"/>
				</clipPath>
				<g clip-path="url(#SVGID_97_)" enable-background="new    ">
					<path fill="#900248" d="M229.751,655.064l34.157-448.979c0.119-1.562,0.393-3.125,0.821-4.679
						c0.428-1.557,1.009-3.105,1.742-4.638c0.733-1.534,1.618-3.051,2.652-4.542c1.035-1.493,2.219-2.961,3.551-4.395
						L240.816,634.77c-1.7,1.59-3.209,3.221-4.525,4.881c-1.314,1.656-2.436,3.344-3.361,5.049
						c-0.924,1.703-1.654,3.426-2.185,5.158C230.216,651.586,229.883,653.324,229.751,655.064"/>
				</g>
			</g>
		</g>
	</g>
</g>
<path fill="#FFFFFF" d="M286.395,255.821c0.762,8.319-1.997,18.506-2.002,27.395c-0.003,7.639-0.279,15.436,0.102,23.027
	c7.171,7.963,6.666-20.448,7.178-26.45c0.875-10.25,1.143-21.173,0.623-31.682c-1.936-0.206-3.617,1.126-4.566,3.352"/>
<path fill="#EC008C" d="M327.729,257.004c-2.594-0.266-4.137,1.573-4.885,3.857c-1.108,3.389,0.528,4.041,1.846,6.718
	c1.834,3.728,0.844,3.447-0.926,6.967c-1.603,3.184-1.906,4.742,1.94,6.577c2.862,1.365,3.763,0.293,6.321-0.15
	c2.236-0.387,4.875,0.132,7.004-0.352c5.263-1.195,6.049-7.789,6.112-12.531c-1.429-0.595-4.253-0.146-5.341-1.206
	c-1.688-1.643,0.46-4.829-1.331-6.649c-1.567-1.594-4.046,0.074-6.011-0.959c-2.121-1.115-1.321-4.042-4.73-3.772"/>
<ellipse fill="#B2AF73" cx="333.229" cy="461.754" rx="3.5" ry="6.25"/>
<ellipse fill="#B2AF73" cx="342.229" cy="464.504" rx="3.5" ry="6.25"/>
<ellipse fill="#B2AF73" cx="320.729" cy="455.004" rx="3.5" ry="6.25"/>
<ellipse fill="#B2AF73" cx="323.729" cy="474.004" rx="3.5" ry="6.25"/>
<ellipse fill="#B2AF73" cx="333.229" cy="446.004" rx="3.5" ry="6.25"/>
<ellipse fill="#B2AF73" cx="343.229" cy="448.004" rx="3.5" ry="6.25"/>
<ellipse fill="#B2AF73" cx="333.729" cy="481.504" rx="3.5" ry="6.25"/>
<ellipse fill="#B2AF73" cx="320.729" cy="434.254" rx="3.5" ry="6.25"/>
<ellipse fill="#B2AF73" cx="331.229" cy="425.754" rx="3.5" ry="6.25"/>
<ellipse fill="#B2AF73" cx="345.229" cy="430.254" rx="3.5" ry="6.25"/>
<ellipse fill="#FFF200" cx="337.396" cy="595.004" rx="7.667" ry="19"/>
<g>
	<g>
		<path fill="#FFFFFF" stroke="#000000" stroke-width="0.2192" d="M345.65,584.354c0,0,1.225,2.42-8.568,4.963"/>
		<path fill="#FFFFFF" stroke="#000000" stroke-width="0.2192" d="M345.637,584.631c0,0-1.828-2.08-8.707,4.758"/>
	</g>
	<linearGradient id="SVGID_114_" gradientUnits="userSpaceOnUse" x1="354.3516" y1="588.8086" x2="366.4898" y2="555.4592">
		<stop  offset="0" style="stop-color:#FFFFFF"/>
		<stop  offset="0.0566" style="stop-color:#FBFBFB"/>
		<stop  offset="0.111" style="stop-color:#F0F0F0"/>
		<stop  offset="0.1645" style="stop-color:#DCDCDC"/>
		<stop  offset="0.2176" style="stop-color:#C1C1C1"/>
		<stop  offset="0.2703" style="stop-color:#9E9E9E"/>
		<stop  offset="0.3227" style="stop-color:#737373"/>
		<stop  offset="0.3739" style="stop-color:#414141"/>
		<stop  offset="0.3956" style="stop-color:#292929"/>
		<stop  offset="0.6868" style="stop-color:#000000"/>
	</linearGradient>
	<path fill="url(#SVGID_114_)" d="M345.525,585.516c-0.324,0-0.633-0.125-0.85-0.344c-0.426-0.426-0.391-1.09,0.078-1.477
		l29.789-24.672c0.213-0.176,0.486-0.271,0.773-0.271c0.322,0,0.633,0.125,0.85,0.342c0.205,0.207,0.313,0.475,0.297,0.754
		s-0.146,0.535-0.375,0.723l-29.791,24.674C346.086,585.418,345.811,585.516,345.525,585.516L345.525,585.516z"/>
	<linearGradient id="SVGID_116_" gradientUnits="userSpaceOnUse" x1="354.4961" y1="588.4102" x2="366.3449" y2="555.8558">
		<stop  offset="0" style="stop-color:#FFFFFF"/>
		<stop  offset="0.0566" style="stop-color:#FBFBFB"/>
		<stop  offset="0.111" style="stop-color:#F0F0F0"/>
		<stop  offset="0.1645" style="stop-color:#DCDCDC"/>
		<stop  offset="0.2176" style="stop-color:#C1C1C1"/>
		<stop  offset="0.2703" style="stop-color:#9E9E9E"/>
		<stop  offset="0.3227" style="stop-color:#737373"/>
		<stop  offset="0.3739" style="stop-color:#414141"/>
		<stop  offset="0.3956" style="stop-color:#292929"/>
		<stop  offset="0.6868" style="stop-color:#000000"/>
	</linearGradient>
	<path fill="url(#SVGID_116_)" stroke="#000000" stroke-width="0.2192" d="M375.779,560.262c0.281-0.232,0.303-0.629,0.047-0.887
		l0,0c-0.256-0.256-0.691-0.275-0.973-0.041l-29.791,24.67c-0.283,0.234-0.303,0.631-0.047,0.887l0,0
		c0.256,0.258,0.691,0.275,0.973,0.043L375.779,560.262z"/>
</g>
<path fill="#A57C52" stroke="#000000" stroke-width="0.1589" d="M340.395,601.338c0,2.627-0.955,4.758-2.135,4.758
	c-1.178,0-2.134-2.131-2.134-4.758c0-2.629,2.134-4.76,2.134-4.76S340.395,598.709,340.395,601.338z"/>
<path fill="#A57C52" stroke="#000000" stroke-width="0.1589" d="M341.863,594.004c0,2.629-0.955,4.76-2.135,4.76
	c-1.178,0-2.135-2.131-2.135-4.76c0-2.627,2.135-4.758,2.135-4.758S341.863,591.377,341.863,594.004z"/>
<path fill="#A57C52" stroke="#000000" stroke-width="0.1589" d="M334.996,594.43c0,2.629-0.955,4.76-2.135,4.76
	c-1.178,0-2.133-2.131-2.133-4.76c0-2.627,2.133-4.758,2.133-4.758S334.996,591.803,334.996,594.43z"/>
<rect fill="none" stroke="#000000" stroke-width="3" stroke-miterlimit="10" width="595.28" height="841.89"/>
<rect x="123.5" y="26.5" fill="none" stroke="#000000" stroke-miterlimit="10" width="331" height="145"/>
<rect x="4" y="178.5" fill="none" stroke="#000000" stroke-miterlimit="10" width="223.79" height="517.5"/>
<rect x="425.026" y="813" fill="none" width="144.773" height="16.731"/>
<text transform="matrix(1 0 0 1 425.0264 821.5195)" fill="#00A651" font-family="'MyriadPro-Regular'" font-size="12">Written by Dr Sebastian Zeki</text>
<rect x="374" y="563.17" fill="none" width="206.5" height="86.865"/>
<text transform="matrix(1 0 0 1 374 570.2695)"><tspan x="0" y="0" font-family="'MyriadPro-BoldIt'" font-size="10">Histology:</tspan><tspan x="0" y="12" font-family="'MyriadPro-Regular'" font-size="10">Multifocal plaques of hyperplastic squamous </tspan><tspan x="0" y="24" font-family="'MyriadPro-Regular'" font-size="10">epithelium with abundant intracellular glycogen.</tspan><tspan x="0" y="36" font-family="'MyriadPro-Regular'" font-size="10">Lugol&apos;s solution, which turns plaques dark brown, </tspan><tspan x="0" y="48" font-family="'MyriadPro-Regular'" font-size="10">so distinguishing  from leukoplakia, monoliasis, </tspan><tspan x="0" y="60" font-family="'MyriadPro-Regular'" font-size="10">and bullous pemphigoid, all of which can have a </tspan><tspan x="0" y="72" font-family="'MyriadPro-Regular'" font-size="10">similar endoscopic appearance.</tspan></text>
<rect x="13" y="500.854" fill="none" width="204.5" height="100.108"/>
<text transform="matrix(1 0 0 1 13 510.793)"><tspan x="0" y="0" fill="#ED1C24" font-family="'MyriadPro-BoldIt'" font-size="14">Complications of inlet patches:</tspan><tspan x="0" y="12" font-family="'MyriadPro-Regular'" font-size="10">Perforation and a tracheoesophageal fistula </tspan><tspan x="0" y="24" font-family="'MyriadPro-Regular'" font-size="10">occurring at the site of an inlet patch.</tspan><tspan x="0" y="36" font-family="'MyriadPro-Regular'" font-size="10">Dysphagia commonly from strictures, rings, and </tspan><tspan x="0" y="48" font-family="'MyriadPro-Regular'" font-size="10">webs associated with the patch.</tspan><tspan x="0" y="60" font-family="'MyriadPro-Regular'" font-size="10">Can get H. pylori in 75% who have H. pylori in </tspan><tspan x="0" y="72" font-family="'MyriadPro-Regular'" font-size="10">the stomach.</tspan><tspan x="0" y="84" font-family="'MyriadPro-Regular'" font-size="10">20 % also have Barrett’s.</tspan></text>
<rect x="12.5" y="430.754" fill="none" width="206" height="64.578"/>
<text transform="matrix(1 0 0 1 12.5 440.6934)"><tspan x="0" y="0" fill="#ED1C24" font-family="'MyriadPro-BoldIt'" font-size="14">Endoscopic Features Of Inlet </tspan><tspan x="0" y="16.801" fill="#ED1C24" font-family="'MyriadPro-BoldIt'" font-size="14">Patches</tspan><tspan x="0" y="28.801" font-family="'MyriadPro-Regular'" font-size="10">The patches range in size from 2 mm to 4.5 cm </tspan><tspan x="0" y="40.801" font-family="'MyriadPro-Regular'" font-size="10">and can be solitary or multiple.</tspan><tspan x="0" y="52.801" font-family="'MyriadPro-Regular'" font-size="10">They are usually red, velvety and flat.</tspan></text>
<rect x="12" y="365.75" fill="none" width="212.334" height="65.004"/>
<text transform="matrix(1 0 0 1 12 375.6899)"><tspan x="0" y="0" fill="#ED1C24" font-family="'MyriadPro-BoldIt'" font-size="14">Histological Feature of Inlet </tspan><tspan x="0" y="16.8" fill="#ED1C24" font-family="'MyriadPro-BoldIt'" font-size="14">Patches:</tspan><tspan x="0" y="28.8" font-family="'MyriadPro-Regular'" font-size="10">Corpus or fundic-type gastric mucosa, sometimes </tspan><tspan x="0" y="40.8" font-family="'MyriadPro-Regular'" font-size="10">with parietal cells capable of secreting acid.</tspan><tspan x="0" y="52.8" font-family="'MyriadPro-Regular'" font-size="10">Also have an associated inflammatory infiltrate.</tspan></text>
<rect x="12" y="269.866" fill="none" width="206.5" height="99.126"/>
<text transform="matrix(1 0 0 1 12 276.9658)"><tspan x="0" y="0" font-family="'MyriadPro-BoldIt'" font-size="10">Pathogenesis</tspan><tspan x="0" y="12" font-family="'MyriadPro-Regular'" font-size="10">Embryonic (not heterotopic) gastric mucosa with </tspan><tspan x="0" y="24" font-family="'MyriadPro-Regular'" font-size="10">glucagon reactive cells only seen in embryonic </tspan><tspan x="0" y="36" font-family="'MyriadPro-Regular'" font-size="10">form</tspan><tspan x="0" y="48" font-family="'MyriadPro-Regular'" font-size="10">BUT...</tspan><tspan x="0" y="60" font-family="'MyriadPro-Regular'" font-size="10">More closely resemble Barrett&apos;s mucosa rather </tspan><tspan x="0" y="72" font-family="'MyriadPro-Regular'" font-size="10">than normal gastric mucosa, making a congenital </tspan><tspan x="0" y="84" font-family="'MyriadPro-Regular'" font-size="10">origin seem less likely.</tspan></text>
<rect x="126.978" y="71.5" fill="none" width="327.522" height="66.328"/>
<text transform="matrix(1 0 0 1 126.9775 81.4399)"><tspan x="0" y="0" fill="#ED1C24" font-family="'MyriadPro-BoldIt'" font-size="14">Histological Features of Parakeratosis:</tspan><tspan x="232.563" y="0" fill="#ED1C24" font-family="'MyriadPro-Regular'" font-size="14"> </tspan><tspan x="0" y="12" font-family="'MyriadPro-Regular'" font-size="10">Epithelial acanthosis.</tspan><tspan x="0" y="24" font-family="'MyriadPro-Regular'" font-size="10">Basal hyperplasia.</tspan><tspan x="0" y="36" font-family="'MyriadPro-Regular'" font-size="10">Dense, compact layer of parakeratosis,   featuring cytoplasmic eosinophilia and </tspan><tspan x="0" y="48" font-family="'MyriadPro-Regular'" font-size="10">pycnotic nuclei, covered by an outer layer of nonnucleated squamous cells.</tspan></text>
<rect x="127" y="135.5" fill="none" width="322.073" height="42.348"/>
<text transform="matrix(1 0 0 1 127 145.4399)"><tspan x="0" y="0" fill="#ED1C24" font-family="'MyriadPro-BoldIt'" font-size="14">Associations of parakeratosis:</tspan><tspan x="0" y="12" font-family="'MyriadPro-Regular'" font-size="10">Head and neck cancers.</tspan><tspan x="0" y="24" font-family="'MyriadPro-Regular'" font-size="10">Submucosal fibrosis of the oral cavity, esp smokers and betel nut chewers.</tspan></text>
<rect x="128" y="29" fill="none" width="115.667" height="13.667"/>
<text transform="matrix(1 0 0 1 128 41.7798)" fill="#ED1C24" font-family="'MyriadPro-BoldIt'" font-size="18">Parakeratosis</text>
<rect x="374.313" y="387.876" fill="none" width="184.725" height="169.179"/>
<text transform="matrix(1 0 0 1 374.3125 397.8159)"><tspan x="0" y="0" fill="#ED1C24" font-family="'MyriadPro-BoldIt'" font-size="14">Glycogen acanthosis</tspan><tspan x="0" y="19.2" font-family="'MyriadPro-Regular'" font-size="10">It is more common in males than females.</tspan><tspan x="0" y="31.2" font-family="'MyriadPro-Regular'" font-size="10">It occurs in 40s and 50s.</tspan><tspan x="0" y="43.2" font-family="'MyriadPro-Regular'" font-size="10">It occurs in 10% of all upper endoscopies.</tspan><tspan x="0" y="55.2" font-family="'MyriadPro-BoldIt'" font-size="10">Endoscopic </tspan><tspan x="50.549" y="55.2" font-family="'MyriadPro-Regular'" font-size="10">features typically</tspan><tspan x="121.257" y="55.2" font-family="'MyriadPro-BoldIt'" font-size="10"> </tspan><tspan x="123.097" y="55.2" font-family="'MyriadPro-Regular'" font-size="10">involve </tspan><tspan x="0" y="67.2" font-family="'MyriadPro-Regular'" font-size="10">multiple, uniformly sized round elevations </tspan><tspan x="0" y="79.2" font-family="'MyriadPro-Regular'" font-size="10">in otherwise normal-appearing mucosa, </tspan><tspan x="0" y="91.2" font-family="'MyriadPro-Regular'" font-size="10">Lesions are usually in the midportion of the </tspan><tspan x="0" y="103.2" font-family="'MyriadPro-Regular'" font-size="10">oesophagus. </tspan><tspan x="0" y="115.2" font-family="'MyriadPro-Regular'" font-size="10">Lesions can be up to 1cm.</tspan><tspan x="0" y="127.2" font-family="'MyriadPro-BoldIt'" font-size="10">Associations </tspan><tspan x="55.979" y="127.2" font-family="'MyriadPro-Regular'" font-size="10">include</tspan><tspan x="86.869" y="127.2" font-family="'MyriadPro-BoldIt'" font-size="10"> </tspan><tspan x="88.709" y="127.2" font-family="'MyriadPro-Regular'" font-size="10">Cowden&apos;s disease and </tspan><tspan x="0" y="139.2" font-family="'MyriadPro-Regular'" font-size="10">coeliac.</tspan><tspan x="0" y="151.2" font-family="'MyriadPro-Regular'" font-size="10">Patients are usually asymptomatic.</tspan></text>
<rect x="171.092" y="5.009" fill="none" width="277.981" height="23.991"/>
<text transform="matrix(1 0 0 1 171.0923 22.0488)" font-family="'MyriadPro-BoldIt'" font-size="24">Flat Oesophageal Lesions</text>
<rect x="372.478" y="178.774" fill="none" width="215.022" height="205.913"/>
<text transform="matrix(1 0 0 1 372.4775 191.5537)"><tspan x="0" y="0" fill="#ED1C24" font-family="'MyriadPro-BoldIt'" font-size="18">Heterotopic sebaceous </tspan><tspan x="0" y="21.6" fill="#ED1C24" font-family="'MyriadPro-BoldIt'" font-size="18">glands</tspan><tspan x="0" y="40.8" font-family="'MyriadPro-Regular'" font-size="10">May represent reactive metaplasia of ectopic, </tspan><tspan x="0" y="52.8" font-family="'MyriadPro-Regular'" font-size="10">pluripotent salivary type mucous glands in the </tspan><tspan x="0" y="64.8" font-family="'MyriadPro-Regular'" font-size="10">oesophagus that were initially displaced during </tspan><tspan x="0" y="76.8" font-family="'MyriadPro-Regular'" font-size="10">embryonic development.</tspan><tspan x="0" y="100.8" font-family="'MyriadPro-BoldIt'" font-size="10">Endoscopy </tspan><tspan x="48.519" y="100.8" font-family="'MyriadPro-Regular'" font-size="10">shows</tspan><tspan x="74.839" y="100.8" font-family="'MyriadPro-BoldIt'" font-size="10"> </tspan><tspan x="76.679" y="100.8" font-family="'MyriadPro-Regular'" font-size="10">yellowish gray, plaque-like </tspan><tspan x="0" y="112.8" font-family="'MyriadPro-Regular'" font-size="10">lesions that resemble xanthelasmas.</tspan><tspan x="0" y="124.8" font-family="'MyriadPro-Regular'" font-size="10">Lesions frequently occur in clusters, with several </tspan><tspan x="0" y="136.8" font-family="'MyriadPro-Regular'" font-size="10">cases of up to 100 reported in the literature.</tspan><tspan x="0" y="148.8" font-family="'MyriadPro-BoldIt'" font-size="10">Histological features include </tspan><tspan x="124.349" y="148.8" font-family="'MyriadPro-Regular'" font-size="10">lobules of cells with </tspan><tspan x="0" y="160.8" font-family="'MyriadPro-Regular'" font-size="10">sebaceous differentiation within the lamina </tspan><tspan x="0" y="172.8" font-family="'MyriadPro-Regular'" font-size="10">propria.</tspan><tspan x="0" y="184.8" font-family="'MyriadPro-Regular'" font-size="10">The lesions have no known malignant potential.</tspan></text>
<rect x="13.009" y="182.85" fill="none" width="200.781" height="462.905"/>
<text transform="matrix(1 0 0 1 13.0088 195.6294)"><tspan x="0" y="0" fill="#ED1C24" font-family="'MyriadPro-BoldIt'" font-size="18">Inlet patch</tspan><tspan x="82.744" y="0" font-family="'MyriadPro-BoldIt'" font-size="18"> </tspan><tspan x="0" y="12" font-family="'MyriadPro-Regular'" font-size="10">It is defined as a heterotopic gastric mucosa of </tspan><tspan x="0" y="24" font-family="'MyriadPro-Regular'" font-size="10">the upper oesophagus.</tspan><tspan x="0" y="36" font-family="'MyriadPro-Regular'" font-size="10">It is found in the proximal 3cm oesophagus.</tspan><tspan x="0" y="48" font-family="'MyriadPro-Regular'" font-size="10">The population prevalence is 5%.</tspan><tspan x="0" y="60" font-family="'MyriadPro-Regular'" font-size="10">It is often seen in children and prevalence </tspan><tspan x="0" y="72" font-family="'MyriadPro-Regular'" font-size="10">doesnt increase with age.</tspan><tspan x="0" y="408" font-family="'MyriadPro-Regular'" font-size="10">It is usually asymptomatic.</tspan><tspan x="0" y="432" font-family="'MyriadPro-BoldIt'" font-size="10">No treatment is necessary, </tspan><tspan x="115.187" y="432" font-family="'MyriadPro-Regular'" font-size="10">occasionally PPI can </tspan><tspan x="0" y="444" font-family="'MyriadPro-Regular'" font-size="10">be useful.</tspan></text>
<rect x="127.148" y="46.164" fill="none" width="232.519" height="22.836"/>
<text transform="matrix(1 0 0 1 127.1479 56.104)"><tspan x="0" y="0" fill="#ED1C24" font-family="'MyriadPro-BoldIt'" font-size="14">Endoscopic features of parakeratosis:</tspan><tspan x="0" y="12" font-family="'MyriadPro-Regular'" font-size="10">Endoscopy shows whitish, membranous linear plaques.</tspan></text>
</svg>
