<?xml version="1.0" encoding="utf-8"?>
<!-- Generator: Adobe Illustrator 15.0.2, SVG Export Plug-In . SVG Version: 6.00 Build 0)  -->
<!DOCTYPE svg PUBLIC "-//W3C//DTD SVG 1.1//EN" "http://www.w3.org/Graphics/SVG/1.1/DTD/svg11.dtd">
<svg version="1.1" id="Layer_1" xmlns="http://www.w3.org/2000/svg" xmlns:xlink="http://www.w3.org/1999/xlink" x="0px" y="0px"
	 width="595.275px" height="841.89px" viewBox="0 0 595.275 841.89" enable-background="new 0 0 595.275 841.89"
	 xml:space="preserve">
<g id="XMLID_1_">
	<g>
		<path fill="#EC7BAA" d="M51.63,479.161c0.89,3.431,0.47,8.57-1.13,11.71c-5.46,4.631,0.81,12.78,0.7,18.261
			c-0.03,2.08,0.25,7.84-0.81,9.64c-1.75,2.98-4.47,1.81-6.88,3.43c-2.28,1.54-4.07,5.36-4.07,8.71H36.5v-70.71l4.66,2
			c-0.04,2.67-0.76,6.471,1.8,8.08c2.32,1.471,5.15,1.19,6.57,4.09c0.2,0.681,0.82,1.551,1.04,2.101c0.46,1.13,1.13,1.37,1.13,2.67
			L51.63,479.161z"/>
		<path fill="#EC7BAA" d="M50.27,546.892c0.17,2.149-0.53,4.77-0.74,6.91c-0.25,2.529-0.38,5.149-0.27,7.75
			c0.28,6.41,0.99,12.62,1,19.149c0,1.061,0,2.13,0,3.2h-0.25c0-11.81-2.69-21.38-6-21.38s-6,9.57-6,21.38H36.5v-52.99h2.94
			c0,1.971,0.62,3.771,2.13,4.851c2.7,1.93,5.74,0.09,8.01,2.14c2.3,2.07,1.84,6.44,0.92,8.97L50.27,546.892z"/>
		<path d="M45.7,604.411c-0.54,0.561-1.1,0.86-1.69,0.86c-3.31,0-6-9.57-6-21.37c0-11.81,2.69-21.38,6-21.38s6,9.57,6,21.38
			C50.01,593.611,48.19,601.821,45.7,604.411z"/>
		<path fill="#EC7BAA" d="M45.7,604.411l-9.2,14.46v-34.97h1.51c0,11.8,2.69,21.37,6,21.37C44.6,605.271,45.16,604.972,45.7,604.411
			z"/>
	</g>
	<g>
		<polyline fill="none" stroke="#000000" stroke-width="0.42" points="36.5,460.201 36.5,530.911 36.5,583.901 36.5,618.871 		"/>
		<path fill="none" stroke="#000000" stroke-width="0.42" d="M51.59,479.012c0.01,0.05,0.03,0.1,0.04,0.149
			c0.89,3.431,0.47,8.57-1.13,11.71"/>
		<path fill="none" stroke="#000000" stroke-width="0.42" d="M41.16,462.201c-0.04,2.67-0.76,6.471,1.8,8.08
			c2.32,1.471,5.15,1.19,6.57,4.09c0.01,0.021,0.02,0.04,0.03,0.061"/>
		<path fill="none" stroke="#000000" stroke-width="0.42" d="M50.5,490.871c-5.46,4.631,0.81,12.78,0.7,18.261
			c-0.03,2.08,0.25,7.84-0.81,9.64c-1.75,2.98-4.47,1.81-6.88,3.43c-2.28,1.54-4.07,5.36-4.07,8.71c0,1.971,0.62,3.771,2.13,4.851
			c2.7,1.93,5.74,0.09,8.01,2.14c2.3,2.07,1.84,6.44,0.92,8.97"/>
		<path fill="none" stroke="#000000" stroke-width="0.42" d="M50.26,546.771c0,0.04,0.01,0.08,0.01,0.12
			c0.17,2.149-0.53,4.77-0.74,6.91c-0.25,2.529-0.38,5.149-0.27,7.75c0.28,6.41,0.99,12.62,1,19.149c0,1.061,0,2.13,0,3.2
			c0,2.29,0,4.58,0,6.87"/>
		<path fill="none" stroke="#000000" stroke-width="0.42" d="M50.01,583.901c0,9.71-1.82,17.92-4.31,20.51
			c-0.54,0.561-1.1,0.86-1.69,0.86c-3.31,0-6-9.57-6-21.37c0-11.81,2.69-21.38,6-21.38S50.01,572.092,50.01,583.901z"/>
		<polyline fill="none" stroke="#FFFFFF" stroke-width="0.4629" points="36.5,618.871 45.7,604.411 45.84,604.191 		"/>
		<line fill="none" stroke="#FFFFFF" stroke-width="0.4629" x1="36.5" y1="460.201" x2="41.16" y2="462.201"/>
		<path fill="none" stroke="#000000" stroke-width="0.42" d="M51.7,479.142c0-1.3-0.67-1.54-1.13-2.67
			c-0.22-0.55-0.84-1.42-1.04-2.101c-0.07-0.17-0.09-0.33-0.08-0.47"/>
	</g>
</g>
<path fill="none" stroke="#000000" stroke-width="0.4282" d="M588.14,840.069c0,1.006-2.577,1.82-5.757,1.82H12.378
	c-3.179,0-5.757-0.814-5.757-1.82V644.065c0-1.005,2.579-1.82,5.757-1.82h570.004c3.18,0,5.757,0.815,5.757,1.82V840.069z"/>
<g>
	<path fill="none" stroke="#000000" d="M158.162,56.146c-0.072,8.366,2.414,17.182,7.537,23.037c-4.222,0.07-7.154,3.527-9.05,3.983
		c-0.157,0.014-2.007-1.573-2.848-1.677c-5.544,7.379-4.306,16.268,2.616,22.651c0.17-0.036,1.277-0.137,1.41-0.059
		c0.263,0.018,0.391-3.354,0.11-3.132c11.086,14.738-10.375,14.303-9.952,29.347"/>
	<ellipse fill="none" stroke="#000000" cx="151.619" cy="53.239" rx="4.507" ry="4.652"/>
	<ellipse stroke="#000000" cx="152.783" cy="53.82" rx="2.472" ry="2.326"/>
</g>
<path fill="none" stroke="#000000" d="M138.636,125.738c-0.404,33.547-2.748,66.607-6.87,99.915"/>
<path fill="none" stroke="#000000" d="M148.793,134.739c-2.092,30.666-4.092,61.666,8.908,90.666c4,7,8,13,13,19c9,11,17,22,25,34
	c1,1,0,3,1,4c8,13,12,30,4,44c-12,20-35,30-57,31c-17,1-36-8-43-24c-27,1-52,15-72.9,31.419"/>
<path fill="none" stroke="#000000" d="M131.766,224.867c21.873,65.693-39.154,71.831-83.825,111.43
	c-18.696,16.573-34.42,26.499-39.042,48.971"/>
<g>
	<path fill="none" stroke="#000000" d="M229.958,690.575c-0.028,3.362,0.97,6.906,3.029,9.259c-1.697,0.028-2.875,1.418-3.637,1.601
		c-0.063,0.006-0.807-0.632-1.145-0.674c-2.229,2.967-1.73,6.539,1.052,9.104c0.068-0.014,0.514-0.054,0.567-0.022
		c0.105,0.007,0.157-1.349,0.044-1.259c4.456,5.923-4.17,5.749-4,11.795"/>
	<ellipse fill="none" stroke="#000000" cx="227.329" cy="689.406" rx="1.812" ry="1.87"/>
	<ellipse stroke="#000000" cx="227.796" cy="689.64" rx="0.993" ry="0.936"/>
</g>
<path fill="none" stroke="#000000" d="M222.976,705.615c-3.262,7.145-4.672,14.876-5.313,22.792
	c-0.091,1.131-0.167,2.266-0.23,3.402c0.031,1.21,0.065,2.414,0.102,3.614c1.567,11.549,1.567,22.795-1.793,33.953
	c-0.083,0.761-0.161,1.521-0.239,2.282c-0.234,2.281-0.476,4.561-0.757,6.837"/>
<path fill="none" stroke="#000000" d="M227.628,708.027c-1.17,5.344-2.517,11.305-3.748,17.536
	c-0.087,0.446-0.289,0.877-0.565,1.187c-1.486,1.14-0.123,1.821-0.204,2.774c-0.13,0.375-0.366,0.647-0.654,0.827
	c-0.288,0.179-0.629,0.264-0.969,0.264c0.681,0.341,0.681,1.022,1.118,1.793c-0.027,0.185-0.073,0.362-0.209,0.548
	c0.795,1.749-1.931-0.637-0.191,2.104c-0.359,0.163-0.709,0.33-0.894,0.57c-0.187,0.239-0.208,0.552,0.089,1.006
	c0.252,0.271,0.337,0.512,0.462,0.765c-0.042,0.216-0.084,0.433-0.125,0.649c-0.042,0.216-0.126,0.43-0.405,0.628
	c-0.184,0.116-0.866,0.457-1.207,0.457c0.341,1.022,1.363,1.363,0.897,2.827c-0.075,0.436-0.148,0.872-0.22,1.308
	c-1.499,9.166-2.137,18.455,0.323,27.452c0.234,1.104,0.48,2.186,0.762,3.24c3.328,12.443,28.501,29.327,12.595,43.245
	c-9.521,8.33-25.272,8.487-30.538-2.235c-9.696,1.058-17.761,5.16-24.628,10.951"/>
<path fill="none" stroke="#000000" d="M214.745,778.229c7.453,22.387-13.343,24.478-28.566,37.972
	c-6.371,5.648-11.73,9.03-13.305,16.688"/>
<g>
	<path fill="none" stroke="#000000" d="M402.667,20.006c-0.059,6.859,1.979,14.089,6.181,18.89
		c-3.463,0.058-5.866,2.892-7.421,3.266c-0.129,0.012-1.646-1.29-2.335-1.375c-4.547,6.051-3.531,13.34,2.145,18.573
		c0.141-0.03,1.047-0.112,1.156-0.048c0.215,0.015,0.32-2.751,0.09-2.568c9.091,12.085-8.508,11.728-8.16,24.063"/>
	<ellipse fill="none" stroke="#000000" cx="397.302" cy="17.622" rx="3.696" ry="3.814"/>
	<ellipse stroke="#000000" cx="398.256" cy="18.099" rx="2.027" ry="1.907"/>
</g>
<path fill="none" stroke="#000000" d="M394.523,95.313c-0.188,15.65-1.299,31.077-3.221,46.614"/>
<path fill="none" stroke="#000000" d="M399.615,96.024c-0.927,8.646-1.371,17.395-0.693,26.076
	c0.518,6.642,1.447,13.537,4.707,19.442c6.042,10.94,15.914,19.653,20.415,31.482c2.007,5.275,2.363,11.009-0.435,16.076
	c-3.339,6.046-9.818,10.336-16.205,12.581c-6.285,2.209-13.432,2.694-19.764,0.396c-2.961-1.074-5.689-2.777-7.862-5.068
	c-1.122-1.185-2.088-2.514-2.88-3.939c-0.266-0.48-0.308-0.728-0.751-0.873c-0.393-0.128-1.253,0.154-1.665,0.213
	c-1.183,0.168-2.359,0.37-3.529,0.608c-10.578,2.154-20.232,7.304-28.451,14.232"/>
<path fill="none" stroke="#000000" d="M391.303,141.559c10.266,30.835-18.379,33.716-39.347,52.303
	c-8.776,7.779-16.156,12.438-18.326,22.986"/>
<g>
	<g>
		<line fill="none" stroke="#000000" x1="143.607" y1="160.056" x2="160.941" y2="160.056"/>
		<path d="M166.977,160.056c-2.84,1.054-6.363,2.852-8.547,4.755l1.72-4.755l-1.72-4.755
			C160.613,157.205,164.137,159.003,166.977,160.056z"/>
	</g>
</g>
<g>
	<g>
		<line fill="none" stroke="#000000" x1="140.941" y1="164.723" x2="151.607" y2="266.056"/>
		<path d="M152.24,272.058c-1.346-2.714-3.502-6.029-5.624-8.002l4.909,1.212l4.549-2.208
			C154.41,265.431,152.99,269.124,152.24,272.058z"/>
	</g>
</g>
<path fill="#FFFFFF" stroke="#000000" d="M92.275,341.461c0,7.325-5.373,13.263-12,13.263H34.941c-6.627,0-12-5.938-12-13.263
	v-15.474c0-7.325,5.373-13.263,12-13.263h45.334c6.627,0,12,5.938,12,13.263V341.461z"/>
<g>
	<g>
		<path fill="none" stroke="#000000" d="M397.643,97.84c-2.341,20.275-0.502,37.01,6.058,55.915
			c5.382,15.506,18.271,48.563-12.675,45.594c-6.854-0.657-10.246-8.309-10.844-13.827c0.107-0.102,0.211-0.207,0.313-0.314
			c5.512-3.539,1.729,2.262,3.693,3.067"/>
		<path d="M389.771,190.564c-3.027-0.103-6.969,0.224-9.712,1.156l3.396-3.747l0.213-5.052
			C384.966,185.512,387.543,188.512,389.771,190.564z"/>
	</g>
</g>
<line fill="none" stroke="#000000" x1="232.052" y1="741.407" x2="224.1" y2="733.683"/>
<line fill="none" stroke="#000000" x1="242.829" y1="817.359" x2="205.004" y2="811.226"/>
<path fill="none" stroke="#000000" d="M217.966,769.124c-0.269-2.715-2.131-1.162-0.709,0.256c-0.05,0.031-0.129,0.013-0.172-0.024
	c-0.54,0.474-0.345,0.499-0.708,1.095c0.141-0.055,1.141-0.425,1.148-0.426c0.338,1.328,0.495,0.785,1.313,1.621
	c-0.187-0.545-0.166-0.974-0.424-1.496c0.46,0.436,1.084,0.521,1.431,0.784c-0.466-0.712-0.163-1.081-0.938-1.586
	c2.655-0.354,1.944-3.224-0.02-0.842c-0.008-0.169,0.119-0.738,0.217-0.936c-0.017-0.002-0.171-0.14-0.171-0.146
	c-0.01,0.004-0.129-0.075-0.129-0.077c-0.01,0.008-0.178,0.002-0.179-0.002c-0.424,0.562-0.515,1.197-0.704,1.867"/>
<line fill="none" stroke="#000000" x1="201.609" y1="751.858" x2="215.013" y2="767.079"/>
<path fill="none" stroke="#000000" d="M586.255,234.229c0,1.248-1.642,2.261-3.665,2.261H306.588c-2.025,0-3.666-1.013-3.666-2.261
	V11.987c0-1.248,1.641-2.261,3.666-2.261H582.59c2.023,0,3.665,1.013,3.665,2.261V234.229z"/>
<path fill="none" stroke="#000000" stroke-width="1.0248" d="M299.813,442.645c0,2.405-1.714,4.355-3.827,4.355H7.827
	C5.714,447,4,445.05,4,442.645V14.464c0-2.405,1.714-4.354,3.827-4.354h288.159c2.113,0,3.827,1.95,3.827,4.354V442.645z"/>
<ellipse stroke="#000000" stroke-width="0.42" cx="47.51" cy="528.646" rx="1.75" ry="1.625"/>
<ellipse stroke="#000000" stroke-width="0.42" cx="41.885" cy="530.146" rx="1.375" ry="1.625"/>
<ellipse stroke="#000000" stroke-width="0.42" cx="40.385" cy="534.771" rx="1.625" ry="1.5"/>
<ellipse stroke="#000000" stroke-width="0.42" cx="44.885" cy="532.271" rx="1.125" ry="1.25"/>
<ellipse stroke="#000000" stroke-width="0.42" cx="48.01" cy="533.521" rx="1" ry="2"/>
<path fill="none" stroke="#000000" stroke-width="1.0705" d="M587.078,629.68c0,3-2.754,5.432-6.151,5.432H10.257
	c-3.397,0-6.152-2.432-6.152-5.432V456.521c0-3,2.754-5.432,6.152-5.432h570.67c3.397,0,6.151,2.432,6.151,5.432V629.68z"/>
<g>
	<rect x="186.5" y="14" fill="#FFFFFF" width="188" height="27"/>
	<rect x="193.373" y="17.511" fill="none" width="185.216" height="26.599"/>
	<text transform="matrix(1 0 0 1 193.3721 34.5518)" font-family="'MyriadPro-BoldIt'" font-size="24">Caustic Ingestion</text>
</g>
<path fill="none" stroke="#000000" d="M587.255,444.418c0,1.144-1.653,2.071-3.691,2.071h-277.95c-2.039,0-3.691-0.928-3.691-2.071
	v-203.62c0-1.144,1.652-2.071,3.691-2.071h277.95c2.038,0,3.691,0.928,3.691,2.071V444.418z"/>
<path fill="none" stroke="#000000" stroke-miterlimit="10" d="M180.177,480.407c6.17-0.437,6.298,1.599,5.637,3.34
	c-0.723,1.904-1.667,3.313,3.686,4.522c-5.177,0.727-1.159,3.767-0.449,5.104c1.579,2.972-0.407,3.399-6.875,4.126"/>
<path fill="none" stroke="#000000" stroke-miterlimit="10" d="M180.177,499.99c6.17-1.111,6.299,4.067,5.637,8.5
	c-0.723,4.846-1.666,8.432,3.687,11.51c-5.177,1.849-1.159,9.586-0.448,12.99c1.578,7.563-0.408,8.65-6.875,10.5"/>
<path fill="none" stroke="#000000" stroke-miterlimit="10" d="M180.177,551.069c6.17-1.685,6.299,6.164,5.637,12.883
	c-0.723,7.345-1.666,12.779,3.687,17.444c-5.177,2.803-1.159,14.529-0.448,19.689c1.578,11.463-0.408,13.11-6.875,15.914"/>
<path fill="none" stroke="#000000" stroke-miterlimit="10" d="M345.177,466.137c6.17-2.181,6.299,7.982,5.637,16.681
	c-0.723,9.509-1.666,16.546,3.687,22.586c-5.177,3.628-1.159,18.812-0.448,25.492c1.578,14.842-0.408,16.975-6.875,20.604"/>
<path fill="none" stroke="#000000" stroke-miterlimit="10" d="M346.177,555.473c6.17-0.984,6.299,3.602,5.637,7.526
	c-0.723,4.291-1.666,7.466,3.687,10.191c-5.177,1.637-1.159,8.488-0.448,11.503c1.578,6.696-0.408,7.659-6.875,9.297"/>
<line fill="none" stroke="#000000" stroke-miterlimit="10" x1="315.5" y1="613" x2="330" y2="613"/>
<rect x="4" fill="none" stroke="#000000" stroke-width="3" width="591.275" height="841.89"/>
<rect x="441.834" y="829.557" fill="none" width="144.773" height="16.731"/>
<text transform="matrix(1 0 0 1 441.834 838.0762)" fill="#009036" font-family="'MyriadPro-Regular'" font-size="12">Written by Dr Sebastian Zeki</text>
<rect x="313.663" y="311.997" fill="none" width="226.666" height="111.889"/>
<text transform="matrix(1 0 0 1 313.6631 321.937)"><tspan x="0" y="0" fill="#E2001A" font-family="'MyriadPro-BoldIt'" font-size="14">Management</tspan><tspan x="0" y="9.6" font-family="'MyriadPro-Regular'" font-size="8">Patients should be surgically or ITU managed.</tspan><tspan x="0" y="19.2" font-family="'MyriadPro-Regular'" font-size="8">If low volume acid or alkali and no symptoms can be followed as </tspan><tspan x="0" y="28.8" font-family="'MyriadPro-Regular'" font-size="8">outpatient without endoscopy otherwise NBM and iv PPI.</tspan><tspan x="0" y="38.4" font-family="'MyriadPro-Regular'" font-size="8">Management involves mangement of airway damage.</tspan><tspan x="0" y="48" font-family="'MyriadPro-Regular'" font-size="8">Do NOT use emetics/ neutralizers (exothermic reaction) or NG’s </tspan><tspan x="0" y="57.6" font-family="'MyriadPro-Regular'" font-size="8">acutely.</tspan><tspan x="0" y="67.2" font-family="'MyriadPro-BoldIt'" font-size="8">Endoscopy should be done</tspan><tspan x="91.092" y="67.2" font-family="'MyriadPro-Regular'" font-size="8"> as soon as possible after admission.</tspan><tspan x="0" y="76.8" font-family="'MyriadPro-Regular'" font-size="8">Prophylactic stenting to prevent strictures is not recommended.</tspan><tspan x="0" y="86.4" font-family="'MyriadPro-BoldIt'" font-size="8">Oesophagectomy</tspan><tspan x="60.711" y="86.4" font-family="'MyriadPro-Regular'" font-size="8"> with colonic interposition may be required for </tspan><tspan x="0" y="96" font-family="'MyriadPro-Regular'" font-size="8">patients with severe strictures.</tspan></text>
<rect x="360.5" y="560" fill="none" width="90.5" height="29.135"/>
<text transform="matrix(1 0 0 1 360.5 565.6797)"><tspan x="0" y="0" font-family="'MyriadPro-Regular'" font-size="8">Patients with grades 2B </tspan><tspan x="0" y="9.601" font-family="'MyriadPro-Regular'" font-size="8">and 3A develop strictures </tspan><tspan x="0" y="19.2" font-family="'MyriadPro-Regular'" font-size="8">in 75%</tspan></text>
<rect x="360.01" y="596.02" fill="none" width="147" height="38.885"/>
<text transform="matrix(1 0 0 1 360.0098 601.6992)"><tspan x="0" y="0" font-family="'MyriadPro-Regular'" font-size="8">Grade 3B carries a 65% early mortality and </tspan><tspan x="0" y="9.601" font-family="'MyriadPro-Regular'" font-size="8">the need for esophageal resection with </tspan><tspan x="0" y="19.2" font-family="'MyriadPro-Regular'" font-size="8">colonic or jejunal interposition in most </tspan><tspan x="0" y="28.8" font-family="'MyriadPro-Regular'" font-size="8">cases. </tspan></text>
<rect x="360.171" y="496.241" fill="none" width="99.329" height="30.87"/>
<text transform="matrix(1 0 0 1 360.1709 501.9209)"><tspan x="0" y="0" font-family="'MyriadPro-Regular'" font-size="8">Patients with grades 1 and 2A </tspan><tspan x="0" y="9.601" font-family="'MyriadPro-Regular'" font-size="8">have an excellent prognosis / </tspan><tspan x="0" y="19.2" font-family="'MyriadPro-Regular'" font-size="8">no complications</tspan></text>
<rect x="18.027" y="648.052" fill="none" width="162.667" height="127.353"/>
<text transform="matrix(1 0 0 1 18.0273 653.7314)"><tspan x="0" y="0" font-family="'MyriadPro-BoldIt'" font-size="8">Esophageal squamous carcinoma</tspan><tspan x="115.51" y="0" font-family="'MyriadPro-Regular'" font-size="8"> —</tspan><tspan x="0" y="9.601" font-family="'MyriadPro-Regular'" font-size="8"> Risk is 1000 higher with lye ingestion </tspan><tspan x="0" y="19.2" font-family="'MyriadPro-Regular'" font-size="8">Latency of around 41 years</tspan><tspan x="0" y="28.8" font-family="'MyriadPro-Regular'" font-size="8">Lye induced cancer present earlier and respond </tspan><tspan x="0" y="38.4" font-family="'MyriadPro-Regular'" font-size="8">better because</tspan><tspan x="0" y="57.601" font-family="'MyriadPro-Regular'" font-size="8">1. The esophageal becomes less distensible so </tspan><tspan x="0" y="67.2" font-family="'MyriadPro-Regular'" font-size="8">earlier dysphagia. </tspan><tspan x="0" y="76.8" font-family="'MyriadPro-Regular'" font-size="8">2. The scar tissue prevents spread</tspan><tspan x="0" y="96" font-family="'MyriadPro-Regular'" font-size="8">Surveillance should begin 20 years after the </tspan><tspan x="0" y="105.601" font-family="'MyriadPro-Regular'" font-size="8">caustic ingestion. </tspan><tspan x="0" y="115.2" font-family="'MyriadPro-Regular'" font-size="8">Repeat endoscopy every 2 years</tspan></text>
<rect x="18.027" y="777.867" fill="none" width="126.835" height="50.323"/>
<text transform="matrix(1 0 0 1 18.0273 783.5469)"><tspan x="0" y="0" font-family="'MyriadPro-BoldIt'" font-size="8">Pyloric stenosis</tspan><tspan x="52.944" y="0" font-family="'MyriadPro-Regular'" font-size="8">- The development of </tspan><tspan x="0" y="9.601" font-family="'MyriadPro-Regular'" font-size="8">early satiety and postprandial </tspan><tspan x="0" y="19.2" font-family="'MyriadPro-Regular'" font-size="8">vomiting months or years after </tspan><tspan x="0" y="28.8" font-family="'MyriadPro-Regular'" font-size="8">ingestion suggest pyloric stenosis </tspan><tspan x="0" y="38.4" font-family="'MyriadPro-Regular'" font-size="8">esp. with acids</tspan></text>
<rect x="244.197" y="685.722" fill="none" width="339.996" height="146.498"/>
<text transform="matrix(1 0 0 1 244.1968 691.4014)"><tspan x="0" y="0" font-family="'MyriadPro-BoldIt'" font-size="8">Stricture-</tspan><tspan x="0" y="9.601" font-family="'MyriadPro-Regular'" font-size="8">1/3rd get strictures primarily in those with grade 2B or 3 injury</tspan><tspan x="0" y="19.2" font-family="'MyriadPro-Regular'" font-size="8"> The peak incidence of stricture-related  is 2m, although it can occur as early as two weeks or as late as </tspan><tspan x="0" y="28.8" font-family="'MyriadPro-Regular'" font-size="8">years after ingestion.</tspan><tspan x="0" y="38.4" font-family="'MyriadPro-Regular'" font-size="8">Should  wait three to six weeks after the initial injury before attempting dilation. </tspan><tspan x="0" y="48" font-family="'MyriadPro-Regular'" font-size="8">Perforation occurs in  0.5% of procedures, and surgical correction is required in 70% </tspan><tspan x="0" y="57.601" font-family="'MyriadPro-Regular'" font-size="8">The goal is to dilate the esophageal lumen to 15 mm and to completely relieve dysphagia </tspan><tspan x="0" y="67.2" font-family="'MyriadPro-Regular'" font-size="8">Long and eccentric strictures may require endoscopic dilation under fluoroscopic guidance in order to </tspan><tspan x="0" y="76.8" font-family="'MyriadPro-Regular'" font-size="8">minimize the risk of perforation.</tspan><tspan x="0" y="96" font-family="'MyriadPro-Regular'" font-size="8">If pharyngoesophageal corrosive strictures is more complex. and cant dilate antegradally a retrograde </tspan><tspan x="0" y="105.601" font-family="'MyriadPro-Regular'" font-size="8">approach with a mini-laparotomy and gastrostomy should be attempted with retrograde dilatation</tspan><tspan x="0" y="115.2" font-family="'MyriadPro-Regular'" font-size="8">In severe cases, elective esophageal resection with esophago-gastric anastomosis or colonic </tspan><tspan x="0" y="124.8" font-family="'MyriadPro-Regular'" font-size="8">interposition is required.</tspan><tspan x="0" y="134.4" font-family="'MyriadPro-Regular'" font-size="8">Temporary placement of a self-expanding plastic stent can be useful </tspan></text>
<rect x="195.865" y="655.055" fill="none" width="96" height="21.186"/>
<text transform="matrix(1 0 0 1 195.8647 660.7344)"><tspan x="0" y="0" font-family="'MyriadPro-BoldIt'" font-size="8">Dysmotility- due to scarred </tspan><tspan x="0" y="9.601" font-family="'MyriadPro-BoldIt'" font-size="8">segment</tspan></text>
<rect x="193.51" y="455.239" fill="none" width="156.985" height="158.393"/>
<text transform="matrix(1 0 0 1 193.5098 465.1787)"><tspan x="0" y="0" fill="#E2001A" font-family="'MyriadPro-BoldIt'" font-size="14">Management of damage:</tspan><tspan x="0" y="26.4" font-family="'MyriadPro-Regular'" font-size="8">Patients with mild or no injury may be </tspan><tspan x="0" y="36" font-family="'MyriadPro-Regular'" font-size="8">discharged.</tspan><tspan x="0" y="55.2" font-family="'MyriadPro-Regular'" font-size="8">No therapy required for grade 1 or 2A damage.</tspan><tspan x="0" y="64.801" font-family="'MyriadPro-Regular'" font-size="8">Start liquid diet with regular diet at 48hrs for </tspan><tspan x="0" y="74.4" font-family="'MyriadPro-Regular'" font-size="8">minimal damage</tspan><tspan x="0" y="93.601" font-family="'MyriadPro-Regular'" font-size="8">Nasoenteric tube feeding should be initiated </tspan><tspan x="0" y="103.2" font-family="'MyriadPro-Regular'" font-size="8">after 24 hours for severe damage.</tspan><tspan x="0" y="112.801" font-family="'MyriadPro-Regular'" font-size="8">Oral liquids are allowed after the first 48 hours </tspan><tspan x="0" y="122.4" font-family="'MyriadPro-Regular'" font-size="8">if the patient is able to swallow saliva.</tspan><tspan x="0" y="132" font-family="'MyriadPro-Regular'" font-size="8">Observe for signs of perforation over at least a </tspan><tspan x="0" y="141.601" font-family="'MyriadPro-Regular'" font-size="8">one-week period.</tspan></text>
<rect x="57.287" y="452.909" fill="none" width="124.667" height="166.431"/>
<text transform="matrix(1 0 0 1 57.2871 462.8486)"><tspan x="0" y="0" fill="#E42720" font-family="'MyriadPro-BoldIt'" font-size="14">Grading Of Damage</tspan><tspan x="0" y="26.4" font-family="'MyriadPro-Regular'" font-size="8">Grade 0 — Normal</tspan><tspan x="0" y="36" font-family="'MyriadPro-Regular'" font-size="8"> </tspan><tspan x="0" y="45.601" font-family="'MyriadPro-Regular'" font-size="8">Grade 1 — Mucosal edema and </tspan><tspan x="0" y="55.2" font-family="'MyriadPro-Regular'" font-size="8">hyperemia </tspan><tspan x="0" y="74.4" font-family="'MyriadPro-Regular'" font-size="8">Grade 2A — Superficial ulcers, </tspan><tspan x="0" y="84" font-family="'MyriadPro-Regular'" font-size="8">bleeding, exudates</tspan><tspan x="0" y="103.2" font-family="'MyriadPro-Regular'" font-size="8"> Grade 2B — Deep focal or circumfer</tspan><tspan x="121.126" y="103.2" font-family="'MyriadPro-Regular'" font-size="8">-</tspan><tspan x="0" y="112.801" font-family="'MyriadPro-Regular'" font-size="8">ential ulcers</tspan><tspan x="0" y="132" font-family="'MyriadPro-Regular'" font-size="8">Grade 3A — Focal necrosis</tspan><tspan x="0" y="151.2" font-family="'MyriadPro-Regular'" font-size="8">Grade 3B — Extensive necrosis </tspan></text>
<rect x="310.829" y="106.979" fill="none" width="76.093" height="59.865"/>
<text transform="matrix(1 0 0 1 310.8291 112.6592)"><tspan x="0" y="0" font-family="'MyriadPro-Regular'" font-size="8">Damage usually in </tspan><tspan x="0" y="9.6" font-family="'MyriadPro-Regular'" font-size="8">antrum as pylorus </tspan><tspan x="0" y="19.2" font-family="'MyriadPro-Regular'" font-size="8">goes into spasm </tspan><tspan x="0" y="28.8" font-family="'MyriadPro-Regular'" font-size="8">Food in the stomach </tspan><tspan x="0" y="38.4" font-family="'MyriadPro-Regular'" font-size="8">tends to provide a </tspan><tspan x="0" y="48" font-family="'MyriadPro-Regular'" font-size="8">protective effect. </tspan></text>
<rect x="415.035" y="50.727" fill="none" width="130" height="31.178"/>
<text transform="matrix(1 0 0 1 415.0352 56.4063)"><tspan x="0" y="0" font-family="'MyriadPro-Regular'" font-size="8">Amount of acid ingested tends to be </tspan><tspan x="0" y="9.6" font-family="'MyriadPro-Regular'" font-size="8">limited as painful to swallow, and </tspan><tspan x="0" y="19.2" font-family="'MyriadPro-Regular'" font-size="8">passes into stomach quickly</tspan></text>
<rect x="417.496" y="109.646" fill="none" width="120.666" height="59.865"/>
<text transform="matrix(1 0 0 1 417.4961 115.3252)"><tspan x="0" y="0" font-family="'MyriadPro-Regular'" font-size="8"> Acid ingestion typically produces a </tspan><tspan x="0" y="9.6" font-family="'MyriadPro-Regular'" font-size="8">superficial coagulation necrosis that </tspan><tspan x="0" y="19.2" font-family="'MyriadPro-Regular'" font-size="8">thromboses the underlying mucosal </tspan><tspan x="0" y="28.8" font-family="'MyriadPro-Regular'" font-size="8">blood vessels and consolidates the </tspan><tspan x="0" y="38.4" font-family="'MyriadPro-Regular'" font-size="8">connective tissue, thereby forming </tspan><tspan x="0" y="48" font-family="'MyriadPro-Regular'" font-size="8">a protective eschar.</tspan></text>
<rect x="414.278" y="22.582" fill="none" width="107.333" height="31.075"/>
<text transform="matrix(1 0 0 1 414.2783 28.2617)"><tspan x="0" y="0" font-family="'MyriadPro-BoldIt'" font-size="8">Acid(</tspan><tspan x="17.536" y="0" font-family="'MyriadPro-Regular'" font-size="8">toilet bowl or swimming </tspan><tspan x="0" y="9.6" font-family="'MyriadPro-Regular'" font-size="8">pool cleaners, antirust </tspan><tspan x="0" y="19.2" font-family="'MyriadPro-Regular'" font-size="8">compounds, or in battery fluid )</tspan></text>
<rect x="29.607" y="315.89" fill="none" width="63.775" height="39.506"/>
<text transform="matrix(1 0 0 1 29.6074 321.5703)"><tspan x="0" y="0" font-family="'MyriadPro-BoldIt'" font-size="8">Less common </tspan><tspan x="0" y="9.6" font-family="'MyriadPro-BoldIt'" font-size="8">chance of </tspan><tspan x="0" y="19.2" font-family="'MyriadPro-BoldIt'" font-size="8">duodenal injury </tspan><tspan x="0" y="28.8" font-family="'MyriadPro-BoldIt'" font-size="8">(30%)</tspan></text>
<rect x="142.275" y="282.723" fill="none" width="48.666" height="50.472"/>
<text transform="matrix(1 0 0 1 142.2754 288.4033)"><tspan x="0" y="0" font-family="'MyriadPro-BoldIt'" font-size="8">Partially </tspan><tspan x="0" y="9.6" font-family="'MyriadPro-BoldIt'" font-size="8">neutralised in </tspan><tspan x="0" y="19.2" font-family="'MyriadPro-BoldIt'" font-size="8">the stomach </tspan><tspan x="0" y="28.8" font-family="'MyriadPro-BoldIt'" font-size="8">so much less </tspan><tspan x="0" y="38.4" font-family="'MyriadPro-BoldIt'" font-size="8">injury</tspan></text>
<rect x="170.941" y="158.181" fill="none" width="123.334" height="98.436"/>
<text transform="matrix(1 0 0 1 170.9414 163.8613)"><tspan x="0" y="0" font-family="'MyriadPro-BoldIt'" font-size="8">Causes liquefactive necrosis of </tspan><tspan x="0" y="9.6" font-family="'MyriadPro-BoldIt'" font-size="8">oesophagus within seconds. Lasts </tspan><tspan x="0" y="19.2" font-family="'MyriadPro-BoldIt'" font-size="8">3-4 days</tspan><tspan x="0" y="28.8" font-family="'MyriadPro-Regular'" font-size="8">Over the ensuing two weeks, the </tspan><tspan x="0" y="38.4" font-family="'MyriadPro-Regular'" font-size="8">esophageal wall becomes progres</tspan><tspan x="113.454" y="38.4" font-family="'MyriadPro-Regular'" font-size="8">-</tspan><tspan x="0" y="48" font-family="'MyriadPro-Regular'" font-size="8">sively thinner because of sloughing </tspan><tspan x="0" y="57.6" font-family="'MyriadPro-Regular'" font-size="8">and the development of granulation </tspan><tspan x="0" y="67.2" font-family="'MyriadPro-Regular'" font-size="8">tissue and fibrosis. </tspan><tspan x="0" y="76.8" font-family="'MyriadPro-Regular'" font-size="8">Re-epithelialization is usually </tspan><tspan x="0" y="86.4" font-family="'MyriadPro-Regular'" font-size="8">complete one to three months later.</tspan></text>
<rect x="176.941" y="84.056" fill="none" width="103.334" height="38.885"/>
<text transform="matrix(1 0 0 1 176.9409 89.7363)"><tspan x="0" y="0" font-family="'MyriadPro-BoldIt'" font-size="8">Alkali (</tspan><tspan x="23.959" y="0" font-family="'MyriadPro-Regular'" font-size="8">drain cleaners, other </tspan><tspan x="0" y="9.6" font-family="'MyriadPro-Regular'" font-size="8">household cleaning products, </tspan><tspan x="0" y="19.2" font-family="'MyriadPro-Regular'" font-size="8">or disc batteries. ) =Lye CHECK </tspan><tspan x="0" y="28.8" font-family="'MyriadPro-Regular'" font-size="8">THIS</tspan></text>
<rect x="324.365" y="644.415" fill="none" width="89.135" height="19.078"/>
<text transform="matrix(1 0 0 1 324.3652 654.3545)" fill="#E42720" font-family="'MyriadPro-BoldIt'" font-size="14">Late sequelae</text>
<rect x="314.067" y="244.735" fill="none" width="215.933" height="69.101"/>
<text transform="matrix(1 0 0 1 314.0674 250.415)"><tspan x="0" y="0" font-family="'MyriadPro-Regular'" font-size="8">Leading cause of esophageal strictures in children.</tspan><tspan x="0" y="9.6" font-family="'MyriadPro-Regular'" font-size="8">Ingestion is usually accidental in children &lt;5y and intentional in </tspan><tspan x="0" y="19.2" font-family="'MyriadPro-Regular'" font-size="8">adults and adolescents. </tspan><tspan x="0" y="28.8" font-family="'MyriadPro-Regular'" font-size="8">Liquid household bleach (5 % sodium hypochlorite) ingestion </tspan><tspan x="0" y="38.4" font-family="'MyriadPro-Regular'" font-size="8">rarely causes severe esophageal injury.</tspan><tspan x="0" y="48" font-family="'MyriadPro-Regular'" font-size="8">Both cause laryngeal and tracheo-bronchial injury.</tspan><tspan x="0" y="57.6" font-family="'MyriadPro-Regular'" font-size="8">Outcomes worse for acid ingestion</tspan></text>
<rect x="11.609" y="68" fill="none" width="101.433" height="11.333"/>
<text transform="matrix(1 0 0 1 11.6089 77.939)" fill="#E42720" font-family="'MyriadPro-BoldIt'" font-size="14">Alkali  Ingestion</text>
<rect x="512.333" y="172" fill="none" width="60" height="29.667"/>
<text transform="matrix(1 0 0 1 512.333 181.939)"><tspan x="0" y="0" fill="#E42720" font-family="'MyriadPro-BoldIt'" font-size="14">Acid </tspan><tspan x="0" y="16.8" fill="#E42720" font-family="'MyriadPro-BoldIt'" font-size="14">Ingestion</tspan></text>
</svg>
