<?xml version="1.0" encoding="utf-8"?>
<!-- Generator: Adobe Illustrator 15.0.2, SVG Export Plug-In . SVG Version: 6.00 Build 0)  -->
<!DOCTYPE svg PUBLIC "-//W3C//DTD SVG 1.1//EN" "http://www.w3.org/Graphics/SVG/1.1/DTD/svg11.dtd">
<svg version="1.1" id="Layer_1" xmlns="http://www.w3.org/2000/svg" xmlns:xlink="http://www.w3.org/1999/xlink" x="0px" y="0px"
	 width="841.889px" height="595.275px" viewBox="0 0 841.889 595.275" enable-background="new 0 0 841.889 595.275"
	 xml:space="preserve">
<pattern  x="123.445" y="718.138" width="55.078" height="55.08" patternUnits="userSpaceOnUse" id="SVGID_146_" viewBox="0 -55.08 55.078 55.08" overflow="visible">
	<g>
		<polygon fill="none" points="0,0 55.078,0 55.078,-55.08 0,-55.08 		"/>
		<g>
			<polygon fill="none" points="0,-55.08 0,0 55.078,0 55.078,-55.08 			"/>
			<polygon fill="#231F20" points="0,-55.08 0,0 55.078,0 55.078,-55.08 			"/>
			<path fill="#F7EB68" d="M26.144-2.754v-22.896H3.031v22.896H26.144z M25.026-4.957H5.891v-17.627h19.136L25.026-4.957
				L25.026-4.957z"/>
			<path fill="none" d="M5.891-4.957h19.136v-17.627H5.891V-4.957z M10.031-20.822h14.103v14.104H10.031V-20.822z"/>
			<polygon fill="#F29324" points="22.408,-6.287 8.306,-6.287 8.306,-20.391 22.408,-20.391 			"/>
			<path fill="#E42A29" d="M52.694-30.295v-23.109H28.936v23.109H52.694z M47.678-32.498H30.053v-17.625h17.625V-32.498z"/>
			<path fill="#231F20" d="M30.053-32.498h20.646v-17.625H30.053V-32.498z"/>
			<polygon fill="#8FBE44" points="47.42,-33.828 32.239,-33.828 32.239,-48.577 47.42,-48.577 			"/>
			<path fill="#33AADD" d="M27.539-27.541V-55.08H0v27.539H27.539z M25.432-28.936H2.753V-52.91h22.679V-28.936z"/>
			<path fill="none" d="M4.956-47.681h17.626v17.628H4.956V-47.681z"/>
			<path fill="#D8DA2F" d="M22.582-49.406H4.956v19.354h17.626V-49.406z M20.389-33.752H7.581v-11.297h12.808V-33.752z"/>
			<polygon fill="#8F2F86" points="6.936,-46.344 21.037,-46.344 21.037,-32.242 6.936,-32.242 			"/>
			<path fill="#48C0EB" d="M55.078,0v-27.541H27.539V0H55.078z M52.325-4.111H30.292v-22.032h22.033V-4.111z"/>
			<path fill="none" d="M30.292-4.111h22.033v-22.032H30.292V-4.111z M32.495-25.027h17.627v17.625H32.495V-25.027z"/>
			<path fill="#F7EB68" d="M50.122-25.027H32.495v18.921h17.627V-25.027z"/>
			<polygon fill="#E6428E" points="34.906,-21.331 49.008,-21.331 49.008,-7.229 34.906,-7.229 			"/>
		</g>
	</g>
</pattern>
<g opacity="0.25">
	<g>
		<line fill="none" stroke="#000000" stroke-width="35.5804" x1="675.475" y1="56.477" x2="673.475" y2="379.692"/>
		<path d="M672.147,594.422c-36.864-101.272-100.055-227.03-167.293-305.142l168.798,62.234l169.556-60.141
			C775.008,368.646,710.246,493.613,672.147,594.422z"/>
	</g>
</g>
<rect x="403.017" y="5.239" fill="none" width="180.983" height="27.761"/>
<text transform="matrix(1 0 0 1 403.0164 22.2783)" font-family="'MyriadPro-BoldIt'" font-size="24">Stricture dilation</text>
<g>
	<g>
		<path d="M77.623,346.899c-0.698,18.688-0.855,37.384-0.802,56.082c0.005,1.336,0.021,0.076,0.02-0.506
			c-0.052-17.918,0.118-35.836,0.787-53.742C77.649,348.161,77.606,347.349,77.623,346.899L77.623,346.899z"/>
	</g>
</g>
<g>
	<g>
		<path d="M115.147,146.93c-15.164,4.592-21.761,21.25-25.137,35.235c-4.204,17.414-4.793,35.582-5.205,53.409
			c-0.467,20.214-1.923,40.091-3.661,60.222c-1.588,18.396-3.032,36.809-4.01,55.249c-0.03,0.572,0.029,1.388,0.005,1.834
			c1.912-36.028,6.78-71.883,7.516-107.952c0.405-19.848,0.853-39.735,4.985-59.229c3.066-14.46,9.911-32.144,25.506-36.867
			C115.336,148.774,114.984,146.979,115.147,146.93L115.147,146.93z"/>
	</g>
</g>
<g>
	<g>
		<path d="M89.877,444.228c3.185-12.244,3.499-25.111,3.945-37.69c0.566-15.937,1.307-31.863,2.233-47.783
			c1.056-18.121,2.39-36.024,2.175-54.173c-0.252-21.292-0.808-42.678,1.749-63.864c1.695-14.047,4.654-31.192,15.769-41.125
			c3.347-2.991,8.251-5.388,12.815-5.388c0.015,0,0.015-1.901,0-1.901c-13.547,0-20.993,14.68-24.411,25.666
			c-5.11,16.429-5.748,34.281-6.08,51.356c-0.335,17.21,0.478,34.42,0.159,51.627c-0.245,13.287-1.646,26.584-2.405,39.851
			c-0.897,15.662-1.546,31.333-2.121,47.009c-0.425,11.539-0.909,23.291-3.829,34.518C89.722,442.924,90.03,443.638,89.877,444.228
			L89.877,444.228z"/>
	</g>
</g>
<g>
	<g>
		<path d="M89.065,444.478c9.428,13.402,16.271,28.789,18.865,45.02c2.812,17.585-2.385,41.453-21.68,47.319
			c-14.148,4.302-28.134-6.06-40.882-10.609c-5.387-1.923-11.002-2.727-16.563-1.102c-7.863,2.299-13.424,9.684-17.71,16.179
			c-0.295,0.447,0.287,1.466,0,1.9c4.643-7.035,10.273-14.005,18.672-16.459c6.581-1.925,13.579,0.465,19.654,2.935
			c15.228,6.19,31.351,16.125,46.499,3.906c11.472-9.254,13.478-26.224,12.667-40.005c-1.072-18.23-9.131-36.209-19.522-50.983
			C89.359,442.994,88.763,444.047,89.065,444.478L89.065,444.478z"/>
	</g>
</g>
<g>
	<g>
		<path d="M76.761,422.824c-0.045,11.633-0.89,23.646-6.261,34.182c-4.272,8.379-11.734,14.455-19.595,19.306
			c-8.945,5.521-17.84,11.142-25.811,18.03C16.334,501.915,9.276,511.159,3,520.833c-0.293,0.452,0.285,1.462,0,1.9
			c6.773-10.441,14.454-20.063,23.992-28.111c8.822-7.444,18.977-12.832,28.434-19.356c8.117-5.602,14.3-13.036,17.657-22.343
			c3.386-9.388,3.657-19.721,3.695-29.593C76.781,422.747,76.766,421.487,76.761,422.824L76.761,422.824z"/>
	</g>
</g>
<g id="XMLID_1_">
	<g>
		<path fill="#68AF23" d="M114.877,168.621l3.146,2.401c-5.681,15.219-14.214,22.027-17.741,39.096
			c-3.571,17.277-5.657,32.989-7.423,50.72c-3.477,34.913-4.462,73.761-4.515,109.649c-0.565-0.118-1.151-0.182-1.754-0.182
			c-0.478,0-0.943,0.038-1.396,0.114c0.016-36.532,0.967-76.311,4.519-111.984c1.765-17.731,3.851-33.443,7.421-50.718
			C100.663,190.647,109.196,183.841,114.877,168.621z"/>
		<path d="M88.346,370.487c3.586,0.757,6.268,3.785,6.268,7.402c0,4.189-3.591,7.586-8.021,7.586s-8.021-3.396-8.021-7.586
			c0-3.736,2.861-6.847,6.625-7.47c0.453-0.075,0.92-0.114,1.396-0.114C87.194,370.306,87.78,370.369,88.346,370.487z"/>
	</g>
	<g>
		<path fill="none" stroke="#000000" stroke-width="0.3802" d="M88.346,370.487c3.586,0.757,6.268,3.785,6.268,7.402
			c0,4.189-3.591,7.586-8.021,7.586s-8.021-3.396-8.021-7.586c0-3.736,2.861-6.847,6.625-7.47c0.453-0.075,0.92-0.114,1.396-0.114
			C87.194,370.306,87.78,370.369,88.346,370.487z"/>
		<path fill="none" stroke="#000000" stroke-width="0.3802" d="M118.024,171.021c-5.681,15.219-14.214,22.027-17.741,39.096
			c-3.571,17.277-5.657,32.989-7.423,50.72c-3.477,34.913-4.462,73.76-4.515,109.65c-0.001,1.058-0.003,2.111-0.003,3.162"/>
		<path fill="none" stroke="#000000" stroke-width="0.3802" d="M114.877,168.621c-5.682,15.221-14.214,22.027-17.744,39.098
			c-3.57,17.275-5.656,32.987-7.421,50.718c-3.552,35.673-4.502,75.451-4.519,111.984c0,0.277,0,0.555,0,0.83"/>
		<line fill="none" stroke="#000000" stroke-width="0.3802" x1="114.877" y1="168.621" x2="118.024" y2="171.021"/>
	</g>
</g>
<path fill="none" stroke="#000000" stroke-width="0.3802" d="M76.965,400.114c-2.271-1.844-5.888-5.188-7.422-7.889"/>
<path fill="none" stroke="#000000" stroke-width="0.3802" d="M74.491,403.452c-2.276-2.238-6.375-3.646-9.222-4.854"/>
<path fill="none" stroke="#000000" stroke-width="0.3802" d="M74.266,408.306c-2.471,0-4.773,0.221-6.972-1.517"/>
<path fill="none" stroke="#000000" stroke-width="0.3802" d="M74.491,411.036c-2.84,0.52-6.088,3.32-7.872,6.066"/>
<path fill="none" stroke="#000000" stroke-width="0.3802" d="M74.491,414.373c-1.496,2.634-3.591,4.774-4.499,7.889"/>
<path fill="none" stroke="#000000" stroke-width="0.3802" d="M75.166,419.228c0.124,3.39-3.336,6.104-4.273,9.104"/>
<path fill="none" stroke="#000000" stroke-width="0.3802" d="M76.965,424.082c-1.634,2.014-3.179,5.445-4.498,7.888"/>
<rect x="134.084" y="268.521" fill="none" width="155.27" height="201.839"/>
<text transform="matrix(1 0 0 1 134.0842 274.2012)" font-family="'MyriadPro-Regular'" font-size="8">The overall perforation rate: 0.1 % per session</text>
<text transform="matrix(1 0 0 1 134.0842 293.4014)" font-family="'MyriadPro-BoldIt'" font-size="8">Risk factors</text>
<text transform="matrix(1 0 0 1 134.0842 303.002)" font-family="'MyriadPro-Regular'" font-size="8">-Malignant stricture</text>
<text transform="matrix(1 0 0 1 134.0842 312.6016)" font-family="'MyriadPro-Regular'" font-size="8">-Severeoesophagitis</text>
<text transform="matrix(1 0 0 1 134.0842 322.2012)" font-family="'MyriadPro-Regular'" font-size="8">-Prior radiation therapy</text>
<text transform="matrix(1 0 0 1 134.0842 331.8008)" font-family="'MyriadPro-Regular'" font-size="8">-A history of caustic ingestion</text>
<text transform="matrix(1 0 0 1 134.0842 341.4014)" font-family="'MyriadPro-Regular'" font-size="8">-Eosinophilicoesophagitis</text>
<text transform="matrix(1 0 0 1 134.0842 351.002)" font-family="'MyriadPro-Regular'" font-size="8">-Complex (tortuous) or long strictures</text>
<text transform="matrix(1 0 0 1 134.0842 360.6016)" font-family="'MyriadPro-Regular'" font-size="8">-Presence ofoesophageal diverticula</text>
<text transform="matrix(1 0 0 1 134.0842 370.2012)" font-family="'MyriadPro-Regular'" font-size="8">-Inexperienced operator</text>
<text transform="matrix(1 0 0 1 134.0842 379.8008)" font-family="'MyriadPro-Regular'" font-size="8">-A large hiatal hernia</text>
<text transform="matrix(1 0 0 1 134.0842 389.4014)" font-family="'MyriadPro-Regular'" font-size="8">-Use of high inflation pressures with balloon </text>
<text transform="matrix(1 0 0 1 134.0842 399.002)" font-family="'MyriadPro-Regular'" font-size="8">dilation</text>
<text transform="matrix(1 0 0 1 134.0842 408.6016)" font-family="'MyriadPro-Regular'" font-size="8">-A history of previousoesophageal perforation</text>
<text transform="matrix(1 0 0 1 134.0842 418.2012)" font-family="'MyriadPro-Regular'" font-size="8">-A history of prioroesophageal surgery (such as </text>
<text transform="matrix(1 0 0 1 134.0842 427.8008)" font-family="'MyriadPro-Regular'" font-size="8">for trauma or a congenital abnormality)</text>
<polygon fill="#F4E500" points="488.109,73.948 477.76,68.932 467.761,74.614 469.332,63.221 460.839,55.467 472.159,53.442 
	476.908,42.968 482.334,53.109 493.764,54.389 485.795,62.682 "/>
<rect x="360.807" y="42.025" fill="none" width="96.197" height="64.578"/>
<text transform="matrix(1 0 0 1 360.8064 50.5459)" font-family="'MyriadPro-BoldIt'" font-size="12">Chest pain</text>
<text transform="matrix(1 0 0 1 360.8064 60.1455)" font-family="'MyriadPro-Regular'" font-size="8">Pain can happen during </text>
<text transform="matrix(1 0 0 1 360.8064 69.7451)" font-family="'MyriadPro-Regular'" font-size="8">dilatation. If suspect a </text>
<text transform="matrix(1 0 0 1 360.8064 79.3457)" font-family="'MyriadPro-Regular'" font-size="8">perforation, then keep in for </text>
<text transform="matrix(1 0 0 1 360.8064 88.9453)" font-family="'MyriadPro-Regular'" font-size="8">observation and barium </text>
<text transform="matrix(1 0 0 1 360.8064 98.5459)" font-family="'MyriadPro-Regular'" font-size="8">swallow prior to discharge</text>
<rect x="223.06" y="44.722" fill="none" width="103" height="53"/>
<text transform="matrix(1 0 0 1 223.0593 53.2422)" font-family="'MyriadPro-BoldIt'" font-size="12">Haemorrhage</text>
<text transform="matrix(1 0 0 1 223.0593 62.8418)" font-family="'MyriadPro-Regular'" font-size="8">Blood transfusions needed in </text>
<text transform="matrix(1 0 0 1 223.0593 72.4424)" font-family="'MyriadPro-Regular'" font-size="8">0.2 % ofoesophageal dilations </text>
<text transform="matrix(1 0 0 1 223.0593 82.042)" font-family="'MyriadPro-Regular'" font-size="8">with mechanical dilators, and </text>
<text transform="matrix(1 0 0 1 223.0593 91.6426)" font-family="'MyriadPro-Regular'" font-size="8">2% with balloon dilation.</text>
<rect x="94.582" y="47.698" fill="none" width="82" height="45.53"/>
<text transform="matrix(1 0 0 1 94.5813 56.2188)" font-family="'MyriadPro-BoldIt'" font-size="12">Bacteraemia-</text>
<text transform="matrix(1 0 0 1 164.3831 56.2188)" font-family="'MyriadPro-Regular'" font-size="8"> </text>
<text transform="matrix(1 0 0 1 94.5813 65.8184)" font-family="'MyriadPro-Regular'" font-size="8">45%</text>
<text transform="matrix(1 0 0 1 94.5813 75.418)" font-family="'MyriadPro-Regular'" font-size="8">No need for prophylac</text>
<text transform="matrix(1 0 0 1 169.2844 75.418)" font-family="'MyriadPro-Regular'" font-size="8">-</text>
<text transform="matrix(1 0 0 1 94.5813 85.0186)" font-family="'MyriadPro-Regular'" font-size="8">tic antibiotics</text>
<g>
	<g id="XMLID_2_">
		<g>
			<pattern  id="SVGID_44_" xlink:href="#SVGID_146_" patternTransform="matrix(1 0 0 -1 158.9902 -17473.6738)">
			</pattern>
			<path fill="url(#SVGID_44_)" d="M196.94,57.999c0.361,1.864,3.786,10.716,1.082,11.182c-2.166,0.311-2.705-3.106-3.788-4.193
				c-3.783-3.572-2.342,3.572-4.685,5.125c-2.524-1.708-1.262-4.038-3.067-5.902c-2.704-3.261-3.425,2.796-4.685,4.349
				c-3.425,4.193-3.968-2.64-3.968-4.814c0-3.723,0.854-7.2,1.296-10.867c1.498-3.181,3.975-5.103,8.258-4.819
				C194.234,48.37,195.857,52.718,196.94,57.999z"/>
		</g>
		<g>
			<path fill="none" stroke="#000000" d="M179.125,52.878c-0.14,0.298-0.271,0.607-0.396,0.927"/>
			<path fill="none" stroke="#000000" d="M179.125,52.878c-0.442,3.667-1.296,7.144-1.296,10.867c0,2.174,0.543,9.008,3.968,4.814
				c1.26-1.553,1.98-7.61,4.685-4.349c1.806,1.864,0.543,4.193,3.067,5.902c2.343-1.553,0.901-8.697,4.685-5.125
				c1.083,1.087,1.623,4.504,3.788,4.193c2.704-0.466-0.721-9.318-1.082-11.182c-1.083-5.28-2.706-9.629-9.557-9.939
				C183.101,47.775,180.624,49.697,179.125,52.878z"/>
			<path fill="none" stroke="#000000" d="M179.273,51.476c-0.04,0.471-0.09,0.938-0.147,1.402"/>
		</g>
	</g>
	<ellipse fill="#334B97" stroke="#000000" cx="183.329" cy="55.668" rx="2.072" ry="2.329"/>
	<ellipse fill="#334B97" stroke="#000000" cx="189.909" cy="56.057" rx="1.982" ry="2.563"/>
</g>
<ellipse fill="#E42522" stroke="#000000" cx="339.06" cy="67.722" rx="11.5" ry="23"/>
<rect x="597.461" y="53.933" fill="none" width="182.572" height="61.094"/>
<text transform="matrix(1 0 0 1 597.4602 62.4531)" font-family="'MyriadPro-BoldIt'" font-size="12">Contraindications To Dilatation</text>
<text transform="matrix(1 0 0 1 597.4602 72.0527)" font-family="'MyriadPro-Regular'" font-size="8">Consider specific features of oesophageal stricture</text>
<text transform="matrix(1 0 0 1 597.4602 81.6533)" font-family="'MyriadPro-Regular'" font-size="8">acute or incompletely healedoesophageal perforation.</text>
<text transform="matrix(1 0 0 1 597.4602 91.2529)" font-family="'MyriadPro-Regular'" font-size="8">Caution if pharyngeal or cervical deformity, recent </text>
<text transform="matrix(1 0 0 1 597.4602 100.8535)" font-family="'MyriadPro-Regular'" font-size="8">surgery, a large thoracic aneurysm, or an impacted </text>
<text transform="matrix(1 0 0 1 597.4602 110.4531)" font-family="'MyriadPro-Regular'" font-size="8">food bolus.</text>
<rect x="518.025" y="412.206" fill="none" width="155.313" height="90.784"/>
<text transform="matrix(1 0 0 1 518.0247 420.7266)" font-family="'MyriadPro-BoldIt'" font-size="12">Endpoint Of Dilatation</text>
<text transform="matrix(1 0 0 1 518.0247 430.3262)" font-family="'MyriadPro-Regular'" font-size="8">At18 mm (54 French) allows intake of a regular </text>
<text transform="matrix(1 0 0 1 518.0247 439.9258)" font-family="'MyriadPro-Regular'" font-size="8">diet unless there is a coexisting motility </text>
<text transform="matrix(1 0 0 1 518.0247 449.5254)" font-family="'MyriadPro-Regular'" font-size="8">disturbance.</text>
<text transform="matrix(1 0 0 1 518.0247 459.126)" font-family="'MyriadPro-Regular'" font-size="8">At 45 French (15 mm) are able to eat a </text>
<text transform="matrix(1 0 0 1 518.0247 468.7266)" font-family="'MyriadPro-Regular'" font-size="8">modified regular diet.</text>
<text transform="matrix(1 0 0 1 518.0247 478.3262)" font-family="'MyriadPro-Regular'" font-size="8">&lt; 13 mm (39 French) will usually experience </text>
<text transform="matrix(1 0 0 1 518.0247 487.9258)" font-family="'MyriadPro-Regular'" font-size="8">solid food dysphagia</text>
<rect x="698.051" y="324.61" fill="none" width="130.256" height="233.082"/>
<text transform="matrix(1 0 0 1 698.05 333.1309)" font-family="'MyriadPro-BoldIt'" font-size="12">Refractory Strictures</text>
<text transform="matrix(1 0 0 1 698.05 342.7314)" font-family="'MyriadPro-Bold'" font-size="8">Self-dilation</text>
<text transform="matrix(1 0 0 1 698.05 352.3311)" font-family="'MyriadPro-Regular'" font-size="8">Motivated patients with simple </text>
<text transform="matrix(1 0 0 1 698.05 361.9316)" font-family="'MyriadPro-Regular'" font-size="8">strictures benefit from a schedule of </text>
<text transform="matrix(1 0 0 1 698.05 371.5313)" font-family="'MyriadPro-Regular'" font-size="8">regular self-dilation with a Maloney </text>
<text transform="matrix(1 0 0 1 698.05 381.1309)" font-family="'MyriadPro-Regular'" font-size="8">dilator.</text>
<text transform="matrix(1 0 0 1 698.05 390.7314)" font-family="'MyriadPro-BoldIt'" font-size="8">Intralesional Steroids</text>
<text transform="matrix(1 0 0 1 698.05 400.3311)" font-family="'MyriadPro-Regular'" font-size="8">Intralesional 0.2 mL of triamcinolone </text>
<text transform="matrix(1 0 0 1 698.05 409.9316)" font-family="'MyriadPro-Regular'" font-size="8">acetonide into all four quadrants </text>
<text transform="matrix(1 0 0 1 698.05 419.5313)" font-family="'MyriadPro-Regular'" font-size="8">.-impedes collagen deposition and </text>
<text transform="matrix(1 0 0 1 698.05 429.1309)" font-family="'MyriadPro-Regular'" font-size="8">enhance its breakdown locally, thereby </text>
<text transform="matrix(1 0 0 1 698.05 438.7314)" font-family="'MyriadPro-Regular'" font-size="8">reducing scar formation</text>
<text transform="matrix(1 0 0 1 698.05 448.3311)" font-family="'MyriadPro-Regular'" font-size="8">Can be combined with oral steroids</text>
<text transform="matrix(1 0 0 1 698.05 457.9316)" font-family="'MyriadPro-BoldIt'" font-size="8">Nonmetal stents</text>
<text transform="matrix(1 0 0 1 698.05 467.5313)" font-family="'MyriadPro-Regular'" font-size="8">Nonmetal expandable stents can be </text>
<text transform="matrix(1 0 0 1 698.05 477.1309)" font-family="'MyriadPro-Regular'" font-size="8">effective in management of refractory </text>
<text transform="matrix(1 0 0 1 698.05 486.7314)" font-family="'MyriadPro-Regular'" font-size="8">benign strictures- effective in 40%</text>
<text transform="matrix(1 0 0 1 698.05 496.3311)" font-family="'MyriadPro-BoldIt'" font-size="8">Other methods</text>
<text transform="matrix(1 0 0 1 698.05 505.9316)" font-family="'MyriadPro-Regular'" font-size="8">Electrosurgical incision of peptic and </text>
<text transform="matrix(1 0 0 1 698.05 515.5313)" font-family="'MyriadPro-Regular'" font-size="8">postoperative strictures and Schatzki&apos;s </text>
<text transform="matrix(1 0 0 1 698.05 525.1309)" font-family="'MyriadPro-Regular'" font-size="8">rings.</text>
<text transform="matrix(1 0 0 1 698.05 534.7314)" font-family="'MyriadPro-Regular'" font-size="8">Mitomycin C has been used in a case </text>
<text transform="matrix(1 0 0 1 698.05 544.3311)" font-family="'MyriadPro-Regular'" font-size="8">report</text>
<path fill="none" stroke="#000000" d="M685.887,301.197c0,7.587-5.373,13.739-12,13.739h-152c-6.627,0-12-6.152-12-13.739V194.342
	c0-7.589,5.373-13.739,12-13.739h152c6.627,0,12,6.15,12,13.739V301.197z"/>
<path fill="none" stroke="#000000" stroke-width="1.125" d="M841.889,300.864c0,7.311-4.337,13.238-9.687,13.238H700.907
	c-5.35,0-9.686-5.929-9.686-13.238v-107.38c0-7.312,4.336-13.239,9.686-13.239h131.295c5.35,0,9.687,5.927,9.687,13.239V300.864z"/>
<rect x="519.055" y="322.437" fill="none" width="152.615" height="82.889"/>
<text transform="matrix(1 0 0 1 519.054 330.957)" font-family="'MyriadPro-BoldIt'" font-size="12">Technique</text>
<text transform="matrix(1 0 0 1 519.054 340.5566)" font-family="'MyriadPro-Regular'" font-size="6"> </text>
<text transform="matrix(1 0 0 1 520.3254 340.5566)" font-family="'MyriadPro-Regular'" font-size="8">No  &gt; three dilators of progressively </text>
<text transform="matrix(1 0 0 1 519.054 350.1563)" font-family="'MyriadPro-Regular'" font-size="8">increasing diameter should be passed in a </text>
<text transform="matrix(1 0 0 1 519.054 359.7559)" font-family="'MyriadPro-Regular'" font-size="8">single session</text>
<text transform="matrix(1 0 0 1 519.054 369.3564)" font-family="'MyriadPro-Regular'" font-size="8">Luminal stenosis should be increased by no &gt; </text>
<text transform="matrix(1 0 0 1 519.054 378.957)" font-family="'MyriadPro-Regular'" font-size="8">2 mm (6 French). </text>
<text transform="matrix(1 0 0 1 519.054 388.5566)" font-family="'MyriadPro-Regular'" font-size="8">For very tight or for long strictures, only one </text>
<text transform="matrix(1 0 0 1 519.054 398.1563)" font-family="'MyriadPro-Regular'" font-size="8">or two dilators is passed at each session.</text>
<path fill="none" stroke="#000000" d="M685.733,394.405c0,4.519-3.146,8.182-7.025,8.182H517.892c-3.88,0-7.024-3.663-7.024-8.182
	v-68.18c0-4.518,3.146-8.181,7.024-8.181h160.815c3.88,0,7.025,3.663,7.025,8.181V394.405L685.733,394.405z"/>
<path fill="none" stroke="#000000" stroke-width="0.6386" d="M687.791,484.973c0,8.315-2.859,15.054-6.388,15.054H517.174
	c-3.526,0-6.386-6.737-6.386-15.054v-61.058c0-8.314,2.858-15.057,6.386-15.057h164.229c3.527,0,6.388,6.74,6.388,15.057V484.973z"
	/>
<path fill="none" stroke="#000000" stroke-width="0.8326" d="M778.161,101.099c0,11.324-2.399,20.503-5.362,20.503H592.988
	c-2.962,0-5.362-9.18-5.362-20.503v-31.33c0-11.324,2.4-20.503,5.362-20.503h179.812c2.963,0,5.362,9.18,5.362,20.503V101.099
	L778.161,101.099z"/>
<path fill="none" stroke="#000000" stroke-width="0.8389" d="M841.467,528.973c0,11.44-1.305,20.721-2.914,20.721H694.797
	c-1.609,0-2.914-9.279-2.914-20.721V339.033c0-11.443,1.305-20.72,2.914-20.72h143.756c1.609,0,2.914,9.275,2.914,20.72V528.973z"/>
<rect x="233.281" y="8.737" fill="none" width="104.72" height="16.972"/>
<text transform="matrix(1 0 0 1 233.281 18.6768)" fill="#E2001A" font-family="'MyriadPro-BoldIt'" font-size="14">Complications</text>
<g>
	<g>
		<path d="M264.114,295.776c0.179,4.11,0.18,8.245,0.539,12.346c0.461,5.25,1.523,10.04,0.679,15.329
			c-0.797,4.993-3.216,8.923-8.203,10.557c-4.468,1.464-8.517,2.765-12.831,4.782c-0.597,0.279-0.068,0.855,0.439,0.617
			c4.928-2.305,10.153-3.46,15.052-5.633c2.874-1.272,4.584-4.061,5.646-6.87c1.2-3.175,1.747-7.292,1.342-10.638
			c-0.832-6.883-1.381-13.617-1.681-20.552C265.073,295.183,264.094,295.312,264.114,295.776L264.114,295.776z"/>
	</g>
</g>
<g>
	<g>
		<path d="M245.587,341.075c5.556-0.813,10.396-0.788,15.457,1.892c2.222,1.179,4.258,1.935,6.778,2.058
			c3.913,0.19,8.072-3.375,9.49-6.791c2.788-6.717-0.531-11.701-4.542-16.988c-6.07-8-4.596-16.783-5.868-26.194
			c-0.045-0.335-1.016-0.111-0.966,0.258c0.895,6.616,0.042,13.698,2.188,20.081c1.724,5.127,6.388,8.721,8.563,13.642
			c1.13,2.556,0.922,5.425,0.188,8.038c-1.253,4.47-6.303,8.021-11.157,7.103c-1.896-0.358-3.775-1.604-5.465-2.499
			c-4.458-2.361-9.758-1.841-14.541-1.143C245.248,340.597,244.92,341.173,245.587,341.075L245.587,341.075z"/>
	</g>
</g>
<g>
	<g>
		<path d="M266.987,295.334c-0.149-10.569-0.741-21.712-2.201-32.176c-0.065-0.466-1.033-0.222-0.967,0.259
			c1.449,10.386,2.038,21.499,2.188,31.984C266.014,295.924,266.993,295.788,266.987,295.334L266.987,295.334z"/>
	</g>
</g>
<g>
	<g>
		<path d="M263.175,268.009c-0.051-1.398-0.109-2.791-0.357-4.17c-0.063-0.35-1.032-0.113-0.966,0.259
			c0.248,1.379,0.307,2.772,0.357,4.17C262.221,268.597,263.189,268.398,263.175,268.009L263.175,268.009z"/>
	</g>
</g>
<g>
	<g>
		<path d="M264.876,290.772c-0.284-5.313-0.825-10.604-1.225-15.907c-0.014-0.184-0.985-0.009-0.966,0.259
			c0.398,5.303,0.939,10.594,1.225,15.906C263.92,291.209,264.891,291.044,264.876,290.772L264.876,290.772z"/>
	</g>
</g>
<line fill="none" stroke="#000000" stroke-width="0.5" x1="261.541" y1="268.168" x2="259.157" y2="266.579"/>
<line fill="none" stroke="#000000" stroke-width="0.5" x1="261.427" y1="269.416" x2="259.157" y2="269.529"/>
<line fill="none" stroke="#000000" stroke-width="0.5" x1="261.086" y1="270.892" x2="259.498" y2="271.118"/>
<line fill="none" stroke="#000000" stroke-width="0.5" x1="261.654" y1="271.913" x2="259.952" y2="273.274"/>
<line fill="none" stroke="#000000" stroke-width="0.5" x1="262.108" y1="273.615" x2="260.633" y2="275.091"/>
<line fill="none" stroke="#000000" stroke-width="0.5" x1="262.222" y1="274.637" x2="261.313" y2="276.906"/>
<line fill="none" stroke="#000000" stroke-width="0.5" x1="263.697" y1="291.66" x2="260.633" y2="290.298"/>
<line fill="none" stroke="#000000" stroke-width="0.5" x1="261.2" y1="292.001" x2="259.611" y2="291.773"/>
<line fill="none" stroke="#000000" stroke-width="0.5" x1="262.675" y1="293.703" x2="260.973" y2="293.703"/>
<line fill="none" stroke="#000000" stroke-width="0.5" x1="263.129" y1="294.271" x2="261.995" y2="295.519"/>
<line fill="none" stroke="#000000" stroke-width="0.5" x1="264.037" y1="295.405" x2="262.902" y2="297.788"/>
<rect x="302.307" y="231.525" fill="none" width="97.499" height="59.5"/>
<text transform="matrix(1 0 0 1 302.3069 237.2051)" font-family="'MyriadPro-BoldIt'" font-size="8">Cervical perforation </text>
<text transform="matrix(1 0 0 1 302.3069 246.8047)" font-family="'MyriadPro-Regular'" font-size="8">Neck pain</text>
<text transform="matrix(1 0 0 1 302.3069 256.4053)" font-family="'MyriadPro-Regular'" font-size="8">Tenderness of the SCM, </text>
<text transform="matrix(1 0 0 1 302.3069 266.0049)" font-family="'MyriadPro-Regular'" font-size="8">Dysphonia, hoarseness, </text>
<text transform="matrix(1 0 0 1 302.3069 275.6055)" font-family="'MyriadPro-Regular'" font-size="8">Cervical subcutaneous </text>
<text transform="matrix(1 0 0 1 302.3069 285.2051)" font-family="'MyriadPro-Regular'" font-size="8">emphysema.</text>
<rect x="302.307" y="298.192" fill="none" width="113.832" height="133.5"/>
<text transform="matrix(1 0 0 1 302.3069 303.873)" font-family="'MyriadPro-BoldIt'" font-size="8">Intrathoracic perforation</text>
<text transform="matrix(1 0 0 1 302.3069 313.4727)" font-family="'MyriadPro-Regular'" font-size="8">Chest, back, or epigastric pain, </text>
<text transform="matrix(1 0 0 1 302.3069 323.0732)" font-family="'MyriadPro-Regular'" font-size="8">which is exacerbated with </text>
<text transform="matrix(1 0 0 1 302.3069 332.6738)" font-family="'MyriadPro-Regular'" font-size="8">inspiration and swallowing.</text>
<text transform="matrix(1 0 0 1 302.3069 351.873)" font-family="'MyriadPro-Regular'" font-size="8">Dysphagia, odynophagia, </text>
<text transform="matrix(1 0 0 1 302.3069 361.4727)" font-family="'MyriadPro-Regular'" font-size="8">dyspnea, hematemesis and </text>
<text transform="matrix(1 0 0 1 302.3069 371.0732)" font-family="'MyriadPro-Regular'" font-size="8">cyanosis.</text>
<text transform="matrix(1 0 0 1 302.3069 390.2734)" font-family="'MyriadPro-Regular'" font-size="8">Pericardial tamponade (rare) if </text>
<text transform="matrix(1 0 0 1 302.3069 399.873)" font-family="'MyriadPro-Regular'" font-size="8">posterior pericardium perf.</text>
<text transform="matrix(1 0 0 1 302.3069 409.4727)" font-family="'MyriadPro-Regular'" font-size="8">Hammans sign (auscultatory </text>
<text transform="matrix(1 0 0 1 302.3069 419.0732)" font-family="'MyriadPro-Regular'" font-size="8">crunch with mediastinal </text>
<text transform="matrix(1 0 0 1 302.3069 428.6738)" font-family="'MyriadPro-Regular'" font-size="8">emphysema)</text>
<path fill="none" stroke="#000000" d="M410.307,344.692c-11.418,0.381-20.153,33.187-29,42.5"/>
<path fill="none" stroke="#000000" d="M390.307,393.192c3.435-4.422,7.788-8.491,10.659-13.307
	c1.521-2.552,3.752-13.059,7.062-13.553c6.966-1.041,4.154,34.253,4.279,38.857"/>
<path fill="none" stroke="#000000" d="M451.527,345.551c11.418,0.382,20.154,33.187,28.999,42.5"/>
<path fill="none" stroke="#000000" d="M471.526,394.051c-3.434-4.422-7.787-8.491-10.659-13.307
	c-1.521-2.552-3.752-13.058-7.061-13.552c-6.967-1.041-4.154,34.252-4.279,38.857"/>
<polygon fill="#FFED00" stroke="#000000" points="430.781,411.479 425.898,408.338 420.539,410.578 422.021,404.962 418.233,400.56 
	424.031,400.229 427.049,395.269 429.152,400.683 434.805,402.021 430.307,405.692 "/>
<polygon fill="#FFED00" stroke="#000000" points="429.781,367.479 424.898,364.338 419.539,366.578 421.021,360.962 417.233,356.56 
	423.031,356.229 426.049,351.269 428.152,356.683 433.805,358.021 429.307,361.692 "/>
<path fill="none" stroke="#000000" stroke-width="1.1342" d="M452.307,345.192c-3.752,0.367-4.668-1.366-7.624-2.123
	c-2.79-0.713-5.562,0.386-8.271-0.336c-2.629-0.698-4.503-2.635-3.644-5.092c0.963-2.758,5.724-2.252,5.287-5.375
	c-0.89,0.067-2.137-0.267-3.017-0.147c-0.062,0.118-0.014-1.438,0.015-1.343c3.645-1.01-0.12-5.567,5.578-4.659
	c0.769-1.894-0.586-3.273-3.011-3.511c-1.914-4.984,2.687-8.34-3.125-11.516c-4.993-2.73-12.829-2.724-18.741-2.314
	c-2.1,2.341-4.704,2.049-5.769,5.401c-0.776,2.447-0.06,5.478-0.051,8.001c0.024,6.725,3.259,7.975,7.749,12.926
	c0.702-0.047,1.645,0.162,2.365,0.162c0.569,2.146,0.718,4.09,0.74,6.426"/>
<path fill="none" stroke="#000000" d="M409.307,344.692c3.624-2.438,10.689,1.672,11.5-3.5"/>
<path fill="none" stroke="#E2001A" d="M439.307,330.692c3.803-0.299,11.945-4.393,14,1"/>
<path fill="none" stroke="#E2001A" d="M441.307,332.192c4.299,0.152,9.508-2.276,11.5,2.5"/>
<path fill="none" stroke="#E2001A" d="M442.307,328.692c0.511-2.625,6.254-2.295,8.702-2.008c3.227,0.379,4.854,0.584,5.298,4.508"
	/>
<g>
	<g id="XMLID_3_">
		<g>
			<path fill="#E2001A" d="M441.79,356.879c0.449-4.18,3.91-5.101,7.58-4.38c-0.44,6.41-3.021,11.73-6.591,16.859
				c-0.7,1.381-1.879,2.471-2.079,4.211l-0.229-0.041c0.051-1.77-0.971-3.02-1.5-4.5c-2.829-5.569-4.67-11.188-4.25-17.59
				c3.75-0.22,7.06,1.17,6.921,5.42L441.79,356.879z"/>
		</g>
		<g>
			<path fill="none" stroke="#E2001A" d="M441.642,356.858c0.139-4.25-3.171-5.64-6.921-5.42c-0.42,6.4,1.421,12.021,4.25,17.59
				c0.06,0.111,0.108,0.221,0.171,0.33"/>
			<path fill="none" stroke="#E2001A" d="M438.971,369.028c0.53,1.48,1.551,2.73,1.5,4.5"/>
			<path fill="none" stroke="#E2001A" d="M441.78,356.938c0-0.021,0-0.039,0.011-0.061c0.449-4.18,3.91-5.1,7.58-4.38
				c-0.44,6.41-3.021,11.729-6.591,16.86c-0.07,0.1-0.139,0.199-0.209,0.3"/>
			<path fill="none" stroke="#E2001A" d="M442.78,369.358c-0.7,1.381-1.879,2.471-2.079,4.211c-0.01,0.01-0.01,0.029-0.01,0.039"/>
		</g>
	</g>
</g>
<path fill="none" stroke="#000000" d="M402.791,231.373c-11.418,0.381-20.152,33.186-29,42.5"/>
<path fill="none" stroke="#000000" d="M382.791,279.873c3.436-4.422,7.788-8.492,10.659-13.307
	c1.522-2.551,3.752-13.058,7.063-13.552c6.966-1.041,4.153,34.253,4.278,38.858"/>
<path fill="none" stroke="#000000" d="M444.012,232.23c11.418,0.381,20.153,33.187,29.002,42.5"/>
<path fill="none" stroke="#000000" d="M464.014,280.73c-3.438-4.422-7.788-8.492-10.659-13.306
	c-1.524-2.552-3.753-13.058-7.063-13.552c-6.967-1.041-4.155,34.252-4.28,38.857"/>
<path fill="none" stroke="#000000" stroke-width="1.1342" d="M444.791,231.873c-3.751,0.368-4.666-1.367-7.625-2.123
	c-2.789-0.712-5.56,0.386-8.269-0.335c-2.63-0.7-4.502-2.636-3.644-5.093c0.964-2.758,5.725-2.251,5.287-5.374
	c-0.889,0.067-2.138-0.267-3.017-0.149c-0.063,0.119-0.015-1.438,0.016-1.341c3.644-1.011-0.124-5.568,5.575-4.661
	c0.771-1.892-0.583-3.273-3.008-3.51c-1.913-4.984,2.684-8.339-3.125-11.516c-4.996-2.73-12.831-2.723-18.743-2.313
	c-2.099,2.34-4.704,2.048-5.768,5.401c-0.777,2.447-0.061,5.477-0.051,8.001c0.023,6.725,3.259,7.974,7.749,12.925
	c0.701-0.047,1.645,0.163,2.364,0.163c0.57,2.146,0.718,4.089,0.741,6.425"/>
<path fill="none" stroke="#000000" d="M401.791,231.373c3.624-2.438,10.69,1.672,11.5-3.5"/>
<polygon fill="#FFED00" stroke="#000000" points="424.448,236.147 419.565,233.004 414.206,235.245 415.688,229.629 411.9,225.225 
	417.698,224.897 420.717,219.935 422.821,225.349 428.473,226.686 423.973,230.359 "/>
<polygon fill="#FFED00" stroke="#000000" points="444.488,238.02 439.604,234.875 434.246,237.117 435.727,231.5 431.939,227.096 
	437.738,226.77 440.756,221.807 442.859,227.221 448.512,228.557 444.012,232.23 "/>
<ellipse fill="#FFFFFF" stroke="#000000" stroke-width="0.25" cx="402.508" cy="232.49" rx="0.716" ry="1.119"/>
<ellipse fill="#FFFFFF" stroke="#000000" stroke-width="0.25" cx="404.599" cy="232.859" rx="0.875" ry="1"/>
<ellipse fill="#FFFFFF" stroke="#000000" stroke-width="0.25" cx="406.349" cy="232.984" rx="0.625" ry="1.125"/>
<ellipse fill="#FFFFFF" stroke="#000000" stroke-width="0.25" cx="408.474" cy="232.234" rx="0.5" ry="0.625"/>
<ellipse fill="#FFFFFF" stroke="#000000" stroke-width="0.25" cx="409.724" cy="232.797" rx="0.75" ry="0.563"/>
<ellipse fill="#FFFFFF" stroke="#000000" stroke-width="0.25" cx="408.099" cy="234.234" rx="0.375" ry="0.625"/>
<ellipse fill="#FFFFFF" stroke="#000000" stroke-width="0.25" cx="411.349" cy="231.609" rx="0.875" ry="0.75"/>
<ellipse fill="#FFFFFF" stroke="#000000" stroke-width="0.25" cx="410.724" cy="234.609" rx="1" ry="1.25"/>
<circle fill="#FFFFFF" stroke="#000000" stroke-width="0.25" cx="405.974" cy="235.359" r="0.75"/>
<ellipse fill="#FFFFFF" stroke="#000000" stroke-width="0.25" cx="408.535" cy="235.484" rx="0.438" ry="0.625"/>
<ellipse fill="#FFFFFF" stroke="#000000" stroke-width="0.25" cx="403.365" cy="234.609" rx="0.858" ry="1"/>
<rect x="436.307" y="212.859" fill="none" width="19.666" height="5.5"/>
<text transform="matrix(1 0 0 1 436.3059 217.1182)" font-family="'MyriadPro-BoldIt'" font-size="6">Hoarse</text>
<line fill="none" stroke="#000000" stroke-width="0.25" x1="430.973" y1="217.025" x2="434.973" y2="216.025"/>
<rect x="302.307" y="210.31" fill="none" width="82.029" height="9.015"/>
<text transform="matrix(1 0 0 1 302.3069 215.9902)" font-family="'MyriadPro-BoldIt'" font-size="8">Clinical manifestations</text>
<rect x="298.475" y="189.692" fill="none" stroke="#000000" width="185.166" height="240.501"/>
<rect x="134.085" y="160.434" fill="none" width="159.494" height="101.994"/>
<text transform="matrix(1 0 0 1 134.0842 166.1123)" font-family="'MyriadPro-BoldIt'" font-size="8">Diagnosis</text>
<text transform="matrix(1 0 0 1 134.0842 185.3125)" font-family="'MyriadPro-Regular'" font-size="8">1. CXR- (95% positive in cervical and 40% </text>
<text transform="matrix(1 0 0 1 134.0842 194.9121)" font-family="'MyriadPro-Regular'" font-size="8">thoracic perf.)</text>
<text transform="matrix(1 0 0 1 134.0842 204.5127)" font-family="'MyriadPro-Regular'" font-size="8">Pneumomediastinum or </text>
<text transform="matrix(1 0 0 1 134.0842 214.1123)" font-family="'MyriadPro-Regular'" font-size="8">Density adjacent to the descending aorta in the </text>
<text transform="matrix(1 0 0 1 134.0842 223.7129)" font-family="'MyriadPro-Regular'" font-size="8">left cardiophrenic angle resulting in loss of </text>
<text transform="matrix(1 0 0 1 134.0842 233.3125)" font-family="'MyriadPro-Regular'" font-size="8">contour of the descending aorta in </text>
<text transform="matrix(1 0 0 1 134.0842 242.9121)" font-family="'MyriadPro-Regular'" font-size="8">2. Barium in left lateral position more sensitive</text>
<text transform="matrix(1 0 0 1 134.0842 252.5127)" font-family="'MyriadPro-Regular'" font-size="8">3. CT even better</text>
<rect x="132.258" y="434.176" fill="none" stroke="#E2001A" width="351.091" height="148.185"/>
<g>
	<rect x="249.925" y="140.54" fill="none" width="66.069" height="14.458"/>
	<text transform="matrix(1 0 0 1 249.9246 149.0605)" font-family="'MyriadPro-BoldIt'" font-size="12">Perforation</text>
</g>
<rect x="606.718" y="130.323" fill="none" width="68.5" height="28.833"/>
<text transform="matrix(1 0 0 1 606.718 138.8428)" font-family="'MyriadPro-BoldIt'" font-size="12">No screening</text>
<text transform="matrix(1 0 0 1 606.718 148.4424)" font-family="'MyriadPro-Regular'" font-size="8">Peptic strictures</text>
<rect x="685.533" y="129.36" fill="none" width="86.167" height="53.5"/>
<text transform="matrix(1 0 0 1 685.5325 137.8799)" font-family="'MyriadPro-BoldIt'" font-size="12">Screening</text>
<text transform="matrix(1 0 0 1 685.5325 147.4805)" font-family="'MyriadPro-BoldIt'" font-size="8">Complex strictures</text>
<text transform="matrix(1 0 0 1 685.5325 157.0801)" font-family="'MyriadPro-Regular'" font-size="8">Long, narrow, or </text>
<text transform="matrix(1 0 0 1 685.5325 166.6807)" font-family="'MyriadPro-Regular'" font-size="8">tortuous, anatomically </text>
<text transform="matrix(1 0 0 1 685.5325 176.2803)" font-family="'MyriadPro-Regular'" font-size="8">complicated</text>
<rect x="698.392" y="189.074" fill="none" width="136.808" height="46.286"/>
<text transform="matrix(1 0 0 1 698.3899 197.5938)" font-family="'MyriadPro-BoldIt'" font-size="12">Balloon dilators</text>
<text transform="matrix(1 0 0 1 698.3899 207.1934)" font-family="'MyriadPro-Regular'" font-size="8">1.Through-the-scope dilator (down the </text>
<text transform="matrix(1 0 0 1 698.3899 216.7939)" font-family="'MyriadPro-Regular'" font-size="8">biopsy channel)</text>
<text transform="matrix(1 0 0 1 698.3899 226.3936)" font-family="'MyriadPro-Regular'" font-size="8">2. Over-the-guidewire balloon dilator.</text>
<rect x="698.801" y="230.238" fill="none" width="140.082" height="61.167"/>
<text transform="matrix(1 0 0 1 698.8 235.917)" font-family="'MyriadPro-Regular'" font-size="8">Initial balloon size corresponds to the </text>
<text transform="matrix(1 0 0 1 698.8 245.5176)" font-family="'MyriadPro-Regular'" font-size="8">estimated stricture diameter  :</text>
<text transform="matrix(1 0 0 1 698.8 255.1172)" font-family="'MyriadPro-Regular'" font-size="8">A 10 mm balloon for diameters 2 -4 mm</text>
<text transform="matrix(1 0 0 1 698.8 264.7178)" font-family="'MyriadPro-Regular'" font-size="8">A 12 mm balloon for diameters  5 -9 mm</text>
<text transform="matrix(1 0 0 1 698.8 274.3174)" font-family="'MyriadPro-Regular'" font-size="8">A 15 mm balloon for a diameter &gt;9 mm</text>
<text transform="matrix(1 0 0 1 698.8 283.917)" font-family="'MyriadPro-Regular'" font-size="8">Dilate over 30-60 seconds</text>
<g>
	<rect x="519.222" y="184.741" fill="none" width="164.001" height="113.333"/>
	<text transform="matrix(1 0 0 1 519.2219 193.2607)" font-family="'MyriadPro-BoldIt'" font-size="12">Mechanical dilators</text>
	<text transform="matrix(1 0 0 1 519.2219 202.8604)" font-family="'MyriadPro-Regular'" font-size="8">Types of dilators</text>
	<text transform="matrix(1 0 0 1 519.2219 212.4609)" font-family="'MyriadPro-Regular'" font-size="8">No guidewire:</text>
	<text transform="matrix(1 0 0 1 519.2219 222.0605)" font-family="'MyriadPro-Regular'" font-size="8">1. The Maloney (common, no guidewire needed)</text>
	<text transform="matrix(1 0 0 1 519.2219 231.6611)" font-family="'MyriadPro-Regular'" font-size="8">2. Hurst -rounded tip, which is more difficult to </text>
	<text transform="matrix(1 0 0 1 519.2219 241.2607)" font-family="'MyriadPro-Regular'" font-size="8">pass, and is rarely used.</text>
	<text transform="matrix(1 0 0 1 519.2219 250.8604)" font-family="'MyriadPro-Regular'" font-size="8">Guidewire assissted dilators:</text>
	<text transform="matrix(1 0 0 1 519.2219 260.4609)" font-family="'MyriadPro-Regular'" font-size="8">1. Savary-Gilliard- most common</text>
	<text transform="matrix(1 0 0 1 519.2219 270.0605)" font-family="'MyriadPro-Regular'" font-size="8">2. American Dilatation System</text>
	<text transform="matrix(1 0 0 1 519.2219 279.6611)" font-family="'MyriadPro-Regular'" font-size="8">3. Eder-Puestow olive dilators</text>
	<rect x="521.533" y="288.026" fill="none" width="158.665" height="19.333"/>
	<text transform="matrix(1 0 0 1 521.5325 293.7061)" font-family="'MyriadPro-Regular'" font-size="8">Diameter of the initial dilator should be the </text>
	<text transform="matrix(1 0 0 1 521.5325 303.3057)" font-family="'MyriadPro-Regular'" font-size="8">same width as the stricture.</text>
</g>
<rect x="650.043" y="8.474" fill="none" width="65.289" height="17.859"/>
<text transform="matrix(1 0 0 1 650.0422 18.4131)" fill="#E2001A" font-family="'MyriadPro-BoldIt'" font-size="14">Technique</text>
<rect x="134.584" y="437.527" fill="none" width="347.214" height="167.333"/>
<text transform="matrix(1 0 0 1 134.5842 443.207)" font-family="'MyriadPro-BoldIt'" font-size="8">Treatment:</text>
<text transform="matrix(1 0 0 1 134.5842 452.8076)" font-family="'MyriadPro-Regular'" font-size="8">Criteria for selecting patients for nonsurgical management:</text>
<text transform="matrix(1 0 0 1 134.5842 462.4072)" font-family="'MyriadPro-Regular'" font-size="8">-Containment of perforation within neck/ mediastinum with no thoracic / peritoneal/ pleural extension.</text>
<text transform="matrix(1 0 0 1 134.5842 472.0068)" font-family="'MyriadPro-Regular'" font-size="8">-No preexisting oesophageal conditions with distal obstruction.</text>
<text transform="matrix(1 0 0 1 134.5842 481.6074)" font-family="'MyriadPro-Regular'" font-size="8">-Not systemically unwell.</text>
<text transform="matrix(1 0 0 1 134.5842 491.207)" font-family="'MyriadPro-Regular'" font-size="8">Medical management</text>
<text transform="matrix(1 0 0 1 134.5842 500.8076)" font-family="'MyriadPro-Regular'" font-size="8">-Avoidance of all oral intake for 10 to 14 days</text>
<text transform="matrix(1 0 0 1 134.5842 510.4072)" font-family="'MyriadPro-Regular'" font-size="8">-TPN</text>
<text transform="matrix(1 0 0 1 134.5842 520.0068)" font-family="'MyriadPro-Regular'" font-size="8">-IVs broad spectrum antibiotics (eg, ticarcillin-clavulanate)</text>
<text transform="matrix(1 0 0 1 134.5842 529.6074)" font-family="'MyriadPro-Regular'" font-size="8">-Drainage of fluid collections</text>
<text transform="matrix(1 0 0 1 134.5842 539.207)" font-family="'MyriadPro-Regular'" font-size="8">-No NG tube</text>
<text transform="matrix(1 0 0 1 134.5842 548.8076)" font-family="'MyriadPro-Regular'" font-size="8">-If deteriorate clinically, then for surgery</text>
<text transform="matrix(1 0 0 1 134.5842 558.4072)" font-family="'MyriadPro-Regular'" font-size="8">-Repeat contrast after 10 to 14 days </text>
<line fill="none" stroke="#000000" x1="497" y1="28" x2="497" y2="595.275"/>
<rect x="0" fill="none" stroke="#000000" stroke-width="3" width="841.889" height="595.275"/>
<a xlink:href="http://www.gastroenterologybook.com/" >
	<rect x="683.338" y="571.026" fill="none" width="144.771" height="11.333"/>
	<text transform="matrix(1 0 0 1 683.3372 579.5459)" fill="#009036" font-family="'MyriadPro-Regular'" font-size="12">Written by Dr Sebastian Zeki</text>
</a>
</svg>
