<?xml version="1.0" encoding="utf-8"?>
<!-- Generator: Adobe Illustrator 15.0.2, SVG Export Plug-In . SVG Version: 6.00 Build 0)  -->
<!DOCTYPE svg PUBLIC "-//W3C//DTD SVG 1.1//EN" "http://www.w3.org/Graphics/SVG/1.1/DTD/svg11.dtd">
<svg version="1.1" id="Layer_1" xmlns="http://www.w3.org/2000/svg" xmlns:xlink="http://www.w3.org/1999/xlink" x="0px" y="0px"
	 width="595.28px" height="841.89px" viewBox="0 0 595.28 841.89" enable-background="new 0 0 595.28 841.89" xml:space="preserve">
<rect x="28.132" y="20.369" fill="none" width="562.868" height="28.631"/>
<text transform="matrix(1 0 0 1 28.1318 37.4092)" font-family="'MyriadPro-BoldIt'" font-size="24">Diffuse esophageal spasm and nutcracker esophagus</text>
<rect x="172.86" y="91.125" fill="none" width="391.14" height="17.875"/>
<text transform="matrix(1 0 0 1 172.8604 101.0645)" font-family="'MyriadPro-BoldIt'" font-size="14">Classification of primary oesophageal motility abnormalities:</text>
<path fill="none" stroke="#000000" d="M460.623,165.591c-0.029,5.628-0.006,11.241,0.063,16.839
	c0.073,5.598,0.204,11.183,0.73,16.804c5.067,12.643,9.295,25.646,12.557,38.9c0.816,3.313,1.57,6.642,2.26,9.986
	c3.157,25.907,7.299,51.83,4.498,77.912c-0.106,0.971-0.22,1.94-0.344,2.914c-1.233,6.61-1.75,12.27-1.287,18.209
	c0.067,0.849,0.16,1.714,0.304,2.626c12.522,12.689,2.28,14.396-3.957,26.056c0.063,0.711,0.126,1.423,0.187,2.136
	c0.667,7.771,1.134,15.729,1.203,23.619c0.007,0.568,0.007,1.133,0.014,1.707c1.373,1.73,2.804,3.362,4.161,4.931
	c0.677,0.785,1.356,1.554,2.146,2.313c2.277,3.029,7.802,4.833,10.373,7.844c0.513,0.602,0.913,1.252,1.233,1.969
	c5.698,13.813-16.494,12.105-21.651,21.553c-0.421,0.432-0.86,0.863-1.32,1.296c-0.304,0.965-0.62,1.918-0.957,2.862
	c-5.015,14.13-13.727,25.603-28.137,31.901"/>
<path fill="none" stroke="#000000" d="M486.226,168.151c-0.227,5.9-0.387,11.811-0.479,17.729c0.707,3.676,1.407,7.354,2.101,11.036
	c-2.748,49.474-1.041,97.272,9.972,144.521c0.29,1.688,0.573,3.374,0.857,5.062c0.093,0.562,0.189,1.123,0.283,1.687
	c0.187,0.933,0.38,1.827,0.547,2.709c-0.487,0.966-0.95,1.884-1.374,2.766c-2.79,5.396-4.497,13.932,0.533,18.892
	c0.604,0.684,1.291,1.385,2.064,2.108c0.77,0.726,1.627,1.473,2.577,2.249c0.14,0.73,0.28,1.46,0.423,2.19
	c0.141,0.73,0.284,1.46,0.428,2.188c1.307,6.67,2.68,13.318,4.11,19.941c0.177,0.829,0.354,1.655,0.507,2.482
	c-2.45,5.838-6.234,10.466-7.355,14.412c-0.189,0.656-0.3,1.295-0.323,1.918c1.074,12.418,16.438,14.125,19.231,24.614
	c0.34,0.979,0.684,1.961,1.027,2.942c8.585,24.567,17.79,50.303,13.449,74.342c-6.588,36.49-45.594,59.643-80.686,47.562
	c-16.97-5.844-28.393-20.592-44.486-27.757c-17.434-7.762-35.672-5.551-53.989-2.327"/>
<rect x="169.86" y="116.845" fill="none" width="254.922" height="152.655"/>
<text transform="matrix(1 0 0 1 169.8604 126.7847)"><tspan x="0" y="0" fill="#ED1C24" font-family="'MyriadPro-BoldIt'" font-size="14">Diffuse oesophageal spasm</tspan><tspan x="165.115" y="0" fill="#ED1C24" font-family="'MyriadPro-BoldIt'" font-size="14"> (DES)</tspan><tspan x="0" y="12.291" font-family="'MyriadPro-Regular'" font-size="10.2423">DOS is diagnosed by 20% or more simultaneous contrac</tspan><tspan x="238.424" y="12.291" font-family="'MyriadPro-Regular'" font-size="10.2423">-</tspan><tspan x="0" y="24.582" font-family="'MyriadPro-Regular'" font-size="10.2423">tions (with amplitude &gt;30 mmHg).</tspan><tspan x="0" y="36.873" font-family="'MyriadPro-Regular'" font-size="10.2423">1/3rd of patients also have hypertensive or incompletely </tspan><tspan x="0" y="49.163" font-family="'MyriadPro-Regular'" font-size="10.2423">relaxing LOS.</tspan><tspan x="0" y="61.454" font-family="'MyriadPro-BoldIt'" font-size="10.2423">Radiography </tspan><tspan x="59.497" y="61.454" font-family="'MyriadPro-Regular'" font-size="10.2423">is</tspan><tspan x="65.949" y="61.454" font-family="'MyriadPro-BoldIt'" font-size="10.2423"> </tspan><tspan x="67.834" y="61.454" font-family="'MyriadPro-Regular'" font-size="10.2423">variable.</tspan><tspan x="0" y="73.745" font-family="'MyriadPro-Regular'" font-size="10.2423">Radiography can be normal or show broad spectrum of </tspan><tspan x="0" y="86.036" font-family="'MyriadPro-Regular'" font-size="10.2423">severe tertiary contractions resulting in &quot;rosary bead&quot; or </tspan><tspan x="0" y="98.327" font-family="'MyriadPro-Regular'" font-size="10.2423">&quot;corkscrew&quot; oesophagus.</tspan><tspan x="0" y="110.618" font-family="'MyriadPro-Regular'" font-size="10.2423">Radiography is not sensitive or specific.</tspan><tspan x="0" y="122.908" font-family="'MyriadPro-BoldIt'" font-size="10.2423">The pathophysiology</tspan><tspan x="93.225" y="122.908" font-family="'MyriadPro-Regular'" font-size="10.2423"> may be one of malfunction in </tspan><tspan x="0" y="135.199" font-family="'MyriadPro-Regular'" font-size="10.2423">endogenous nitric oxide synthesis and/or degradation.</tspan></text>
<rect x="171.001" y="318.275" fill="none" width="243.538" height="73.725"/>
<text transform="matrix(1 0 0 1 171.001 328.2153)"><tspan x="0" y="0" fill="#ED1C24" font-family="'MyriadPro-BoldIt'" font-size="14">Nutcracker oesophagus</tspan><tspan x="142.813" y="0" font-family="'MyriadPro-Regular'" font-size="10.2423"> </tspan><tspan x="0" y="12.291" font-family="'MyriadPro-Regular'" font-size="10.2423">The average distal oesophageal peristaltic pressures are </tspan><tspan x="0" y="24.582" font-family="'MyriadPro-Regular'" font-size="10.2423">&gt; 220 mmHg during 10 or more 5 mL liquid swallows. </tspan><tspan x="0" y="36.873" font-family="'MyriadPro-Regular'" font-size="10.2423">Patients may have hypertensive or incompletely relaxing </tspan><tspan x="0" y="49.164" font-family="'MyriadPro-Regular'" font-size="10.2423">LOS.</tspan><tspan x="0" y="61.454" font-family="'MyriadPro-Regular'" font-size="10.2423">This is due to a  hypercholingergic state.</tspan></text>
<rect x="171.001" y="410.457" fill="none" width="207.124" height="55.313"/>
<text transform="matrix(1 0 0 1 171.001 420.396)"><tspan x="0" y="0" fill="#ED1C24" font-family="'MyriadPro-BoldIt'" font-size="14">Hypertensive lower oesophageal </tspan><tspan x="0" y="16.801" fill="#ED1C24" font-family="'MyriadPro-BoldIt'" font-size="14">sphincter</tspan><tspan x="56.321" y="16.801" font-family="'MyriadPro-Regular'" font-size="10.2423">.</tspan><tspan x="0" y="29.09" font-family="'MyriadPro-Regular'" font-size="10.2423">Resting LOS pressure &gt; 45 mmHg. </tspan></text>
<path fill="#FFFFFF" d="M559.069,349.573c0,7.227-5.858,13.086-13.086,13.086h-99.01c-7.229,0-13.086-5.859-13.086-13.086l0,0
	c0-7.229,5.857-13.088,13.086-13.088h99.01C553.211,336.485,559.069,342.345,559.069,349.573L559.069,349.573z"/>
<rect x="438.438" y="338.76" fill="none" width="117.217" height="34.142"/>
<text transform="matrix(1 0 0 1 438.4385 353.3037)" fill="#ED1C24" font-family="'MyriadPro-BoldIt'" font-size="20.4847">&gt; 220 mmHg</text>
<path fill="#FFFFFF" d="M511.271,245.442c0,7.227-2.554,13.087-5.708,13.087h-43.206c-3.154,0-5.712-5.86-5.712-13.087l0,0
	c0-7.229,2.558-13.088,5.712-13.088h43.206C508.718,232.354,511.271,238.214,511.271,245.442L511.271,245.442z"/>
<rect x="462.337" y="236.337" fill="none" width="47.798" height="19.346"/>
<text transform="matrix(1 0 0 1 462.3369 250.8809)" fill="#ED1C24" font-family="'MyriadPro-BoldIt'" font-size="20.4847">20%</text>
<path fill="#FFFFFF" d="M563.054,422.977c0,7.227-5.858,13.086-13.087,13.086h-99.009c-7.229,0-13.09-5.859-13.09-13.086l0,0
	c0-7.229,5.861-13.088,13.09-13.088h99.009C557.195,409.889,563.054,415.748,563.054,422.977L563.054,422.977z"/>
<rect x="445.267" y="412.732" fill="none" width="113.803" height="36.416"/>
<text transform="matrix(1 0 0 1 445.2666 427.2764)" fill="#ED1C24" font-family="'MyriadPro-BoldIt'" font-size="20.4847">&gt; 45 mmHg </text>
<g>
	<g>
		<path fill="none" stroke="#000000" stroke-width="0.5623" d="M93.79,151.903c-10.96,0.367-19.345,31.852-27.833,40.792"/>
		<path fill="none" stroke="#000000" stroke-width="0.5623" d="M74.592,198.454c3.298-4.245,7.476-8.15,10.232-12.771
			c1.46-2.449,3.601-12.533,6.778-13.008c6.685-0.999,3.987,32.877,4.107,37.297"/>
		<path fill="none" stroke="#000000" stroke-width="0.5623" d="M133.353,152.727c5.48,0.183,10.315,8.146,14.843,17.18
			c1.514,3.013,2.991,6.143,4.465,9.142c2.7,4.41,4.621,10.169,8.922,14.438"/>
		<path fill="none" stroke="#000000" stroke-width="0.5623" d="M152.553,199.277c-1.65-2.122-3.521-4.159-5.321-6.245
			c-1.8-2.084-3.533-4.216-4.914-6.526c-1.46-2.449-3.601-12.533-6.774-13.006c-6.688-1-3.988,32.874-4.108,37.295"/>
		<path fill="none" stroke="#000000" stroke-width="0.6377" d="M134.103,152.383c-3.602,0.354-4.481-1.312-7.318-2.037
			c-2.678-0.684-5.338,0.37-7.938-0.322c-2.524-0.672-4.321-2.53-3.494-4.888c0.923-2.647,5.491-2.161,5.074-5.158
			c-0.854,0.063-2.051-0.257-2.897-0.144c-0.057,0.113-0.014-1.38,0.017-1.287c3.498-0.97-0.12-5.344,5.352-4.474
			c0.736-1.815-0.561-3.143-2.888-3.369c-1.837-4.784,2.577-8.003-3-11.052c-4.795-2.621-12.313-2.612-17.988-2.221
			c-2.014,2.246-4.514,1.965-5.537,5.185c-0.744,2.349-0.057,5.256-0.047,7.68c0.02,6.453,3.127,7.651,7.435,12.404
			c0.674-0.045,1.581,0.157,2.271,0.157c0.547,2.061,0.69,3.924,0.71,6.167"/>
		<path fill="none" stroke="#000000" stroke-width="0.5623" d="M103.892,147.852c-0.16,5.729-9.259,2.387-11.839,4.479"/>
	</g>
	<polygon points="119.525,182.925 111.754,179.654 104.652,184.204 105.359,175.798 98.838,170.45 107.05,168.526 110.12,160.671 
		114.487,167.888 122.909,168.381 117.396,174.765 	"/>
	<line fill="none" stroke="#000000" stroke-width="0.5623" x1="105.449" y1="153.492" x2="115.688" y2="160.53"/>
	<line fill="none" stroke="#000000" stroke-width="0.5623" x1="105.449" y1="159.89" x2="114.407" y2="153.492"/>
</g>
<g>
	<path fill="none" stroke="#000000" stroke-width="0.5623" d="M100.618,316.349c-10.959,0.367-19.345,31.853-27.833,40.793"/>
	<path fill="none" stroke="#000000" stroke-width="0.5623" d="M81.42,362.899c3.298-4.244,7.476-8.15,10.232-12.771
		c1.461-2.448,3.601-12.532,6.778-13.008c6.685-0.999,3.987,32.878,4.107,37.297"/>
	<path fill="none" stroke="#000000" stroke-width="0.5623" d="M140.181,317.172c5.48,0.184,10.315,8.147,14.843,17.181
		c1.514,3.013,2.991,6.144,4.465,9.143c2.7,4.409,4.621,10.169,8.922,14.438"/>
	<path fill="none" stroke="#000000" stroke-width="0.5623" d="M159.382,363.723c-1.65-2.122-3.521-4.159-5.321-6.244
		c-1.801-2.084-3.534-4.217-4.915-6.527c-1.46-2.448-3.601-12.532-6.774-13.006c-6.688-1-3.988,32.874-4.108,37.295"/>
	<path fill="none" stroke="#000000" stroke-width="0.6377" d="M140.931,316.829c-3.602,0.354-4.481-1.313-7.318-2.037
		c-2.678-0.684-5.338,0.37-7.938-0.322c-2.524-0.672-4.321-2.53-3.494-4.888c0.923-2.647,5.491-2.16,5.074-5.158
		c-0.854,0.063-2.051-0.256-2.897-0.143c-0.057,0.113-0.013-1.381,0.017-1.287c3.498-0.971-0.12-5.345,5.352-4.475
		c0.736-1.815-0.561-3.143-2.888-3.369c-1.837-4.784,2.577-8.003-3-11.053c-4.795-2.62-12.313-2.612-17.988-2.22
		c-2.014,2.245-4.514,1.965-5.537,5.185c-0.744,2.349-0.057,5.256-0.047,7.68c0.02,6.453,3.127,7.651,7.435,12.404
		c0.674-0.045,1.581,0.157,2.271,0.157c0.547,2.06,0.69,3.924,0.711,6.166"/>
	<path fill="none" stroke="#000000" stroke-width="0.5623" d="M110.72,312.298c-0.159,5.729-9.258,2.387-11.839,4.479"/>
</g>
<polygon points="126.354,347.371 118.582,344.1 111.48,348.649 112.188,340.244 105.666,334.896 113.878,332.973 116.948,325.117 
	121.316,332.334 129.738,332.827 124.224,339.211 "/>
<rect x="11.104" y="153.263" fill="none" width="48.938" height="25.036"/>
<text transform="matrix(1 0 0 1 11.1035 160.5347)"><tspan x="0" y="0" font-family="'MyriadPro-BoldIt'" font-size="10.2423">Dysphagia</tspan><tspan x="0" y="12.291" font-family="'MyriadPro-BoldIt'" font-size="10.2423">Chest pain</tspan></text>
<text transform="matrix(1 0 0 1 14.5186 342.9629)" font-family="'MyriadPro-BoldIt'" font-size="10.2423">Chest pain</text>
<rect x="81.258" y="591.436" fill="none" width="416.522" height="76.064"/>
<text transform="matrix(1 0 0 1 81.2578 601.375)"><tspan x="0" y="0" fill="#ED1C24" font-family="'MyriadPro-BoldIt'" font-size="14">Management of patients whose primary symptom is chest pain</tspan><tspan x="0" y="24.582" font-family="'MyriadPro-Regular'" font-size="10.2423">Patients can use calcium channel blocker (ie, diltiazem 180 to 240 mg/day) or a tricyclic antide</tspan><tspan x="398.473" y="24.582" font-family="'MyriadPro-Regular'" font-size="10.2423">-</tspan><tspan x="0" y="36.873" font-family="'MyriadPro-Regular'" font-size="10.2423">pressant (ie, imipramine 25 to 50 mg at bedtime).</tspan><tspan x="0" y="49.164" font-family="'MyriadPro-Regular'" font-size="10.2423">Reserve botulinum toxin or a nitric oxide contributing drug (ie, a nitrate or phosphodiesterase </tspan><tspan x="0" y="61.453" font-family="'MyriadPro-Regular'" font-size="10.2423">inhibitor) for patients who do not respond.</tspan></text>
<rect fill="none" stroke="#010101" stroke-width="3" width="595.28" height="841.89"/>
<text transform="matrix(1 0 0 1 84.2578 696.6563)"><tspan x="0" y="0" fill="#ED1C24" font-family="'MyriadPro-BoldIt'" font-size="14">Management of patients whose primary symptom is dysphagia</tspan><tspan x="378.021" y="0" font-family="'MyriadPro-Regular'" font-size="10.2423">  </tspan><tspan x="0" y="12.291" font-family="'MyriadPro-Regular'" font-size="10.2423">Best treatment is calcium channel blocker.</tspan></text>
<a xlink:href="http://www.gastroenterologybook.com/" >
	<rect x="416.413" y="813" fill="none" width="144.773" height="11.333"/>
	<text transform="matrix(1 0 0 1 416.4131 821.5195)" fill="#00A651" font-family="'MyriadPro-Regular'" font-size="12">Written by Dr Sebastian Zeki</text>
</a>
</svg>
