<?xml version="1.0" encoding="utf-8"?>
<!-- Generator: Adobe Illustrator 15.0.2, SVG Export Plug-In . SVG Version: 6.00 Build 0)  -->
<!DOCTYPE svg PUBLIC "-//W3C//DTD SVG 1.1//EN" "http://www.w3.org/Graphics/SVG/1.1/DTD/svg11.dtd">
<svg version="1.1" id="Layer_1" xmlns="http://www.w3.org/2000/svg" xmlns:xlink="http://www.w3.org/1999/xlink" x="0px" y="0px"
	 width="595.28px" height="841.89px" viewBox="0 0 595.28 841.89" enable-background="new 0 0 595.28 841.89" xml:space="preserve">
<rect x="139.639" y="21.646" fill="none" width="259.361" height="52.688"/>
<text transform="matrix(1 0 0 1 139.6387 38.6855)"><tspan x="0" y="0" fill="#010101" font-family="'MyriadPro-BoldIt'" font-size="24">Mallory-Weiss syndrome</tspan><tspan x="0" y="28.8" fill="#010101" font-family="'MyriadPro-BoldIt'" font-size="24">Pathogenesis</tspan></text>
<g>
	<g>
		<path d="M268.335,293.946c4.894,22.987,13.28,45.063,17.898,68.117c3.317,16.561,5.77,35.442-8.814,47.193
			c-11.184,9.011-26.785,11.745-39.957,16.594c-19.422,7.151-36.163,19.371-51.259,33.305c-0.425,0.393,0.405,2.126,0,2.5
			c16.642-15.36,34.954-27.88,56.542-35.146c13.7-4.611,30.438-8.166,39.957-20.003c8.351-10.384,6.716-25.572,5.066-37.846
			c-3.543-26.375-13.911-51.267-19.435-77.213C268.504,292.239,268.164,293.145,268.335,293.946L268.335,293.946z"/>
	</g>
</g>
<g>
	<g>
		<path d="M287.453,291.566c24.366,25.823,64.273,30.77,86.795,58.787c13.337,16.591,13.657,39.141,3.202,57.276
			c-11.112,19.275-32.219,31.854-52.73,38.879c-13.571,4.648-27.597,5.616-41.804,4.075c-14.379-1.561-28.402-5.398-42.789-6.96
			c-12.614-1.369-24.275-0.694-33.462,8.94c-7.849,8.232-11.791,19.839-16.276,30.057c-0.31,0.705,0.304,1.809,0,2.5
			c4.266-9.716,8.078-19.89,14.737-28.282c7.188-9.058,17.162-11.698,28.313-11.229c13.508,0.568,26.727,3.829,40.003,6.108
			c13.876,2.383,27.73,2.964,41.581,0.091c21.139-4.384,42.476-16.631,56.388-33.125c11.304-13.402,15.59-30.531,13.047-47.697
			c-3.313-22.362-21.964-36.244-40.365-46.59c-19.224-10.807-41.212-18.982-56.639-35.331
			C287.86,289.497,287.028,291.116,287.453,291.566L287.453,291.566z"/>
	</g>
</g>
<rect x="40.667" y="273.24" fill="none" width="185.99" height="154.26"/>
<text transform="matrix(1 0 0 1 40.667 283.1802)"><tspan x="0" y="0" fill="#ED1C24" font-family="'MyriadPro-BoldIt'" font-size="14">Precipitating factors:</tspan><tspan x="0" y="26.785" fill="#010101" font-family="'MyriadPro-Regular'" font-size="11.1603">Vomiting.</tspan><tspan x="0" y="40.177" fill="#010101" font-family="'MyriadPro-Regular'" font-size="11.1603">Straining at stool or lifting.</tspan><tspan x="0" y="53.569" fill="#010101" font-family="'MyriadPro-Regular'" font-size="11.1603">Coughing, epileptic convulsions.</tspan><tspan x="0" y="66.962" fill="#010101" font-family="'MyriadPro-Regular'" font-size="11.1603">Hiccups under anaesthesia.</tspan><tspan x="0" y="80.354" fill="#010101" font-family="'MyriadPro-Regular'" font-size="11.1603">Cosed-chest massage.</tspan><tspan x="0" y="93.747" fill="#010101" font-family="'MyriadPro-Regular'" font-size="11.1603">Blunt abdominal injury.</tspan><tspan x="0" y="107.139" fill="#010101" font-family="'MyriadPro-Regular'" font-size="11.1603">Colonoscopic preparation with polyeth</tspan><tspan x="181.82" y="107.139" fill="#010101" font-family="'MyriadPro-Regular'" font-size="11.1603">-</tspan><tspan x="0" y="120.532" fill="#010101" font-family="'MyriadPro-Regular'" font-size="11.1603">ylene glycol electrolyte lavage solution.</tspan><tspan x="0" y="133.923" fill="#010101" font-family="'MyriadPro-Regular'" font-size="11.1603">Gastroscopy.</tspan></text>
<rect x="394.975" y="277.518" fill="none" width="177.025" height="143.427"/>
<text transform="matrix(1 0 0 1 394.9746 287.458)"><tspan x="0" y="0" fill="#ED1C24" font-family="'MyriadPro-BoldIt'" font-size="14">Predisposing conditions:</tspan><tspan x="0" y="26.785" fill="#010101" font-family="'MyriadPro-Regular'" font-size="11.1603">Hiatal hernia( in 40-100%).</tspan><tspan x="0" y="40.177" fill="#010101" font-family="'MyriadPro-Regular'" font-size="11.1603">Chronic alcoholism (due to recurrent </tspan><tspan x="0" y="53.569" fill="#010101" font-family="'MyriadPro-Regular'" font-size="11.1603">vomiting).</tspan><tspan x="0" y="66.962" fill="#010101" font-family="'MyriadPro-Regular'" font-size="11.1603">Perhaps increasing age.</tspan></text>
<g>
	<g>
		<path fill="#010101" d="M289.219,291.424c-3.181-4.198-5.649-9.089-4.562-14.501c0.921-4.581,4.396-8.152,7.914-10.937
			c7.378-5.84,14.658-10.339,15.011-20.863c0.481-14.402-5.131-28.309-18.363-35.31c0.329,0.174-0.359,2.31,0,2.5
			c7.887,4.172,13.125,10.792,16.274,19.065c4.285,11.258,1.368,21.749-8.167,28.719c-6.848,5.005-12.991,9.662-13.148,18.876
			c-0.096,5.614,1.621,10.436,5.041,14.95C288.825,293.404,289.627,291.962,289.219,291.424L289.219,291.424z"/>
	</g>
</g>
<g>
	<g>
		<path fill="#010101" d="M269.92,291.801c-7.975-14.27-25.883-19.176-33.211-33.755c-10.139-20.169,16.181-31.202,18.796-49.133
			c0.238-1.637-0.237-3.375,0-5c-1.627,11.157-10.782,17.777-16.661,26.672c-4.449,6.731-5.153,15.226-4.502,23.106
			c1.75,21.171,26.232,26.387,35.578,43.11C269.22,295.547,270.639,293.086,269.92,291.801L269.92,291.801z"/>
	</g>
</g>
<g>
	<g>
		<path fill="#ED1C24" d="M278.059,283.693c1.451-3.481,1.659-7.018,1.277-10.716c-0.812-7.871-8.732-14.327-8.003-22.45
			c0.668-7.433,6.158-13.543,6.327-21.154c0.127-5.734-2.212-9.522-7.042-12.817c0.375,0.256-0.4,2.227,0,2.5
			c3.175,2.165,5.68,4.525,6.769,8.295c0.89,3.079-1.29,7.208-2.426,9.972c-1.901,4.626-3.748,8.975-3.762,14.034
			c-0.028,10.504,11.184,19.466,6.859,29.836C277.76,281.909,278.352,282.99,278.059,283.693L278.059,283.693z"/>
	</g>
</g>
<g>
	<g>
		<path fill="#ED1C24" d="M266.434,230.681c6.882-0.356,13.656,0.431,20.459,1.395c-0.097-0.014,0.134-2.481,0-2.5
			c-6.803-0.964-13.577-1.751-20.459-1.395C266.372,228.185,266.458,230.68,266.434,230.681L266.434,230.681z"/>
	</g>
</g>
<g>
	<g>
		<path fill="#ED1C24" d="M261.782,248.817c7.224-2.617,14.784-1.916,22.32-1.86c0.013,0,0.025-2.5,0-2.5
			c-7.536-0.056-15.097-0.757-22.32,1.86C261.499,246.419,262.032,248.727,261.782,248.817L261.782,248.817z"/>
	</g>
</g>
<g>
	<g>
		<path fill="#ED1C24" d="M269.224,266.022c4.474-1.939,9.056-3.167,13.95-3.255c0.034,0,0.004-2.5,0-2.5
			c-4.895,0.088-9.477,1.315-13.95,3.255C268.903,263.661,269.512,265.897,269.224,266.022L269.224,266.022z"/>
	</g>
</g>
<line fill="none" stroke="#000000" stroke-miterlimit="10" x1="289.002" y1="239.197" x2="353.854" y2="230.826"/>
<rect x="359.5" y="152" fill="none" width="220.5" height="118.5"/>
<text transform="matrix(1 0 0 1 359.5 161.9404)"><tspan x="0" y="0" fill="#ED1C24" font-family="'MyriadPro-BoldIt'" font-size="14">Endoscopic Features</tspan><tspan x="0" y="13.392" font-family="'MyriadPro-Regular'" font-size="11.1603">The tear appears as a red crack sometimes with </tspan><tspan x="0" y="26.785" font-family="'MyriadPro-Regular'" font-size="11.1603">adherent clot and normal adjacent.</tspan><tspan x="0" y="40.177" font-family="'MyriadPro-Regular'" font-size="11.1603">Usually heal in 24-48 hours mucosa.</tspan><tspan x="0" y="53.569" font-family="'MyriadPro-Regular'" font-size="11.1603">Tears are at the GOJ, often within a hiatus </tspan><tspan x="0" y="66.962" font-family="'MyriadPro-Regular'" font-size="11.1603">hernia.</tspan><tspan x="0" y="80.354" font-family="'MyriadPro-Regular'" font-size="11.1603">Tears can continue down into the cardia and </tspan><tspan x="0" y="93.747" font-family="'MyriadPro-Regular'" font-size="11.1603">up into the oesophagus.</tspan><tspan x="0" y="107.139" font-family="'MyriadPro-Regular'" font-size="11.1603">Lesions can be multiple in 25%.</tspan></text>
<rect x="229.672" y="484.026" fill="none" width="182.285" height="91.373"/>
<text transform="matrix(1 0 0 1 229.6724 493.9668)"><tspan x="0" y="0" fill="#ED1C24" font-family="'MyriadPro-BoldIt'" font-size="14">Treatment:</tspan><tspan x="0" y="10.045" fill="#010101" font-family="'MyriadPro-Regular'" font-size="8.3702">Injection therapy of various agents, including </tspan><tspan x="0" y="20.089" fill="#010101" font-family="'MyriadPro-Regular'" font-size="8.3702">epinephrine  , ethanol  , and other sclerosants- this </tspan><tspan x="0" y="30.133" fill="#010101" font-family="'MyriadPro-Regular'" font-size="8.3702">has been used as monotherapy or in combination </tspan><tspan x="0" y="40.178" fill="#010101" font-family="'MyriadPro-Regular'" font-size="8.3702">with thermal devices.</tspan><tspan x="0" y="50.222" fill="#010101" font-family="'MyriadPro-Regular'" font-size="8.3702">Haemoclips- can be effective.</tspan><tspan x="0" y="60.266" fill="#010101" font-family="'MyriadPro-Regular'" font-size="8.3702">Very occasionally surgery with oversewing of </tspan><tspan x="0" y="70.311" fill="#010101" font-family="'MyriadPro-Regular'" font-size="8.3702">bleeding vessel.</tspan></text>
<rect fill="none" stroke="#010101" stroke-width="3" width="595.28" height="841.89"/>
<a xlink:href="http://www.gastroenterologybook.com/" >
	<rect x="424.834" y="811.077" fill="none" width="144.773" height="11.333"/>
	<text transform="matrix(1 0 0 1 424.834 819.5967)" fill="#00A651" font-family="'MyriadPro-Regular'" font-size="12">Written by Dr Sebastian Zeki</text>
</a>
</svg>
