<?xml version="1.0" encoding="utf-8"?>
<!-- Generator: Adobe Illustrator 15.0.2, SVG Export Plug-In . SVG Version: 6.00 Build 0)  -->
<!DOCTYPE svg PUBLIC "-//W3C//DTD SVG 1.1//EN" "http://www.w3.org/Graphics/SVG/1.1/DTD/svg11.dtd">
<svg version="1.1" id="Layer_1" xmlns="http://www.w3.org/2000/svg" xmlns:xlink="http://www.w3.org/1999/xlink" x="0px" y="0px"
	 width="595.28px" height="841.89px" viewBox="0 0 595.28 841.89" enable-background="new 0 0 595.28 841.89" xml:space="preserve">
<rect x="130.766" y="398" opacity="0.2" fill="#6ABD45" width="263.568" height="314.547"/>
<rect x="132.137" y="33" opacity="0.2" fill="#6ABD45" width="262.197" height="326"/>
<g>
	<g>
		<path fill="none" stroke="#010101" stroke-width="0.4403" d="M543.909,67.792c0.081-0.832-0.057-1.701-0.461-2.446l-13.711-25.292
			c-0.879-1.622-2.63-2.034-3.912-0.923c-1.282,1.112-1.609,3.327-0.729,4.948l12.145,22.406h-17.983V51.427
			c0-2.57-1.869-4.654-4.177-4.654h-16.714c0.048-0.268,0.083-0.54,0.083-0.821V33.904c0-2.57-2.084-4.654-4.654-4.654h-8.215
			c-2.57,0-4.653,2.084-4.653,4.654v12.047c0,0.281,0.035,0.554,0.083,0.821h-15.072c-2.307,0-4.177,2.084-4.177,4.654v15.059
			h-33.599l15.361-22.406c1.112-1.622,0.697-3.836-0.924-4.948c-1.62-1.111-3.836-0.699-4.947,0.923l-17.34,25.292
			c-0.511,0.745-0.686,1.613-0.583,2.444c-0.42,0.552-0.68,1.233-0.68,1.981c0,1.814,1.472,3.285,3.285,3.285h39.426v49.556
			c0,0.28,0.031,0.552,0.074,0.819c-8.438,9.179-13.764,22.578-13.764,37.512c0,27.671,18.264,50.104,40.795,50.104
			c22.53,0,40.795-22.432,40.795-50.104c0-13.637-4.442-25.995-11.639-35.029c0.762-0.843,1.234-2.01,1.234-3.301V73.057h22.592
			c1.434,0,2.597-1.471,2.597-3.285C544.445,69.025,544.24,68.344,543.909,67.792z"/>
	</g>
</g>
<g>
	<rect x="354.049" y="146.092" fill="none" stroke="#010101" stroke-width="0.1991" width="24.656" height="2.055"/>
	<line fill="none" stroke="#010101" stroke-width="0.1991" x1="353.019" y1="146.196" x2="353.019" y2="148.149"/>
	<line fill="none" stroke="#010101" stroke-width="0.1991" x1="351.99" y1="146.094" x2="351.99" y2="147.635"/>
	<line fill="none" stroke="#010101" stroke-width="0.1991" x1="351.271" y1="146.607" x2="351.271" y2="147.532"/>
	<line fill="none" stroke="#010101" stroke-width="0.1991" x1="350.758" y1="146.813" x2="350.758" y2="147.532"/>
	<path fill="none" stroke="#010101" stroke-width="0.1991" d="M353.737,145.683c-1.137-0.907-1.435-2.667-0.784-3.892
		c0.273-0.514,0.87-1.267,0.79-1.912c-0.067-0.531-0.433-0.665-0.726-1.071c-0.166,0.002-0.068,0.078-0.103,0.198"/>
	<path fill="none" stroke="#010101" stroke-width="0.1991" d="M351.478,144.964c0.016-0.343-0.372-1.03-0.515-1.48
		c-0.224-0.695-0.195-1.312-0.205-2.037c-0.012-1.198-0.691-2.354-1.335-3.366"/>
	<path fill="none" stroke="#010101" stroke-width="0.1991" d="M349.524,144.964c0.084-1.715-0.706-3.431-0.826-5.151
		c-0.083-1.213,0.565-2.082,0.52-3.272"/>
</g>
<g>
	<g>
		<g>
			<path fill="#754D25" d="M485.388,136.181c0.917,0,1.66,1.442,1.66,3.222c0,0.486-0.06,0.942-0.159,1.356
				c0.224,0.063,0.449,0.119,0.68,0.163c-0.021-0.207-0.033-0.42-0.033-0.64c0-1.78,0.745-3.223,1.661-3.223
				c0.917,0,1.66,1.443,1.66,3.223c0,0.189-0.013,0.373-0.028,0.553c0.262-0.064,0.52-0.142,0.771-0.233
				c-0.035-0.26-0.06-0.528-0.06-0.809c0-1.779,0.744-3.222,1.66-3.222c0.686,0,1.274,0.808,1.527,1.959
				c1.41-1.514,2.282-3.582,2.282-5.866c0-4.639-3.586-8.399-8.009-8.399s-8.009,3.76-8.009,8.399c0,2.528,1.07,4.79,2.756,6.33
				C483.853,137.41,484.543,136.181,485.388,136.181z"/>
		</g>
		<g>
			<path fill="none" stroke="#754D25" stroke-width="0.0947" d="M485.388,136.181c0.917,0,1.66,1.442,1.66,3.222
				c0,0.486-0.06,0.942-0.159,1.356c0.224,0.063,0.449,0.119,0.68,0.163c-0.021-0.207-0.033-0.42-0.033-0.64
				c0-1.78,0.745-3.223,1.661-3.223c0.917,0,1.66,1.443,1.66,3.223c0,0.189-0.013,0.373-0.028,0.553
				c0.262-0.064,0.52-0.142,0.771-0.233c-0.035-0.26-0.06-0.528-0.06-0.809c0-1.779,0.744-3.222,1.66-3.222
				c0.686,0,1.274,0.808,1.527,1.959c1.41-1.514,2.282-3.582,2.282-5.866c0-4.639-3.586-8.399-8.009-8.399s-8.009,3.76-8.009,8.399
				c0,2.528,1.07,4.79,2.756,6.33C483.853,137.41,484.543,136.181,485.388,136.181z"/>
		</g>
	</g>
	<ellipse fill="#010101" stroke="#754D25" stroke-width="0.0947" cx="486.168" cy="129.833" rx="2.051" ry="1.074"/>
	<ellipse fill="#010101" stroke="#754D25" stroke-width="0.0947" cx="491.052" cy="130.028" rx="2.051" ry="1.075"/>
</g>
<path fill="none" stroke="#754D25" d="M486.945,64.572c-0.007,7.788,0.735,15.416,1.229,22.99
	c0.325,5.007-0.008,11.474,1.646,16.025"/>
<path fill="none" stroke="#754D25" d="M496.098,63.797c0.46,9.415,3.15,18.524,3.56,27.945c0.316,7.282,1.368,13.183,4.947,19.647
	c4.224,7.625,8.164,15.484,7.156,24.55c-1.063,9.575-8.285,10.748-16.239,11.833c-9.778,1.333-12.49,9.16-13.387,17.875"/>
<path fill="none" stroke="#754D25" d="M489.409,102.355c-0.179,3.626,0.565,8.001,1.159,11.429
	c-6.753,3.209-10.268,8.89-10.869,16.333c-0.549,6.799,2.434,15.968-0.61,22.341c-0.772,1.618-1.703,2.556-2.351,4.338
	c-1.002,2.758-0.838,5.691-2.114,8.393"/>
<path fill="none" stroke="#754D25" d="M461.482,149.994c-1.686-0.392,8.323-11.498,11.91-12.731"/>
<path fill="none" stroke="#754D25" d="M460.661,143.423c1.526,1.384,3.059,3.397,4.107,5.339"/>
<path fill="none" stroke="#754D25" d="M463.947,141.369c1.869,1.323,2.653,3.434,2.464,5.75"/>
<path fill="none" stroke="#754D25" d="M466.411,138.495c0.3,1.556,1.303,2.81,1.643,4.518"/>
<path fill="none" stroke="#010101" stroke-width="0.4403" d="M468.875,136.031c1.323,1.219,2.709,3.844,2.465,5.75"/>
<ellipse fill="none" stroke="#754D25" stroke-width="0.9445" cx="497.007" cy="108.31" rx="4.312" ry="2.669"/>
<ellipse fill="none" stroke="#754D25" stroke-width="0.9445" cx="371.147" cy="201.796" rx="7.155" ry="4.43"/>
<g>
	<g>
		<g>
			<path fill="#754D25" d="M375.747,176.181c1.521,0,2.756,2.394,2.756,5.348c0,0.807-0.099,1.564-0.264,2.25
				c0.371,0.106,0.746,0.199,1.128,0.271c-0.035-0.343-0.055-0.698-0.055-1.062c0-2.954,1.233-5.349,2.755-5.349
				c1.522,0,2.756,2.395,2.756,5.349c0,0.314-0.021,0.618-0.048,0.918c0.436-0.107,0.862-0.236,1.28-0.386
				c-0.059-0.432-0.099-0.876-0.099-1.342c0-2.953,1.234-5.348,2.756-5.348c1.138,0,2.113,1.34,2.534,3.25
				c2.34-2.512,3.786-5.944,3.786-9.733c0-7.698-5.949-13.938-13.29-13.938c-7.34,0-13.289,6.24-13.289,13.938
				c0,4.196,1.776,7.95,4.573,10.505C373.2,178.222,374.345,176.181,375.747,176.181z"/>
		</g>
		<g>
			<path fill="none" stroke="#754D25" stroke-width="0.0947" d="M375.747,176.181c1.521,0,2.756,2.394,2.756,5.348
				c0,0.807-0.099,1.564-0.264,2.25c0.371,0.106,0.746,0.199,1.128,0.271c-0.035-0.343-0.055-0.698-0.055-1.062
				c0-2.954,1.233-5.349,2.755-5.349c1.522,0,2.756,2.395,2.756,5.349c0,0.314-0.021,0.618-0.048,0.918
				c0.436-0.107,0.862-0.236,1.28-0.386c-0.059-0.432-0.099-0.876-0.099-1.342c0-2.953,1.234-5.348,2.756-5.348
				c1.138,0,2.113,1.34,2.534,3.25c2.34-2.512,3.786-5.944,3.786-9.733c0-7.698-5.949-13.938-13.29-13.938
				c-7.34,0-13.289,6.24-13.289,13.938c0,4.196,1.776,7.95,4.573,10.505C373.2,178.222,374.345,176.181,375.747,176.181z"/>
		</g>
	</g>
	<ellipse fill="#010101" stroke="#754D25" stroke-width="0.0947" cx="377.043" cy="165.646" rx="3.404" ry="1.783"/>
	<ellipse fill="#010101" stroke="#754D25" stroke-width="0.0947" cx="385.147" cy="165.97" rx="3.404" ry="1.783"/>
</g>
<ellipse fill="none" stroke="#010101" cx="338.359" cy="170.176" rx="8.26" ry="8.972"/>
<g>
	<g>
		<path fill="none" stroke="#010101" stroke-width="0.5" d="M495.296,102.217c-0.009-3.181-0.614-5.37-1.232-8.214"/>
		<path fill="#010101" d="M493.423,91.054c0.816,1.275,2.068,2.806,3.23,3.671l-2.506-0.335l-2.141,1.345
			C492.705,94.466,493.21,92.554,493.423,91.054z"/>
	</g>
</g>
<g>
	<rect x="463.74" y="37.116" fill="none" stroke="#010101" stroke-width="0.1991" width="14.857" height="1.238"/>
	<line fill="none" stroke="#010101" stroke-width="0.1991" x1="463.119" y1="37.179" x2="463.119" y2="38.355"/>
	<line fill="none" stroke="#010101" stroke-width="0.1991" x1="462.499" y1="37.117" x2="462.499" y2="38.046"/>
	<line fill="none" stroke="#010101" stroke-width="0.1991" x1="462.065" y1="37.427" x2="462.065" y2="37.984"/>
	<line fill="none" stroke="#010101" stroke-width="0.1991" x1="461.757" y1="37.551" x2="461.757" y2="37.984"/>
	<path fill="none" stroke="#010101" stroke-width="0.1991" d="M463.553,36.869c-0.686-0.546-0.866-1.607-0.475-2.345
		c0.166-0.31,0.525-0.763,0.478-1.152c-0.042-0.32-0.262-0.4-0.438-0.645c-0.1,0.001-0.04,0.047-0.061,0.119"/>
	<path fill="none" stroke="#010101" stroke-width="0.1991" d="M462.19,36.436c0.01-0.206-0.226-0.62-0.312-0.892
		c-0.134-0.419-0.117-0.79-0.122-1.227c-0.008-0.722-0.417-1.418-0.805-2.028"/>
	<path fill="none" stroke="#010101" stroke-width="0.1991" d="M461.013,36.436c0.051-1.033-0.425-2.067-0.497-3.104
		c-0.051-0.731,0.34-1.254,0.313-1.972"/>
</g>
<g>
	<g>
		<path fill="none" stroke="#010101" stroke-width="0.5" d="M305.712,124.58c-0.014-5.279-1.021-8.91-2.044-13.63"/>
		<path fill="#010101" d="M303.029,108c0.815,1.276,2.066,2.808,3.229,3.673l-2.506-0.337l-2.142,1.343
			C302.31,111.412,302.815,109.499,303.029,108z"/>
	</g>
</g>
<g>
	<g>
		<path fill="#FFFFFF" d="M524.078,599.641c0.063-0.654-0.045-1.34-0.363-1.927l-10.807-19.933
			c-0.693-1.278-2.073-1.604-3.083-0.729c-1.011,0.877-1.269,2.623-0.575,3.901l9.572,17.658h-14.174v-11.868
			c0-2.026-1.474-3.669-3.292-3.669h-13.173c0.038-0.211,0.065-0.426,0.065-0.647v-9.494c0-2.026-1.643-3.668-3.669-3.668h-6.474
			c-2.025,0-3.668,1.642-3.668,3.668v9.494c0,0.222,0.027,0.437,0.065,0.647h-11.879c-1.818,0-3.292,1.643-3.292,3.669v11.868
			h-26.48l12.107-17.658c0.876-1.278,0.55-3.024-0.729-3.901c-1.277-0.876-3.023-0.55-3.899,0.729l-13.666,19.933
			c-0.402,0.587-0.54,1.271-0.46,1.927c-0.331,0.435-0.535,0.972-0.535,1.561c0,1.431,1.159,2.59,2.589,2.59h31.073v39.058
			c0,0.222,0.021,0.438,0.056,0.649c-6.649,7.234-10.845,17.792-10.845,29.56c0,21.81,14.395,39.489,32.152,39.489
			c17.757,0,32.152-17.68,32.152-39.489c0-10.747-3.502-20.487-9.174-27.607c0.602-0.664,0.974-1.585,0.974-2.602v-39.058h17.806
			c1.13,0,2.047-1.159,2.047-2.59C524.501,600.612,524.34,600.076,524.078,599.641z"/>
	</g>
	<g>
		<path fill="none" stroke="#010101" stroke-width="0.4403" d="M524.078,599.641c0.063-0.654-0.045-1.34-0.363-1.927l-10.807-19.933
			c-0.693-1.278-2.073-1.604-3.083-0.729c-1.011,0.877-1.269,2.623-0.575,3.901l9.572,17.658h-14.174v-11.868
			c0-2.026-1.474-3.669-3.292-3.669h-13.173c0.038-0.211,0.065-0.426,0.065-0.647v-9.494c0-2.026-1.643-3.668-3.669-3.668h-6.474
			c-2.025,0-3.668,1.642-3.668,3.668v9.494c0,0.222,0.027,0.437,0.065,0.647h-11.879c-1.818,0-3.292,1.643-3.292,3.669v11.868
			h-26.48l12.107-17.658c0.876-1.278,0.55-3.024-0.729-3.901c-1.277-0.876-3.023-0.55-3.899,0.729l-13.666,19.933
			c-0.402,0.587-0.54,1.271-0.46,1.927c-0.331,0.435-0.535,0.972-0.535,1.561c0,1.431,1.159,2.59,2.589,2.59h31.073v39.058
			c0,0.222,0.021,0.438,0.056,0.649c-6.649,7.234-10.845,17.792-10.845,29.56c0,21.81,14.395,39.489,32.152,39.489
			c17.757,0,32.152-17.68,32.152-39.489c0-10.747-3.502-20.487-9.174-27.607c0.602-0.664,0.974-1.585,0.974-2.602v-39.058h17.806
			c1.13,0,2.047-1.159,2.047-2.59C524.501,600.612,524.34,600.076,524.078,599.641z"/>
	</g>
</g>
<path fill="none" stroke="#754D25" d="M479.183,597.104c-0.006,6.139,0.579,12.15,0.967,18.12c0.257,3.946-0.006,9.042,1.299,12.63"
	/>
<path fill="none" stroke="#754D25" d="M486.396,596.493c0.362,7.42,2.482,14.6,2.806,22.024c0.249,5.74,1.078,10.391,3.899,15.485
	c3.328,6.01,6.435,12.204,5.64,19.349c-0.838,7.547-6.53,8.471-12.799,9.326c-7.706,1.051-9.845,7.22-10.551,14.087"/>
<path fill="none" stroke="#754D25" d="M481.124,626.882c-0.141,2.858,0.445,6.307,0.913,9.008c-5.322,2.53-8.092,7.007-8.565,12.874
	c-0.434,5.357,1.917,12.584-0.482,17.607c-0.608,1.275-1.342,2.016-1.852,3.419c-0.79,2.174-0.661,4.485-1.666,6.614"/>
<ellipse fill="none" stroke="#754D25" stroke-width="0.9445" cx="487.112" cy="631.575" rx="3.398" ry="2.104"/>
<g>
	<rect x="460.893" y="575.466" fill="none" stroke="#010101" stroke-width="0.1991" width="11.71" height="0.975"/>
	<line fill="none" stroke="#010101" stroke-width="0.1991" x1="460.403" y1="575.515" x2="460.403" y2="576.441"/>
	<line fill="none" stroke="#010101" stroke-width="0.1991" x1="459.915" y1="575.466" x2="459.915" y2="576.197"/>
	<line fill="none" stroke="#010101" stroke-width="0.1991" x1="459.573" y1="575.709" x2="459.573" y2="576.148"/>
	<line fill="none" stroke="#010101" stroke-width="0.1991" x1="459.33" y1="575.808" x2="459.33" y2="576.148"/>
	<path fill="none" stroke="#010101" stroke-width="0.1991" d="M460.745,575.271c-0.541-0.432-0.683-1.268-0.373-1.849
		c0.13-0.244,0.413-0.602,0.376-0.908c-0.033-0.253-0.207-0.315-0.346-0.509c-0.078,0.001-0.032,0.038-0.048,0.095"/>
	<path fill="none" stroke="#010101" stroke-width="0.1991" d="M459.672,574.93c0.007-0.163-0.177-0.489-0.245-0.703
		c-0.106-0.331-0.093-0.624-0.097-0.968c-0.006-0.568-0.328-1.117-0.635-1.599"/>
	<path fill="none" stroke="#010101" stroke-width="0.1991" d="M458.743,574.93c0.041-0.814-0.335-1.63-0.392-2.447
		c-0.04-0.576,0.268-0.989,0.247-1.555"/>
</g>
<g id="XMLID_1_">
	<g>
		
			<image overflow="visible" width="72" height="61" xlink:href="642D2029.png"  transform="matrix(0.24 0 0 0.24 505.2402 569.4238)">
		</image>
	</g>
	<g>
		<path fill="none" stroke="#010101" stroke-width="0.5105" d="M513.536,564.988l2.901,4.666l5.831,9.377
			c0.179,0.288,0.073,0.656-0.235,0.822l-7.28,3.921c-0.31,0.168-0.706,0.069-0.884-0.22l-8.627-13.872l-0.105-0.169"/>
		<path fill="none" stroke="#010101" stroke-width="0.5105" d="M505.32,569.556c0.006,0.025,0.017,0.049,0.03,0.069
			c0.116,0.166,0.49,0.188,0.673,0.178c0.294-0.016,0.385-0.145,0.521-0.379c0.29,0.23,0.38,0.356,0.785,0.379
			c0.183,0.011,0.418,0.029,0.587-0.029c0.145-0.05,0.207-0.188,0.369-0.186c0.104,0.002,0.263,0.116,0.371,0.145
			c0.135,0.033,0.378,0.075,0.516,0.07c0.272-0.009,0.469-0.162,0.609-0.349c0.162,0.079,0.399,0.123,0.583,0.162
			c0.276,0.055,0.566,0.165,0.845,0.191c0.287,0.024,0.49-0.068,0.735-0.186c0.303-0.148,0.277-0.117,0.539,0.085
			c0.477,0.37,0.811,0.426,1.362,0.138c0.131-0.067,0.347-0.255,0.488-0.247c0.142,0.011,0.296,0.214,0.445,0.256
			c0.45,0.128,0.696-0.09,1.008-0.32c0.137,0.195,0.345,0.163,0.57,0.163"/>
	</g>
</g>
<g>
	<path fill="none" stroke="#010101" stroke-width="0.4693" d="M480.474,620.948c-0.353,3.229,3.227,4.424,4.373,6.905"/>
	<path fill="none" stroke="#010101" stroke-width="0.4914" d="M484.793,627.961c-0.161-2.063,1.668-2.941,2.761-4.451
		c1.134-1.566,1.315-2.772,1.339-4.72"/>
</g>
<g>
	<path fill="none" stroke="#010101" stroke-width="0.4693" d="M369.415,572.055c-0.725,6.654,6.646,9.114,9.007,14.225"/>
	<path fill="none" stroke="#010101" stroke-width="0.4914" d="M378.312,586.502c-0.33-4.251,3.437-6.06,5.688-9.169
		c2.335-3.229,2.71-5.712,2.757-9.723"/>
</g>
<g>
	<polygon fill="none" stroke="#754D25" points="486.118,639.744 482.419,644.996 482.419,650.35 485.316,652.724 488.461,650.249 
		488.954,644.794 	"/>
	<polyline fill="none" stroke="#754D25" points="480.939,656.006 480.939,652.673 483.282,651.158 	"/>
	<polyline fill="none" stroke="#754D25" points="489.57,656.359 489.57,653.026 487.104,651.511 	"/>
</g>
<g>
	<polygon fill="none" stroke="#754D25" points="365.156,617.045 359.031,625.742 359.031,634.606 363.828,638.536 369.035,634.439 
		369.852,625.408 	"/>
	<polyline fill="none" stroke="#754D25" points="356.581,643.974 356.581,638.453 360.46,635.945 	"/>
	<polyline fill="none" stroke="#754D25" points="370.873,644.558 370.873,639.038 366.79,636.529 	"/>
</g>
<g id="XMLID_2_">
	<g>
		<path fill="#8D633A" d="M428.109,661.96c0.553,1.819,0.458,4.329,0.994,6.172c0.577,1.958,1.382,3.614,2.18,5.523
			c0.781,1.884,1.99,3.41,2.369,5.514c0.395,2.201,0.157,4.653,0.284,7.001c4.855,0.309,9.356,0.926,14.291,0.918
			c3.411,0,9.35-2.721,12.508-0.293l-3.624,13.238c-5.473-2.38-11.236-2.38-16.874-0.447c-4.035,1.389-9.822,5.223-14.055,2.583
			c-4.169-2.591-0.647-8.479,0.023-12.174c0.853-4.711-0.6-9.592-1.438-14.188c-0.924-5.108-0.868-9.412,0.45-14.439h0.017
			c-0.032-0.837,0.26-1.665,0.474-2.429c0.292-1.039,0.292-1.656,1.508-1.461c0.379,0.779,0.703,0.819,0.829,1.843
			c0.103,0.886,0.126,1.763,0.126,2.681C428.148,661.992,428.133,661.977,428.109,661.96z"/>
	</g>
	<g>
		<path fill="none" stroke="#754D25" stroke-width="1.237" d="M425.219,661.367c-1.318,5.027-1.374,9.331-0.45,14.439
			c0.838,4.597,2.29,9.478,1.438,14.188c-0.671,3.695-4.192,9.583-0.023,12.174c4.232,2.64,10.02-1.194,14.055-2.583
			c5.638-1.933,11.401-1.933,16.874,0.447c0.157,0.064,0.308,0.13,0.466,0.203"/>
		<path fill="none" stroke="#754D25" stroke-width="1.237" d="M428.109,661.952v0.008c0.553,1.819,0.458,4.329,0.994,6.172
			c0.577,1.958,1.382,3.614,2.18,5.523c0.781,1.884,1.99,3.41,2.369,5.514c0.395,2.201,0.157,4.653,0.284,7.001
			c4.855,0.309,9.356,0.926,14.291,0.918c3.411,0,9.35-2.721,12.508-0.293"/>
		<path fill="none" stroke="#754D25" stroke-width="1.237" d="M428.172,662.001c0-0.918-0.023-1.795-0.126-2.681
			c-0.126-1.023-0.45-1.063-0.829-1.843c-1.216-0.195-1.216,0.422-1.508,1.461c-0.214,0.764-0.506,1.592-0.474,2.429
			c0,0.081,0,0.162,0.008,0.243"/>
		<path fill="none" stroke="#754D25" stroke-width="1.237" d="M427.288,657.843c0,0.804,0.047,1.502,0.244,2.241
			c0.119,0.455,0.182,1.592,0.577,1.876c0.023,0.017,0.039,0.032,0.063,0.041"/>
		<polyline fill="none" stroke="#FFFFFF" stroke-width="1.237" points="457.063,700.195 457.111,700.033 460.735,686.795 		"/>
	</g>
</g>
<rect y="3.488" fill="none" stroke="#000000" stroke-width="3" width="595.28" height="838.401"/>
<rect x="430.957" y="802.206" fill="none" width="144.773" height="16.731"/>
<text transform="matrix(1 0 0 1 430.957 810.7256)" fill="#00A651" font-family="'MyriadPro-Regular'" font-size="12">Written by Dr Sebastian Zeki</text>
<rect x="87.433" y="7.488" fill="none" width="397.481" height="33.699"/>
<text transform="matrix(1 0 0 1 87.4331 24.5283)" font-family="'MyriadPro-BoldIt'" font-size="24">Oesophageal Cancer Epidemiology</text>
<rect x="420.272" y="551.465" fill="none" width="32.8" height="27.966"/>
<text transform="matrix(1 0 0 1 420.2725 556.9805)"><tspan x="0" y="0" fill="#010101" font-family="'MyriadPro-Regular'" font-size="7.7683">N-nitroso</tspan><tspan x="0" y="9.321" fill="#010101" font-family="'MyriadPro-Regular'" font-size="7.7683">Betel nuts</tspan><tspan x="0" y="18.644" fill="#010101" font-family="'MyriadPro-Regular'" font-size="7.7683">Hot foods</tspan></text>
<rect x="6.182" y="84" fill="none" width="118.153" height="179.164"/>
<text transform="matrix(1 0 0 1 6.1816 93.9399)"><tspan x="0" y="0" fill="#ED1C24" font-family="'MyriadPro-BoldIt'" font-size="14">Endoscopic</tspan><tspan x="0" y="16.8" fill="#ED1C24" font-family="'MyriadPro-BoldIt'" font-size="14">Features</tspan><tspan x="0" y="26.614" fill="#010101" font-family="'MyriadPro-Regular'" font-size="8.1783">The majority of adenocarcinoma </tspan><tspan x="0" y="36.428" fill="#010101" font-family="'MyriadPro-Regular'" font-size="8.1783">cases are located near the GOJ.</tspan><tspan x="0" y="46.242" fill="#010101" font-family="'MyriadPro-Regular'" font-size="8.1783">Most adenocarcinoma cases are </tspan><tspan x="0" y="56.056" fill="#010101" font-family="'MyriadPro-Regular'" font-size="8.1783">associated with </tspan><tspan x="0" y="65.87" fill="#010101" font-family="'MyriadPro-Regular'" font-size="8.1783">Barrett&apos;soesophagus.</tspan><tspan x="0" y="85.498" fill="#010101" font-family="'MyriadPro-Regular'" font-size="8.1783">Adenocarcinoma arising in </tspan><tspan x="0" y="95.312" fill="#010101" font-family="'MyriadPro-Regular'" font-size="8.1783">Barrett&apos;s oesophagus may present </tspan><tspan x="0" y="105.126" fill="#010101" font-family="'MyriadPro-Regular'" font-size="8.1783">as an ulcer, a nodule, or  no </tspan><tspan x="0" y="114.94" fill="#010101" font-family="'MyriadPro-Regular'" font-size="8.1783">endoscopic abnormality.</tspan><tspan x="0" y="134.568" fill="#010101" font-family="'MyriadPro-Regular'" font-size="8.1783">Early AC not associated with </tspan><tspan x="0" y="144.382" fill="#010101" font-family="'MyriadPro-Regular'" font-size="8.1783">Barrett&apos;s oesophagus arises from </tspan><tspan x="0" y="154.196" fill="#010101" font-family="'MyriadPro-Regular'" font-size="8.1783">an ulcer, plaque, or nodule near </tspan><tspan x="0" y="164.01" fill="#010101" font-family="'MyriadPro-Regular'" font-size="8.1783">the GOJ.</tspan></text>
<rect x="5.5" y="507.708" fill="none" width="123" height="244.548"/>
<text transform="matrix(1 0 0 1 5.5 517.6475)"><tspan x="0" y="0" fill="#ED1C24" font-family="'MyriadPro-BoldIt'" font-size="14">Endoscopic </tspan><tspan x="0" y="16.801" fill="#ED1C24" font-family="'MyriadPro-BoldIt'" font-size="14">Features of SCC</tspan><tspan x="0" y="36.003" fill="#010101" font-family="'MyriadPro-Regular'" font-size="8.001">SCC’s are usually in the midportion </tspan><tspan x="0" y="45.604" fill="#010101" font-family="'MyriadPro-Regular'" font-size="8.001">of the oesophagus.</tspan><tspan x="0" y="55.205" fill="#010101" font-family="'MyriadPro-Regular'" font-size="8.001">SCC arises from small polypoid </tspan><tspan x="0" y="64.807" fill="#010101" font-family="'MyriadPro-Regular'" font-size="8.001">lesions, denuded epithelium, or </tspan><tspan x="0" y="74.408" fill="#010101" font-family="'MyriadPro-Regular'" font-size="8.001">subtle plaques.</tspan><tspan x="0" y="84.009" fill="#010101" font-family="'MyriadPro-Regular'" font-size="8.001">Chromoendoscopy may be useful.</tspan><tspan x="0" y="93.61" fill="#010101" font-family="'MyriadPro-Regular'" font-size="8.001">SCC invades the submucosa at an </tspan><tspan x="0" y="103.212" fill="#010101" font-family="'MyriadPro-Regular'" font-size="8.001">early stage, and extends along the </tspan><tspan x="0" y="112.813" fill="#010101" font-family="'MyriadPro-Regular'" font-size="8.001">wall of the oesophagus usually </tspan><tspan x="0" y="122.414" fill="#010101" font-family="'MyriadPro-Regular'" font-size="8.001">cephalad.</tspan><tspan x="0" y="132.016" fill="#010101" font-family="'MyriadPro-Regular'" font-size="8.001">Local lymph node invasion occurs </tspan><tspan x="0" y="141.616" fill="#010101" font-family="'MyriadPro-Regular'" font-size="8.001">early and quickly because the </tspan><tspan x="0" y="151.218" fill="#010101" font-family="'MyriadPro-Regular'" font-size="8.001">lymphatics in the oesophagus are </tspan><tspan x="0" y="160.819" fill="#010101" font-family="'MyriadPro-Regular'" font-size="8.001">located in the lamina propria.</tspan><tspan x="0" y="180.021" fill="#010101" font-family="'MyriadPro-Regular'" font-size="8.001">SCCs can fistulate eg in to the </tspan><tspan x="0" y="189.623" fill="#010101" font-family="'MyriadPro-Regular'" font-size="8.001">trachea.</tspan><tspan x="0" y="208.825" fill="#010101" font-family="'MyriadPro-Regular'" font-size="8.001">Distant metastases to the liver, bone, </tspan><tspan x="0" y="218.427" fill="#010101" font-family="'MyriadPro-Regular'" font-size="8.001">and lung are seen in nearly 30 % of </tspan><tspan x="0" y="228.028" fill="#010101" font-family="'MyriadPro-Regular'" font-size="8.001">patients.</tspan></text>
<rect x="147.378" y="37.684" fill="none" width="240.75" height="321.316"/>
<text transform="matrix(1 0 0 1 147.3784 47.6235)"><tspan x="0" y="0" fill="#ED1C24" font-family="'MyriadPro-BoldIt'" font-size="14">Adenocarcinoma Epidemiology</tspan><tspan x="0" y="9.814" fill="#010101" font-family="'MyriadPro-Regular'" font-size="8.1783">Rates are rising.</tspan><tspan x="0" y="19.628" fill="#010101" font-family="'MyriadPro-Regular'" font-size="8.1783">Whites are affected 5x&gt;blacks.</tspan><tspan x="0" y="29.442" fill="#010101" font-family="'MyriadPro-Regular'" font-size="8.1783">M 8x&gt;F.</tspan><tspan x="0" y="39.256" fill="#010101" font-family="'MyriadPro-Regular'" font-size="8.1783">Most patients are &gt; 60 yrs old with no increase among younger </tspan><tspan x="0" y="49.07" fill="#010101" font-family="'MyriadPro-Regular'" font-size="8.1783">cohorts.</tspan><tspan x="0" y="58.884" fill="#010101" font-family="'MyriadPro-BoldIt'" font-size="8.1783">Gastroesophageal reflux disease</tspan><tspan x="114.715" y="58.884" fill="#010101" font-family="'MyriadPro-Regular'" font-size="8.1783"> is a risk if long-standing (&gt;20 years) </tspan><tspan x="0" y="68.698" fill="#010101" font-family="'MyriadPro-Regular'" font-size="8.1783">and severe symptoms.</tspan><tspan x="0" y="78.512" fill="#010101" font-family="'MyriadPro-BoldIt'" font-size="8.1783">Smoking </tspan><tspan x="32.713" y="78.512" fill="#010101" font-family="'MyriadPro-Regular'" font-size="8.1783">increases risk by 2.4x.</tspan><tspan x="0" y="88.326" fill="#010101" font-family="'MyriadPro-Regular'" font-size="8.1783">There is an increased risk with increasing intensity and duration of </tspan><tspan x="0" y="98.14" fill="#010101" font-family="'MyriadPro-Regular'" font-size="8.1783">smoking.</tspan><tspan x="0" y="107.954" fill="#010101" font-family="'MyriadPro-Regular'" font-size="8.1783">Risk in smokers is higher than in nonsmoking controls for 30 years </tspan><tspan x="0" y="117.768" fill="#010101" font-family="'MyriadPro-Regular'" font-size="8.1783">after smoking cessation.</tspan><tspan x="0" y="127.582" fill="#010101" font-family="'MyriadPro-BoldIt'" font-size="8.1783">Central adiposity</tspan><tspan x="60.47" y="127.582" fill="#010101" font-family="'MyriadPro-Regular'" font-size="8.1783"> (not BMI) is the strongest predictor.</tspan><tspan x="0" y="137.396" fill="#010101" font-family="'MyriadPro-BoldIt'" font-size="8.1783">Helicobacter pylori infection </tspan><tspan x="101.059" y="137.396" fill="#010101" font-family="'MyriadPro-Regular'" font-size="8.1783">is</tspan><tspan x="106.211" y="137.396" fill="#010101" font-family="'MyriadPro-BoldIt'" font-size="8.1783"> </tspan><tspan x="107.716" y="137.396" fill="#010101" font-family="'MyriadPro-Regular'" font-size="8.1783">inversely related with cancer risk.</tspan><tspan x="0" y="147.209" fill="#010101" font-family="'MyriadPro-BoldIt'" font-size="8.1783">Bisphosphonates are </tspan><tspan x="75.42" y="147.209" fill="#010101" font-family="'MyriadPro-Regular'" font-size="8.1783">linked to both adenocarcinoma and squamous </tspan><tspan x="0" y="157.023" fill="#010101" font-family="'MyriadPro-Regular'" font-size="8.1783">cell carcinomas.</tspan><tspan x="0" y="166.837" fill="#010101" font-family="'MyriadPro-BoldIt'" font-size="8.1783">Cholecystectomy is a risk factor possibly</tspan><tspan x="140.739" y="166.837" fill="#010101" font-family="'MyriadPro-Regular'" font-size="8.1783"> due to bile reflux.</tspan><tspan x="0" y="176.652" fill="#010101" font-family="'MyriadPro-Regular'" font-size="8.1783">Exposure to dietary </tspan><tspan x="67.667" y="176.652" fill="#010101" font-family="'MyriadPro-BoldIt'" font-size="8.1783">nitroso compounds </tspan><tspan x="137.125" y="176.652" fill="#010101" font-family="'MyriadPro-Regular'" font-size="8.1783">is associated with cancer.</tspan><tspan x="0" y="186.466" fill="#010101" font-family="'MyriadPro-Regular'" font-size="8.1783">High luminal concentrations of nitric oxide are generated at the GOJ </tspan><tspan x="0" y="196.28" fill="#010101" font-family="'MyriadPro-Regular'" font-size="8.1783">and within Barrett&apos;s oesophagus by the reduction of salivary nitrate to </tspan><tspan x="0" y="206.094" fill="#010101" font-family="'MyriadPro-Regular'" font-size="8.1783">nitrous oxide by acidic gastric juice.</tspan><tspan x="0" y="215.908" fill="#010101" font-family="'MyriadPro-Regular'" font-size="8.1783">An inverse relationship exists between total dietary cereal fiber intake </tspan><tspan x="0" y="225.722" fill="#010101" font-family="'MyriadPro-Regular'" font-size="8.1783">and the risk of AC.</tspan><tspan x="0" y="235.536" fill="#010101" font-family="'MyriadPro-Regular'" font-size="8.1783">The protection from cereal fibre may be due to wheat fiber neutrali</tspan><tspan x="230.782" y="235.536" fill="#010101" font-family="'MyriadPro-Regular'" font-size="8.1783">-</tspan><tspan x="0" y="245.35" fill="#010101" font-family="'MyriadPro-Regular'" font-size="8.1783">ing mutagen formation from the conversion of salivary nitrites to </tspan><tspan x="0" y="255.164" fill="#010101" font-family="'MyriadPro-Regular'" font-size="8.1783">nitrosamines.</tspan><tspan x="0" y="264.978" fill="#010101" font-family="'MyriadPro-Regular'" font-size="8.1783">Diets high in fibre, beta-carotene, folate, and vitamins C and B6 are </tspan><tspan x="0" y="274.792" fill="#010101" font-family="'MyriadPro-Regular'" font-size="8.1783">protective.</tspan><tspan x="0" y="284.605" fill="#010101" font-family="'MyriadPro-Regular'" font-size="8.1783">Diets high in dietary cholesterol, animal protein and vitamin B12 are </tspan><tspan x="0" y="294.419" fill="#010101" font-family="'MyriadPro-Regular'" font-size="8.1783">associated with an increased risk.</tspan><tspan x="0" y="304.233" fill="#010101" font-family="'MyriadPro-BoldIt'" font-size="8.1783">NSAIDs</tspan><tspan x="25.884" y="304.233" fill="#010101" font-family="'MyriadPro-Regular'" font-size="8.1783"> may be protective esp in context of Barrett’s.</tspan></text>
<rect x="136.448" y="418.518" fill="none" width="224.734" height="285.286"/>
<text transform="matrix(1 0 0 1 136.4478 428.457)"><tspan x="0" y="0" fill="#ED1C24" font-family="'MyriadPro-BoldIt'" font-size="14">Squamous cell carcinoma</tspan><tspan x="0" y="9.602" fill="#010101" font-family="'MyriadPro-Regular'" font-size="8.001">In high incidence regions, the disease has no gender specificity.</tspan><tspan x="0" y="19.203" fill="#010101" font-family="'MyriadPro-Regular'" font-size="8.001">The highest rates are in Asia (particularly in China and Singapore), </tspan><tspan x="0" y="28.804" fill="#010101" font-family="'MyriadPro-Regular'" font-size="8.001">Africa, and Iran.</tspan><tspan x="0" y="38.405" fill="#010101" font-family="'MyriadPro-Regular'" font-size="8.001">SCC is more common in men in low incidence regions.</tspan><tspan x="0" y="48.007" fill="#010101" font-family="'MyriadPro-Regular'" font-size="8.001">The incidence is higher in urban areas (compared to rural areas) of </tspan><tspan x="0" y="57.608" fill="#010101" font-family="'MyriadPro-Regular'" font-size="8.001">the United States, particularly among African-American men.</tspan><tspan x="0" y="67.209" fill="#010101" font-family="'MyriadPro-Regular'" font-size="8.001">Being in social class V is a risk factor.</tspan><tspan x="0" y="76.811" fill="#010101" font-family="'MyriadPro-BoldIt'" font-size="8.001">Smoking and alcohol are both </tspan><tspan x="104.556" y="76.811" fill="#010101" font-family="'MyriadPro-Regular'" font-size="8.001">major risk factors.</tspan><tspan x="0" y="86.412" fill="#010101" font-family="'MyriadPro-Regular'" font-size="8.001">Amount of alcohol is the most important risk factor.</tspan><tspan x="0" y="96.013" fill="#010101" font-family="'MyriadPro-BoldIt'" font-size="8.001">N-nitroso</tspan><tspan x="32.547" y="96.013" fill="#010101" font-family="'MyriadPro-Regular'" font-size="8.001"> compounds exert their mutagenic potential by inducing </tspan><tspan x="0" y="105.614" fill="#010101" font-family="'MyriadPro-Regular'" font-size="8.001">alkyl adducts in DNA.</tspan><tspan x="0" y="115.216" fill="#010101" font-family="'MyriadPro-BoldIt'" font-size="8.001">Betel nut chewing</tspan><tspan x="61.237" y="115.216" fill="#010101" font-family="'MyriadPro-Regular'" font-size="8.001"> is implicated-it may cause copper release with </tspan><tspan x="0" y="124.816" fill="#010101" font-family="'MyriadPro-Regular'" font-size="8.001">resulting induction of collagen synthesis by fibroblasts.</tspan><tspan x="0" y="134.418" fill="#010101" font-family="'MyriadPro-BoldIt'" font-size="8.001">Hot foods </tspan><tspan x="34.916" y="134.418" fill="#010101" font-family="'MyriadPro-Regular'" font-size="8.001">are associated with oesophageal SCC.</tspan><tspan x="0" y="144.02" fill="#010101" font-family="'MyriadPro-Bold'" font-size="8.001">Achalasia </tspan><tspan x="35.7" y="144.02" fill="#010101" font-family="'MyriadPro-Regular'" font-size="8.001">increases the risk 16 fold in first 25 years post diagnosis.</tspan><tspan x="0" y="153.62" fill="#010101" font-family="'MyriadPro-BoldIt'" font-size="8.001">Ingestion of lye</tspan><tspan x="52.533" y="153.62" fill="#010101" font-family="'MyriadPro-Regular'" font-size="8.001"> is a risk factor.</tspan><tspan x="0" y="163.222" fill="#010101" font-family="'MyriadPro-BoldIt'" font-size="8.001">Partial gastrectomy</tspan><tspan x="68.136" y="163.222" fill="#010101" font-family="'MyriadPro-Regular'" font-size="8.001"> patients may also be at increased risk.</tspan><tspan x="0" y="172.823" fill="#010101" font-family="'MyriadPro-BoldIt'" font-size="8.001">Human papilloma virus </tspan><tspan x="82.138" y="172.823" fill="#010101" font-family="'MyriadPro-Regular'" font-size="8.001">may be implicated but needs further </tspan><tspan x="0" y="182.424" fill="#010101" font-family="'MyriadPro-Regular'" font-size="8.001">studies.</tspan><tspan x="0" y="192.025" fill="#010101" font-family="'MyriadPro-BoldIt'" font-size="8.001">Tylosis </tspan><tspan x="25.034" y="192.025" fill="#010101" font-family="'MyriadPro-Regular'" font-size="8.001">(hyperkeratosis of the palms of the hands and soles of the </tspan><tspan x="0" y="201.627" fill="#010101" font-family="'MyriadPro-Regular'" font-size="8.001">feet) is a risk factor with a high rate of oesophageal SCC.</tspan><tspan x="0" y="211.228" fill="#010101" font-family="'MyriadPro-Regular'" font-size="8.001">The inherited type of tylosis (Howell-Evans syndrome) has been </tspan><tspan x="0" y="220.829" fill="#010101" font-family="'MyriadPro-Regular'" font-size="8.001">most strongly linked to oesophageal SCC-mapped to chromosome </tspan><tspan x="0" y="230.431" fill="#010101" font-family="'MyriadPro-Regular'" font-size="8.001">17q25.1, which probably contains a tumor suppressor gene.</tspan><tspan x="0" y="240.031" fill="#010101" font-family="'MyriadPro-Regular'" font-size="8.001">Patients with tylosis need a surveillance OGD from age 30 every 1-3 </tspan><tspan x="0" y="249.633" fill="#010101" font-family="'MyriadPro-Regular'" font-size="8.001">years</tspan><tspan x="0" y="259.234" fill="#010101" font-family="'MyriadPro-BoldIt'" font-size="8.001">Bisphosphonates </tspan><tspan x="60.91" y="259.234" fill="#010101" font-family="'MyriadPro-Regular'" font-size="8.001">may be linked to adenoCa and SCC.</tspan><tspan x="0" y="268.835" fill="#010101" font-family="'MyriadPro-BoldIt'" font-size="8.001">Upper aerodigestive tract SCC </tspan><tspan x="104.228" y="268.835" fill="#010101" font-family="'MyriadPro-Regular'" font-size="8.001">either past or current is a risk factor.</tspan></text>
</svg>
