<?xml version="1.0" encoding="utf-8"?>
<!-- Generator: Adobe Illustrator 15.0.2, SVG Export Plug-In . SVG Version: 6.00 Build 0)  -->
<!DOCTYPE svg PUBLIC "-//W3C//DTD SVG 1.1//EN" "http://www.w3.org/Graphics/SVG/1.1/DTD/svg11.dtd">
<svg version="1.1" id="Layer_1" xmlns="http://www.w3.org/2000/svg" xmlns:xlink="http://www.w3.org/1999/xlink" x="0px" y="0px"
	 width="595.28px" height="841.89px" viewBox="0 0 595.28 841.89" enable-background="new 0 0 595.28 841.89" xml:space="preserve">
<rect x="17" y="138.04" fill="none" width="235.825" height="57.21"/>
<text transform="matrix(1 0 0 1 17 147.9795)"><tspan x="0" y="0" fill="#ED1C24" font-family="'MyriadPro-BoldIt'" font-size="14">Pathogenesis of acute oesophageal </tspan><tspan x="0" y="16.8" fill="#ED1C24" font-family="'MyriadPro-BoldIt'" font-size="14">necrosis</tspan><tspan x="0" y="26.4" fill="#010101" font-family="'MyriadPro-Regular'" font-size="8">Probably two ‘hits’ are needed.</tspan><tspan x="0" y="36" fill="#010101" font-family="'MyriadPro-Regular'" font-size="8">Ischaemia often happens in the lower third which has a worse blood </tspan><tspan x="0" y="45.6" fill="#010101" font-family="'MyriadPro-Regular'" font-size="8">supply which then allows damage as the underlying cause.</tspan></text>
<line fill="none" stroke="#010101" x1="102.208" y1="512.236" x2="215.208" y2="516.736"/>
<g>
	<g>
		<line fill="none" stroke="#010101" x1="214.708" y1="516.736" x2="246.708" y2="491.736"/>
		<path fill="#010101" d="M251.464,488.02c-1.59,2.58-3.259,6.166-3.808,9.01l-1.572-4.807l-4.282-2.688
			C244.694,489.691,248.577,488.939,251.464,488.02z"/>
	</g>
</g>
<g>
	<g>
		<line fill="none" stroke="#010101" x1="214.708" y1="515.736" x2="198.208" y2="527.736"/>
		<path fill="#010101" d="M193.327,531.285c1.677-2.521,3.469-6.049,4.115-8.873l1.406,4.857l4.188,2.834
			C200.15,529.85,196.243,530.467,193.327,531.285z"/>
	</g>
</g>
<rect x="256.871" y="324.5" fill="none" width="308.314" height="38"/>
<text transform="matrix(1 0 0 1 256.8711 330.1797)"><tspan x="0" y="0" fill="#010101" font-family="'MyriadPro-BoldIt'" font-size="8">Endoscopy:</tspan><tspan x="39.424" y="0" fill="#010101" font-family="'MyriadPro-Regular'" font-size="8"> Distal esophageal involvement -can extend proximally; ends sharply at the GOJ </tspan><tspan x="0" y="9.6" fill="#010101" font-family="'MyriadPro-BoldIt'" font-size="8">Histology:</tspan><tspan x="35.144" y="9.6" fill="#010101" font-family="'MyriadPro-Regular'" font-size="8"> Diffues and severe necrosis of mucosa and submucosa with no stratified </tspan><tspan x="0" y="19.2" fill="#010101" font-family="'MyriadPro-Regular'" font-size="8">squamous cells, occasional deranged muscle fibers, hyperemia and scattered thrombosed </tspan><tspan x="0" y="28.8" fill="#010101" font-family="'MyriadPro-Regular'" font-size="8">vessels without specific causative agents.</tspan></text>
<rect x="254.871" y="321.5" fill="none" stroke="#000000" stroke-miterlimit="10" width="307.314" height="41"/>
<g>
	<g>
		<g>
			<path fill="#010101" d="M299.149,142.935c31.775-2.881,20.519,45.43,19.325,63.656c-0.763,11.653-3.882,23.419-2.029,35.113
				c1.976,12.467,7.881,23.903,7.112,36.795c-1.355,22.709-24.656,24.429-42.411,23.539c-0.234-0.012-0.602,0.092-0.665,0.356
				c-0.433,1.813-0.483,3.564-0.493,5.422c-0.002,0.449,0.969,0.262,0.971-0.102c0.018-3.415-0.333-5.05,3.44-4.907
				c2.424,0.092,4.85,0.101,7.275,0.055c4.011-0.076,7.995-0.485,11.925-1.283c7.342-1.491,13.873-5.258,17.714-11.811
				c5.928-10.114,2.879-22.893-0.084-33.376c-2.06-7.291-4.315-14.422-4.361-22.064c-0.047-7.79,1.23-15.574,2.131-23.291
				c1.748-14.977,4.077-30.637,2.855-45.712c-0.52-6.415-2.045-13.196-6.447-18.108c-4.085-4.558-10.368-5.411-16.145-4.887
				C298.761,142.376,298.484,142.995,299.149,142.935L299.149,142.935z"/>
		</g>
	</g>
	<g>
		<g>
			<path fill="#010101" d="M311.834,113.607c12.53,18.911,17.344,41.133,18.064,63.552c0.363,11.289-0.442,22.602-1.772,33.807
				c-0.707,5.961-1.668,11.795-3.145,17.615c-1.434,5.649-2.391,11.084-1.794,16.924c0.025,0.248,0.871-0.095,0.96-0.215
				c4.402-5.938,13.003-17.231,21.413-11.592c4.511,3.024,6.373,9.512,7.602,14.462c3.064,12.346,2.654,26.719-1.034,38.871
				c-3.569,11.76-12.272,19.722-23.762,23.637c-15.687,5.344-32.736,2.62-48.569,7.821c-0.656,0.215-0.033,0.337,0.333,0.217
				c20.399-6.701,44.915-0.69,62.507-15.396c13.959-11.669,14.836-34.064,12.42-50.621c-1.028-7.051-3.312-17.16-10.56-20.418
				c-5.283-2.375-11.072,1.992-14.667,5.344c-2.036,1.898-3.773,4.101-5.481,6.29c-0.243,0.312-0.431-3.793-0.428-3.957
				c0.032-2.23,0.451-4.446,0.864-6.631c1.237-6.542,3.013-12.83,3.906-19.45c1.796-13.314,2.608-26.767,2.055-40.196
				c-0.877-21.263-6.101-42.444-17.945-60.322C312.643,113.11,311.758,113.492,311.834,113.607L311.834,113.607z"/>
		</g>
	</g>
	<g>
		<g>
			<g>
				<g>
					<g>
						<g>
							<path fill="#010101" d="M322.87,244.696c0.076,0.042-0.192,0.209-0.332,0.235c0.401-0.004,0.003,0.155,0.688-0.097
								c0.361-0.053-0.06,0.212-0.372,0.237l0.508,0.053l0.049-0.176c0.572-0.203-0.077,0.281,0.584,0.033l-0.148-0.2l0.19-0.067
								c-0.222,0.035-0.182-0.1-0.115-0.168c0.096-0.031,0.244-0.094,0.276-0.061c-0.062-0.295-1.016,0.313-1.301,0.13
								C322.916,244.625,322.916,244.647,322.87,244.696z"/>
							<path fill="#010101" d="M324.177,243.94l-0.755,0.142l0.126-0.24c-0.25,0.079-0.495,0.004-0.688,0.168
								c0.045,0.006,0.131,0.019,0.117,0.055c-0.547,0.154-0.349-0.173-0.88,0.055c0.192,0.114,0.08,0.179,0.551,0.128
								c-0.003,0.154-0.093,0.297-0.266,0.433c0.097,0.013,0.425-0.098,0.51-0.073c-0.013-0.008-0.024-0.015-0.034-0.026
								l0.802-0.295c-0.184,0.021-0.117-0.047-0.148-0.086c0.337-0.04,0.672-0.084,1.008-0.141c0.726-0.328,0.227-0.353,0.515-0.532
								C324.386,243.85,324.67,243.566,324.177,243.94z"/>
							<path fill="#010101" d="M322.893,244.609l0.004,0.004L322.893,244.609z"/>
							<path fill="#010101" d="M316.79,224.773c-0.011-0.061-0.211-0.093-0.312-0.108l-0.029,0.676
								c0.225-0.007,0.515-0.182,0.639-0.043c0.252-0.042,0.053-0.231-0.248-0.277l0.338,0.072
								c-0.426-0.185,0.439-0.231,0.689-0.113l-0.004-0.013l-1.65-0.547C316.104,224.57,316.782,224.582,316.79,224.773z"/>
							<path fill="#010101" d="M319.174,211.167c0.064,0.098,0.143,0.121,0.227,0.124
								C319.344,211.25,319.276,211.21,319.174,211.167z"/>
							<path fill="#010101" d="M315.826,224.29l-0.516-0.174C315.448,224.181,315.634,224.242,315.826,224.29z"/>
							<polygon fill="#010101" points="323.763,225.757 323.854,225.761 323.588,225.686 323.588,225.687 							"/>
							<path fill="#010101" d="M314.107,221.041l-0.032-0.048C314.078,221.01,314.09,221.026,314.107,221.041z"/>
							<path fill="#010101" d="M326.67,227.646l-0.492-0.305c0.238,0.05,0.174-0.087,0.449-0.014
								c-0.037-0.023-0.126-0.128-0.25-0.107l0.013,0.058c-0.69-0.186-0.965-0.111-1.482-0.388
								c-0.423,0.129-0.048,0.218,0.266,0.316c0.047,0.03,0.067,0.054,0.093,0.079l0.964,0.285L326.67,227.646z"/>
							<path fill="#010101" d="M322.539,215.78l0.053,0.01L322.539,215.78z"/>
							<path fill="#010101" d="M322.813,215.831l-0.221-0.041C322.701,215.82,322.8,215.893,322.813,215.831z"/>
							<path fill="#010101" d="M316.274,224.372c-0.129-0.014-0.287-0.042-0.448-0.083l0.387,0.129
								C316.222,224.405,316.251,224.388,316.274,224.372z"/>
							<path fill="#010101" d="M317.782,224.709l0.081,0.257l0.356,0.117C318.09,224.978,318.004,224.86,317.782,224.709z"/>
							<path fill="#010101" d="M313.661,221.408c-0.059-0.54,0.808,0.204,1.027-0.021c-0.083-0.155-0.468-0.243-0.581-0.346
								c0.294,0.451-1.275-0.175-1.109,0.27c-0.698-0.124-0.739-0.378-0.535-0.506c0.693-0.101,0.483,0.19,1.146,0.288
								c-0.095-0.181-0.221-0.162-0.593-0.27c0.182-0.253-0.78-0.635,0.175-0.705c-0.131-0.208-0.456-0.228-0.803-0.375
								c-0.724-0.094-0.409,0.253-0.988,0.27c0.063-0.009,0.188-0.026,0.29-0.008l-0.169,0.155c0.269-0.136,0.723,0.092,0.771,0.183
								c0.01,0.063,0.03,0.19-0.169,0.154l-0.146-0.109c-0.242,0.1,0.504,0.317,0.099,0.409c-0.164-0.008-0.235-0.064-0.337-0.081
								c0.483,0.19,0.441,0.326,0.772,0.57l-0.709-0.188c0.781,0.243,0.521,0.606,0.077,0.838c0.125-0.019,0.215-0.065,0.351-0.021
								c0.159,0.171-0.345,0.249-0.718,0.144c0.585,0.204-0.554,0.546,0.208,0.82l3.591,1.237c-0.089-0.042-0.161-0.085-0.189-0.127
								c0.639-0.039,0.565-0.09,1.151,0.104c-0.324-0.171-0.837-0.154-0.847-0.377c0.313,0.111,1.036,0.188,1.128-0.018
								c-0.592-0.575-2.361-1.074-3.237-1.655c0.488,0.023,0.387-0.381,0.518-0.563c0.517,0.12,0.653,0.274,0.746,0.43
								c0.042-0.089,0.069-0.246,0.103-0.361L313.661,221.408z"/>
							<path fill="#010101" d="M315.192,222.789c0.045-0.01,0.07-0.021,0.094-0.034
								C315.245,222.759,315.213,222.769,315.192,222.789z"/>
							<polygon fill="#010101" points="314.563,221.953 314.614,221.959 314.58,221.909 							"/>
							<path fill="#010101" d="M317.386,224.329l0.312,0.108c-0.046-0.022-0.082-0.049-0.122-0.076
								C317.511,224.335,317.445,224.319,317.386,224.329z"/>
							<path fill="#010101" d="M316.52,224.372l-0.199-0.031c-0.023,0.012-0.029,0.021-0.046,0.032
								C316.382,224.383,316.474,224.386,316.52,224.372z"/>
							<path fill="#010101" d="M318.255,219.83l-0.1-0.06C318.16,219.8,318.201,219.817,318.255,219.83z"/>
							<path fill="#010101" d="M314.542,220.894c0.031,0.188,0.725,0.09,0.704,0.349l0.052-0.072
								c0.294,0.214,0.121,0.527,0.129,0.75c-0.289-0.051-0.364,0.103-0.813,0.038c0.092,0.16,0.179,0.319,0.638,0.436
								c-0.16,0.081,0.236,0.257,0.034,0.36c0.277-0.027,0.907,0.245,0.599-0.071c0.035,0.026,0.099,0.017,0.135,0.043
								c0.395-0.154-0.243-0.282-0.238-0.443c0.276-0.072,0.421,0.193,0.535,0.112c-0.232-0.221,0.379-0.596-0.633-0.672
								c-0.059-0.152,0.166-0.152,0.354-0.179c-1.055-0.329,0.54-0.809-0.834-0.937c0.046,0.089,0.003,0.224,0.286,0.375
								L314.542,220.894z"/>
							<path fill="#010101" d="M317.337,224.02c0.007-0.011,0.003-0.026,0.017-0.034
								C317.345,223.996,317.339,224.008,317.337,224.02z"/>
							<path fill="#010101" d="M313.187,226.07l-0.897-0.132c-0.188-0.46,0.075-0.606,0.064-0.999
								c0.126-0.021,0.201,0.031,0.239,0.058c-0.085-0.281,0.13-0.677-0.269-0.906c0.014-0.087,0.316-0.294,0.576-0.188
								c-0.077-0.048-0.151-0.103-0.119-0.149c0.325,0.011,0.085,0.116,0.351,0.138c0.024-0.037,0.088-0.047-0.013-0.063
								c0.273,0.085,1.104,0.015,1.061,0.313c-0.766,0.061-0.072-0.215-0.912-0.208c-0.013,0.1,0.311,0.112,0.412,0.127
								c-0.028,0.126-0.238,0.107-0.428,0.087c0.255,0.067-0.117,0.202,0.271,0.297c0.048,0.252-0.626-0.057-0.627,0.105
								l0.839,0.152l-0.178,0.258c0.271,0.408,1.464,0.042,1.914,0.514c-0.438-0.086-1.19,0.043-1.38,0.239
								c-0.023-0.125-0.561-0.389-0.299-0.533c-0.678,0.182-0.06-0.315-0.825-0.249c0.352,0.136,0.388,0.325,0.186,0.458
								l-0.076-0.053c-0.099,0.15,0.778,0.322,0.427,0.514c0.021,0.107-0.216,0.073-0.413,0.042
								C313.213,225.99,313.373,226.081,313.187,226.07z M313.022,225.828l0.093-0.137
								C312.974,225.716,312.976,225.769,313.022,225.828z"/>
							<path fill="#010101" d="M323.654,242.516l-0.06,0.049C323.632,242.549,323.646,242.532,323.654,242.516z"/>
							<path fill="#010101" d="M323.112,231.455l-0.029,0.075C323.113,231.501,323.117,231.477,323.112,231.455z"/>
							<path fill="#010101" d="M325.904,233.128l0.198,0.104C326.09,233.191,326.011,233.159,325.904,233.128z"/>
							<polygon fill="#010101" points="323.541,241.726 323.546,241.722 323.499,241.715 							"/>
							<path fill="#010101" d="M324.015,236.438c-0.07,0.02-0.134,0.042-0.183,0.069C323.915,236.5,323.975,236.474,324.015,236.438
								z"/>
							<polygon fill="#010101" points="325.867,233.109 325.852,233.116 325.904,233.128 							"/>
							<path fill="#010101" d="M325.598,230.764c-0.025-0.016-0.046-0.031-0.083-0.049
								C325.531,230.737,325.563,230.752,325.598,230.764z"/>
							<path fill="#010101" d="M323.193,230.816c-0.021-0.018-0.047-0.035-0.083-0.049L323.193,230.816z"/>
							<path fill="#010101" d="M324.93,228.271l-0.117-0.106C324.824,228.215,324.869,228.247,324.93,228.271z"/>
							<path fill="#010101" d="M323.756,230.561l-0.116-0.019C323.666,230.557,323.716,230.564,323.756,230.561z"/>
							<polygon fill="#010101" points="321.352,243.715 321.348,243.71 321.252,243.733 							"/>
							<path fill="#010101" d="M322.603,243.609l0.089,0.059C322.688,243.639,322.655,243.617,322.603,243.609z"/>
							<path fill="#010101" d="M322.752,237.95c-0.119,0.036-0.261,0.109-0.402,0.093
								C322.53,238.078,322.957,238.038,322.752,237.95z"/>
							<path fill="#010101" d="M316.079,244.51c0.116-0.008,0.207-0.005,0.296-0.002
								C316.244,244.494,316.136,244.479,316.079,244.51z"/>
							<path fill="#010101" d="M316.375,244.508l0.202,0.019C316.519,244.517,316.45,244.511,316.375,244.508z"/>
							<path fill="#010101" d="M315.685,237.773c0.057-0.011,0.104-0.026,0.118-0.042
								C315.688,237.743,315.664,237.757,315.685,237.773z"/>
							<path fill="#010101" d="M322.581,243.768c0.198-0.04,0.717,0.152,0.733-0.147c0.605-0.17,0.329,0.084,0.499,0.108
								c0.126-0.095,0.393-0.098,0.602-0.182c-0.082-0.009-0.267,0.005-0.24-0.063c0.267-0.109,0.479-0.086,0.395,0.01
								c0.294-0.177,0.504-0.056,0.714-0.239c-0.279-0.157-0.548-0.25-1.48-0.191c0.185,0.109,0.408,0.213,0.203,0.398l-0.536,0.108
								c0.417-0.268,0.053-0.253,0.063-0.404l-0.191,0.384c-0.391,0.271-0.52,0.208-0.65,0.118
								C322.694,243.699,322.671,243.733,322.581,243.768z"/>
							<path fill="#010101" d="M317.922,244.838l-0.012,0.011c0.02,0.001,0.033,0.005,0.057,0.003L317.922,244.838z"/>
							<path fill="#010101" d="M313.932,227.784l-0.204-0.044C313.819,227.773,313.882,227.785,313.932,227.784z"/>
							<path fill="#010101" d="M320.4,243.911L320.4,243.911C320.394,243.91,320.394,243.909,320.4,243.911z"/>
							<path fill="#010101" d="M313.854,228.639l-0.048-0.006L313.854,228.639z"/>
							<path fill="#010101" d="M325.566,229.303l0.073-0.002C325.609,229.283,325.584,229.29,325.566,229.303z"/>
							<path fill="#010101" d="M313.903,228.642l-0.05-0.002L313.903,228.642z"/>
							<path fill="#010101" d="M315.817,232.839l0.184-0.034C315.95,232.797,315.892,232.806,315.817,232.839z"/>
							<path fill="#010101" d="M316.625,232.029l0.061-0.015L316.625,232.029z"/>
							<path fill="#010101" d="M325.181,237.584c0.004-0.035-0.011-0.06-0.035-0.08C325.134,237.53,325.137,237.558,325.181,237.584
								z"/>
							<path fill="#010101" d="M313.806,228.633c-0.057-0.011-0.115-0.025-0.188-0.049
								C313.694,228.609,313.754,228.624,313.806,228.633z"/>
							<polygon fill="#010101" points="318.576,234.044 318.516,234.021 318.488,234.035 							"/>
							<path fill="#010101" d="M318.183,234.466c-0.062-0.013-0.126-0.018-0.183-0.025c0.229,0.144-0.008,0.423,0.57,0.439
								c-0.015-0.05,0.317-0.318,0.658-0.281c-0.148-0.099,0.255-0.258,0.159-0.311c-0.313,0.174-0.488,0.028-0.685-0.082
								c0.167-0.106,0.466,0.011,0.571-0.08l-0.067-0.237l-0.073,0.208l-0.558-0.054l0.053,0.021
								C318.895,234.413,317.815,234.109,318.183,234.466z"/>
							<path fill="#010101" d="M318,234.441c-0.035-0.021-0.078-0.04-0.138-0.054C317.872,234.42,317.929,234.432,318,234.441z"/>
							<path fill="#010101" d="M317.129,235.936c0.019,0.018,0.046,0.037,0.09,0.06L317.129,235.936z"/>
							<path fill="#010101" d="M318.116,225.254c-0.164-0.005-0.515,0.18-0.088,0.204l0.146-0.176L318.116,225.254z"/>
							<path fill="#010101" d="M319.907,239.691c0.01-0.024,0.013-0.047,0.002-0.068l-0.067-0.005
								C319.781,239.638,319.864,239.673,319.907,239.691z"/>
							<path fill="#010101" d="M319.432,234.657c-0.067-0.036-0.135-0.051-0.203-0.058
								C319.263,234.623,319.318,234.644,319.432,234.657z"/>
							<path fill="#010101" d="M318.897,239.821c-0.118,0.043-0.298,0.108-0.459,0.134c0.003,0.061,0.23,0.077,0.317,0.127
								C318.686,240.021,318.72,239.936,318.897,239.821z"/>
							<path fill="#010101" d="M318.765,240.087l-0.009-0.004C318.756,240.084,318.762,240.085,318.765,240.087z"/>
							<path fill="#010101" d="M318.306,225.144l-0.086-0.061l0.113,0.036l0.138-0.132c-0.025-0.019-0.05-0.04-0.063-0.063
								c0.014,0.01,0.058,0.02,0.104,0.028l0.053-0.042c-0.435-0.143-0.737-0.448-0.99-0.548c-0.182-0.121-0.279-0.261-0.238-0.341
								c-0.016,0.076,0.066,0.184,0.313,0.172c0.267-0.137,1.004-0.156,0.396-0.472l-0.003,0.158l-0.92-0.427
								c0.402-0.093,0.46,0.214,0.797,0.289c-0.445-0.312,0.819-0.44,0.01-0.633c0.488,0.022,1.303,0.058,1.27-0.125
								c-0.565,0.083-0.348-0.137-0.95-0.08c-0.273-0.085,0.192-0.186-0.172-0.227l0.2,0.034c0.796-0.241-0.401-0.444-0.786-0.612
								c-0.167-0.387,0.164-0.528,0.109-0.836c0.327,0.018,1.23,0.02,1.207-0.103c-0.436-0.097-0.613-0.388-1.174-0.47
								c-0.257,0.193,0.455,0.222,0.575,0.363c-0.602,0.052-0.586-0.045-0.954,0.068c0.241-0.097-0.257-0.566,0.311-0.643
								l0.074,0.054c0.356-0.175,1.756-0.075,0.946-0.502l-0.33-0.199l0.172,0.031c0.086-0.262,0.721-0.123,0.245-0.471
								c0.036,0.027,0.101,0.019,0.136,0.046c0.334-0.135-0.284-0.372-0.403-0.514c0.479-0.027,0.461,0.068,0.795,0.152
								c0.215-0.276-0.558-0.682-1.109-0.931l0.297-0.161c0.181,0.135,0.661,0.329,0.949,0.326c-0.082-0.115-0.308-0.12-0.2-0.258
								c0.298,0.059,0.571,0.153,0.941,0.264c0.536-0.248-1.059-0.188-0.112-0.298c0.017-0.095-0.416-0.201-0.777-0.253l0.495-0.12
								c-0.46-0.072-0.462-0.291-0.515-0.44c-0.197-0.041-0.507,0.056-0.333,0.13c-0.362-0.053-0.516-0.223-0.497-0.319
								c0.973,0.079-0.064-0.651,1.063-0.4c-0.263-0.471-0.285-1.093-0.651-1.431c0.28-0.061,0.318-0.251,0.758-0.077
								c0.048-0.347-0.921-0.659-0.609-0.971c0.125-0.012-0.013,0.158,0.313,0.189c-0.358-0.279,0.464-0.356,0.253-0.743
								c0.01,0.062,0.207,0.106,0.306,0.128c-0.161-0.016-0.313-0.189-0.454-0.302c0.09-0.04,0.105,0.084,0.233,0.072
								c0.563-0.61-0.676-1.314-0.529-1.988c-0.043,0.192,0.587,0.36,0.847,0.401l0.04-0.187c-0.307-0.121-0.285-0.262-0.506-0.417
								c0.122,0.004,0.26-0.034,0.402,0.048c0.704-0.273-1.077-0.759-0.667-1.183c0.396,0.268,0.796,0.516,1.195,0.769l0.471-0.065
								l0.547,0.333c0.375-0.087-0.421-0.341,0.066-0.282c0.131,0.052,0.076,0.118,0.337,0.162c0.211-0.106-0.147-0.175-0.225-0.293
								c0.938,0.429,0.842,0.953,1.04,1.275c0.071,0.057-0.231-0.074-0.33-0.097c0.015,0.121-0.303,0.146-0.154,0.318
								c0.403,0.153,0.316-0.024,0.371-0.089c0.36,0.064,0.333,0.097,0.376,0.186c-0.485-0.055-0.236,0.416-0.841,0.434
								c0.09,0.454,1.261,0.112,0.991,0.501l-0.571,0.047c0.393,0.305,0.728,0.672,0.572,0.931l-0.01-0.061
								c-0.231-0.071-0.386-0.027-0.511-0.015c-0.266,0.177,0.381,0.455-0.19,0.507c0.558,0.318,0.941,0.771,1.211,1.081
								c-0.74-0.021-0.574-0.434-1.016-0.607l-0.03,0.248c0.011-0.154-0.26-0.251-0.663-0.398c-0.163,0.201,0.466,0.356,0.625,0.585
								c-0.197-0.042-0.322-0.029-0.339,0.065l0.48,0.089c-0.04-0.003-0.078,0.002-0.112,0.028l0.25,0.404
								c0.217-0.052,0.64-0.002,0.657-0.096c-0.287-0.002-0.334-0.089-0.313-0.183c0.306,0.123,0.278-0.058,0.54-0.023
								c-0.037,0.188-0.001,0.428,0.116,0.568l-0.452-0.016c-0.136,0.167,0.092,0.388-0.054,0.495l-0.232-0.067
								c-0.164,0.2,0.099,0.448-0.36,0.589c0.487,0.254,0.886,0.547,1.403,0.765c0.566,0.149-0.79,0.483-0.001,0.791
								c-0.063,0.008-0.418-0.197-0.628-0.295c-0.105,0.135,0.6,0.329-0.013,0.307c0.24-0.302-0.487-0.036-0.645-0.201
								c-0.006,0.154,0.087,0.327,0.296,0.425c0.022-0.247,0.832,0.178,0.594-0.099c0.491,0.249,0.667,0.531,0.445,0.739
								c-0.263-0.03-0.388-0.014-0.506,0.06l0.374,0.108c-0.081,0.1-0.429-0.254-0.588-0.052c0.628,0.289-0.438,0.634,0.759,0.852
								c-0.494,0.122-0.451-0.371-1.059-0.173c-0.421-0.193,0.099-0.349-0.498-0.459c0.156,0.164-0.515,0.002-0.53,0.096
								l0.354,0.201l0.027-0.034c0.54,0.331,0.226,0.738,0.289,1.097c0.58,0.354,1.437,0.635,1.34,0.981
								c-0.347-0.136-0.368,0.263-1.001-0.017c-0.329,0.137,0.029,0.331,0.292,0.356c0.103-0.136,0.089-0.043,0.229-0.153
								c0.312,0.109,0.281,0.296,0.066,0.355c0.026-0.034-0.036-0.025-0.135-0.042c-0.229,0.153,0.311,0.109,0.433,0.244
								c-0.449,0.002-0.143,0.263-0.383,0.358l0.624,0.214c-0.411-0.123-0.165,0.145-0.552,0.141
								c0.286,0.141,0.797,0.278,0.67,0.448c-0.213-0.09-0.327,0.139-0.752,0.111c-0.43,0.278,1.121,0.59,0.493,0.835
								c-0.099-0.016-0.374-0.094-0.487-0.016c0.114,0.075,0.057,0.188,0.098,0.263l-0.012-0.003l0.012,0.004
								c0.021,0.037,0.072,0.062,0.175,0.07c0.408,0.149,0.83,0.239,1.169,0.5c0.487,0.013,0.312-0.199,0.16-0.296l-0.477-0.106
								c0.74-0.023-0.112-0.224,0.14-0.262c0.85,0.201,0.612,0.597,1.127,0.874c0.688-0.107,0.813-0.421,0.752-0.709l-0.302,0.104
								v-0.148l-0.527,0.108c0.101-0.134-0.023-0.265,0.015-0.39c-0.001,0.149-0.676,0.162-0.563,0.084
								c0.488-0.134-0.3-0.195-0.263-0.321c-0.049,0.067-0.063,0.16-0.338,0.081c0.602-0.21,0.227-0.306,0.867-0.489
								c-0.813-0.032-0.06-0.291-0.722-0.376l-0.075,0.101l-0.473-0.264c0.677-0.157,0.659,0.236,1.151-0.044
								c0.104-0.285-0.749-0.345-0.793-0.582c0.474,0.116,0.871,0.331,0.844,0.514l0.24-0.094c0.273,0.082,0.195,0.332,0.156,0.457
								c-0.534-0.252-0.177,0.085-0.614,0.149c0.464,0.052,0.4-0.088,0.762,0.099c0.002-0.149-0.036-0.174,0.154-0.351
								c-0.243,0.395,1.587,0.488,1.169,0.813c-0.198-0.179-0.675,0.009-0.901,0.013c0.05,0.081,0.15,0.246,0.262,0.318l0.676-0.012
								c0.277,0.225-1.151,0.201-0.475,0.486c0.4,0.057,0.15-0.201,0.226-0.153c0.4,0.354-0.688,0.399-1.214,0.66
								c0.201,0.029,0.627,0.052,0.977,0.174c-0.401-0.056-0.612,0.007-0.901-0.125c-0.177,0.087,0.113,0.22,0.266,0.314
								c0.248-0.188,0.575,0.117,0.814,0.167c-0.074,0.1-0.401-0.055-0.514-0.126c-0.113,0.077-0.714,0.144-0.111,0.225
								c-0.425-0.02-1.105-0.298-1.207-0.462l-0.074,0.102c-0.213-0.085-0.15-0.096-0.078-0.197c-0.336,0.083-0.698,0.052-1,0.009
								c0.063-0.01,0.101,0.014,0.162,0.004c0.112-0.079,0.001-0.151-0.227-0.145c-0.566-0.112-0.364,0.097-0.652,0.138l0.107,0.138
								l1.809,0.545c0.203,0.199-0.239,0.259-0.524,0.386l0.489,0.064c-0.059,0.16-0.223,0.307-0.839,0.171
								c0.164,0.002,0.127-0.021,0.153-0.056c-0.067-0.008-0.114-0.019-0.152-0.031l-0.085-0.012
								c0.148,0.184,0.247,0.297,0.266,0.309c-0.699-0.332-0.89-0.058-1.758-0.149l0.27,0.317c0.284-0.171,0.426,0.016,0.541,0.086
								c-0.49-0.004-0.008,0.245-0.08,0.347l-0.101-0.012c-0.174,0.091-0.133,0.266-0.004,0.394c0.164,0,0.958,0.188,1.437,0.279
								c0.192-0.201,0.384-0.07,0.688-0.076c-0.029,0.02-0.036,0.058,0.025,0.065c0.139,0.035,0.188-0.033,0.35-0.033
								c-0.22-0.227-0.275-0.455-0.955-0.573c-0.312,0.055,0.291,0.127,0.081,0.195c-0.455-0.128-0.358-0.266-0.337-0.449
								l0.412-0.042l-0.213-0.194c0.213,0.087,0.643,0.061,0.718,0.257c0.386-0.008-0.081-0.195,0.055-0.307l-0.541-0.086
								c0.302,0.038,0.372-0.212,0.777-0.013l0.432,0.311l0.375-0.063l0.093,0.249l-0.278-0.07c0.358,0.409-1.088,0.07-0.462,0.493
								c0.654,0.15,0.72,0.285,0.551,0.52c-0.142-0.18-0.464-0.034-0.843-0.114c-0.282,0.169,0.26,0.249,0.515,0.35
								c-0.351,0.034-0.636,0.058-0.58-0.101c-0.729-0.044,0.12,0.215-0.632,0.206c0.006,0.537,2.413,0.491,1.46,1.079l-0.303-0.029
								c0.371,0.395,0.003,0.613,0.239,0.974l-0.773,0.276c-0.117-0.064-0.691-0.24-1.063-0.164c0.781-0.132,0.51-0.282,0.93-0.426
								c-0.203-0.018-0.35,0.041-0.475,0.066c0.009-0.09,0.357-0.131,0.225-0.252c-0.161,0.003-0.356,0.131-0.449,0.031l0.482-0.155
								c-0.226-0.222-1.146-0.128-0.922-0.382c0.427,0.057,1.044,0.167,1.146,0.267c0.095-0.114,0.256,0.16,0.514,0.058
								c-0.631-0.179-0.129-0.25-0.521-0.482c0.088,0.028,0.212,0.038,0.25,0.094l0.276-0.317c-0.373,0.071-0.401-0.278-0.953-0.263
								c-0.236,0.342,0.099,0.248-0.224,0.637c-0.122-0.114-0.679-0.273-1.191-0.354c0.021-0.003,0.038-0.009,0.048-0.021
								c-0.543-0.075-0.69-0.016-1.643-0.041c0.672,0.203,0.11,0.314,0.497,0.541c0.521,0.05,0.668-0.113,0.535-0.224l0.342,0.198
								l-0.238-0.042l-0.185,0.483c-0.026-0.093-0.328-0.129-0.555-0.181c-0.022,0.063-0.161,0.123-0.313,0.188
								c0.498-0.007,0.85,0.007,0.839,0.068c-0.121,0.311-0.57,0.48-1.14,0.593l0.034,0.037c0.511-0.049,0.916,0.229,1.438,0.326
								c-0.528-0.006-0.317,0.16-0.587,0.25c0.605,0.047,1.441-0.017,1.937-0.123c-0.553-0.208-0.558-0.117-1.344-0.218
								l-0.521-0.341l0.482,0.08c0.215-0.167-0.422-0.334,0.207-0.316c0.418,0.093,0.162,0.237,0.582,0.328l0.23-0.108
								c0.616,0.198-0.597,0.096-0.166,0.333c0.534-0.083,0.039,0.022,0.396,0.123c0.371-0.078-0.151-0.413,0.756-0.336
								c0.396,0.122-1.064,0.402-0.162,0.564l-0.103-0.008c-0.119,0.236,0.4,0.318,0.728,0.403
								c-0.294,0.101,0.121,0.235,0.155,0.341l-0.265,0l0.111,0.15c-0.481-0.067,0.013-0.178-0.059-0.307l-0.491,0.02
								c0.582-0.154-0.304-0.249-0.728-0.366c0.426,0.17-0.117,0.486,0.844,0.518l-0.496,0.111l0.179,0.048
								c-0.371,0.083-0.954,0.01-1.066-0.144c0.123-0.028,0.185-0.042,0.287-0.035c-0.22-0.069-0.601-0.133-0.489-0.308l0.261,0.091
								c0.033-0.216-0.156-0.412-0.639-0.487c-0.206,0.316-0.244,0.626-0.221,0.923c1.11,0.074,1.734,0.166,2.766,0.193
								c0.193,0.188,0.338,0.442-0.033,0.615l-0.203-0.01c-0.104,0.083-0.046,0.156,0.073,0.215
								c-0.269,0.092-0.547-0.044-0.692,0.02l0.354,0.264c-0.467-0.002-0.476-0.234-0.511-0.343c0.039,0.02,0.118,0.06,0.181,0.044
								c0.188-0.131-0.613-0.352,0.062-0.423c-0.118-0.06,0.5,0.116,0.532-0.095c0.251-0.145-0.354-0.18-0.558-0.192
								c-0.265,0.001-0.358,0.229-0.679,0.157c0.037,0.111,0.377,0.148,0.125,0.295c-0.035-0.108-0.572-0.249-0.163-0.315
								c-0.496-0.21-1.736-0.162-1.803-0.054c0.389-0.031,0.485,0.397,0.987,0.097c0.501,0.121,0.511,0.356,0.827,0.516l-0.1-0.005
								l0.13,0.205c-0.139-0.025-0.259-0.085-0.521-0.08l0.716,0.267c-0.481-0.146-0.328,0.11-0.535,0.191
								c0.405,0.017,0.705,0.117,0.933,0.002c0.289-0.129-0.221-0.062-0.255-0.169l0.642,0.132l-0.061,0.015l0.523,0.073
								c-0.028,0.208-1.215-0.045-0.695,0.202l0.71-0.063c-0.095,0.309-0.872,0.74-0.534,0.94c-0.407-0.037-1.059-0.029-1.438,0.075
								c0.116-0.102,0.083-0.292,0.01-0.426c0.123-0.032,0.848,0.13,0.701,0.284c1.159-0.13-0.72-0.336,0.459-0.41
								c0.392-0.388-1.148-0.233-0.47-0.581c-0.526,0.015-0.261-0.082-0.726-0.083c-0.854,0.126,0.045,0.435-0.246,0.656
								c-0.039-0.019-0.12-0.057-0.22-0.061c-0.147,0.158-0.026,0.215,0.174,0.311l0.062-0.016c0.522,0.157-0.388,0.133-0.614,0.254
								c0.08,0.038-0.062,0.197,0.322,0.151l-0.488,0.225l0.587-0.044c0.042,0.107-0.346,0.156,0.018,0.233l0.526-0.029l0.167-0.281
								c0.18,0.126,0.505,0.008,0.624,0.15c-0.585-0.131-0.284,0.136-0.771,0.184l0.303,0.09l-0.143-0.019
								c-0.263,0.104,0.204,0.089,0.143,0.194c0.284-0.139,0.647-0.238,0.266-0.365c0.301,0.092,0.645,0.282,0.666,0.333
								c0.228,0.097-0.167,0.204-0.218,0.315c-0.226-0.188-1.587,0.195-1.24-0.25c0.102,0,0.081,0.036,0.02,0.053
								c0.668-0.104-0.061-0.245-0.322-0.322c-0.386,0.049-0.486-0.042-0.69,0.137c0.243-0.069,0.872,0.079,0.565,0.254
								l-0.828,0.032l-0.081,0.235l-0.041-0.019c-0.526,0.128,0.121,0.236-0.178,0.418c0.305,0.088,0.107,0.542,0.955,0.276
								c-0.505,0.187,0.168,0.245,0.293,0.381l0.317-0.218c0.613,0.157,0.227,0.135,1.181,0.207
								c-0.223,0.041-0.404,0.099-0.646,0.089c-0.013,0.289-0.198,0.73,0.499,0.803c-0.01,0.197-0.976,0.365-0.556,0.587
								c0.124,0.04,0.761-0.157,0.553,0.056c-0.06,0.022-0.635-0.083-0.54,0.109c0.651,0.044-0.297,0.394,0.282,0.485
								c-0.21,0.135-0.096,0.288-0.598,0.342c0.086-0.175-0.056-0.376-0.301-0.372c0.304-0.028,0.272-0.158,0.523-0.082
								c0.338-0.294-0.333-0.104-0.108-0.358c-0.202,0.015-0.536,0.195-0.351,0.214c-0.681,0.109-0.395-0.381-1.183-0.063
								c-0.021,0.251,1.405,0.096,0.725,0.41c-0.429-0.012-0.098-0.196-0.828-0.19l-0.248,0.216l0.514,0.042l-0.103,0.01
								c-0.57,0.403,0.746,0.159,1.133,0.347c0.442-0.229,1.181-0.185,1.449-0.343c0.116,0.142,0.049,0.273-0.628,0.407
								c-0.611-0.202-0.72,0.124-1.451-0.045c-0.234,0.095-1.008,0.106-1.047,0.305c0.523,0.116,0.554-0.166,0.816-0.005
								c-0.058,0.023-0.116,0.047-0.218,0.06c0.37,0.024-0.105,0.135,0.305,0.169l-0.141,0.001
								c-0.384,0.224,0.495,0.054,0.073,0.264c0.491-0.153,0.428-0.01,0.755-0.008c0.165-0.159,0.867-0.368,0.784-0.58
								c-0.402,0.052-0.619,0.113-0.83,0.057l0.078,0.14c-0.072-0.019-0.179-0.023-0.265-0.037l0.179-0.186
								c0.318,0.127,0.727-0.041,1.154-0.048c-0.144,0.196,0.135,0.107,0.027,0.232c-0.582,0.109-0.93,0.522-1.252,0.795
								c0.015-0.034-0.009-0.068,0.001-0.091c-0.399-0.051-0.46,0.206-0.616,0.25l0.313,0.031c-0.044-0.009-0.185-0.002-0.256,0.061
								c0.141,0.111,0.709-0.04,0.85,0.062c-0.314,0.094-0.823,0.102-0.969,0.23c-0.269,0.098-0.976,0.389-0.646,0.501
								c0.124-0.02,0.205,0.009,0.271,0.049c-0.019-0.002-0.034-0.009-0.058-0.006l-0.308,0.221
								c-0.567,0.048,0.194-0.286-0.375-0.244l-0.515,0.129c-0.024-0.086-0.28-0.146-0.561-0.135
								c-0.052,0.16,0.093,0.154,0.24,0.276c-0.317,0.11-0.588,0.067-0.627,0.06l0.298-0.055c0.374-0.293-0.565-0.147-0.527-0.409
								c0.013-0.041,0.056-0.028,0.156-0.044c-0.549-0.072,0.096-0.417-0.605-0.458l0.286,0.001l-1.358-0.386l-0.202,0.037
								c-0.117,0.053-0.128-0.048-0.057-0.116l0.003,0c-0.274-0.084-0.526-0.171-0.714-0.247c-0.12,0.056-0.218,0.119-0.238,0.174
								c0.244-0.001,0.099,0.284,0.633,0.146c-0.305,0.177,0.198,0.267,0.01,0.391c0.317-0.221,0.528,0.001,0.833-0.036
								c-0.33,0.121,0.073,0.213-0.388,0.292c-0.112,0.055,0.287-0.138-0.001-0.143c-0.46-0.069-0.311,0.37-0.759,0.259
								c0.373,0.184,0.314,0.551,0.796,0.707l0.151-0.189c-0.04,0.13,0.127,0.373-0.084,0.451c-0.077-0.072-0.095-0.172-0.212-0.259
								c-0.514,0.123,0.067,0.263-0.243,0.357l0.929,0.089l-0.008-0.144c0.332,0,0.034,0.385,0.031,0.62
								c-0.73,0.084-0.115-0.315-0.453-0.46c-0.309-0.095-0.644,0.287-0.854,0.173c-0.15,0.086-0.102,0.188,0.088,0.19l-0.109,0.1
								c-0.669,0.033-0.626-0.339-1.224-0.422c0.072,0.002,0.148,0.001,0.224-0.011c0.205-0.233,0.154-0.4-0.056-0.527
								c-0.18,0.135-0.035,0.139,0.052,0.171c-0.155,0.044-0.263-0.098-0.452-0.118c-0.149,0.201-0.37,0.117-0.451,0.242
								c-0.179-0.069-0.152-0.164-0.112-0.305c0.228-0.119,0.345-0.021,0.659-0.105c-0.219-0.085,0.527-0.308,0.121-0.413
								c-0.08,0.274-0.705,0.083-0.938,0.037l-0.013,0.047c-0.391-0.003-0.419-0.069-0.088-0.192
								c0.174,0.071,0.087,0.192,0.461,0.085c-0.03-0.064-0.06-0.127-0.188-0.18l0.287,0.014l-0.144-0.316
								c-0.346,0.012-0.837,0.011-1.342,0.054c0.288-0.139,0.017-0.205-0.114-0.263l0.146,0.012
								c0.262-0.201-0.035-0.492-0.338-0.473c0.248-0.14,2.024,0.425,1.622-0.264c-0.045-0.276-0.979-0.021-1.334-0.133
								c0,0,0.098-0.005,0.158-0.031c0.051-0.135-0.314-0.093-0.483-0.173c-0.134,0.097-0.123,0.208,0.021,0.222
								c-0.405,0.022-0.005-0.268-0.334-0.319c0.633,0.036,0.201-0.275,0.531-0.223c0.363-0.3-0.16-0.496-0.632-0.571
								c0.755-0.262-0.138-0.282,0.189-0.596c-0.018,0.044,0.107,0.106,0.03,0.174c0.51,0.096,0.226-0.308,0.703-0.125
								c-0.084-0.042-0.262,0.026-0.179,0.069c0.066,0.083,0.292,0.142,0.513,0.093l0.41-0.266l0.128,0.061l0.565-0.39
								c-0.1,0.002-0.22,0.045-0.279,0.068c0.226-0.399-0.154-0.789-0.101-1.121c-1.399,0.058-0.662-0.753-1.534-0.958
								c0.404,0.045,1.112,0.033,1.399-0.03c0.063,0.055,0.635,0.133,0.526,0.271c-0.222,0.038-0.463,0.22-0.728,0.134
								c0.186,0.353,0.607-0.097,1.134-0.029c-0.163-0.386-0.998-0.566-1.341-0.802l0.164-0.017l-0.323-0.174
								c-0.083,0.164-0.874,0.204-0.61-0.019l0.041,0.023c0.324-0.136-0.08-0.358-0.037-0.543l-0.463-0.102
								c0.043-0.187,0.895-0.233,1.402-0.314c0.047-0.284-0.656-0.418-1.079-0.607c0.367-0.105,0.442-0.531,0.9-0.321
								c-0.335-0.242-2.325-0.139-1.233-0.61l0.361,0.106c-0.084-0.416-0.808-1.008-0.431-1.206c1.29,0.141,1.308-0.531,2.571-0.605
								c-0.289,0.021-0.385-0.132-0.539-0.154c0.148-0.034,0.292-0.09,0.031-0.149c-0.254,0.16-1.312-0.114-0.802,0.194
								c-0.866-0.154-1.543-0.36-1.499-0.707l0.527,0.009l-0.161,0.272c0.39-0.026,0.36,0.114,0.539,0.171
								c0.297-0.503,1.233,0.068,1.166-0.443c-0.341-0.051-0.2-0.019-0.334-0.152c0.017,0.063,0.38,0.077,0.389-0.023l-0.421-0.1
								c0.881-0.169,0.569,0.298,1.188,0.152c0.411,0.198,0.634,0.534,1.306,0.473c0.245-0.312-1.26-0.289-0.95-0.619l0.286-0.032
								c-0.193-0.118-0.657-0.142-0.937-0.21c0.163-0.004,0.285-0.032,0.333-0.106c-0.675-0.207-0.805-0.34-1.541-0.538
								c0.545,0.5-0.522,0.414-0.033,0.929c-0.218-0.082-0.375-0.442-1.103-0.475l0.527,0.012c-0.271-0.169-0.54-0.341-0.362-0.547
								l0.294,0.133c-0.362-0.284,0.809-0.442-0.063-0.679c-0.049,0.076-0.034,0.139,0.045,0.188
								c-0.232-0.147-0.175-0.325-0.082-0.477l-0.862-0.345c0.262,0.01,0.284-0.192,0.698-0.082c0.409-0.217-0.373-0.351-0.5-0.489
								c0.567-0.217,0.243,0.213,0.971,0.26c0.254-0.315,0.047-0.663-0.42-0.865c-0.108,0.062-0.201,0.09-0.329,0.082
								c0.167-0.003,0.129-0.136,0.137-0.208l-0.34-0.064c0.235-0.112,0.437-0.086,0.69,0.028c0.071-0.113-0.581-0.279-0.082-0.376
								c0.403,0.215,0.033,0.451,0.287,0.564c-0.322-0.427,1.061-0.369,0.648-0.906c0.164,0.001,0.479,0.104,0.488,0.005
								c-0.116-0.237-0.703-0.094-1.08-0.185c0.204,0.189-0.008,0.262-0.445,0.347l-0.275-0.061c0.145,0,0.158-0.113,0.299-0.14
								l-0.565-0.056c0.626,0.043,1.111-0.114,0.885-0.266c-0.462,0.12-0.437,0.083-1.151,0.087
								c-0.666-0.234,0.676-0.192-0.028-0.453c0.2,0.027,0.34,0.23,0.503,0.07c0.034-0.138-0.455-0.146-0.605-0.248
								c0.517,0.134,0.905,0.127,1.519,0.273c0.053,0.25-0.012,0.099,0.203,0.352l0.452-0.181c0.075,0.212,0.589,0.181,0.789,0.208
								c0.549-0.325-0.779-0.306-0.631-0.527c-0.353-0.129-0.087,0.209-0.452,0.018c0.087-0.21-0.339-0.067-0.551-0.32l0.236,0.054
								c0.314-0.057-0.063-0.15-0.111-0.238c-0.152-0.104-1.819,0.004-1.833-0.388c0.145,0.028,0.237,0.04,0.298,0.044l4.361,0.625
								c0.011-0.382,0.159-0.815,0.482-1.236c0.862-0.047,0.687,0.359,1.073,0.356l-0.188,0.188
								c-0.362-0.034-0.085-0.426-0.738-0.286c0.239,0.37-0.189,0.507,0.541,0.885c0.864-0.054-0.127-0.45,0.55-0.626
								c-0.061,0.087,0.028,0.17,0.146,0.252l0.402-0.628l-0.205-0.066c-0.105,0.15-0.187,0.253-0.219,0.265
								c0.088-0.202-0.375-0.407-1.002-0.463l-0.025,0.036l-0.19-0.088L318.306,225.144z M319.929,211.717
								c0.058,0.021,0.126,0.042,0.211,0.062C320.051,211.758,319.99,211.758,319.929,211.717z M320.201,229.308
								c0.102-0.271,0.284-0.54,0.371-0.798c-1.262,0.421-2.216,0.73-2.16-0.075l-0.086-0.057c-0.158,0.099-0.184,0.28-0.101,0.455
								c0.435,0.158,2.038,0.656,2.182,0.654c0.351-0.036-0.028-0.119,0.081-0.203L320.201,229.308z M318.113,229.433
								c-0.144,0.154,0.133,0.126,0.38,0.159l-0.089-0.169C318.342,229.442,318.253,229.449,318.113,229.433z M318.741,229.59
								c0.007-0.018,0.019-0.032,0.052-0.039L318.741,229.59z M319.194,226.553l0.014,0.017l0.064-0.109
								C319.232,226.474,319.199,226.5,319.194,226.553z M318.569,226.837l0.451,0.062l0.058-0.103
								C318.872,226.797,318.693,226.8,318.569,226.837z M317.024,227.794c0.542,0.091,0.557,0.311,1.185,0.352
								c0.16,0.021,0.225-0.022,0.278-0.071l0.061-0.18c-0.091-0.006-0.176-0.023-0.257-0.049c-0.082,0.06-0.239,0.096-0.623,0.052
								c0.848-0.125-0.594-0.177-0.369-0.346C316.857,227.473,316.849,227.731,317.024,227.794z M319.138,241.517l-0.358,0.107
								l-0.328-0.077c0.101-0.251,0.968-0.56,0.168-0.649c0.181-0.122,0.583-0.229,0.914-0.323c-0.02,0.049-0.047,0.096-0.094,0.138
								C320.647,241.097,318.295,241.182,319.138,241.517z M319.914,238.851c0.041,0.019,0.145,0.017,0.145,0.017
								c-1.196-0.375-1.565-0.771-1.539-1.042c-0.452,0.085-0.789,0.358-0.967,0.491l-0.528-0.062l0.403-0.098l-0.486-0.145
								c-0.345,0.078-0.262,0.219-0.522,0.34c0.101,0.001,0.734,0.268,1.061,0.325l0.338-0.279
								c-0.139,0.079,0.009,0.398,0.154,0.516c0.26-0.022,0.642-0.281,0.073-0.258c0.385-0.061,0.411,0.194,0.813-0.005
								c0.426,0.152,0.114,0.484-0.063,0.646l-0.646,0.092c-0.235,0.184,0.791,0.021,0.438,0.247
								c-0.152-0.213-0.706,0.117-0.775-0.06c-0.239,0.085-0.686,0.075-0.616,0.257c0.876,0.056-0.514,0.259,0.26,0.317
								c-0.256,0.13-0.528-0.044-0.62,0.164c0.477,0.167,0.8,0.112,1.424,0.046c0.147-0.223-0.839-0.128-0.707-0.315l1.107,0.2
								c0.142-0.079,0.154-0.125,0.106-0.157c0.069,0.058,0.233,0.093,0.459,0.112l0.326,0.034c-0.02-0.181-0.021-0.344,0.241-0.404
								l0.305-0.012c0.271-0.096,0.041-0.172-0.187-0.195c-0.052-0.156-0.491-0.272-0.102-0.349l0.283,0.031
								C319.983,239.117,319.943,239.099,319.914,238.851z M320.344,232.33c-1.116,0.114-2.105,0.249-1.908,0.822l-0.077-0.045
								c-0.698,0.296,0.929,0.554,0.157,0.914c-0.423-0.165-0.385-0.155-1.351-0.334l0.318,0.182
								c-0.608-0.043-0.291,0.138-0.317,0.275l-0.726-0.109c0.207-0.086,0.278-0.3,0.114-0.292c0.08,0.045,0.91-0.291,0.698-0.465
								c-0.489,0.021-0.288,0.396-1.09,0.235c0.337,0.146-0.152,0.169,0.021,0.323c-0.338-0.146-0.667-0.029-1.026-0.137
								l0.171,0.257c-0.164,0.01-0.368-0.374-0.968-0.153c0.259,0.102-0.059,0.386,0.468,0.383l-0.161,0.009
								c-0.111,0.198,0.747,0.072,0.451,0.317c0.265-0.002,0.447-0.052,0.392-0.136c-0.118-0.07-0.482-0.074-0.559-0.222
								c0.412-0.074-0.048,0.181,0.648,0.065c0.346-0.057-0.307-0.386,0.479-0.289l-0.109,0.193c0.528-0.003,0.5,0.135,0.926,0.124
								c0.196,0.112-0.396,0.234,0.065,0.343c0.343,0.042,0.975-0.059,0.703,0.142c-0.776,0.171-0.613,0.622-0.492,0.786
								l0.341,0.136c0.323-0.024-0.055-0.28,0.369-0.2l0.136,0.224l-0.203-0.01c-0.043,0.078,0.179,0.146,0.297,0.21
								c-0.383-0.055-0.236-0.227-0.784-0.173c-0.104,0.112-0.308,0.137-0.198,0.233c-0.041-0.02-0.095-0.037-0.172-0.031
								c-0.229,0.23,0.625,0.186,0.806,0.232c0.725,0.185,0.652-0.249,1.22-0.244l0.332,0.611c-0.181-0.044-0.361-0.089-0.586-0.058
								c-0.246,0.168-0.426,0.025-0.389,0.242c0.75-0.056,0.484,0.248,0.928,0.374c-0.304,0.09-0.363,0.108-0.383-0.047
								c-0.486,0.047-0.286,0.247-0.326,0.324c0.123,0.036,0.199,0.105,0.311,0.144c0.239-0.079,0.547-0.072,0.764,0.047l0.103,0
								c0.115-0.229,0.631-0.599,0.123-0.706l0.243,0.025c0.405-0.272-0.904-0.504,0.011-0.667c0.364-0.006,0.081-0.054,0.608-0.075
								l-0.422-0.166l0.241,0.028l-0.131-0.309l0.098,0.004l-1.197-0.319c-0.23,0.007-0.301,0.02-0.472-0.026
								c-0.116-0.047-0.135-0.085-0.105-0.121l-0.003,0h0.003c0.064-0.081,0.394-0.144,0.526-0.244l0.064,0.295
								c0.392,0.012,0.795-0.027,1.064-0.179c0.016,0.059,0.321,0.073,0.364,0c-0.102-0.004-0.255-0.184-0.563-0.105
								c-0.151-0.278,0.864-0.747,0.116-1.157c0.451,0.297,0.52-0.249,0.686,0.084c0.62-0.242-0.619-0.193-0.522-0.435
								c0.224-0.023-0.029,0.131,0.415,0.181c0.247-0.397-1.016-0.666-0.825-1.056l0.487-0.016L320.344,232.33z M319.743,231.555
								l-0.165-0.231c-0.008,0.007-0.008,0.015-0.014,0.022l-0.39-0.233c-0.192,0.136-0.729,0.221-0.976,0.02
								c0.201,0.02,0.449-0.033,0.565,0.037c0.296-0.126,0.583-0.407-0.154-0.348c0.691,0.266-0.938,0.041-0.425,0.25
								c-0.478-0.116-0.261-0.218-0.474-0.324c0.4,0.114,0.91-0.006,1.105-0.158c-0.116-0.071,0.001-0.253-0.19-0.373
								c-0.451,0.029-0.706-0.078-0.824,0.106c-0.116-0.071-0.207-0.181,0.027-0.293c0.075,0.049,0.13,0.133,0.292,0.132
								c0.416-0.065,0.399-0.155,0.578-0.199l-0.068-0.12c-0.039,0.011-0.091,0.019-0.155,0.024l-0.394-0.143
								c0.207,0.181-0.21,0.075-0.474,0.064c0.526,0.021,0.072-0.111,0.058-0.171l-0.563,0.113c-0.276-0.072,0.41-0.21-0.143-0.195
								c-0.229,0.271-0.139,0.381,0.021,0.638l0.435-0.09c0.299,0.291-0.746,0.155-0.733,0.475c0.391,0.141,0.019,0.481,0.81,0.502
								c-0.241-0.044-0.708,0.187-0.352,0.301c0.721,0.131,0.816,0.494,1.147,0.388c0.01-0.097-0.387-0.234,0.085-0.306l0.148,0.19
								l0.396-0.118C318.777,231.578,319.162,231.577,319.743,231.555z M324.315,227.615l0.011-0.006l-0.003,0.007L324.315,227.615z
								"/>
							<path fill="#010101" d="M321.313,243.833c0.187,0.001,0.19,0.128,0.557-0.001
								C321.46,243.951,321.749,243.638,321.313,243.833z"/>
							<path fill="#010101" d="M320.95,244.092c0.101-0.019,0.256-0.07,0.285-0.02l-0.146-0.121L320.95,244.092z"/>
							<path fill="#010101" d="M318.203,245.069c0.332,0,0.521,0.003,0.535,0.151c-0.977,0.361-0.348-0.143-1.297,0.066
								c-0.01,0.302,0.88,0.114,1.032,0.298C318.848,245.341,318.964,244.855,318.203,245.069z"/>
							<polygon fill="#010101" points="316.906,245.318 317.177,245.406 317.231,245.373 316.96,245.286 							"/>
							<path fill="#010101" d="M325.096,240.586c0.319-0.063-0.01-0.078-0.092-0.104
								C324.987,240.516,324.91,240.572,325.096,240.586z"/>
							<path fill="#010101" d="M326.176,215.637l-0.178-1.036C326.04,214.898,326.045,215.168,326.176,215.637z"/>
							<path fill="#010101" d="M322.63,237.806c0.328,0.234,0.896,0.298,1.06,0.542c0.623-0.394-1.059-0.36-0.412-0.704
								L322.63,237.806z"/>
							<path fill="#010101" d="M325.221,237.687c-0.606,0.091-0.73-0.133-1.175-0.063c0.162,0.158,0.588,0.032,0.548,0.188
								L325.221,237.687z"/>
							<polygon fill="#010101" points="315.269,239.873 314.943,239.815 315.065,239.876 							"/>
							<polygon fill="#010101" points="324.601,236.592 324.74,236.611 324.926,236.475 							"/>
							<path fill="#010101" d="M324.882,236.631l-0.142-0.02L324.882,236.631z"/>
							<polygon fill="#010101" points="313.952,239.894 313.837,240.047 314.123,240.086 							"/>
							<path fill="#010101" d="M317.108,238.396l0.205,0.1C317.274,238.477,317.511,238.297,317.108,238.396z"/>
							<polygon fill="#010101" points="324.82,235.805 324.579,235.691 324.52,235.707 324.76,235.82 							"/>
							<path fill="#010101" d="M315.356,237.597c-0.464,0.114-0.141-0.23-0.546-0.033
								C314.893,237.711,315.134,237.633,315.356,237.597z"/>
							<path fill="#010101" d="M318.454,235.726c-0.001-0.019-0.019-0.038-0.071-0.054
								C318.403,235.693,318.429,235.711,318.454,235.726z"/>
							<path fill="#010101" d="M318.454,235.726c0.002,0.06-0.176,0.127-0.038,0.163
								C318.625,235.806,318.545,235.782,318.454,235.726z"/>
							<path fill="#010101" d="M318.32,235.042l-0.032,0.055c-0.233-0.049-0.198-0.023-0.011,0.021
								c0.018,0.057,0.167,0.049,0.269,0.053l0.184,0.029l-0.171-0.042C318.56,235.07,318.535,235.017,318.32,235.042z"/>
							<path fill="#010101" d="M326.214,232.511c-0.175,0.182-0.26,0.23-0.625,0.22c-0.116,0.175,0.512,0.147,0.658,0.251
								C326.177,232.786,326.346,232.746,326.214,232.511z"/>
							<path fill="#010101" d="M326.247,232.982c0.007,0.021,0.016,0.042,0.029,0.068C326.288,233.021,326.272,233,326.247,232.982z
								"/>
							<polygon fill="#010101" points="314.36,236.009 313.797,235.898 313.876,235.944 							"/>
							<path fill="#010101" d="M326.399,232.24c-0.024,0.034-0.009,0.088-0.134,0.114
								C326.633,232.366,326.422,232.207,326.399,232.24z"/>
							<path fill="#010101" d="M319.239,232.963c-0.225,0.021-0.089,0.147-0.175,0.2
								C319.111,233.088,319.783,233.025,319.239,232.963z"/>
							<path fill="#010101" d="M324.897,231.696c-0.023,0.034-0.27,0.085-0.571,0.058
								C324.505,231.807,325.148,231.881,324.897,231.696z"/>
							<polygon fill="#010101" points="319.305,232.6 319.181,232.628 319.416,232.764 							"/>
							<path fill="#010101" d="M313.914,233.106c0.436,0.159,1.049-0.26,1.42,0.016c0.454-0.357-0.618,0.029-0.548-0.234
								C314.639,233.042,314.089,233.122,313.914,233.106z"/>
							<path fill="#010101" d="M314.786,232.889c0.023-0.022,0.036-0.047,0.038-0.073
								C314.804,232.845,314.792,232.868,314.786,232.889z"/>
							<path fill="#010101" d="M317.566,230.692c0.045,0.023,0.094,0.04,0.146,0.055
								C317.677,230.729,317.632,230.711,317.566,230.692z"/>
							<path fill="#010101" d="M314.429,232.045l0.653,0.245c-0.435-0.163-0.404-0.567-1.056-0.548
								c-0.134,0.13,0.038,0.291,0.318,0.357L314.429,232.045z"/>
							<path fill="#010101" d="M326.291,229.685l0.255,0.101l0.079-0.113C326.527,229.703,326.051,229.627,326.291,229.685z"/>
							<path fill="#010101" d="M326.64,229.651l-0.015,0.022C326.642,229.669,326.648,229.662,326.64,229.651z"/>
							<path fill="#010101" d="M317.873,231.139c-0.047,0.074-0.029,0.135,0.085,0.205
								C318.082,231.317,318.199,231.132,317.873,231.139z"/>
							<polygon fill="#010101" points="325.368,228.993 325.474,229.152 325.433,228.982 							"/>
							<polygon fill="#010101" points="326.506,228.321 326.63,228.301 326.402,228.162 326.278,228.183 							"/>
							<path fill="#010101" d="M313.659,228.773c-0.074,0.114,0.507,0.226,0.632,0.2l-0.017-0.225
								c-0.515,0.038,0.013,0.063-0.122,0.188L313.659,228.773z"/>
							<path fill="#010101" d="M325.916,222.875c0.337,0.076,0.12,0.283-0.205,0.268c-0.138-0.042-0.262-0.176-0.475-0.117
								l0.822,0.25c-0.542,0.193-1.086-0.273-1.37-0.418c-0.13,0.234,0.415,0.353,0.391,0.611c0.081-0.07,0.294-0.101,0.477-0.125
								c0.59,0.041,0.31,0.258,0.342,0.433c0.265-0.088,0.475-0.007,0.699,0.09c0.018,0.016,0.051,0.028,0.09,0.038l0.08,0.033
								l0.001-0.021c0.065,0.007,0.146,0.009,0.257,0.003c-0.16-0.156,0.342-0.225,0.356-0.315c-0.965,0.011-0.196-0.331-0.48-0.471
								l-0.083-0.142l0.003-0.05c0.105-0.001,0.236,0.025,0.419,0.117c-0.183-0.08-0.099-0.285-0.407-0.293l0.03-0.485
								c0.04-0.011,0.09-0.022,0.16-0.027c-0.059-0.022-0.108-0.03-0.157-0.032l0.147-2.116c-0.086,0.096-0.314,0.164-0.431,0.26
								c-0.618-0.228-0.133,0.165-0.728,0.056c-0.211-0.096-0.131-0.195,0.021-0.244c-0.301-0.055-0.579,0.008-0.939-0.041
								c-0.41,0.231,1.037,0.421,0.789,0.66c-0.361-0.047-0.671-0.161-0.64,0.017l-0.073-0.051c0.379,0.316-0.844,0.134,0.136,0.406
								l-0.524-0.056c0.384,0.164,0.363,0.407,0.422,0.551l-0.1-0.018c0.563,0.441,0.107,0.228,0.318,0.683l-0.594-0.255
								c-0.267,0.126,0.396,0.221,0.317,0.321c-0.101-0.017-0.486-0.026-0.573-0.136l0.888,0.607
								C325.688,223.025,325.691,222.875,325.916,222.875z"/>
							<path fill="#010101" d="M325.079,223.468c-0.03,0.025-0.045,0.056-0.028,0.094
								C325.071,223.528,325.076,223.498,325.079,223.468z"/>
							<path fill="#010101" d="M327.024,219.957l-0.012,0.149C327.05,220.063,327.064,220.016,327.024,219.957z"/>
							<path fill="#010101" d="M326.166,224.307c0.279-0.069,0.375,0.097,0.576,0.128l0.016-0.321
								c-0.203-0.015-0.427-0.065-0.613-0.073L326.166,224.307z"/>
							<path fill="#010101" d="M327.146,224.051c-0.139-0.022-0.264-0.066-0.38-0.114l-0.009,0.176
								C326.91,224.124,327.05,224.115,327.146,224.051z"/>
							<polygon fill="#010101" points="316.338,223.221 316.324,223.159 316.176,223.054 							"/>
							<path fill="#010101" d="M317.307,222.346c-0.313,0.046-0.092,0.203-0.018,0.255
								C317.293,222.443,317.402,222.521,317.307,222.346z"/>
							<polygon fill="#010101" points="314.002,222.263 313.841,222.092 313.779,222.102 							"/>
							<path fill="#010101" d="M325.082,218.627l-0.026-0.075C325.05,218.584,325.063,218.607,325.082,218.627z"/>
							<path fill="#010101" d="M325.445,219.927c0.625-0.283,0.466,0.278,1.231,0.249l-0.23-0.213l0.2,0.037l-0.041-0.235
								c-0.352,0.01-0.377,0.042-0.739-0.006c0.175-0.291,0.441-0.05,0.924-0.224l-0.028-0.347l0.105,0.04
								c-0.005-0.03-0.049-0.047-0.106-0.064l-0.095-1.172c-0.264-0.243-0.667,0.039-1.182-0.178
								c-0.028,0.243-0.456,0.562,0.266,0.665c-0.1-0.02-0.297-0.059-0.388-0.019l0.579,0.208l0.205-0.112
								c0.577,0.209,0.396,0.647,0.018,0.689c-0.175-0.281-0.904-0.231-0.475-0.55c-0.186-0.004-0.517,0.025-0.607-0.067
								C325.245,219.075,324.873,219.421,325.445,219.927z"/>
							<path fill="#010101" d="M325.601,215.628l0.064,0.012C325.632,215.628,325.605,215.623,325.601,215.628z"/>
							<path fill="#010101" d="M325.493,215.759l0.682,0.298l-0.016-0.329l-0.494-0.088c0.123,0.045,0.359,0.19,0.16,0.209
								L325.493,215.759z"/>
							<path fill="#010101" d="M326.572,216.352c-0.19-0.192-0.776-0.259-1.055-0.202c-0.251-0.188,0.64,0,0.035-0.185
								c-0.423-0.051-0.199,0.17-0.127,0.223L326.572,216.352z"/>
							<polygon fill="#010101" points="326.112,217.537 325.875,217.461 325.798,217.568 							"/>
							<path fill="#010101" d="M325.875,217.461l0.08-0.106c-0.182-0.014-0.358-0.027-0.484-0.024L325.875,217.461z"/>
							<path fill="#010101" d="M326.16,217.075c0.049-0.043,0.089-0.092,0.112-0.155L326.16,217.075z"/>
							<path fill="#010101" d="M325.995,217.188l0.076,0.005l0.089-0.118C326.108,217.116,326.054,217.152,325.995,217.188z"/>
							<path fill="#010101" d="M325.955,217.354c0.412,0.031,0.846,0.062,0.751-0.117l-0.635-0.045L325.955,217.354z"/>
							<polygon fill="#010101" points="314.721,221.19 314.501,221.029 314.437,221.038 314.656,221.199 							"/>
							<path fill="#010101" d="M315.173,220.421c-0.068-0.041-0.143-0.075-0.218-0.106
								C314.997,220.355,315.063,220.391,315.173,220.421z"/>
							<path fill="#010101" d="M312.424,219.543c0.43-0.124,0.523,0.283,0.737-0.005c0.388,0.012,0.87,0.205,0.664,0.329
								c-0.361-0.047-0.219-0.163-0.597-0.111c0.409,0.137,0.12,0.145,0.67,0.166c0.324,0.194,0.711,0.25,1.057,0.393
								c-0.222-0.217,0.379-0.565-0.297-0.881c-0.643-0.202-1.548-0.212-2.496-0.31
								C311.938,219.122,311.796,219.468,312.424,219.543z"/>
							<path fill="#010101" d="M311.45,219.712c-0.055,0.073-0.019,0.1,0.056,0.155C311.831,219.886,311.458,219.776,311.45,219.712
								z"/>
							<path fill="#010101" d="M318.769,218.711c-0.133-0.029-0.286-0.181-0.521-0.178l0.148,0.223
								C318.422,218.71,318.589,218.711,318.769,218.711z"/>
							<path fill="#010101" d="M318.458,218.853l-0.063-0.097C318.381,218.776,318.396,218.806,318.458,218.853z"/>
							<path fill="#010101" d="M318.854,218.71l-0.085,0C318.797,218.717,318.826,218.72,318.854,218.71z"/>
							<path fill="#010101" d="M326.454,216.632c0.26,0.035,0.115-0.071,0.043-0.124C326.472,216.541,326.38,216.58,326.454,216.632
								z"/>
							<path fill="#010101" d="M325.877,213.23l0.217-0.046C325.967,213.193,325.903,213.198,325.877,213.23z"/>
							<path fill="#010101" d="M318.992,210.961c-0.05-0.01-0.091-0.022-0.129-0.037
								C318.895,210.938,318.937,210.95,318.992,210.961z"/>
							<path fill="#010101" d="M318.863,210.925c-0.206-0.089,0.154-0.206-0.162-0.319l0.098,0.023l-0.175-0.145
								C318.636,210.596,318.56,210.814,318.863,210.925z"/>
						</g>
					</g>
				</g>
			</g>
		</g>
	</g>
	<g>
		<g>
			<path fill="#ED1C24" d="M299.718,127.664c-10.821-5.801-24.567-8.186-33.817,1.617c-0.516,0.546,1.4,0.379,1.781-0.025
				c8.444-8.948,20.874-5.873,30.481-0.722C298.657,128.797,300.447,128.055,299.718,127.664L299.718,127.664z"/>
		</g>
	</g>
	<g>
		<g>
			<path fill="#ED1C24" d="M300.414,124.181c-6.71-9.443-16.045-16.74-27.209-20.074c-0.758-0.226-2.284,0.877-1.138,1.22
				c10.935,3.265,20.003,10.434,26.569,19.674C299.103,125.656,300.957,124.944,300.414,124.181L300.414,124.181z"/>
		</g>
	</g>
	<g>
		<g>
			<path fill="#ED1C24" d="M301,116.005c-5.416-8.323-12.194-16.754-22.748-17.76c-0.845-0.081-2.018,1.127-0.71,1.252
				c10.082,0.96,16.548,9.43,21.677,17.312C299.633,117.446,301.496,116.768,301,116.005L301,116.005z"/>
		</g>
	</g>
	<g>
		<g>
			<path fill="#ED1C24" d="M292.554,131.803c-3.093,0.001-6.164,0.06-9.214,0.625c-0.759,0.14-1.722,0.946-0.364,0.694
				c2.755-0.509,5.529-0.543,8.322-0.544C291.693,132.577,293.496,131.802,292.554,131.803L292.554,131.803z"/>
		</g>
	</g>
</g>
<rect x="272.814" y="43.665" fill="none" width="105.791" height="46.335"/>
<text transform="matrix(1 0 0 1 272.814 53.6045)"><tspan x="0" y="0" fill="#ED1C24" font-family="'MyriadPro-BoldIt'" font-size="14">Clin Presentation</tspan><tspan x="0" y="16.8" fill="#ED1C24" font-family="'MyriadPro-BoldIt'" font-size="14"> </tspan><tspan x="2.576" y="16.8" fill="#010101" font-family="'MyriadPro-Regular'" font-size="8">Acute upper GI bleeding.</tspan></text>
<rect x="483.109" y="43.665" fill="none" width="110.391" height="52.599"/>
<text transform="matrix(1 0 0 1 483.1094 53.6045)"><tspan x="0" y="0" fill="#ED1C24" font-family="'MyriadPro-BoldIt'" font-size="14">Diagnosis</tspan><tspan x="0" y="9.6" fill="#010101" font-family="'MyriadPro-Regular'" font-size="8">The lesion is initally black then </tspan><tspan x="0" y="19.2" fill="#010101" font-family="'MyriadPro-Regular'" font-size="8">progresses to white slough with </tspan><tspan x="0" y="28.8" fill="#010101" font-family="'MyriadPro-Regular'" font-size="8">sharp demarkation at GOJ.</tspan></text>
<rect x="363.658" y="188.996" fill="none" width="123.842" height="83.004"/>
<text transform="matrix(1 0 0 1 363.6582 198.936)"><tspan x="0" y="0" fill="#ED1C24" font-family="'MyriadPro-BoldIt'" font-size="14">Treatments</tspan><tspan x="0" y="9.6" fill="#010101" font-family="'MyriadPro-Regular'" font-size="8">NBM for 24 hours.</tspan><tspan x="0" y="19.2" fill="#010101" font-family="'MyriadPro-Regular'" font-size="8">iv PPI.</tspan><tspan x="0" y="28.8" fill="#010101" font-family="'MyriadPro-Regular'" font-size="8">Sucralfate.</tspan><tspan x="0" y="38.4" fill="#010101" font-family="'MyriadPro-Regular'" font-size="8">Treat underlying illness.</tspan><tspan x="0" y="48" fill="#010101" font-family="'MyriadPro-Regular'" font-size="8">Avoid NG.</tspan><tspan x="0" y="57.6" fill="#010101" font-family="'MyriadPro-Regular'" font-size="8">Antibiotics as required.</tspan><tspan x="0" y="67.2" fill="#010101" font-family="'MyriadPro-Regular'" font-size="8">No need for repeat OGD.</tspan></text>
<rect x="467.663" y="117.332" fill="none" width="105.837" height="43.668"/>
<text transform="matrix(1 0 0 1 467.6631 127.2715)"><tspan x="0" y="0" fill="#ED1C24" font-family="'MyriadPro-BoldIt'" font-size="14">Prognosis</tspan><tspan x="59.71" y="0" fill="#010101" font-family="'MyriadPro-BoldIt'" font-size="8"> </tspan><tspan x="0" y="9.601" fill="#010101" font-family="'MyriadPro-Regular'" font-size="8">Death is from underlying </tspan><tspan x="0" y="19.2" fill="#010101" font-family="'MyriadPro-Regular'" font-size="8">illness, not black oesophagus </tspan><tspan x="0" y="28.801" fill="#010101" font-family="'MyriadPro-Regular'" font-size="8">(mortality 20-35%).</tspan></text>
<g>
	<g>
		<g>
			<polygon points="430.329,128.663 400.903,115.573 412.857,126.144 336.996,128.663 412.857,131.183 400.903,141.755 			"/>
		</g>
	</g>
</g>
<line fill="none" stroke="#000000" stroke-miterlimit="10" x1="445.671" y1="96.333" x2="445.671" y2="175.664"/>
<line fill="none" stroke="#000000" stroke-miterlimit="10" x1="423.1" y1="111.673" x2="469.996" y2="111.673"/>
<rect x="360.324" y="186.996" fill="none" stroke="#000000" stroke-miterlimit="10" width="127.176" height="85.004"/>
<rect x="481.442" y="41.398" fill="none" stroke="#000000" stroke-miterlimit="10" width="108.058" height="48.602"/>
<rect x="383.276" y="43.665" fill="none" width="96.333" height="48.305"/>
<text transform="matrix(1 0 0 1 383.2764 53.6045)"><tspan x="0" y="0" fill="#ED1C24" font-family="'MyriadPro-BoldIt'" font-size="14">Epidemiology</tspan><tspan x="83.146" y="0" fill="#ED1C24" font-family="'MyriadPro-Regular'" font-size="14"> </tspan><tspan x="0" y="9.6" fill="#010101" font-family="'MyriadPro-Regular'" font-size="8">Incidence is 1: 10,000. </tspan><tspan x="0" y="19.2" fill="#010101" font-family="'MyriadPro-Regular'" font-size="8">It is more common in men. </tspan></text>
<rect x="64.329" y="5.332" fill="none" width="496.666" height="26"/>
<text transform="matrix(1 0 0 1 64.3291 22.3716)" fill="#010101" font-family="'MyriadPro-BoldIt'" font-size="24">Acute esophageal necrosis (black oesophagus)</text>
<rect x="272.814" y="42.332" fill="none" stroke="#000000" stroke-miterlimit="10" width="105.791" height="48.668"/>
<rect x="381.276" y="41.332" fill="none" stroke="#000000" stroke-miterlimit="10" width="98.333" height="50.638"/>
<rect x="14.623" y="43.99" fill="none" width="217.04" height="85.277"/>
<text transform="matrix(1 0 0 1 14.623 53.9302)"><tspan x="0" y="0" fill="#ED1C24" font-family="'MyriadPro-BoldIt'" font-size="14">Differential diagnoses of blackened </tspan><tspan x="0" y="16.8" fill="#ED1C24" font-family="'MyriadPro-BoldIt'" font-size="14">oesophagus:</tspan><tspan x="0" y="26.4" fill="#010101" font-family="'MyriadPro-Regular'" font-size="8">Melanosis.</tspan><tspan x="0" y="36" fill="#010101" font-family="'MyriadPro-Regular'" font-size="8">Pseudomelanosis.</tspan><tspan x="0" y="45.6" fill="#010101" font-family="'MyriadPro-Regular'" font-size="8">Melanoma.</tspan><tspan x="0" y="55.2" fill="#010101" font-family="'MyriadPro-Regular'" font-size="8">Acanthosis nigricans.</tspan><tspan x="0" y="64.8" fill="#010101" font-family="'MyriadPro-Regular'" font-size="8">Coal dust and exogenous dye ingestion.</tspan><tspan x="0" y="74.4" fill="#010101" font-family="'MyriadPro-Regular'" font-size="8">Pseudomembranous oesophagitis.</tspan></text>
<rect x="12.353" y="38.665" fill="none" stroke="#000000" stroke-miterlimit="10" width="234.643" height="93.335"/>
<line fill="none" stroke="#000000" stroke-miterlimit="10" x1="12.353" y1="371.998" x2="587.02" y2="371.998"/>
<rect x="12.353" y="134.999" fill="none" stroke="#000000" stroke-miterlimit="10" width="240.472" height="212.501"/>
<rect fill="none" stroke="#010101" stroke-width="3" width="595.28" height="841.89"/>
<rect x="332.467" y="414.534" fill="none" width="118.333" height="16.333"/>
<text transform="matrix(1 0 0 1 332.4668 423.0527)" font-family="'MyriadPro-Regular'" font-size="12">Free perforation on CT</text>
<rect x="286.8" y="455.199" fill="none" width="46.666" height="35.541"/>
<text transform="matrix(1 0 0 1 286.7998 463.7188)"><tspan x="0" y="0" font-family="'MyriadPro-Regular'" font-size="12">Early </tspan><tspan x="0" y="14.4" font-family="'MyriadPro-Regular'" font-size="12">(&lt;24hrs)</tspan></text>
<rect x="452.467" y="453.574" fill="none" width="25.333" height="18.102"/>
<text transform="matrix(1 0 0 1 452.4668 462.0938)" font-family="'MyriadPro-Regular'" font-size="12">Late</text>
<rect x="274.133" y="517.533" fill="none" width="71.667" height="57.334"/>
<text transform="matrix(1 0 0 1 274.1328 526.0527)"><tspan x="0" y="0" font-family="'MyriadPro-Regular'" font-size="12">Healthy </tspan><tspan x="0" y="14.4" font-family="'MyriadPro-Regular'" font-size="12">oesophagus- </tspan><tspan x="0" y="28.801" font-family="'MyriadPro-Regular'" font-size="12">primary </tspan><tspan x="0" y="43.201" font-family="'MyriadPro-Regular'" font-size="12">closure</tspan></text>
<rect x="345.133" y="517.533" fill="none" width="67.666" height="41.666"/>
<text transform="matrix(1 0 0 1 345.1328 526.0527)"><tspan x="0" y="0" font-family="'MyriadPro-Regular'" font-size="12">Diseased </tspan><tspan x="0" y="14.4" font-family="'MyriadPro-Regular'" font-size="12">oesophagus- </tspan><tspan x="0" y="28.801" font-family="'MyriadPro-Regular'" font-size="12">resection</tspan></text>
<rect x="440.133" y="517.533" fill="none" width="111.666" height="30.666"/>
<text transform="matrix(1 0 0 1 440.1328 526.0527)"><tspan x="0" y="0" font-family="'MyriadPro-Regular'" font-size="12">Diversion and delayed </tspan><tspan x="0" y="14.4" font-family="'MyriadPro-Regular'" font-size="12">reconstruction</tspan></text>
<g>
	<g>
		<g>
			<path d="M323.133,449.533c1.134-1.648,2.846-2.744,4.537-3.227c1.679-0.469,3.394-0.516,5.127-0.426
				c3.467,0.207,7.013,1.016,10.563,2.025c-3.496-2.459-7.163-4.74-11.342-6.334c3.652-2.451,7.981-4.264,12.378-5.789
				c4.42-1.516,8.986-2.734,13.599-3.781c9.237-2.066,18.659-3.529,28.138-4.469c-9.531,0.102-19.073,0.727-28.585,1.99
				c-4.754,0.645-9.502,1.469-14.219,2.635c-4.709,1.193-9.418,2.643-13.937,5.113c0.954-4.711,2.813-9.408,4.942-13.943
				c-3.362,3.572-6.628,7.424-9.186,11.928c-1.256,2.246-2.33,4.697-2.802,7.242C321.888,445.004,322.144,447.471,323.133,449.533z"
				/>
		</g>
	</g>
</g>
<g>
	<g>
		<g>
			<path d="M448.784,448.961c0.989-2.063,1.244-4.527,0.785-7.035c-0.472-2.545-1.546-4.996-2.802-7.24
				c-2.559-4.506-5.824-8.355-9.187-11.928c2.13,4.533,3.989,9.23,4.943,13.941c-4.519-2.471-9.228-3.922-13.937-5.113
				c-4.718-1.166-9.465-1.99-14.22-2.637c-9.512-1.262-19.054-1.887-28.585-1.988c9.479,0.938,18.901,2.4,28.138,4.469
				c4.613,1.045,9.179,2.264,13.599,3.781c4.397,1.525,8.727,3.336,12.379,5.789c-4.18,1.594-7.847,3.875-11.343,6.334
				c3.55-1.01,7.096-1.818,10.563-2.025c1.734-0.09,3.449-0.041,5.128,0.426C445.938,446.217,447.65,447.313,448.784,448.961z"/>
		</g>
	</g>
</g>
<g>
	<g>
		<g>
			<path d="M300.8,508.199c3.644-3.811,7.889-6.789,12.375-7.873c-3.564,0.299-7.111,1.174-10.57,2.475
				c-0.613-3.488-0.549-7.125,0.637-10.555c1.179-3.4,3.471-6.615,6.725-8.713c-3.643,1.348-6.835,4.113-8.994,7.619
				c-2.177,3.521-3.22,7.75-3.398,11.922c-3.587-1.121-7.135-2.678-10.5-4.795C291.089,503.152,295.939,506.174,300.8,508.199z"/>
		</g>
	</g>
</g>
<g>
	<g>
		<g>
			<path d="M350.467,504.533c3.367-4.146,5.737-9.723,6.518-16.033c-1.736,3.59-3.871,6.873-6.339,9.74
				c-2.423-3.688-5.648-6.652-9.186-8.846c-3.544-2.189-7.384-3.742-11.328-4.529c7.308,3.209,13.445,8.939,16.062,15.734
				c-3.648,0.646-7.119,1.789-10.346,3.35C340.297,502.633,345.413,502.717,350.467,504.533z"/>
		</g>
	</g>
</g>
<g>
	<g>
		<g>
			<polygon points="465.135,505.867 478.225,494.727 467.654,499.252 465.135,470.533 462.615,499.252 452.043,494.727 			"/>
		</g>
	</g>
</g>
<rect x="17" y="198" fill="none" width="233" height="144"/>
<text transform="matrix(1 0 0 1 17 207.9399)"><tspan x="0" y="0" fill="#ED1C24" font-family="'MyriadPro-BoldIt'" font-size="14">Causes</tspan><tspan x="42.419" y="0" fill="#010101" font-family="'MyriadPro-Regular'" font-size="8"> </tspan><tspan x="44.115" y="0" fill="#ED1C24" font-family="'MyriadPro-BoldIt'" font-size="14"> of acute oesophageal necrosis:</tspan><tspan x="0" y="19.2" fill="#010101" font-family="'MyriadPro-Regular'" font-size="8">Broad spectrum antibiotics.</tspan><tspan x="0" y="28.8" fill="#010101" font-family="'MyriadPro-Regular'" font-size="8">Hyperglycemia.</tspan><tspan x="0" y="38.4" fill="#010101" font-family="'MyriadPro-Regular'" font-size="8">Underlying malignancy.</tspan><tspan x="0" y="48" fill="#010101" font-family="'MyriadPro-Regular'" font-size="8">Herpetic infection.</tspan><tspan x="0" y="57.6" fill="#010101" font-family="'MyriadPro-Regular'" font-size="8">Gastric volvulus.</tspan><tspan x="0" y="67.2" fill="#010101" font-family="'MyriadPro-Regular'" font-size="8">Stevens-Johnson syndrome.</tspan><tspan x="0" y="76.8" fill="#010101" font-family="'MyriadPro-Regular'" font-size="8">After prolonged vomiting following alcohol binging.</tspan><tspan x="0" y="86.4" fill="#010101" font-family="'MyriadPro-Regular'" font-size="8">Alcoholic lactic acidosis.</tspan><tspan x="0" y="96" fill="#010101" font-family="'MyriadPro-Regular'" font-size="8">Following OGD and esophageal manometry/pHmetry.</tspan><tspan x="0" y="105.6" fill="#010101" font-family="'MyriadPro-Regular'" font-size="8">Paresophageal hernia.</tspan><tspan x="0" y="115.2" fill="#010101" font-family="'MyriadPro-Regular'" font-size="8">Alcoholic hepatitis.</tspan></text>
<rect x="71.5" y="375" fill="none" width="220.708" height="21.5"/>
<text transform="matrix(0.9972 0 0 1 71.5 392.04)" fill="#010101" font-family="'MyriadPro-BoldIt'" font-size="24">Boerhaave syndrome</text>
<rect x="21.5" y="406.5" fill="none" width="199.5" height="92"/>
<text transform="matrix(0.9972 0 0 1 21.5 416.4399)"><tspan x="0" y="0" fill="#ED1C24" font-family="'MyriadPro-BoldIt'" font-size="14">Features</tspan><tspan x="0" y="9.6" fill="#010101" font-family="'MyriadPro-Regular'" font-size="8">It usually occurs in the distal oesophagus in left postero-</tspan><tspan x="0" y="19.2" fill="#010101" font-family="'MyriadPro-Regular'" font-size="8">lateral aspect.</tspan><tspan x="0" y="28.8" fill="#010101" font-family="'MyriadPro-Regular'" font-size="8">30% get Mackler&apos;s triad (emphysema/vomiting/chest pain).</tspan><tspan x="0" y="38.4" fill="#010101" font-family="'MyriadPro-Regular'" font-size="8">40% are alcoholics.</tspan><tspan x="0" y="48" fill="#010101" font-family="'MyriadPro-Regular'" font-size="8">Gastroduodenal ulcer disease is present in 40%.</tspan><tspan x="0" y="57.6" fill="#010101" font-family="'MyriadPro-Regular'" font-size="8">Pain occurs in 83%.</tspan><tspan x="0" y="67.2" fill="#010101" font-family="'MyriadPro-Regular'" font-size="8">Vomiting is a presentation in 79%.</tspan><tspan x="0" y="76.8" fill="#010101" font-family="'MyriadPro-Regular'" font-size="8">The initial CXR is always abnormal in Boerhaave’s.</tspan></text>
<rect x="24.5" y="526" fill="none" width="126.5" height="52"/>
<text transform="matrix(0.9972 0 0 1 24.5 535.9395)" fill="#ED1C24" font-family="'MyriadPro-BoldIt'" font-size="14">Treatment</text>
<text transform="matrix(1 0 0 1 24.5 545.54)" fill="#010101" font-family="'MyriadPro-Regular'" font-size="8">Endoclips.</text>
<text transform="matrix(1 0 0 1 24.5 555.1396)" fill="#010101" font-family="'MyriadPro-Regular'" font-size="8">Covered, self-expanding metal stent.</text>
<text transform="matrix(1 0 0 1 24.5 564.7402)" fill="#010101" font-family="'MyriadPro-Regular'" font-size="8">Fibrin sealant.</text>
<text transform="matrix(1 0 0 1 24.5 574.3398)" fill="#010101" font-family="'MyriadPro-Regular'" font-size="8">Endoclips.</text>
<a xlink:href="http://www.gastroenterologybook.com/" >
	<rect x="434.753" y="799.744" fill="none" width="144.773" height="11.333"/>
	<text transform="matrix(1 0 0 1 434.7529 808.2637)" fill="#00A651" font-family="'MyriadPro-Regular'" font-size="12">Written by Dr Sebastian Zeki</text>
</a>
</svg>
